<svg xmlns="http://www.w3.org/2000/svg" width="28" height="20" viewBox="0 0 28 20">
  <g fill="none" fill-rule="evenodd">
    <rect width="14" height="20" x="14" fill="#FFF"/>
    <rect width="14.667" height="20" fill="#048345"/>
    <polygon fill="#E81B42" points="17.333 11.04 15.766 12.157 16.344 10.321 14.797 9.176 16.722 9.159 17.333 7.333 17.945 9.159 19.869 9.176 18.322 10.321 18.901 12.157"/>
    <path fill="#E81B42" d="M17.6800003,5.61866715 C16.9708741,5.28112473 16.1687578,5.09090909 15.3193274,5.09090909 C12.4319325,5.09090909 10.0912364,7.28878396 10.0912364,10 C10.0912364,12.711216 12.4319325,14.9090909 15.3193274,14.9090909 C16.1687578,14.9090909 16.9708741,14.7188753 17.6800003,14.3813329 C16.6519042,15.3853259 15.2702044,16 13.7509001,16 C10.5747657,16 8,13.3137085 8,10 C8,6.6862915 10.5747657,4 13.7509001,4 C15.2702044,4 16.6519042,4.61467411 17.6800003,5.61866715 Z"/>
  </g>
</svg>
