<?xml version="1.0"?>
<svg xmlns="http://www.w3.org/2000/svg" xmlns:xlink="http://www.w3.org/1999/xlink" xmlns:svgjs="http://svgjs.com/svgjs" version="1.1" width="512" height="512" x="0" y="0" viewBox="0 0 511.999 511.999" style="enable-background:new 0 0 512 512" xml:space="preserve"><g>
<g xmlns="http://www.w3.org/2000/svg">
	<g>
		<path d="M511.84,112.407c-1.24-18.659-9.676-35.721-23.75-48.04c-14.075-12.319-32.086-18.424-50.763-17.179    c-32.29,2.147-58.058,25.986-64.047,56.331c-0.451-0.183-0.905-0.36-1.366-0.524L227.908,51.638    c-8.274-2.955-17.206-2.511-25.149,1.255c-7.941,3.766-13.94,10.397-16.889,18.675c-4.656,13.068-0.572,27.745,10.163,36.523    c2.918,2.384,6.211,4.239,9.775,5.506l109.153,38.931c-15.744,36.233-36.463,68.727-61.714,96.693    c-13.939,15.459-29.493,29.795-46.235,42.605c-4.403,3.368-5.241,9.67-1.871,14.074c1.977,2.582,4.96,3.939,7.979,3.939    c2.128,0,4.274-0.675,6.094-2.068c12.102-9.26,23.603-19.292,34.392-29.927c3.718,8.184,10.689,14.584,19.257,17.543    c-55.123,54.816-127.31,92.997-214.926,113.579c-0.984,0.231-1.981,0.348-2.959,0.348c-5.965,0-11.087-4.068-12.453-9.892    c-1.441-6.142,1.882-12.523,7.735-14.842c0.595-0.236,1.203-0.429,1.814-0.571c15.974-3.753,31.595-8.187,46.421-13.178    c25.719-8.645,50.116-19.293,72.515-31.649c4.855-2.677,6.62-8.784,3.941-13.639c-2.677-4.855-8.784-6.618-13.639-3.941    c-18.47,10.188-38.397,19.161-59.355,26.749l-4.442-15.392l15.495-4.474c5.328-1.538,8.399-7.103,6.861-12.43    c-1.538-5.328-7.107-8.4-12.43-6.861l-73.877,21.328c-0.008,0.002-0.015,0.003-0.023,0.005c-0.008,0.002-0.015,0.005-0.022,0.008    l-26.261,7.582c-5.327,1.538-8.398,7.103-6.86,12.431c1.27,4.396,5.283,7.256,9.641,7.256c0.923,0,1.86-0.128,2.79-0.398    l16.636-4.803l5.209,18.05c-9.767,7.745-14.653,20.743-11.697,33.352c3.506,14.946,16.666,25.385,32.001,25.385    c2.519,0,5.056-0.295,7.547-0.878c97.765-22.969,177.29-67.154,236.473-131.329h58.853l-42.91,84.397    c-5.146,10.122-4.654,22.425,1.285,32.106c6.027,9.826,16.506,15.693,28.034,15.693h1.929v15.511h-16.133    c-5.544,0-10.039,4.496-10.039,10.039s4.496,10.039,10.039,10.039h104.278c5.544,0,10.039-4.496,10.039-10.039    s-4.496-10.039-10.039-10.039h-17.318v-15.987c15.51-2.643,27.357-16.167,27.357-32.413c0-18.14-14.759-32.899-32.9-32.899    h-13.589l42.92-84.402c5.141-10.125,4.648-22.425-1.286-32.102c-5.936-9.681-16.682-15.694-28.045-15.694h-63.288    c11.456-19.177,25.506-45.465,37.641-72.491c2.927,3.911,6.273,7.553,10.035,10.846c12.877,11.272,29.063,17.338,46.015,17.338    c1.576,0,3.159-0.053,4.748-0.159c18.664-1.241,35.727-9.677,48.044-23.753C506.984,149.102,513.083,131.072,511.84,112.407z     M78.223,338.528l4.69,16.248c-9.594,3.008-19.476,5.778-29.541,8.266l-4.62-16.006L78.223,338.528z M396.936,444.892h-30.67    v-15.511h30.67V444.892z M372.982,138.115c-16.242,38.59-37.921,77.651-51.25,97.705c-0.002,0.003-0.005,0.007-0.007,0.011    c-0.01,0.015-0.021,0.032-0.031,0.047c-0.04,0.06-0.07,0.123-0.109,0.184c-0.136,0.216-0.271,0.433-0.392,0.659    c-0.056,0.104-0.101,0.213-0.154,0.318c-0.092,0.189-0.186,0.377-0.266,0.573c-0.057,0.138-0.102,0.277-0.153,0.417    c-0.061,0.168-0.124,0.334-0.177,0.506c-0.051,0.17-0.089,0.34-0.132,0.512c-0.036,0.146-0.076,0.289-0.105,0.438    c-0.041,0.208-0.067,0.416-0.095,0.624c-0.015,0.117-0.037,0.232-0.048,0.35c-0.025,0.255-0.033,0.509-0.039,0.764    c-0.001,0.072-0.011,0.143-0.011,0.215c0,0.008,0.001,0.015,0.001,0.015c0.001,0.285,0.018,0.561,0.042,0.836    c0.056,0.664,0.177,1.308,0.355,1.929c0.013,0.047,0.022,0.095,0.036,0.142c0.069,0.228,0.154,0.45,0.238,0.67    c0.032,0.084,0.058,0.171,0.093,0.254c0.074,0.18,0.162,0.351,0.246,0.526c0.059,0.122,0.113,0.248,0.178,0.367    c0.069,0.129,0.149,0.252,0.224,0.377c0.093,0.158,0.183,0.317,0.285,0.471c0.056,0.084,0.12,0.163,0.18,0.245    c0.132,0.184,0.261,0.367,0.406,0.543c0.042,0.051,0.089,0.096,0.132,0.147c0.168,0.196,0.337,0.391,0.522,0.574    c0.03,0.029,0.063,0.055,0.092,0.084c0.236,0.229,0.483,0.449,0.745,0.657c0.222,0.178,0.449,0.348,0.685,0.507    c0.006,0.004,0.012,0.009,0.018,0.013c0.017,0.011,0.036,0.018,0.053,0.03c0.359,0.237,0.738,0.445,1.127,0.635    c0.083,0.04,0.166,0.082,0.249,0.119c0.396,0.179,0.802,0.337,1.223,0.465c0.067,0.02,0.136,0.033,0.203,0.052    c0.346,0.096,0.701,0.174,1.061,0.233c0.122,0.02,0.244,0.04,0.366,0.056c0.394,0.05,0.793,0.083,1.2,0.086    c0.022,0,0.044,0.005,0.067,0.005c0.005,0,0.011-0.001,0.016-0.001h81.41c4.428,0,8.616,2.342,10.929,6.112    c2.313,3.772,2.504,8.566,0.502,12.508l-50.337,98.988c-1.582,3.113-1.435,6.824,0.392,9.8c1.826,2.977,5.067,4.79,8.557,4.79    h29.957c7.07,0,12.821,5.752,12.821,12.82c0,7.064-5.752,12.81-12.821,12.81h-67.213c-4.49,0-8.57-2.284-10.918-6.112    c-2.35-3.83-2.538-8.506-0.503-12.508l50.328-98.988c1.582-3.113,1.435-6.824-0.392-9.799c-1.825-2.977-5.067-4.79-8.557-4.79    h-90.645c-7.07,0-12.821-5.746-12.821-12.81v-4.571h0.004c27.846-31.534,50.35-68.289,66.888-109.339    c0.02-0.049,0.032-0.099,0.051-0.149c0.03-0.077,0.064-0.152,0.092-0.231c0.034-0.096,0.056-0.195,0.087-0.292    c0.054-0.169,0.107-0.336,0.153-0.506c0.042-0.157,0.077-0.314,0.111-0.471c0.037-0.171,0.072-0.341,0.099-0.513    c0.026-0.16,0.045-0.319,0.063-0.479c0.019-0.168,0.036-0.335,0.046-0.503c0.01-0.164,0.014-0.326,0.016-0.49    c0.002-0.163,0.002-0.324-0.004-0.486c-0.006-0.167-0.019-0.332-0.033-0.497c-0.014-0.157-0.029-0.313-0.05-0.469    c-0.022-0.167-0.051-0.33-0.081-0.495c-0.028-0.153-0.058-0.304-0.094-0.456c-0.038-0.163-0.082-0.323-0.128-0.484    c-0.043-0.15-0.087-0.298-0.138-0.446c-0.052-0.156-0.11-0.309-0.171-0.462c-0.058-0.147-0.117-0.293-0.182-0.437    c-0.066-0.148-0.138-0.292-0.211-0.437c-0.072-0.144-0.147-0.285-0.227-0.425c-0.079-0.138-0.162-0.273-0.247-0.408    c-0.087-0.139-0.177-0.275-0.272-0.409c-0.091-0.129-0.186-0.254-0.283-0.378c-0.101-0.131-0.204-0.259-0.312-0.383    c-0.104-0.12-0.212-0.238-0.322-0.353c-0.112-0.118-0.227-0.236-0.345-0.35c-0.118-0.113-0.241-0.221-0.364-0.328    c-0.122-0.105-0.246-0.21-0.373-0.31c-0.134-0.104-0.271-0.204-0.41-0.302c-0.13-0.091-0.261-0.182-0.397-0.268    c-0.148-0.094-0.3-0.182-0.454-0.269c-0.139-0.078-0.278-0.156-0.423-0.227c-0.158-0.079-0.32-0.153-0.484-0.224    c-0.093-0.041-0.18-0.089-0.274-0.127c-0.063-0.025-0.126-0.042-0.19-0.065c-0.064-0.024-0.125-0.055-0.19-0.078l-119.156-42.5    c-1.397-0.497-2.678-1.217-3.805-2.137c-4.182-3.419-5.772-9.141-3.956-14.238c1.148-3.223,3.485-5.805,6.578-7.27    c3.093-1.468,6.572-1.641,9.797-0.488l144.018,51.363c3.225,1.148,5.807,3.482,7.271,6.572    C373.891,131.522,374.074,134.935,372.982,138.115z M479.558,149.955c-8.785,10.039-20.955,16.056-34.268,16.942    c-13.312,0.868-26.165-3.467-36.205-12.254c-8.196-7.174-13.708-16.602-15.937-27.063c-0.002-0.009-0.003-0.018-0.005-0.027    c-0.499-2.344-0.836-4.74-0.998-7.174c-1.828-27.484,19.038-51.329,46.517-53.157c1.131-0.074,2.26-0.112,3.384-0.112    c12.09,0,23.635,4.328,32.82,12.366c10.039,8.787,16.056,20.956,16.941,34.265C492.694,127.056,488.342,139.916,479.558,149.955z" data-original="#000000" style=""/>
	</g>
</g>
<g xmlns="http://www.w3.org/2000/svg">
	<g>
		<path d="M193.088,305.194c-12.92,0-12.941,20.079,0,20.079C206.008,325.273,206.029,305.194,193.088,305.194z" data-original="#000000" style=""/>
	</g>
</g>
<g xmlns="http://www.w3.org/2000/svg">
</g>
<g xmlns="http://www.w3.org/2000/svg">
</g>
<g xmlns="http://www.w3.org/2000/svg">
</g>
<g xmlns="http://www.w3.org/2000/svg">
</g>
<g xmlns="http://www.w3.org/2000/svg">
</g>
<g xmlns="http://www.w3.org/2000/svg">
</g>
<g xmlns="http://www.w3.org/2000/svg">
</g>
<g xmlns="http://www.w3.org/2000/svg">
</g>
<g xmlns="http://www.w3.org/2000/svg">
</g>
<g xmlns="http://www.w3.org/2000/svg">
</g>
<g xmlns="http://www.w3.org/2000/svg">
</g>
<g xmlns="http://www.w3.org/2000/svg">
</g>
<g xmlns="http://www.w3.org/2000/svg">
</g>
<g xmlns="http://www.w3.org/2000/svg">
</g>
<g xmlns="http://www.w3.org/2000/svg">
</g>
</g></svg>
