<svg xmlns="http://www.w3.org/2000/svg" width="28" height="20" viewBox="0 0 28 20">
  <g fill="none" fill-rule="evenodd">
    <rect width="28" height="20" fill="#1537D1"/>
    <rect width="14.667" height="20" x="13.333" fill="#EA3058"/>
    <rect width="9.333" height="20" x="9.333" fill="#FFCF3C"/>
    <polygon fill="#FFEDB1" points="12.667 8.667 14 8.667 14 9.333 12.667 9.333"/>
    <path stroke="#D32E28" stroke-width=".667" d="M12.3872251,8.63283682 L12.5545201,10.6403761 C12.60174,11.2070148 13.1027672,11.6666667 13.669921,11.6666667 L14.330079,11.6666667 C14.8964309,11.6666667 15.3984979,11.2041608 15.4454799,10.6403761 L15.6127749,8.63283682 C15.627384,8.45752745 15.5124844,8.33333333 15.3394814,8.33333333 L12.6605186,8.33333333 C12.4938221,8.33333333 12.3731733,8.46421469 12.3872251,8.63283682 Z"/>
    <polygon fill="#D32E28" points="12.667 9.333 15.333 9.333 15.333 10 14.667 10 13.333 10 12.667 10"/>
  </g>
</svg>
