<svg xmlns="http://www.w3.org/2000/svg" xmlns:xlink="http://www.w3.org/1999/xlink" width="17" height="17"><defs><linearGradient x1="50%" y1="0%" x2="50%" y2="199.07456%" id="A"><stop stop-color="#dd8d19" offset="0%"/><stop stop-color="#f0c136" offset="100%"/></linearGradient><path id="B" d="M.015 0h6.892v9.937H.015z"/><linearGradient x1="50%" y1="0%" x2="50%" y2="100%" id="C"><stop stop-color="#fdd65d" offset="0%"/><stop stop-color="#f9ac30" offset="100%"/></linearGradient><path id="D" d="M.015 0h3.213v8.5H.015z"/><linearGradient x1="50%" y1="0%" x2="50%" y2="100%" id="E"><stop stop-color="#dd8d19" offset="0%"/><stop stop-color="#f0c136" offset="100%"/></linearGradient><path id="F" d="M.01.022h2.166v1.44H.01z"/></defs><g fill-rule="evenodd"><g fill-rule="nonzero"><circle cx="5.762" cy="10.762" r="5.762"/><path d="M6.462 9.33c1.453-.463 3.13-.575 3.13-.575s1.022-.287-.255-.192-2.953.56-2.953.56-1.34.67.08.208zM2.488 9.22s-.782-.287-1.74-.223c-.16.064-.016.176-.016.176s1.548.064 1.756.383c.223.27 0-.335 0-.335zm2.09-1.47c-.016-.192.048-1.532.383-2.06.335-.495-.176-.064-.176-.064s-.463.846-.383 2.14c.192.16.176.176.176-.016zm-1.516 3.88s-.59 1.133-.575 2.378c.096.43.192.048.192.048s.032-1.293.59-2.3c.527-.9-.208-.128-.208-.128zm2.84-.032c-.56-1.1-.255.064-.255.064s.894 1.548 2.22 2.187c.255-.032.16-.128.16-.128s-1.58-1.022-2.123-2.123zm4.326-1.277c.096.4-.24 2.107-.782 2.746.16.08.16.096.16.096s.814-1.054.814-2.666c-.032-.607-.208-.223-.192-.176zm-3.16 5.14s-1.676.255-2.92-.144c-.16.064-.096.176-.096.176s1.548.48 3.208.064c.56-.223-.192-.096-.192-.096zm-6.704-5.3s-.032-.287-.096.16c-.112 2.3 1.07 3.368 1.07 3.368s.335.208.208-.032C.285 12.587.365 10.16.365 10.16zM9 7.288s.56.447.16-.064c-.862-1.39-2.075-1.852-2.203-1.868-.144-.032-.56-.064-.4.032C8.09 5.724 9 7.288 9 7.288z"/><path d="M8.793 8.852c-.192.016-1.325.208-1.884.383-.096.032-.128.08-.192.27L6.03 11.63c-.048.16.032.08.08-.048l.734-2.01c.08-.192.223-.24.56-.303l1.373-.303c.128-.032.128-.128.016-.112z"/><path d="M6.826 8.948C6.258 8.47 4.895 7.75 4.7 7.67c-.146-.048-.162-.08-.308 0-.795.35-1.898 1.245-2.06 1.39-.162.16-.146.096-.097.335.146.814.65 2.027.746 2.22s.097.223.26.24c.292.032 2.255.064 2.53.032s.227-.048.292-.223c.08-.287.78-2.283.827-2.394s.08-.176-.065-.32zM4.36 15.365c-.795-.43-1.574-1.405-1.622-1.485s-.08-.128-.292-.16c-.195-.016-.925-.176-1.006-.192-.08-.032-.162-.16-.178.08-.016.128.016.303.05.463.454.718 1.493 1.5 2.255 1.74.39-.032.65-.192.746-.27.13-.064.178-.096.05-.176zM1.196 7.48C.58 8.134.076 9.555.157 10.64c.097-.032.195-.016.195-.096.032-.43.438-1.197.52-1.325s.08-.144.08-.24c-.016-.287.26-1.357.308-1.485.032-.032 0-.032-.065-.016zm8.518 5.41c-.243.176-1.395.638-1.655.686-.227.048-.227.016-.292.27-.162.575-.633 1.405-.78 1.532-.13.144-.146.192-.065.255.065.064.292.223.68.255.08 0 .195 0 .308-.016.81-.223 1.817-1 2.223-1.58.065-.56-.13-1.197-.195-1.293-.032-.128-.065-.192-.227-.112zM4.75 5.883c.178.016.162-.032.422-.096.243-.048.957-.287 1.785-.303.178-.016.243-.048 0-.223-.195-.096-.78-.16-1.152-.16-1.038 0-2.27.4-2.79.782.162-.016 1.233-.08 1.736 0zm5.29 1.1c-.146.064-.65.08-.795.08s-.195.016-.195.16-.08 1.23-.097 1.357c-.032.144.016.192.162.35.162.16 1.07 1.373 1.233 1.596.162.208.178.16.276.08s.584-.367.844-.35h.016c.016-1.1-.65-2.522-1.444-3.272z"/></g><g transform="translate(6)"><path d="M10.097 3.454c-.268.577-.894.967-1.372 1.192a5.55 5.55 0 0 1-.544.221H2.813a5.57 5.57 0 0 1-.544-.221C1.79 4.42 1.165 4.03.897 3.454.636 2.89.63 2.343.88 1.95c.22-.345.63-.534 1.152-.534h6.932c.523 0 .932.2 1.152.534.25.392.243.94-.018 1.503m.605-1.878C10.35 1.024 9.732.72 8.963.72H2.03c-.77 0-1.386.304-1.738.856-.38.596-.4 1.388-.027 2.17.668 1.44 2.777 1.92 2.866 1.94l.205.045h4.32l.205-.045c.09-.02 2.198-.5 2.866-1.94.364-.783.354-1.575-.026-2.17"/><g transform="translate(2.036 .022)"><mask id="G"><use xlink:href="#B"/></mask><path d="M4.618 6.636c1.334-.784 2.3-2.886 2.3-5.357V0H.015v1.28c0 2.47.955 4.573 2.3 5.357.42.246.67.7.67 1.187l-.001.676H1.797a.68.68 0 0 0-.681.681v.758h4.7V9.18a.68.68 0 0 0-.681-.681H3.948l-.001-.676c-.001-.486.25-.94.67-1.187" stroke="#f9ab05" stroke-width=".5" mask="url(#G)"/><mask id="H"><use xlink:href="#D"/></mask><path d="M3.228 7.823V8.5h-.254v-.676c.001-.486-.25-.94-.67-1.187C.97 5.852.015 3.75.015 1.28V0h1.797v1.28c0 2.47.457 4.573 1.096 5.357.2.246.32.7.32 1.187" mask="url(#H)"/></g><g transform="translate(3.143 8.499)"><mask id="I"><use xlink:href="#F"/></mask><path d="M2.175.022H.7a.68.68 0 0 0-.681.681v.758h1.485V.703a.68.68 0 0 1 .681-.681" mask="url(#I)"/></g></g></g></svg>