<svg height="17" viewBox="0 0 17 17" width="17"
  xmlns="http://www.w3.org/2000/svg">
  <path d="m15.9186323 5.44743946c-.0965112-.25843049-.3005875-.43475785-.5603901-.48354708-.3974799-.07615695-.8743184.15170403-1.2774395.60430045-.3981659.44626905-1.2542646.67733183-1.9259552.70828251-.507713.02279372-.8069282-.07059193-.885982-.14042153l-.3377893-.33260538c.223287-.15970852.3644709-.34632735.4202736-.55711211.0442152-.1667982.0540493-.43155605-.1506368-.74403587-.3353498-.512287-.9423946-.6457713-1.5449417-.3395426l-.45069058.22938565c-.00716592.00335426-.01501794.00411659-.02195516.00800448-.03613453.02004933-3.6370852 2.03062332-4.83691928 2.64125112l-3.23541256 1.57817938c-.65873094.25949775-1.06223318.74129148-1.10682959 1.32173094-.0358296.46494618.17274439.91334978.51861435 1.11559638.71491479.418139 2.18095515.749296 2.77115246.8258341.61344843.0793588 1.17734529.1103094 1.70754709.1103094.96320627 0 1.81503587-.1022287 2.6483408-.2026278 1.28620628-.1545246 2.50151567-.3005874 4.05141257-.0737175.0059462.0006861.6454664.0860673.7409103.0860673h2.9920762c.6049866 0 1.3581704 0 1.3581704-.9705247 0-.279547-.0368968-.4785919-.0734125-.6067399.5170134-1.01916141.1929462-2.11089683-.8001435-4.77806724zm.184713 4.59320184c-.013722.0237085-.0147892.0520672-.0214978.0787488-1.138695-.3226188-2.6564977-.33519727-4.237574-.22214346.4747041-2.24666816 3.3017355-2.74553812 3.9883678-2.83351121.5712152 1.66714349.6376905 2.34478027.270704 2.97690587zm-6.16253813-5.31688345c.18265473-.09308072.52181613-.20087444.73351573.12326906.0625112.09513901.0853049.17518385.0688385.23838116-.0221076.08370404-.1202197.17609866-.2723049.26475785l-.59995515-.59088341zm-.65690134.34053363 1.54745737 1.52367265c.0021346.00205829.0041929.00419282.0063274.00594618.3311569.30935426.9863049.32757399 1.3458968.31110763.7447983-.03407624 1.8115292-.29532736 2.3670404-.9182287.2805381-.31461435.5589417-.42804933.6913587-.40449328.0301884.00556503.061444.01684754.0867534.08492377.1711435.45938117.3175112.86166368.4437534 1.22346637-.7837534.10634529-3.6566772.65720628-4.1149911 3.02073991-1.1855022.09155609-2.39707619.24684309-3.50108516.38947529-.46121076.0596906-.90183856.1159507-1.30778027.1630628-.99423318-1.74955154-1.68063677-2.5886502-2.03420628-2.95632284.26765471-.13912556.60963677-.32193274.98699103-.52593274l.59256054.64455157c.03544843.03826906.08393274.05801345.13234081.05801345.04352915 0 .0870583-.0158565.12189686-.04741704.07303139-.06700897.07760538-.18082511.01052018-.25423767l-.53111659-.5777713c.2561435-.13927802.52113004-.28419731.78672646-.42987892l.60224215.65476682c.03544843.03826905.08393273.05793722.13234081.05793722.04352914 0 .08705829-.01578027.12189686-.04741704.07303139-.06739014.07760538-.18082512.01052018-.25423767l-.54217041-.58951121c.27786996-.15284754.55009866-.30310314.80372646-.4433722l.64836323.70523318c.03544843.03826906.08393273.05793722.13234081.05793722.04352914 0 .08705829-.01578027.12182062-.04741704.07303139-.06700897.07760538-.18082511.01052018-.25423767l-.58913004-.64089237c.39359193-.21810314.71948879-.39946189.9170852-.50946637zm-7.9199417 4.13084753 3.26278026-1.59068161c.00579373-.0029731.01326458-.00686099.01921077-.00991031.32239013.32833632 1.00643049 1.13915246 2.00859193 2.89198201-.16870404.0187534-.33085202.0357534-.48179373.0496279-3.56329148.3269641-4.86291479.1500269-5.3368565-.026453-.11419731-.0702107-.22382063-.2735246-.20483856-.52021521.02607175-.33580718.27817488-.61421076.73290583-.79434978zm14.07013007 1.97832739-2.9833094.0003811c-.0716592-.004269-.5878341-.0695246-.658731-.0800448-1.6335247-.2376951-2.94709864-.080731-4.21752465.0719641-1.25357848.151018-2.54961884.3076009-4.19999103.0926996-.2205426-.0285112-.56404933-.095444-.93583857-.1863902.13256951.0032781.27215247.0051839.42210314.0051839.8185157 0 1.9035426-.0509238 3.34495964-.1829597.56496413-.051991 1.260287-.1414887 1.99662332-.236704 2.53360985-.3271928 5.98659195-.77064124 7.93427355-.1465964.0139507.07913.0263767.1805202.0263767.3211704 0 .2893049 0 .341296-.7289417.341296z"/>
</svg>
