<svg xmlns="http://www.w3.org/2000/svg" xmlns:xlink="http://www.w3.org/1999/xlink" width="28" height="20" viewBox="0 0 28 20">
  <defs>
    <rect id="australia-a" width="12" height="9"/>
    <path id="australia-c" d="M4.66666667,4 L0,0 L0.666666667,0 L5.33333333,3.33333333 L6.66666667,3.33333333 L12,0 L12,0.333333333 C12,0.51742825 11.8846436,0.749064128 11.7220542,0.865199407 L7.33333333,4 L7.33333333,5.33333333 L11.7490997,9.11827596 C11.8876681,9.23704887 11.8453776,9.33333333 11.6666667,9.33333333 L11.6666667,9.33333333 C11.4825718,9.33333333 11.2179769,9.25093587 11.0553875,9.13480059 L6.66666667,6 L5.33333333,6 L0,9.33333333 L0,8.66666667 L4.66666667,5.33333333 L4.66666667,4 Z"/>
  </defs>
  <g fill="none" fill-rule="evenodd">
    <rect width="28" height="20" fill="#0A17A7"/>
    <polygon fill="#FFF" points="6 16.333 4.824 16.951 5.049 15.642 4.098 14.715 5.412 14.524 6 13.333 6.588 14.524 7.902 14.715 6.951 15.642 7.176 16.951"/>
    <polygon fill="#FFF" points="20 17.333 19.057 17.609 19.333 16.667 19.057 15.724 20 16 20.943 15.724 20.667 16.667 20.943 17.609"/>
    <polygon fill="#FFF" points="20 4.667 19.057 4.943 19.333 4 19.057 3.057 20 3.333 20.943 3.057 20.667 4 20.943 4.943"/>
    <polygon fill="#FFF" points="24 8.667 23.057 8.943 23.333 8 23.057 7.057 24 7.333 24.943 7.057 24.667 8 24.943 8.943"/>
    <polygon fill="#FFF" points="16 10 15.057 10.276 15.333 9.333 15.057 8.391 16 8.667 16.943 8.391 16.667 9.333 16.943 10.276"/>
    <polygon fill="#FFF" points="22 11.667 21.529 11.805 21.667 11.333 21.529 10.862 22 11 22.471 10.862 22.333 11.333 22.471 11.805"/>
    <mask id="australia-b" fill="#fff">
      <use xlink:href="#australia-a"/>
    </mask>
    <use fill="#07319C" xlink:href="#australia-a"/>
    <g mask="url(#australia-b)">
      <use fill="#DB1E36" xlink:href="#australia-c"/>
      <path stroke="#FFF" stroke-width=".667" d="M4.33333333,4.15331164 L-0.901085803,-0.333333333 L0.666666667,-0.333333333 L0.860412731,-0.27124449 L5.44015502,3 L6.57106792,3 L12.3333333,-0.601415881 L12.3333333,0.333333333 C12.3333333,0.628978368 12.1628101,0.960008269 11.9158002,1.1364439 L7.66666667,4.1715393 L7.66666667,5.18002169 L11.9660302,8.86519043 C12.3427037,9.18805344 12.1509712,9.66666667 11.6666667,9.66666667 C11.4092185,9.66666667 11.0776031,9.56030345 10.8616414,9.40604508 L6.55984498,6.33333333 L5.42893208,6.33333333 L-0.333333333,9.93474921 L-0.333333333,8.49512737 L4.33333333,5.16179403 L4.33333333,4.15331164 Z"/>
    </g>
    <path fill="#FFF" d="M0,3.33333333 L0,6 L4.66666667,6 L4.66666667,9.33948135 C4.66666667,9.70427573 4.97256724,10 5.33957926,10 L6.66042074,10 C7.0320601,10 7.33333333,9.69934988 7.33333333,9.33948135 L7.33333333,6 L11.9911963,6 C12.3642483,6 12.6666667,5.69409943 12.6666667,5.3270874 L12.6666667,4.00624593 C12.6666667,3.63460657 12.3646425,3.33333333 11.9911963,3.33333333 L7.33333333,3.33333333 L7.33333333,0 L4.66666667,0 L4.66666667,3.33333333 L0,3.33333333 Z" mask="url(#australia-b)"/>
    <polygon fill="#DB1E36" points="0 4 5.333 4 5.333 3.333 5.333 0 6.667 0 6.667 3.333 6.667 4 12 4 12 5.333 6.667 5.333 6.667 6 6.667 9.333 5.333 9.333 5.333 6 5.333 5.333 0 5.333" mask="url(#australia-b)"/>
  </g>
</svg>
