<svg xmlns="http://www.w3.org/2000/svg" width="28" height="20" viewBox="0 0 28 20">
  <g fill="none" fill-rule="evenodd">
    <rect width="28" height="6.667" fill="#24AAD5"/>
    <rect width="28" height="6.667" y="13.333" fill="#21BF75"/>
    <rect width="28" height="6.667" y="6.667" fill="#ED1845"/>
    <path fill="#FFF" d="M15.1114252,8.33699899 C15.0745975,8.33456805 15.037443,8.33333333 15,8.33333333 C14.0795254,8.33333333 13.3333333,9.07952542 13.3333333,10 C13.3333333,10.9204746 14.0795254,11.6666667 15,11.6666667 C15.037443,11.6666667 15.0745975,11.6654319 15.1114252,11.663001 C14.7935634,11.8758579 14.4112792,12 14,12 C12.8954305,12 12,11.1045695 12,10 C12,8.8954305 12.8954305,8 14,8 C14.4112792,8 14.7935634,8.12414214 15.1114252,8.33699899 Z M15.3333333,10.6666667 C14.9651435,10.6666667 14.6666667,10.3681898 14.6666667,10 C14.6666667,9.63181017 14.9651435,9.33333333 15.3333333,9.33333333 C15.7015232,9.33333333 16,9.63181017 16,10 C16,10.3681898 15.7015232,10.6666667 15.3333333,10.6666667 Z"/>
  </g>
</svg>
