<svg height="17" viewBox="0 0 17 17" width="17" xmlns="http://www.w3.org/2000/svg"><g fill-rule="evenodd"><path d="m2.89027273 16.897c-.74054546 0-1.48109091-.2818182-2.04472727-.8456364-1.12736364-1.1274545-1.12736364-2.9618181 0-4.0892727l1.63599999-1.636 4.08927273 4.0892727-1.636 1.636c-.56363636.5638182-1.30418182.8456364-2.04454545.8456364zm-.40872728-5.5992727-1.15027272 1.1502727c-.85954546.8595455-.85954546 2.2580909 0 3.1177273.85963636.8595454 2.25809091.86 3.11772727 0l1.15027273-1.1502728z" fill-rule="nonzero"/><path d="m5.08645455 15.5121818c-.02509091 0-.05018182-.0096363-.06945455-.0288182l-3.60327273-3.6034545c-.03836363-.0383636-.03836363-.1004546 0-.1388182.03836364-.0383636.10045455-.0383636.13881818 0l3.60327273 3.6034546c.03836364.0383636.03836364.1004545 0 .1388181-.01918182.0191819-.04427273.0288182-.06936363.0288182zm1.16863636-.9232727c-.13690909 0-.26627273-.0822727-.31954546-.217-.06972727-.1765455.01645455-.3760909.19281819-.4459091l10.35209086-4.09845455c.1767273-.07072727.376091.01663637.4459091.19281815.0698182.1765455-.0164545.3760909-.1928181.4459091l-10.35209095 4.0984546c-.04163637.0165454-.08436364.0241818-.12636364.0241818zm-3.54981818-3.5496364c-.04218182 0-.085-.0076363-.12654546-.0241818-.17636363-.0698182-.26263636-.2693636-.19281818-.4459091l4.09845455-10.35209089c.06981818-.17636364.26936363-.26281818.44590909-.19281818.17636363.06981818.26263636.26936363.19281818.44590909l-4.09845455 10.35209088c-.05327272.1347273-.18263636.217-.31936363.217z"/><path d="m16.6068182 10.4904545c-.0435455 0-.0876364-.0082727-.1303637-.025909l-1.868-.76763641-.7131818-1.73527273-1.7345454-.71236363-.7126364-1.73490909-1.73454545-.71218182-.712-1.73418182-1.73418181-.712-.76636364-1.867c-.07209091-.17545455.01190909-.37609091.18754545-.44818182.17572728-.07172727.3759091.01209091.44818182.18754546l.65718182 1.60127272 1.73418182.712.71199999 1.73418182 1.7345455.71218182.7126363 1.73490909 1.7345455.71236364.7131818 1.73527272 1.6027273.65872728c.1755454.072.2593636.27281817.1870909.44818177-.0546364.1328182-.1829091.213-.318.213zm-7.26954547 2.7532728c-.014 0-.02818182-.0015455-.04236364-.0046364l-1.11127273-.2442727c-.07481818-.0164546-.13309091-.0747273-.14954545-.1495455l-.21718182-.9886363-.98809091-.2168182c-.07490909-.0162727-.13327273-.0748182-.14972727-.1495455l-.21718182-.9884545-.98781818-.2168182c-.07490909-.0162727-.13345455-.0747273-.14972727-.1497273l-.21681819-.98781815-.98763636-.21654546c-.07490909-.01627273-.13345454-.07481818-.14972727-.14972727l-.24363637-1.11072727c-.02318181-.10581819.04372728-.21045455.14972728-.23372728.10390909-.02336363.21027272.04372728.23372727.14972728l.21681818.98781818.98763637.21663636c.07490909.01627273.13345454.07481818.14972727.14972727l.21681818.98781819.98781818.21681815c.07490909.0162728.13318182.0748182.14972727.1495455l.21718182.9884545.98790909.2168182c.07490909.0162727.13318182.0747273.14972728.1495455l.21736363.9886363.98863637.2173637c.10581818.0231818.17290909.1279091.14954545.2339091-.02018182.0916363-.10145454.1541818-.19163636.1541818z"/><path d="m3.94390909 11.9947273c-.04754545 0-.09527273-.0172728-.133-.0519091-.07981818-.0736364-.08472727-.1976364-.01127273-.2774546l1.57218182-1.70499996c.074-.07954546.19781818-.08454546.27736364-.01127273.07972727.07363639.08472727.19763639.01127273.27745459l-1.57218182 1.705c-.03872728.041909-.09145455.0631818-.14436364.0631818zm.98554546 1.3933636c-.05363637 0-.10736364-.022-.14609091-.0651818-.07245455-.0807273-.06572728-.2047273.015-.2771818l1.94136363-1.7435455c.08009091-.0726363.20436364-.066.27718182.015.07245455.0807273.06572727.2047273-.015.2771818l-1.94136364 1.7435455c-.03736363.0336364-.08436363.0501818-.1310909.0501818zm.34290909-4.30727272c-.01836364 0-.03681819-.005-.05327273-.01572727-.04545455-.02936364-.05845455-.09009091-.02909091-.13572727l3.99245455-6.17790909c.02972727-.04545455.09090909-.05845455.13572727-.02909091.04545454.02936363.05845454.09009091.02909091.13572727l-3.99245455 6.17781818c-.01881818.029-.05036363.04490909-.08245454.04490909zm1.35445454 1.35436362c-.02509091 0-.05018182-.0095454-.06936363-.0287273-.03836364-.0383636-.03836364-.1004545 0-.1388181l5.08463635-5.08590913c.0383636-.03836363.1004546-.03836363.1388182 0 .0383636.03836364.0383636.10045455 0 .13881818l-5.08463637 5.08590905c-.01918182.0191819-.04436364.0287273-.06945455.0287273zm1.35472727 1.3548182c-.032 0-.06363636-.0157273-.08245454-.0449091-.02936364-.0454545-.01627273-.1061818.02909091-.1357273l6.17690908-3.99345451c.0452727-.02945454.1061818-.01663636.1357273.02918182.0293636.04545454.0162727.10618182-.0290909.13572727l-6.17690912 3.99345452c-.01645454.0107273-.03481818.0157273-.05327273.0157273z"/></g></svg>