<svg xmlns="http://www.w3.org/2000/svg" xmlns:xlink="http://www.w3.org/1999/xlink" xmlns:serif="http://www.serif.com/" width="100%" height="100%" viewBox="0 0 50 47" version="1.1" xml:space="preserve" style="fill-rule:evenodd;clip-rule:evenodd;stroke-linejoin:round;stroke-miterlimit:2;"><path id="ic_balance" d="M47.368,39.062l0,2.605c0,2.876 -2.356,5.208 -5.263,5.208l-36.842,0c-2.907,0 -5.263,-2.332 -5.263,-5.208l-0,-36.459c-0,-2.876 2.356,-5.208 5.263,-5.208l36.842,-0c2.907,-0 5.263,2.332 5.263,5.208l0,2.605l-23.684,-0c-2.907,-0 -5.263,2.331 -5.263,5.208l-0,20.833c-0,2.876 2.356,5.208 5.263,5.208c23.684,2.605 23.684,0 23.684,0Zm-23.684,-5.208l26.316,0l-0,-20.833l-26.316,-0l0,20.833Zm6.579,-10.416c0,-2.158 1.768,-3.907 3.948,-3.907c2.18,0 3.947,1.749 3.947,3.907c-0,2.157 -1.767,3.906 -3.947,3.906c-2.18,-0 -3.948,-1.749 -3.948,-3.906Z"/><style type="text/css">
</style>
</svg>