<svg height="17" viewBox="0 0 17 17" width="17" xmlns="http://www.w3.org/2000/svg"><g fill-rule="nonzero"><path d="m16.9102181.13334888c-.0616311-.08377045-.1594203-.13334888-.263364-.13334888h-1.1945837c-.1440339 0-.2710572.0942845-.3129425.23216382-.2611415.86445976-.5985313 2.08203761-.9552395 3.3709913-.7958193 2.87255712-1.7857638 6.44758928-2.232568 7.12442038-.3143957.4768932-1.497696 2.037417-3.48630391 2.0956289l-5.96437057-.3186696c-.71452775-.070692-1.17082026.0377821-1.43563746.3389284-.22472705.2554998-.27832304.6197303-.1641217 1.1132067.0270117.1165093.04786883.242165.07146133.3809846.03872246.2306251.08283017.4920231.16489102.8083848.15719781.6073358.77872326 1.3094689 1.77157406 1.4165754.01171076.0012822.02333605.0017951.03504682.0017951.00692388 0 .01427516-.000171.02111357-.0006838l5.99574175-.3880795c.11522711-.0086335 2.84033109-.2333605 4.05927669-2.1434977.023336-.0348759.5745114-.8677935.9056611-2.065369.1079613-.3904729.3447411-1.3337453.6445196-2.52807255.7010219-2.79340259 1.7609745-7.01500588 2.3883126-9.01395688.0310293-.0994133.013164-.20754556-.0484672-.29140149zm-7.99486366 15.39025582-5.96291741.3859424c-.63939078-.0795819-1.07781796-.5238217-1.18253103-.9272021-.07479504-.2892645-.11633835-.535789-.15283833-.7534212-.02590045-.1528383-.04957843-.2910595-.07915453-.4194506-.04299646-.1854917-.07436764-.4289389.01820726-.5347632.04051754-.0459882.16890858-.1364261.56134749-.1364261.09522478 0 .20575048.0053852.33414152.0176943l6.00557196.3201228c.43774334-.0125655.84095274-.0855655 1.20945724-.1993395l.55220109 1.964759c-.71384387.2307107-1.29322765.2813149-1.30348526.2820842zm3.55767976-1.8486771c-.4536427.7105102-1.1792828 1.1516728-1.8573961 1.4241832l-.535447-1.9743328c1.3436609-.561433 2.1523877-1.6364301 2.418658-2.0400669.111637-.1690795.242336-.4597117.390302-.8521506l.7876986.079411c-.1735245.6884563-.308583 1.2178342-.381412 1.4805999-.3014881 1.0913238-.8135991 1.8691923-.8224035 1.8823562zm1.4634184-4.39521325c-.0586393.23361698-.1140303.45398456-.1672844.66597508l-.7482069-.0753934c.456207-1.30228858 1.0590124-3.44228166 1.793115-6.09267613.3246533-1.1732137.6332362-2.28693329.8816413-3.12403943h.5095466c-.6413569 2.1420446-1.6119828 6.00907664-2.2688116 8.62613388z"/><path d="m4.72024339 12.2660847c1.05471957 0 1.91272486-.8580053 1.91272486-1.9127249 0-1.05453969-.85800529-1.91254499-1.91272486-1.91254499-1.05471958 0-1.91272487.8580053-1.91272487 1.91254499 0 1.0547196.85800529 1.9127249 1.91272487 1.9127249zm0-3.4322011c.83803703 0 1.51965608.68170899 1.51965608 1.5194762 0 .838037-.68161905 1.5196561-1.51965608 1.5196561-.83803704 0-1.51965609-.681709-1.51965609-1.5196561 0-.83776721.68161905-1.5194762 1.51965609-1.5194762z"/></g></svg>