<svg height="17" viewBox="0 0 17 17" width="17"
  xmlns="http://www.w3.org/2000/svg">
  <g fill-rule="evenodd">
    <path d="m8.49017187 16.9715781c-2.17405208 0-4.3481927-.8275104-6.0035677-2.4825312-1.60340104-1.6034896-2.48660417-3.7353959-2.48660417-6.00321357 0-2.26764062.88320313-4.39954687 2.48660417-6.00303645 3.31075-3.31057292 8.69709373-3.31021876 12.00713543 0 1.6034896 1.60348958 2.4866927 3.73539583 2.4866927 6.00303645 0 2.26781767-.8832031 4.39972397-2.4866927 6.00321357-1.655375 1.6549323-3.8294271 2.4825312-6.00356773 2.4825312zm0-16.30273435c-2.00272395 0-4.00535937.76234375-5.53004687 2.28703125-1.47722917 1.47714062-2.29092708 3.44117187-2.29092708 5.52995833 0 2.08896357.81369791 4.05299477 2.29092708 5.53004687 3.049375 3.0490208 8.0107187 3.0490208 11.0601823 0 1.4772292-1.4770521 2.2909271-3.4410833 2.2909271-5.53004687 0-2.08878646-.8136979-4.05281771-2.2909271-5.52986979-1.5247761-1.5246875-3.5274115-2.28711979-5.53013543-2.28711979z" fill-rule="nonzero"/>
    <path d="m.32211458 8.52461458c-.04179166 0-.08402604-.01363541-.11917708-.04161458-.08252083-.065875-.09633333-.18611458-.03028125-.26863542.15910938-.19983854.33203125-.39117708.51345313-.56870312.06569791-.06348438.16583854-.07242708.24127604-.02151563.19417187.13183855.39542708.25376042.5981875.36204688.09341146.04967187.12847395.16539583.07880208.25863021-.05046875.09394271-.16654687.12829687-.25880729.078625-.16920313-.09022396-.3368125-.189125-.50079167-.29519792-.1306875.13502604-.25579687.2773125-.37338021.42438021-.0376302.04736979-.09323437.07198437-.14928125.07198437zm1.06984896-1.77915625c-.04551041 0-.09146354-.01629166-.12803125-.04914062-.14078125-.12696875-.27819791-.26181771-.41003646-.40215625-.16167708.08942708-.32149479.18726562-.47653125.29201042-.08739062.05923437-.206125.03621354-.26553645-.05117709-.05941146-.08756771-.03621355-.20647916.05108854-.26553646.20798437-.14078125.42464583-.26978645.64343229-.3835625.07809375-.04028645.172125-.02310937.23038542.04179167.15273437.17044271.31556249.33344792.48326041.48432292.07844792.07056771.08473438.19160416.01416667.26996354-.03798438.04214583-.08986979.06348437-.14219792.06348437zm.36789063-1.48661458c-.0611823 0-.1217448-.02966146-.15866667-.08455729-.10421354-.15521354-.20391146-.31813021-.29688021-.48635938-.17965104.04258855-.35956771.09341146-.53620833.15158334-.10005208.03267187-.20833854-.02160417-.24127604-.12174479-.03320313-.1004948.02133854-.20860417.12174479-.24163021.23525521-.07747396.47608854-.14264063.71585937-.19364063.08367188-.01770833.16920313.02240104.20878125.09819271.10607292.20178646.22223959.39693229.34548959.58030208.05896875.08756771.03541666.20630209-.05188542.26527084-.03302604.02213541-.07003646.03258333-.10695833.03258333zm.72258854-1.31599479c-.07880208 0-.15238021-.048875-.18035938-.12732292-.06233333-.17664062-.1183802-.35885937-.16654687-.54329166-.18372396-.00469271-.36966146-.00150521-.5556875.0095625-.10492188.00407291-.19567708-.07410938-.20205208-.17947396-.006375-.10545313.07393229-.19603125.1795625-.20222917.24685416-.01460937.4955677-.01620312.73755208-.00469271.08517708.00416146.15725.06383854.17699479.14653646.05232813.21958333.11652083.43695313.19080729.64582292.0350625.09952083-.01682291.20878125-.11652083.24402083-.02080729.00752604-.0425.01106771-.06375.01106771zm1.02088541-1.0890625c-.09783854 0-.1810677-.07464063-.19009895-.17398438-.01682292-.18823958-.02576563-.37904687-.02647396-.56932291-.17699479-.05002605-.35779688-.09332292-.53886459-.12865105-.10385937-.0201875-.17141666-.12068229-.15122916-.22427604.0201875-.10377083.12209896-.17177083.22445312-.15105208.24083334.04710417.4813125.10722396.714.17867708.0818125.02496875.13670834.10120313.13520313.18638021-.00451563.22445313.00371875.45111979.02390625.67380208.00929687.10509896-.06791146.19815625-.17327604.20763021-.00602084.0006198-.01159896.00079688-.0176198.00079688zm1.26366667-.80528646c-.01044792 0-.02133854-.00079687-.03169792-.00265625-.10421354-.01735417-.17478124-.11590104-.15725-.22011458.03098959-.18620313.07136459-.37382292.11953125-.55940625-.15866666-.09190625-.32335416-.1785-.49105208-.2581875-.095625-.04515625-.13635417-.15928646-.09110937-.25464584.04551041-.09544791.16132291-.13538021.25464583-.0907552.22401042.10625.44253125.22401041.64971875.35044791.07357812.044625.10828646.13290104.08438021.21559896-.06197917.21807812-.11235938.44005208-.14901563.66007812-.01558333.09332292-.0966875.15964063-.18815104.15964063zm1.44739063-.46510938c-.02718229 0-.05445313-.00584375-.08066146-.01797395-.09597917-.044625-.13741667-.1583125-.09261458-.25411459.08030729-.17230208.16991145-.34274479.26659895-.50822916-.13254687-.12900521-.27261979-.25446875-.41747395-.374-.0813698-.06720313-.09296875-.18779688-.02576563-.26925521.06764583-.08172396.18779688-.0924375.26925521-.02576563.19381771.15981771.37940104.32990625.55152604.50521875.06197917.06295313.07278125.15981771.02611979.23472396-.11953125.19284375-.22817187.39427604-.32370833.59898438-.03249479.06950521-.10155729.11041145-.17327604.11041145zm1.57666146-.06817708c-.04559896 0-.09110938-.01602604-.12732292-.04878646-.07880208-.07039062-.08553125-.19142708-.01531771-.26996354.12767708-.14228646.26403125-.28041146.40746875-.41189583-.09898958-.15884375-.206125-.31644792-.31998958-.47015625-.06313021-.085-.04524479-.20461979.03957812-.26757292.08508854-.06233333.20497396-.04497916.26739584.03975521.15379687.20745313.29652604.4218125.42384895.63741146.04701563.07933333.03028125.18106771-.03922395.24163021-.1759323.15255729-.3416823.31591666-.49370834.48582812-.03816146.04232292-.09048958.06375-.14272916.06375z" transform="translate(7.792 7.969)"/>
    <path d="m.25429167 8.39224479c-.05604688 0-.11165104-.02470312-.14936979-.07207291-.06605209-.08252084-.05223959-.20276042.03028125-.26863542.14786458-.11802604.29015104-.24313542.42455729-.37302604-.10678125-.1646875-.20577084-.33273959-.295375-.50079167-.04967188-.09314583-.01416667-.20913542.07880208-.25871875.09226042-.04896354.20878125-.01478646.25871875.07880208.10757813.20169792.22932292.40295313.36186979.59845313.05073438.07517187.04179167.17602083-.02160416.24101042-.1759323.18018229-.36744792.35292708-.56870313.51345312-.03515104.02789063-.07738542.04152604-.11917708.04152604zm1.90594791.05188542c-.03701041 0-.07428645-.010625-.10713541-.03284896-.08739063-.05896875-.11058854-.17796875-.05117709-.26535937.104125-.15441667.20205209-.31423438.29201042-.4766198-.14078125-.13201562-.27589583-.26943229-.40251042-.41003645-.0705677-.07844792-.06428125-.19939584.01416667-.26996355.07844792-.0705677.1986875-.06436979.27031771.01416667.15016667.16716667.31334896.32955208.48432292.48299479.06498958.05826042.08216666.15326563.04179166.23073959-.11466146.21940624-.24348958.43580208-.38347396.64263541-.03692187.05480729-.09704166.08429167-.1583125.08429167zm1.77003646-.43783854c-.01974479 0-.03993229-.00301042-.05976562-.0095625-.10049479-.03302604-.15494792-.14113542-.12174479-.24163021.05790625-.17548958.10864062-.35531771.15122916-.53629688-.16654687-.09208333-.32972916-.19160416-.48618229-.29670312-.08774479-.05879167-.11129687-.17752604-.05223958-.26527083.05976562-.08792188.17929687-.11058855.26518229-.0520625.18558333.12457812.38090625.24065625.58065625.34522395.07579167.03975521.11616667.12528646.09819271.2093125-.05153125.24101042-.11652084.48166667-.19381771.7156823-.02647396.08039583-.10120313.13130729-.18151042.13130729zm1.56692188-.86053646c-.00371875 0-.0074375-.00017708-.0112448-.00035417-.10527604-.00619791-.18593749-.09651041-.17965104-.20205208.01080209-.18655729.01416667-.37284896.00929688-.55524479-.18522917-.04852084-.36744792-.10456771-.54329167-.16707813-.09934375-.03550521-.15122916-.14485416-.1158125-.24446354.03515104-.09952083.1445-.15034375.24419792-.11590104.20727604.07393229.42464583.138125.64529166.19080729.082875.01983333.14264063.09181771.14635938.17681771.01159896.24083333.01009375.48901562-.00451563.73755208-.0057552.10146875-.08978124.17991667-.1906302.17991667zm1.29651562-1.21567708c-.08925 0-.16946875-.06313021-.18708854-.15441667-.03585937-.18186458-.07915625-.36257813-.12918229-.53886458-.19116146-.00070834-.38205729-.00973959-.56914583-.02647396-.10527605-.0095625-.18266146-.10253125-.17327605-.20763021.00929688-.10554167.1030625-.18558333.20763021-.17327604.22073438.01992187.4473125.027625.67406771.02390625.07508333 0 .16096875.05339062.18602604.13502604.07127604.23171354.13139584.47183854.17885417.71382292.02054167.10359375-.04701563.20408854-.15043229.22445312-.01275.00230208-.02514584.00345313-.03745313.00345313zm.95899479-1.50361459c-.07127604 0-.14007291-.040375-.17283333-.10926041-.07951042-.16778646-.16619271-.33273959-.25801042-.49158334-.18522916.04834375-.37267187.08845313-.55905208.11988542-.10155729.01638021-.20276042-.05250521-.22029167-.15707292-.01753125-.10394791.0526823-.20258333.1568073-.22011458.22073437-.03701042.44288541-.08721354.6598125-.14936979.082875-.02275521.17141666.01080208.21586458.08438021.12661458.2076302.24455208.42632812.350625.64998437.04515625.09544792.00451562.20948958-.09110938.25473438-.02620833.01248437-.0541875.01841666-.0818125.01841666zm.55382813-1.72390625c-.05489583 0-.10979167-.02372917-.14751042-.06941667-.11908854-.1445-.24455208-.28439583-.37417708-.41729687-.16690104.09766146-.33760938.18708854-.50822917.26642188-.09482812.04462499-.20913541.00354166-.2539375-.09261459-.04444791-.09580208-.00301041-.20948958.09261459-.2539375.20205208-.09411979.40330729-.2029375.59898437-.32361979.07508333-.04630729.17141667-.03568229.23454688.02629688.17548958.1725677.3457552.3580625.50521875.55117187.06720312.08136979.05560416.201875-.02576563.26925521-.03550521.02939583-.07880208.04373958-.12174479.04373958zm-1.0423125-1.77880208c-.05223958 0-.10456771-.02142708-.14264063-.06366146-.07021354-.07853646-.06348437-.19957292.01531771-.26996354.16946875-.15202604.33309375-.31821875.48547396-.49361979.06127083-.07039063.16318229-.0860625.24198438-.03922396.21692708.12847396.43128645.2709375.63705729.42367187.08473437.06277605.10270833.18266146.03957812.26739584-.06233333.08508854-.18221875.10244271-.26739583.03957812-.15273438-.11315625-.31033854-.22055729-.47015625-.31998958-.13139583.14317187-.26925521.27988021-.41189583.40720312-.036125.0324948-.08172396.04860938-.12732292.04860938z" transform="translate(0 .443)"/>
  </g>
</svg>
