<svg height="17" viewBox="0 0 17 17" width="17"
  xmlns="http://www.w3.org/2000/svg">
  <g fill-rule="evenodd">
    <path d="m8.47709845 16.9620363c-2.26531607 0-4.39507254-.8820622-5.99694819-2.4839379-3.30680829-3.3068082-3.30680829-8.68735229 0-11.99416058 1.60187565-1.60187564 3.73163212-2.48393782 5.99694819-2.48393782 2.26540415 0 4.39516065.88206218 5.99703625 2.48393782 3.3068083 3.30680829 3.3068083 8.68735238 0 11.99416058-1.6018756 1.6018757-3.7317202 2.4839379-5.99703625 2.4839379zm0-16.29278241c-2.00141969 0-4.00257513.76191709-5.52632125 2.28539896-3.04713989 3.04740414-3.04713989 8.00550255 0 11.05281865 3.04731606 3.0469637 8.0052383 3.0469637 11.0526425 0 3.0471399-3.0473161 3.0471399-8.00541451 0-11.05281865-1.523658-1.52348187-3.5249016-2.28539896-5.52632125-2.28539896z" fill-rule="nonzero"/>
    <path d="m7.79427979 16.8936839c-.09680311 0-.17960103-.0735492-.1890259-.1717616-.2431969-2.4942435.63243523-4.9401296 2.40263731-6.7100674 1.7218446-1.72184454 4.1032539-2.60417096 6.5339015-2.41805179.1047306.00792746.1831244.09935751.1751969.20408808-.0081917.10455441-.0975077.18312435-.204088.17510881-2.3177254-.17643005-4.5925544.66423316-6.2360052 2.3076839-1.689342 1.689342-2.52498448 4.023627-2.29297412 6.4043316.01021762.1045544-.06632643.1973938-.17088083.2076995-.00634197.0006166-.01259585.0009689-.01876166.0009689zm-6.74459585-7.50113986c-.20893264 0-.41865803-.00783938-.62873575-.02360622-.10473057-.00783937-.18330052-.09918134-.17537306-.204.00757513-.10499481.10050259-.18664766.20391192-.17537305 2.31569948.17369948 4.58682901-.66722798 6.22790155-2.30847669 1.69119171-1.69101554 2.52692228-4.02767875 2.2924456-6.41076166-.01021762-.1045544.06615026-.19765803.17070466-.20787564.10772539-.00819171.19765803.06632642.20787565.17070466.24557513 2.49679793-.630057 4.94506218-2.40210881 6.71693782-1.57078238 1.57095855-3.69129016 2.44245078-5.89662176 2.44245078z"/>
    <path d="m14.2386891 14.433c-.0486217 0-.0973316-.0185855-.1345026-.0557565l-11.52318132-11.52344557c-.07425388-.07425389-.07425388-.19466321 0-.2689171.07425389-.07425389.19466321-.07425389.26900518 0l11.52326944 11.52344557c.0742539.0742539.0742539.1946632 0 .2689171-.037171.037171-.0858808.0557565-.1345907.0557565z"/>
    <path d="m2.71541969 14.433c-.04862176 0-.09733161-.0185855-.13450259-.0557565-.07425389-.0742539-.07425389-.1946632 0-.2689171l11.5233575-11.52353365c.0742539-.07425389.1946632-.07425389.2690052 0 .0742539.07425388.0742539.19466321 0 .26891709l-11.52335752 11.52353366c-.03717098.037171-.08579275.0557565-.13450259.0557565z"/>
  </g>
</svg>
