<svg height="17" viewBox="0 0 17 17" width="17" xmlns="http://www.w3.org/2000/svg"><g fill-rule="nonzero"><path d="m1 1.937h15.508v-.874h-15.508z"/><g transform="translate(1.705 1.239)"><path d="m5.50110878 12.7450342-1.16027999-1.4133422 1.25191814-1.40629322 1.17296836 1.29632742zm-2.54895045-3.10582842 1.15675544-1.35272011 1.20539416 1.33227776-1.23781996 1.39078517zm.03524544 2.59335972c-.00845891-.6922205-.02749145-1.3491956-.05639271-1.9695154l.86774281 1.0573633zm-.12265414-3.124861c-.06132707-.90087353-.1430965-1.71856781-.24037393-2.46083685l1.20609907 1.33227776zm.87761153-4.18363411 1.44224354 1.47184971-1.08485474 1.26742613-1.50427552-1.66288001zm-1.27870468.63512288c-.16283394-.98123314-.35174952-1.80668142-.54841909-2.49819701l1.53881605 1.56912713zm2.96414178-2.21552856 1.32452376 1.21878743-1.29914704 1.5190786-1.40981773-1.43871899zm1.32875321 4.65451324-1.16662417 1.31042558-1.21103343-1.33721212 1.09542838-1.28081941zm.26152119 2.91056865-1.16027999-1.2920979 1.15534563-1.31465503.03595035.05709761v-.71336777l-.03101599.05145835-1.28504886-1.32099921 1.2801145-1.51414424.03595035.05921234v-.70561377l-.03101599.04722889-1.39994901-1.27658995c-.02819635-.67389288-.33342189-1.63327384-.56533691-2.28813418h-.43845331c.22345611.65486034.57309091 1.63609348.60128726 2.29870781l-1.46127608 1.36188393-2.11472659-2.14292295c-.23261993-.66331925-.46594476-1.19059108-.67389287-1.51766879h-.71266287c.70561378 1.09190383 2.12177569 4.2379121 2.12177569 12.39018316 0 .1705879.13816213.2995862.30875008.2995862.17058794 0 .30875008-.1438014.30875008-.3143893 0-.0747204 0-.1501456-.00070491-.2234561l1.07216639-1.2053942 1.43519445 1.748174 1.5190786-1.8539103.03101599.0606221v-.7472034z"/><path d="m7.3108918 11.2216557 1.17296835-1.29632741 1.25121324 1.40629321-1.15957508 1.4133423zm.00916382-3.22354825 1.28222922-1.30760594 1.09542838 1.28081941-1.21103343 1.33791702zm.00352454-3.4357258 1.32522867-1.21878743 1.38444097 1.29914704-1.40981769 1.43871899zm3.01066574.36161824 1.1468867 1.07639584-1.50498038 1.66288001-1.08414983-1.26742614zm1.8264189-1.86307413c-.1966696.6915156-.3855852 1.51696388-.5484191 2.49819702l-.9896921-.92906988zm-.9495122 6.04670825-.9650203-1.12855909 1.2053942-1.33227776c-.0972774.74226904-.178342 1.55996332-.2403739 2.46083685zm-.1219493 3.12556589-.812055-.9121521.8677428-1.0580682c-.0281963.6210247-.0472289 1.2772949-.0556878 1.9702203zm-1.08978909-1.2237218-1.23781996-1.39078516 1.20539416-1.33227776 1.15746039 1.35272011zm.01268839.634418 1.0728713 1.2032794c-.0007049.0740155-.0007049.147326-.0007049.2220463 0 .1698831.1381621.3087501.30875.3087501.170588 0 .3087501-.1191296.3087501-.2897175 0-8.10363234 1.4288503-11.29827932 2.1330542-12.39018315h-.7239414c-.2079481.32778262-.4419778.84941518-.6745977 1.51273442l-2.1140217 2.14785731-1.46198101-1.35694956c.02819635-.66190942.37853606-1.64878184.60128726-2.30364217h-.43845331c-.23121011.65486033-.56674673 1.61565112-.59494309 2.28954399l-1.37950665 1.22865615v.70490887l1.24557397 1.4549319-1.24557397 1.26954086v.71336777l1.12010019 1.25755742-1.12010019 1.23641019v.7464984l1.50920988 1.7932882z"/></g></g></svg>