<svg height="17" viewBox="0 0 17 17" width="17" xmlns="http://www.w3.org/2000/svg"><g fill-rule="evenodd"><g transform="translate(0 7.021)"><path d="m5.38962231 6.10839768-1.31884842-.35640521-.36624737-1.33256779.95170631-.95170631 1.32570811.36147541.36147541 1.32540986zm3.95684352-1.84823692-1.07607533 1.07637358-1.35941002-.36744036-.35282626-1.29439217.9788468-.97914504 1.49004223.40651072.15687794-.57561679-1.49272645-.40710721-.39458084-1.44619991-.57531854.15687794.39398434 1.44411218-.97884679.9788468-1.32600636-.36177367-.34894904-1.27918156 1.10142633-1.10142633-.42172132-.42172132-1.10142632 1.10142633-1.49004223-.40651072-.15687795.57561679 1.49242821.40680897.34894904 1.27977806-.98689947.98719771-1.27291838-.34387884-.41247566-1.49988438-.57531854.15807093.39637032 1.44083147-1.10381231 1.10411055.42172132.42172132 1.0638472-1.0638472 1.3770066.37221231.34566832 1.25711128-.99584687.99584688-1.46618247-.39607207-.15538671.57591504 1.48705976.40173876.40740546 1.48079657.5750203-.15807093-.41158092-1.49690191.96184671-.96214496 1.31079576.35431749.36624736 1.34300643-1.07577708 1.07577708.42172132.42172132 1.09844386-1.09844386 1.49362119.40352825.15568495-.57561679-1.52613011-.41247566-.34835255-1.27709384 1.00181182-1.00181182 1.29349742.34954554.41187917 1.51002478.57531854-.1571762-.40144052-1.47244565 1.10142633-1.10142632z"/><path d="m.84791634 4.78716328c0-.35998418.04652654-.72295083.14226384-1.08025078.38622992-1.44112972 1.51151602-2.56641581 2.95264573-2.95264573.35700171-.0957373.7202666-.14226384 1.08025079-.14226384 1.09307541 0 2.15960683.42947574 2.95294397 1.22311112.79333713.79333714 1.22281287 1.85957032 1.22281287 2.95264573 0 .36028243-.04652654.72324908-.14226384 1.08054903-.38593167 1.44083147-1.51151601 2.56641581-2.95264572 2.95234748-.35700171.0957373-.71996836.14226384-1.08025079.14226384-1.09307541 0-2.15930859-.42947574-2.95264572-1.22281287-.79363539-.79333714-1.22311113-1.85986856-1.22311113-2.95294398zm5.41049961 4.6097063c1.64692017-.44140563 2.93296142-1.72744687 3.37436704-3.37436704.10915842-.40800196.16254464-.82316184.16254464-1.23474276.00029824-1.24905862-.49091463-2.46769603-1.39758565-3.37466529-.90667101-.90667101-2.12560667-1.39758564-3.37466528-1.39758564-.41158092 0-.82674081.05338622-1.23474276.16254464-1.64692017.44140562-2.93296142 1.72774511-3.37436704 3.37436704-.10915842.40800195-.16254464.82316184-.16254464 1.23474275 0 1.24905862.49091463 2.46799428 1.39758564 3.37466529s2.12560667 1.39788389 3.37466529 1.39758565c.41158092 0 .8267408-.05308798 1.23474276-.16254464z"/></g><g fill-rule="nonzero"><path d="m12.3733692 5.9943662c.1352113.27042254.2929578.49577465.630986.58591549.0450704.02253522.0450704.04507043.0450704.09014085-.0450704.31549296.0676056.58591549.2253521.83380282.0450704.06760563.1352113.13521126.2028169.18028169.0450704.02253521.0450704.06760563.0450704.13521126-.0901408.45070423.0450704.81126761.315493 1.14929578.0225352.02253521.0450704.02253521.0225352.06760563-.2478873.38309859-.0676057.7887324.0676056 1.17183098.0450704.0901409.0450704.1352113.0225352.2253522-.1802817.6535211.1577465.969014.2704226 1.1718309.0225352.0450705 0 .0450705-.0225352.1577465-.1352113.4732395-.0450705.7887324.2478873 1.2169014.1352112.1577465.1577465.1802817.0676056.4056338-.1802817.6985916-.0225352.9690141.1577465 1.2619719.0450704.0676056.0901408.2028169.0676056.2929577-.1352112.4507042-.1577465.8338028-.0225352 1.2169014h1.487324c.1577464-.5408451-.0676057-1.0366197-.2929578-1.3070422-.0901408-.1352113-.1352113-.2028169-.0676056-.2704226.0225352-.0225352.2929577-.7436619-.1802817-1.3746479-.1577465-.2028169-.1352113-.1802817-.0901409-.3380281.1352113-.8112676-.0225352-.9464789-.2478873-1.2619719-.0450704-.0676056-.0676056-.2253521-.0450704-.3380281.0901408-.5183099.0676056-.7661972-.2704225-1.1492958-.0450705-.0450704-.0901409-.0676056-.0901409-.0901409.1577465-.38309857 0-.92394364-.1577465-1.17183097-.0450704-.09014084-.0676056-.04507042-.0225352-.29295774.0676057-.42816902-.0901408-.7887324-.4507042-1.05915493-.0450704-.04507043-.0450704-.09014085-.0450704-.15774648.0225352-.22535212-.0225352-.42816902-.1352113-.63098592-.0901408-.18028169-.2253521-.29295774-.428169-.38309859-.0225352 0-.0676056 0-.0676056-.06760563.0450704-.22535212-.0225353-.42816902-.1577465-.5859155-.2478873.09014085-.5183099.13521127-.8112676.18028169-.0901409.04507043-.2028169.06760564-.2704226.13521127z"/><path d="m18.0973129 3.49295775c-.0225352-.04507042-.0676056-.02253521-.0901408-.02253521-.2028169.02253521-.3830986-.04507042-.5633803-.13521127-.4732395-.2028169-.9690141-.4056338-1.4422535-.56338028-.4056339-.15774648-.7887324-.15774648-1.2169015-.09014085-.1802816.02253522-.3380281.02253522-.540845.06760564s-.4056338.13521127-.5633803.22535211c.0676056-.13521127.1577465-.24788732.2253521-.38309859s.1352113-.27042254.0901408-.42816901c0-.04507043 0-.04507043.0450705-.06760564.1577465-.02253521.2929577-.06760563.4056338-.2028169.0225352-.02253521.0225352-.04507042.0225352-.06760563-.0225352-.02253521-.0450704-.02253521-.0676056-.02253521-.0450705 0-.0901409.02253521-.1802817 0 .1352112-.04507043.2478873-.06760564.3830986-.13521127.0450704-.02253521.0901408-.02253521.0901408-.06760564 0-.04507042-.0676056-.02253521-.0901408-.09014084h.2028169c.1802816-.02253521.3154929-.09014085.4732394-.18028169.0450704-.02253521.0676056-.04507042 0-.09014085-.0450704-.02253521-.0676056-.04507042-.1352113-.09014084h.2704226c.1577464 0 .2704225-.04507042.4056338-.13521127.0225352-.02253521.0450704-.04507042.0450704-.06760563 0-.02253522-.0450704-.02253522-.0676056-.02253522-.0450705 0-.0901409 0-.1352113-.04507042.2028169 0 .3830986-.02253521.5633803-.06760563.3154929-.09014085.5633803-.29295775.7887324-.56338029.0225352-.02253521.0450704-.04507042.0225352-.09014084-.0225352-.02253521-.0450704-.02253521-.0901409-.02253521-.2929577.04507042-.6309859.02253521-.9239436 0-.6535212-.06760564-1.2619719.09014084-1.8253521.33802817-.3605634.13521126-.7211268.31549295-1.0140846.58591549-.0676056.06760564-.1577464.18028169-.2478873.27042254 0-.06760564 0-.13521127.0225352-.18028169 0-.02253521.0225352-.04507042 0-.06760564-.0225352-.02253521-.0450704 0-.0676056.02253522-.0225352.02253521-.0676056.04507042-.1577465.04507042.1352113-.09014085.2253521-.2028169.2929578-.31549296.0225352-.02253521.0676056-.04507043.0225352-.06760564-.0225352-.02253521-.0450704.02253521-.0676057.02253521-.0225352 0-.0450704.02253522-.0676056 0 .1802817-.09014084.2929578-.24788732.3830986-.42816901.0450704-.09014084.0676056-.18028169.0676056-.29295775 0-.02253521 0-.04507042-.0225352-.06760563-.0225352 0-.0450704 0-.0676056.02253521-.2028169.29295775-.4957747.45070423-.8338028.56338028-.4507043.15774648-.8112677.40563381-1.1267606.76619719-.2253521.27042254-.315493.58591549-.3830986.94647887-.0450704.24788733-.0676056.49577465 0 .74366197-.0225352.02253522-.0450704 0-.0450704 0-.1577465-.13521126-.315493-.2028169-.4957747-.29295774-.67605632-.38309859-1.32957744-.45070423-2.09577463-.27042254-.15774647.04507043-.31549295.06760564-.47323943.13521127-.04507042.02253521-.09014085.02253521-.15774648.02253521-.02253521 0-.06760564-.02253521-.09014085.02253521-.02253521.04507043 0 .06760564.02253521.09014085.13521127.15774648.27042254.22535211.45070423.27042253.24788732.06760564.49577465.09014085.76619718.04507043-.04507042.06760563-.13521126.09014084-.18028169.13521126-.02253521.02253522-.06760563.02253522-.06760563.06760564s.04507042.04507042.06760563.04507042c.15774648.04507042.31549296.06760563.51830986.06760563-.06760563.06760564-.15774648.06760564-.2028169.09014085-.02253521.02253521-.09014084.02253521-.09014084.06760563 0 .04507043.06760563.04507043.09014084.06760564.15774648.04507042.31549296.06760563.49577465.09014084-.13521127.04507042-.22535211.02253521-.31549296.04507042-.06760563.02253522-.15774648.04507043-.22535211.09014085-.02253521.02253521-.04507042.04507042-.02253521.06760563s.04507042 0 .06760563 0c.18028169-.04507042.31549296-.02253521.45070423.09014085 0 0 0 .02253521.02253521.04507042-.22535212-.02253521-.42816902.02253521-.63098592.06760563-.2028169.04507043-.4056338.15774648-.56338028.27042254-.58591549.45070423-1.17183099.92394366-1.46478873 1.62253521-.09014085.2028169-.22535212.4056338-.29295775.58591549-.04507042.09014085-.09014084.18028169-.18028169.22535212-.02253521.02253521-.04507042.02253521-.02253521.06760563 0 .02253521.02253521.02253521.04507042.02253521.24788733-.04507042.49577465-.13521127.69859155-.31549296.06760564-.06760563.13521127-.18028169.18028169-.27042253 0 .06760563-.02253521.13521127-.04507042.18028169-.02253521.02253521-.04507042.04507042-.02253521.06760563.02253521.04507043.04507042.02253521.09014084 0 .24788733-.09014084.47323944-.24788732.5859155-.51830986.02253521-.04507042.04507042-.09014084.06760563-.15774648 0 0 0 0 .02253521-.02253521 0 .09014085-.02253521.18028169-.04507042.24788733-.02253521.02253521-.02253521.04507042 0 .06760563s.04507042 0 .06760563-.02253521c.15774648-.09014085.29295775-.2028169.40563381-.33802817.02253521-.02253521.02253521-.04507042.04507042-.06760563 0 .09014084-.04507042.18028169-.06760564.27042253 0 .02253521-.02253521.04507042-.02253521.06760564.02253521.02253521.04507043 0 .06760564 0 .15774648-.02253522.24788732-.09014085.31549295-.20281691.15774648-.15774647.24788733-.33802816.31549296-.54084507.06760564.09014085 0 .20281691-.02253521.29295775 0 .04507042-.06760563.13521127-.02253521.18028169s.09014084 0 .18028169-.02253521c.02253521 0 .06760563-.02253521.13521127-.02253521-.04507043.09014084-.09014085.2028169-.15774648.29295774-.22535211.42816902-.27042254.87887324-.24788733 1.32957747.02253522.27042253.02253522.56338028-.04507042.83380282-.04507042.18028169-.13521127.31549295-.18028169.47323943-.02253521.02253521-.04507042.04507043-.02253521.09014085.02253521.02253521.06760563.02253521.09014085 0 .13521126-.04507042.24788732-.13521127.29295774-.27042254.02253521-.04507042.04507042-.06760563.04507042-.13521126.02253522-.04507043.04507043-.09014085.09014085-.04507043.02253521.02253521.04507042.02253521.06760563 0s0-.04507042 0-.06760563c-.02253521-.18028169 0-.31549296.06760564-.49577465.06760563.13521127.15774648.22535211.29295774.27042254.02253522 0 .04507043.02253521.06760564 0s0-.04507043-.02253521-.06760564c-.06760564-.15774648-.04507043-.29295774 0-.47323943.06760563.02253521.15774648.09014084.2028169.06760563.04507042-.04507042-.02253521-.13521127-.04507042-.2028169-.02253522-.09014085-.04507043-.2028169-.02253522-.31549296.06760564.09014085.15774648.15774648.22535212.2028169.02253521 0 .04507042.02253521.04507042 0 .02253518-.02253521 0-.04507042 0-.04507042-.06760563-.18028169-.04507042-.33802817 0-.54084507.04507038.04507042.09014088.13521127.15774648.18028169.0225352.02253521.0450704.04507042.0676056.02253521s0-.04507042 0-.06760563c-.0225352-.13521127-.0450704-.24788733 0-.38309859.0450704.09014084.0676057.18028169.1577465.24788732.0225352.02253521.0450704.04507042.0676056.04507042.0225353-.02253521.0225353-.04507042 0-.06760563-.0225352-.09014085 0-.18028169.0901409-.24788733.0225352.18028169.0225352.31549296.0450704.49577465.0676056.29295775.2478873.51830986.428169.74366197.0901409.13521127.2028169.22535212.2929578.31549296.0450704.04507042.0901408.13521127.1352112.2028169 0 .04507043.0225352.06760564.0676057.06760564.0450704 0 .0450704-.04507043.0676056-.06760564.0901408-.22535211.0450704-.42816901-.0225352-.63098591-.0450704-.09014085-.0901409-.22535212-.0901409-.33802817.0901409.04507042.1802817.13521127.2929578.09014084-.0901409-.2028169-.1577465-.4056338-.1577465-.63098591.0676056.04507042.1577465.09014084.2253521.13521127.0225352 0 .0450704.04507042.0676057 0 .0225352-.02253522 0-.04507043-.0225353-.06760564-.0901408-.2028169-.1352112-.4056338-.0901408-.63098591.0901408.04507042.1577465.13521126.2478873.15774647.0225352 0 .0450705.02253522.0676057 0 .0225352-.02253521 0-.04507042-.0225352-.06760563-.0676057-.15774648-.0450705-.33802817.0450704-.47323944.0225352.04507043.0225352.09014085.0450704.13521127.0676056-.06760563.2253521-.13521127.315493-.13521127.2929577-.02253521.5633803-.06760563.8112676-.18028169-.0225352-.04507042-.0676056-.09014084-.1352113-.15774647 0 0 0 0-.0225352-.02253522.0450704-.04507042.1352113.02253522.1802817-.02253521.0225352-.04507042-.0225352-.09014084-.0225352-.2028169.0676056.18028169.2028169.27042254.3154929.38309859.0225353.02253521.0450705.06760564.0901409.04507043.0225352-.02253522 0-.04507043 0-.09014085 0-.02253521 0-.02253521 0-.04507042.0901408.18028169.2253521.29295774.4056338.4056338.0225352.02253521.0676056.06760563.0901408.04507042.0450705-.02253521 0-.06760563 0-.15774648.0676057.18028169.2028169.31549296.315493.40563381.0225352.02253521.0450704.04507042.0676056.02253521s.0225352-.04507042 0-.09014085c-.0225352-.04507042-.0225352-.13521126.0225352-.2028169.0901409.22535211.2028169.42816902.3380282.5859155.0225352.02253521.0450704.04507042.0676056.06760563.0225353.02253521.0225353.02253521.0450705 0s0-.02253521 0-.04507042c-.0450705-.06760564-.0676057-.18028169-.0450705-.29295775.0676057.13521127.1352113.22535211.2028169.31549296.1802817.31549296.4732395.51830986.7661972.67605634.0225353.02253521.0676057.02253521.0901409 0 .0225352-.04507043 0-.06760564-.0225352-.09014085-.2929578-.27042253-.4732395-.63098591-.5859155-.96901408-.0901409-.31549296-.2478874-.65352113-.4056338-.94647888-.2478874-.51830986-.6535212-.87887324-1.1492958-1.12676056-.0225352 0-.0225352-.02253521-.0450704-.02253521h.2704225c.2028169.02253521.4056338 0 .5633803-.06760564.0225352 0 .0676056 0 .0676056-.04507042 0-.02253521-.0225352-.04507042-.0450704-.06760563-.0901408-.04507042-.1577465-.15774648-.2028169-.27042254.2253521.13521127.428169.22535212.6535211.24788733.1352113.02253521.2478873.02253521.3830986.02253521.0225352 0 .0676056 0 .0901409-.02253521.0225352-.04507043-.0225353-.04507043-.0450705-.06760564s-.0225352-.04507042-.0676056-.09014084c.1352113.04507042.2253521.13521127.3380282.13521127.0225352 0 .0676056.02253521.0901408.02253521s.0450705 0 .0450705-.02253521c.0225352-.02253522 0-.02253522-.0225353-.04507043-.0450704-.04507042-.0676056-.06760563-.0676056-.18028169.0676056.04507043.1352113.06760564.1802817.13521127.0901408.06760563.2253521.13521127.3830986.13521127.0225352 0 .0450704 0 .0450704-.02253521s0-.04507043-.0225352-.04507043c-.0676056-.02253521-.0676056-.09014084-.0901409-.18028169.1352113.06760564.2253522.13521127.3380282.18028169.2478873.06760564.4957747.02253522.6985916-.09014084.0901408-.06760563.2028169-.15774648.2929577-.22535211.3605634.13521126.3830986.11267605.3830986.06760563z"/></g></g></svg>