<svg height="17" viewBox="0 0 17 17" width="17" xmlns="http://www.w3.org/2000/svg"><g fill-rule="nonzero"><path d="m.41675134 12.6045234c.43996937 1.0217067 1.59463168 2.2684143 2.78405464 2.4621593.27328152-.5216719.52024024-1.0889127.73097425-1.6771926-2.25358632-.772641-2.81009144-2.7261512-2.94690945-3.60275691-.38300939.66601921-.60220999 1.43765631-.60220999 2.25951531 0 .1889719.01158794.3752879.03409055.5582749zm.05998951.3643899c.26640084 1.2874074 1.078813 2.3774456 2.1833881 3.0162802.16914073-.2546534.33197828-.5283693.48677843-.8168514-1.0871636-.1971765-2.1400323-1.236194-2.67016653-2.1994288zm.59738909-3.33077302c.09696456.77236682.57280055 2.85304762 2.89407098 3.64843702.21214273-.6068313.38543993-1.2343637.50915311-1.8559947-.95174777-.3406557-1.95106181-2.05771225-2.04497831-3.1824021-.54615706.3602743-1.01040169.83509113-1.35824578 1.38995978zm6.55899837-1.24528434c-2.55796168-.64434693-4.55551241-.07258633-4.94634543.09804179.07599543.39376067.24797748.8423119.47582395 1.2626148.35135154-.07304467 3.2791244-.63668974 5.83381562.26095117-.32187898-.64168614-.79122679-1.1971377-1.36329414-1.62160776zm-.24877061-.17211893c-.70853187-.45626698-1.55137702-.72120157-2.45492928-.72120157-.83245058 0-1.61336887.22487556-2.28519902.61706654.00173052.08411651.00986537.17306816.02383652.26567931.47285823-.19527333 2.30531294-.70221303 4.71629178-.16154428zm1.67957184 1.93428969c-2.48489325-.91668405-5.37482683-.39613695-5.84567903-.30138705.38811536.68143445.91803388 1.26894155 1.41246149 1.39558475.00198009.0005071.00393424.0010657.00586132.0016739l.05276811-.0046611c1.69802561-.1503217 3.24654114.0434409 4.73551589.5920215l.04734795.017443c-.02504646-.6045646-.16871036-1.1790279-.40827573-1.700675zm-1.92012656 5.8614081c1.16600729-1.9908298 1.26507027-4.0803427 1.27155048-4.2673273-.58364811-.1533398-1.17932961-.2534673-1.7923982-.3010223-.07447057.5461062-.46770009 3.0212437-1.70610756 5.144927.00419226-.0000057.00838583 0 .01258072 0 .80336725 0 1.55873488-.2094371 2.21437456-.5765774zm.18988136-.1124627c1.28561362-.8041477 2.14246107-2.2327646 2.14246107-3.8577236 0-.0102898-.00003436-.0205718-.00010297-.0308458l-.02425001.0658314-.10252555-.0377703c-.2729317-.1005792-.54794456-.1889748-.82561947-.2652562-.01333138.3012803-.1388364 2.2327707-1.18996307 4.1257645zm-2.54257487.6869659c1.24899691-2.110826 1.64640392-4.5944335 1.72276141-5.1507473-.58426325-.0392565-1.18449756-.031121-1.80529009.0238586l-.01510004.0013338c-.32991627 1.6619835-1.00977229 3.3678551-1.84084086 4.6250332.58433309.3012875 1.24196939.4796073 1.93846958.5005217zm.13831895.3847389c-2.71806624 0-4.92942842-2.2113849-4.92942842-4.929479 0-2.71809417 2.21136218-4.92932718 4.92942842-4.92932718 2.7180156 0 4.92937778 2.21128364 4.92937778 4.92932718 0 2.7180941-2.21136218 4.929479-4.92937778 4.929479zm7.44394078-10.9813107c.1352113.27042254.2929578.49577465.630986.58591549.0450704.02253522.0450704.04507043.0450704.09014085-.0450704.31549296.0676056.58591549.2253521.83380282.0450704.06760563.1352113.13521126.2028169.18028169.0450704.02253521.0450704.06760563.0450704.13521126-.0901408.45070423.0450704.81126761.315493 1.14929578.0225352.02253521.0450704.02253521.0225352.06760563-.2478873.38309859-.0676057.7887324.0676056 1.17183098.0450704.0901409.0450704.1352113.0225352.2253522-.1802817.6535211.1577465.969014.2704226 1.1718309.0225352.0450705 0 .0450705-.0225352.1577465-.1352113.4732395-.0450705.7887324.2478873 1.2169014.1352112.1577465.1577465.1802817.0676056.4056338-.1802817.6985916-.0225352.9690141.1577465 1.2619719.0450704.0676056.0901408.2028169.0676056.2929577-.1352112.4507042-.1577465.8338028-.0225352 1.2169014h1.487324c.1577464-.5408451-.0676057-1.0366197-.2929578-1.3070422-.0901408-.1352113-.1352113-.2028169-.0676056-.2704226.0225352-.0225352.2929577-.7436619-.1802817-1.3746479-.1577465-.2028169-.1352113-.1802817-.0901409-.3380281.1352113-.8112676-.0225352-.9464789-.2478873-1.2619719-.0450704-.0676056-.0676056-.2253521-.0450704-.3380281.0901408-.5183099.0676056-.7661972-.2704225-1.1492958-.0450705-.0450704-.0901409-.0676056-.0901409-.0901409.1577465-.38309857 0-.92394364-.1577465-1.17183097-.0450704-.09014084-.0676056-.04507042-.0225352-.29295774.0676057-.42816902-.0901408-.7887324-.4507042-1.05915493-.0450704-.04507043-.0450704-.09014085-.0450704-.15774648.0225352-.22535212-.0225352-.42816902-.1352113-.63098592-.0901408-.18028169-.2253521-.29295774-.428169-.38309859-.0225352 0-.0676056 0-.0676056-.06760563.0450704-.22535212-.0225353-.42816902-.1577465-.5859155-.2478873.09014085-.5183099.13521127-.8112676.18028169-.0901409.04507043-.2028169.06760564-.2704226.13521127z"/><path d="m18.0973129 3.49295775c-.0225352-.04507042-.0676056-.02253521-.0901408-.02253521-.2028169.02253521-.3830986-.04507042-.5633803-.13521127-.4732395-.2028169-.9690141-.4056338-1.4422535-.56338028-.4056339-.15774648-.7887324-.15774648-1.2169015-.09014085-.1802816.02253522-.3380281.02253522-.540845.06760564s-.4056338.13521127-.5633803.22535211c.0676056-.13521127.1577465-.24788732.2253521-.38309859s.1352113-.27042254.0901408-.42816901c0-.04507043 0-.04507043.0450705-.06760564.1577465-.02253521.2929577-.06760563.4056338-.2028169.0225352-.02253521.0225352-.04507042.0225352-.06760563-.0225352-.02253521-.0450704-.02253521-.0676056-.02253521-.0450705 0-.0901409.02253521-.1802817 0 .1352112-.04507043.2478873-.06760564.3830986-.13521127.0450704-.02253521.0901408-.02253521.0901408-.06760564 0-.04507042-.0676056-.02253521-.0901408-.09014084h.2028169c.1802816-.02253521.3154929-.09014085.4732394-.18028169.0450704-.02253521.0676056-.04507042 0-.09014085-.0450704-.02253521-.0676056-.04507042-.1352113-.09014084h.2704226c.1577464 0 .2704225-.04507042.4056338-.13521127.0225352-.02253521.0450704-.04507042.0450704-.06760563 0-.02253522-.0450704-.02253522-.0676056-.02253522-.0450705 0-.0901409 0-.1352113-.04507042.2028169 0 .3830986-.02253521.5633803-.06760563.3154929-.09014085.5633803-.29295775.7887324-.56338029.0225352-.02253521.0450704-.04507042.0225352-.09014084-.0225352-.02253521-.0450704-.02253521-.0901409-.02253521-.2929577.04507042-.6309859.02253521-.9239436 0-.6535212-.06760564-1.2619719.09014084-1.8253521.33802817-.3605634.13521126-.7211268.31549295-1.0140846.58591549-.0676056.06760564-.1577464.18028169-.2478873.27042254 0-.06760564 0-.13521127.0225352-.18028169 0-.02253521.0225352-.04507042 0-.06760564-.0225352-.02253521-.0450704 0-.0676056.02253522-.0225352.02253521-.0676056.04507042-.1577465.04507042.1352113-.09014085.2253521-.2028169.2929578-.31549296.0225352-.02253521.0676056-.04507043.0225352-.06760564-.0225352-.02253521-.0450704.02253521-.0676057.02253521-.0225352 0-.0450704.02253522-.0676056 0 .1802817-.09014084.2929578-.24788732.3830986-.42816901.0450704-.09014084.0676056-.18028169.0676056-.29295775 0-.02253521 0-.04507042-.0225352-.06760563-.0225352 0-.0450704 0-.0676056.02253521-.2028169.29295775-.4957747.45070423-.8338028.56338028-.4507043.15774648-.8112677.40563381-1.1267606.76619719-.2253521.27042254-.315493.58591549-.3830986.94647887-.0450704.24788733-.0676056.49577465 0 .74366197-.0225352.02253522-.0450704 0-.0450704 0-.1577465-.13521126-.315493-.2028169-.4957747-.29295774-.67605632-.38309859-1.32957744-.45070423-2.09577463-.27042254-.15774647.04507043-.31549295.06760564-.47323943.13521127-.04507042.02253521-.09014085.02253521-.15774648.02253521-.02253521 0-.06760564-.02253521-.09014085.02253521-.02253521.04507043 0 .06760564.02253521.09014085.13521127.15774648.27042254.22535211.45070423.27042253.24788732.06760564.49577465.09014085.76619718.04507043-.04507042.06760563-.13521126.09014084-.18028169.13521126-.02253521.02253522-.06760563.02253522-.06760563.06760564s.04507042.04507042.06760563.04507042c.15774648.04507042.31549296.06760563.51830986.06760563-.06760563.06760564-.15774648.06760564-.2028169.09014085-.02253521.02253521-.09014084.02253521-.09014084.06760563 0 .04507043.06760563.04507043.09014084.06760564.15774648.04507042.31549296.06760563.49577465.09014084-.13521127.04507042-.22535211.02253521-.31549296.04507042-.06760563.02253522-.15774648.04507043-.22535211.09014085-.02253521.02253521-.04507042.04507042-.02253521.06760563s.04507042 0 .06760563 0c.18028169-.04507042.31549296-.02253521.45070423.09014085 0 0 0 .02253521.02253521.04507042-.22535212-.02253521-.42816902.02253521-.63098592.06760563-.2028169.04507043-.4056338.15774648-.56338028.27042254-.58591549.45070423-1.17183099.92394366-1.46478873 1.62253521-.09014085.2028169-.22535212.4056338-.29295775.58591549-.04507042.09014085-.09014084.18028169-.18028169.22535212-.02253521.02253521-.04507042.02253521-.02253521.06760563 0 .02253521.02253521.02253521.04507042.02253521.24788733-.04507042.49577465-.13521127.69859155-.31549296.06760564-.06760563.13521127-.18028169.18028169-.27042253 0 .06760563-.02253521.13521127-.04507042.18028169-.02253521.02253521-.04507042.04507042-.02253521.06760563.02253521.04507043.04507042.02253521.09014084 0 .24788733-.09014084.47323944-.24788732.5859155-.51830986.02253521-.04507042.04507042-.09014084.06760563-.15774648 0 0 0 0 .02253521-.02253521 0 .09014085-.02253521.18028169-.04507042.24788733-.02253521.02253521-.02253521.04507042 0 .06760563s.04507042 0 .06760563-.02253521c.15774648-.09014085.29295775-.2028169.40563381-.33802817.02253521-.02253521.02253521-.04507042.04507042-.06760563 0 .09014084-.04507042.18028169-.06760564.27042253 0 .02253521-.02253521.04507042-.02253521.06760564.02253521.02253521.04507043 0 .06760564 0 .15774648-.02253522.24788732-.09014085.31549295-.20281691.15774648-.15774647.24788733-.33802816.31549296-.54084507.06760564.09014085 0 .20281691-.02253521.29295775 0 .04507042-.06760563.13521127-.02253521.18028169s.09014084 0 .18028169-.02253521c.02253521 0 .06760563-.02253521.13521127-.02253521-.04507043.09014084-.09014085.2028169-.15774648.29295774-.22535211.42816902-.27042254.87887324-.24788733 1.32957747.02253522.27042253.02253522.56338028-.04507042.83380282-.04507042.18028169-.13521127.31549295-.18028169.47323943-.02253521.02253521-.04507042.04507043-.02253521.09014085.02253521.02253521.06760563.02253521.09014085 0 .13521126-.04507042.24788732-.13521127.29295774-.27042254.02253521-.04507042.04507042-.06760563.04507042-.13521126.02253522-.04507043.04507043-.09014085.09014085-.04507043.02253521.02253521.04507042.02253521.06760563 0s0-.04507042 0-.06760563c-.02253521-.18028169 0-.31549296.06760564-.49577465.06760563.13521127.15774648.22535211.29295774.27042254.02253522 0 .04507043.02253521.06760564 0s0-.04507043-.02253521-.06760564c-.06760564-.15774648-.04507043-.29295774 0-.47323943.06760563.02253521.15774648.09014084.2028169.06760563.04507042-.04507042-.02253521-.13521127-.04507042-.2028169-.02253522-.09014085-.04507043-.2028169-.02253522-.31549296.06760564.09014085.15774648.15774648.22535212.2028169.02253521 0 .04507042.02253521.04507042 0 .02253518-.02253521 0-.04507042 0-.04507042-.06760563-.18028169-.04507042-.33802817 0-.54084507.04507038.04507042.09014088.13521127.15774648.18028169.0225352.02253521.0450704.04507042.0676056.02253521s0-.04507042 0-.06760563c-.0225352-.13521127-.0450704-.24788733 0-.38309859.0450704.09014084.0676057.18028169.1577465.24788732.0225352.02253521.0450704.04507042.0676056.04507042.0225353-.02253521.0225353-.04507042 0-.06760563-.0225352-.09014085 0-.18028169.0901409-.24788733.0225352.18028169.0225352.31549296.0450704.49577465.0676056.29295775.2478873.51830986.428169.74366197.0901409.13521127.2028169.22535212.2929578.31549296.0450704.04507042.0901408.13521127.1352112.2028169 0 .04507043.0225352.06760564.0676057.06760564.0450704 0 .0450704-.04507043.0676056-.06760564.0901408-.22535211.0450704-.42816901-.0225352-.63098591-.0450704-.09014085-.0901409-.22535212-.0901409-.33802817.0901409.04507042.1802817.13521127.2929578.09014084-.0901409-.2028169-.1577465-.4056338-.1577465-.63098591.0676056.04507042.1577465.09014084.2253521.13521127.0225352 0 .0450704.04507042.0676057 0 .0225352-.02253522 0-.04507043-.0225353-.06760564-.0901408-.2028169-.1352112-.4056338-.0901408-.63098591.0901408.04507042.1577465.13521126.2478873.15774647.0225352 0 .0450705.02253522.0676057 0 .0225352-.02253521 0-.04507042-.0225352-.06760563-.0676057-.15774648-.0450705-.33802817.0450704-.47323944.0225352.04507043.0225352.09014085.0450704.13521127.0676056-.06760563.2253521-.13521127.315493-.13521127.2929577-.02253521.5633803-.06760563.8112676-.18028169-.0225352-.04507042-.0676056-.09014084-.1352113-.15774647 0 0 0 0-.0225352-.02253522.0450704-.04507042.1352113.02253522.1802817-.02253521.0225352-.04507042-.0225352-.09014084-.0225352-.2028169.0676056.18028169.2028169.27042254.3154929.38309859.0225353.02253521.0450705.06760564.0901409.04507043.0225352-.02253522 0-.04507043 0-.09014085 0-.02253521 0-.02253521 0-.04507042.0901408.18028169.2253521.29295774.4056338.4056338.0225352.02253521.0676056.06760563.0901408.04507042.0450705-.02253521 0-.06760563 0-.15774648.0676057.18028169.2028169.31549296.315493.40563381.0225352.02253521.0450704.04507042.0676056.02253521s.0225352-.04507042 0-.09014085c-.0225352-.04507042-.0225352-.13521126.0225352-.2028169.0901409.22535211.2028169.42816902.3380282.5859155.0225352.02253521.0450704.04507042.0676056.06760563.0225353.02253521.0225353.02253521.0450705 0s0-.02253521 0-.04507042c-.0450705-.06760564-.0676057-.18028169-.0450705-.29295775.0676057.13521127.1352113.22535211.2028169.31549296.1802817.31549296.4732395.51830986.7661972.67605634.0225353.02253521.0676057.02253521.0901409 0 .0225352-.04507043 0-.06760564-.0225352-.09014085-.2929578-.27042253-.4732395-.63098591-.5859155-.96901408-.0901409-.31549296-.2478874-.65352113-.4056338-.94647888-.2478874-.51830986-.6535212-.87887324-1.1492958-1.12676056-.0225352 0-.0225352-.02253521-.0450704-.02253521h.2704225c.2028169.02253521.4056338 0 .5633803-.06760564.0225352 0 .0676056 0 .0676056-.04507042 0-.02253521-.0225352-.04507042-.0450704-.06760563-.0901408-.04507042-.1577465-.15774648-.2028169-.27042254.2253521.13521127.428169.22535212.6535211.24788733.1352113.02253521.2478873.02253521.3830986.02253521.0225352 0 .0676056 0 .0901409-.02253521.0225352-.04507043-.0225353-.04507043-.0450705-.06760564s-.0225352-.04507042-.0676056-.09014084c.1352113.04507042.2253521.13521127.3380282.13521127.0225352 0 .0676056.02253521.0901408.02253521s.0450705 0 .0450705-.02253521c.0225352-.02253522 0-.02253522-.0225353-.04507043-.0450704-.04507042-.0676056-.06760563-.0676056-.18028169.0676056.04507043.1352113.06760564.1802817.13521127.0901408.06760563.2253521.13521127.3830986.13521127.0225352 0 .0450704 0 .0450704-.02253521s0-.04507043-.0225352-.04507043c-.0676056-.02253521-.0676056-.09014084-.0901409-.18028169.1352113.06760564.2253522.13521127.3380282.18028169.2478873.06760564.4957747.02253522.6985916-.09014084.0901408-.06760563.2028169-.15774648.2929577-.22535211.3605634.13521126.3830986.11267605.3830986.06760563z"/></g></svg>