<?xml version="1.0"?>
<svg xmlns="http://www.w3.org/2000/svg" xmlns:xlink="http://www.w3.org/1999/xlink" xmlns:svgjs="http://svgjs.com/svgjs" version="1.1" width="512" height="512" x="0" y="0" viewBox="0 0 419.998 419.998" style="enable-background:new 0 0 512 512" xml:space="preserve"><g>
<g xmlns="http://www.w3.org/2000/svg">
	<g id="Layer_1_8_">
		<g>
			<path d="M291.16,376.509c-4.208-2.684-9.803-1.442-12.484,2.772c-5.796,9.1-25.226,4.135-37.657,0.732     c-0.268-0.073-180.914-50.424-180.914-50.424c-4.812-1.339-9.798,1.474-11.139,6.286c-1.338,4.813,1.475,9.798,6.287,11.14     l32.181,8.961c-1.655,1.941-2.938,4.249-3.667,6.869c-2.683,9.623,2.947,19.597,12.568,22.275     c9.624,2.681,19.596-2.949,22.277-12.569c0.729-2.619,0.825-5.26,0.408-7.778l91.248,25.413     c-1.652,1.941-2.938,4.249-3.666,6.868c-2.681,9.623,2.949,19.598,12.568,22.276c9.625,2.682,19.6-2.948,22.277-12.57     c0.699-2.512,0.82-5.043,0.467-7.466c0.057,0.015,0.106,0.03,0.166,0.048c13.34,3.713,40.015,8.235,51.85-10.348     C296.612,384.784,295.373,379.193,291.16,376.509z" data-original="#000000" style=""/>
			<path d="M194.192,80.675c4.875,3.28,10.397,5.552,16.16,6.678l0.058,0.012c14.28,2.771,29.298-1.826,39.596-12.098     c10.442-10.425,15.027-25.838,11.983-40.28c-2.962-14.066-12.908-26.109-26.186-31.633c-13.59-5.653-29.433-4.085-41.635,4.14     c-12.204,8.225-19.602,22.32-19.465,37.039C174.842,58.913,182.27,72.65,194.192,80.675z" data-original="#000000" style=""/>
			<path d="M388.305,74.783c-0.913-9.862-9.647-17.116-19.509-16.201l-79.805,7.391c-4.51,0.528-17.996,5.747-29.74,9.786     c-1.686,2.515-3.617,4.879-5.781,7.042c-11.143,11.114-27.393,16.089-42.844,13.09l-0.063-0.012     c-6.235-1.219-12.209-3.677-17.484-7.225c-2.751-1.854-5.268-4.002-7.548-6.363c-26.44-2.323-56.989-4.771-77.166-1.462     L41.39,103.535c-6.824,2.305-10.99,9.406-9.455,16.622c1.656,7.771,9.297,12.73,17.07,11.076l64.996-13.839l49.992,6.699     c0,0-19.606,73.377-19.608,73.385c-8.507,34.59,21.42,59.791,21.42,59.791l-37.056,58.685     c-4.957,7.892-3.075,18.445,4.563,24.043c7.988,5.857,19.212,4.128,25.068-3.861l50.054-68.284     c2.775-3.806,4.086-8.482,3.764-13.128l25.52,4.757l-44.891,70.075c-5.096,7.981-3.127,18.687,4.666,24.26     c8.056,5.76,19.254,3.901,25.018-4.153l66.743-93.311c1.488-2.103,2.669-4.604,3.29-7.268     c2.572-11.023-4.279-22.045-15.304-24.62l-0.977-0.226l-42.758-9.979l20.169-75.481c0.95-3.553,1.436-7.118,1.519-10.638     c0.483-0.223,0.964-0.457,1.437-0.717l41.003-22.512l75.345-10.724C382.365,92.834,389.188,84.334,388.305,74.783z" data-original="#000000" style=""/>
		</g>
	</g>
</g>
<g xmlns="http://www.w3.org/2000/svg">
</g>
<g xmlns="http://www.w3.org/2000/svg">
</g>
<g xmlns="http://www.w3.org/2000/svg">
</g>
<g xmlns="http://www.w3.org/2000/svg">
</g>
<g xmlns="http://www.w3.org/2000/svg">
</g>
<g xmlns="http://www.w3.org/2000/svg">
</g>
<g xmlns="http://www.w3.org/2000/svg">
</g>
<g xmlns="http://www.w3.org/2000/svg">
</g>
<g xmlns="http://www.w3.org/2000/svg">
</g>
<g xmlns="http://www.w3.org/2000/svg">
</g>
<g xmlns="http://www.w3.org/2000/svg">
</g>
<g xmlns="http://www.w3.org/2000/svg">
</g>
<g xmlns="http://www.w3.org/2000/svg">
</g>
<g xmlns="http://www.w3.org/2000/svg">
</g>
<g xmlns="http://www.w3.org/2000/svg">
</g>
</g></svg>
