<svg height="17" viewBox="0 0 17 17" width="17" xmlns="http://www.w3.org/2000/svg"><path d="m15.5975084 1.76155599c.2412935.34826599.4090031.75873869.4761099 1.21152131l-.0030201-.0043985c.1522221.97041607-.283301 1.95975244-1.1042645 2.51342118l-1.5540455 1.03603024.5753103.85145913 1.3224292-.88014196c.4689961-.30346805.6371295-.85410514.4086083-1.19688696-.0765881-.11488217-.0455446-.2700995.0693375-.34668762.1148822-.07658811.2700995-.04554465.3466876.06933753.3957741.59366114.1345646 1.44912234-.5503062 1.89224919l-10.27138846 6.83611637c-.68997724.4464559-1.56562181.3627546-1.9579668-.2257629-.07658812-.1148822-.04554465-.2700995.06933752-.3466877.11488217-.0765881.27009951-.0455446.34668762.0693376.22565702.3384855.79227647.3926476 1.26761446.0851009l1.82040729-1.211571-.57160021-.8459683-1.67527165 1.1168477c-1.87296736 1.2536797-2.95849425 1.0258531-3.71322277-.1213357-.90478505-1.3676983 1.1164974-5.36491395 3.72801876-7.09483893.11812504-.07824843.27760444-.04278531.35143771.0781485l.86048725 1.40941877.79119853-.52661688-.35419456-.77278813-.0312612.02117694c-.11491091.07784288-.27123504.04717974-.34822461-.06830462l-.28955517-.43433689c-.03443965-.01875809-.06495858-.04591858-.08822261-.08081462-.02326447-.0348967-.0365977-.07351515-.04066657-.11252099l-.30182605-.45274339c-.47521056-.70248517-.28388591-1.66548596.42759957-2.13300678.70248518-.47521056 1.66548596-.2838859 2.13300678.42759957.29797687.44048755.3338845.98340499.14312412 1.44282576l.72995655.84521285.63536858-.42289742-.35513-.77482911-.01815787.01230049c-.11491091.07784288-.27123503.04717974-.34822461-.06830462l-.28955516-.43433689c-.03443966-.01875809-.06495858-.04591858-.08822261-.08081463-.02326447-.03489669-.0365977-.07351514-.04066657-.11252098l-.30182606-.45274339c-.47521056-.70248518-.2838859-1.66548596.42759958-2.13300678.70248517-.47521056 1.66548595-.2838859 2.13300682.42759957.295755.43720316.3333344.97531442.1473533 1.43253522l.7329262.86150974c.449225-.4311844.5583943-1.09233138.1979366-1.63847929-.0783758-.1187513-.0419788-.27887943.0800285-.35208378.3577728-.21466373.8204832-.36584632 1.3739241-.46126715 1.0233926-.17688267 2.0067733.2473687 2.6094157 1.02184409.0233233.01670358.0441462.03773547.0612016.06285345.0133932.01972452.0235874.04067897.0306999.06224981zm-.3101059.42965582-1.1778919.79980317c-.1142272.07756165-.2697027.04783838-.3472643-.06638878-.0775617-.11422715-.0478384-.2697027.0663887-.34726435l1.1593898-.78723997c-.4972541-.53249815-1.2389058-.81551944-2.0067783-.68280076-.3869741.06671967-.7187324.16184868-.9872788.28496568.4357065.93257703-.0175875 2.02028937-.9943006 2.42415661l-3.91132684 2.6075512c-.00234671.00162348-.00472694.00321058-.00714102.00476068l-1.18153218.78768812c-.11813525.07875684-.27806667.04344031-.35205101-.07774093l-.85797106-1.40529742c-2.3082065 1.6690403-4.06343131 5.21162174-3.37333407 6.25479334.60335172.9170946 1.37692881 1.0794503 3.01812725-.0190933l1.80249683-1.2016638c.0174843-.0261765.04023698-.0494657.06793104-.0681779.02860467-.0193275.05977266-.0319421.09164219-.0382042l6.57200097-4.38133119c.0143697-.0168717.0312391-.03209814.0504983-.04511108.0201613-.01362251.041596-.02391019.0636522-.03098923l1.7052136-1.13680833c.6595691-.44482573 1.0108001-1.24268365.885745-2.05939863l.0027659.00274168c-.0446877-.29791783-.1451364-.57404217-.2889817-.81895061zm-5.2586551-.13032815c.1466626-.31729275.1288196-.70133443-.08072217-1.01111795-.31613909-.48108123-.96503614-.61000117-1.43963774-.28897416-.31805215.2090057-.48218203.56345288-.46439742.91642376l.53186224-.35457482c.32430269-.21620179.76789404-.12748352.99921288.20671126.21620179.32430269.12748352.76789404-.20671126.99921287l-.64396878.42931252.07409306.1111396c.02297992-.02716226.05214956-.049825.08663295-.06562988.01114189-.00510671.022464-.00932579.03388678-.0126868l.73713557-.4993499.00291756-.0019467c.12713617-.08354662.22967755-.19033291.30581936-.31100037.0099342-.04314427.03136036-.08397694.06387697-.11751943zm.2046217.58889633c-.0859938.09579692-.1855821.18227544-.29820037.25647035l-.6253954.42365494.35687307.77863215 1.0978941-.73075156c.0217009-.00907494.0430519-.01853353.0640479-.02836217zm-1.78632838-.10791949.64033566-.4268565c.10792473-.07471712.13549295-.21255822.07412819-.30467471-.07471712-.10792472-.21255823-.13549294-.30830216-.07166366l-.6516835.43445567c.00551279.00869828.0111728.01734176.01698062.02592742zm-.84686151 1.86598798c-.08463536.09318989-.18223868.17741774-.29228321.24991701l-.61229206.41477849.35593762.77659117 1.13877943-.7579646zm-.25212167-.49486816c.00830454-.02147194.0196529-.0419749.03399485-.06082217.16724854-.32454213.15707501-.72803507-.06129988-1.05087728-.3161391-.48108124-.96503614-.61000118-1.43963775-.28897417-.31805215.2090057-.48218203.56345288-.46439741.91642377l.53186223-.35457483c.32430269-.21620179.76789404-.12748352.99921288.20671126.21620179.32430269.12748352.76789404-.20671126.99921288l-.64396878.42931252.07562043.11343064.03913941-.0265138c.01658756-.01492247.03544292-.02783515.05635808-.03817805l.76063044-.51526578.00291756-.0019467c.13305346-.08743513.23916943-.20032355.3162792-.32793829zm-1.77381135.01165613c.00551278.00869828.01117279.01734176.01698061.02592742l.22854119.34281178.64033566-.4268565c.10792473-.07471711.13549295-.21255822.07412819-.30467471-.07471712-.10792472-.21255822-.13549294-.30830216-.07166365zm1.70105016 7.91232155 6.29605225-4.19033383-.5750935-.85113851-6.2927756 4.19518334zm-1.54723168-3.36440651c-.13527041-.02766895-.22249862-.15975739-.19482968-.29502779.02766895-.1352704.15975739-.22249862.29502779-.19482967l2.26666667.46363636c.1352704.02766895.22249862.15975739.19482967.29502779-.02766894.1352704-.15975738.22249862-.29502779.19482967zm1.42703746-.94408611c-.13546831-.02668315-.2236561-.15813288-.19697295-.29360119.02668315-.1354683.15813288-.2236561.29360119-.19697294l2.26666667.44646464c.1354683.02668315.2236561.15813288.19697295.29360119-.02668316.13546831-.15813289.2236561-.29360119.19697295zm1.42525253-.94444444c-.13546831-.02668315-.2236561-.15813288-.19697295-.29360119s.15813288-.2236561.29360118-.19697295l2.26666671.44646465c.1354683.02668315.2236561.15813288.1969729.29360119-.0266831.1354683-.1581329.2236561-.2936012.19697294zm1.44206934-.96168633c-.13542954-.02687915-.22342703-.15845635-.19654788-.29388591.02687915-.13542955.15845635-.22342704.29388588-.19654789l2.249495.44646464c.1354295.02687915.223427.15845635.1965479.29388591-.0268792.13542955-.1584564.22342704-.2938859.19654789zm-8.52901038 6.52064159c-.10443196-.0903196-.11587234-.2481968-.02555281-.3526288s.24819682-.1158723.35262878-.0255528c-.00742325-.0064201-.00143186-.0028162.02110604.0056094.38577653.1442201 1.18344011-.0537045 2.51038996-.9348822.11502023-.0763806.27018128-.045057.3465619.0699632.07638062.1150203.04505703.2701813-.0699632.3465619-1.44728064.9610848-2.39894576 1.1972219-2.96207543.9866996-.07915544-.0295918-.13636691-.0640053-.17309524-.0957703z" transform="translate(0 1.444)"/></svg>