<svg height="17" viewBox="0 0 17 17" width="17" xmlns="http://www.w3.org/2000/svg"><path d="m8.16815657.00532323c-4.66538384.16450505-8.32725253 4.09408081-8.16283334 8.75946465.16441919 4.66546972 4.09390909 8.32733842 8.75937879 8.16291922 4.66546968-.1644192 8.32733838-4.0939091 8.16283338-8.75937882-.1645051-4.66546969-4.0939091-8.3275101-8.75937883-8.16300505zm6.54937883 3.84732323c.2381717 1.26220708.8958484 5.91737374-1.647197 8.87185354-1.7062677 1.9834192-4.5338485 2.8227727-8.39001517 2.5200354-.23379293-.1311061-.45994444-.2734596-.67828283-.4273182.28762627.0131363.57027273.0205202.8464798.0205202 3.30907576 0 5.7969141-.9424697 7.4083081-2.8118687 2.4179495-2.80534345 2.202101-6.88817678 1.9287273-8.81261112.1876868.20408585.3666161.4160707.5319798.63938888zm-14.02079298 4.88784344c-.15102525-4.28425758 3.21154041-7.89272222 7.49579798-8.04374748 2.0366515-.07177777 3.9149798.65690404 5.3472727 1.89472728.2408334 1.27860606.9199748 6.0629899-1.686606 9.0865-1.7478233 2.0278939-4.64014144 2.8844192-8.59083841 2.5530909-1.50802021-1.3618889-2.48861111-3.3043535-2.56562627-5.4905707zm8.04357576 7.495798c-.94478788.0333131-1.853-.1129041-2.70222727-.3934899.04078283.0002576.08371212.003005.12432323.003005 3.27009596-.0005151 5.72513636-.9300202 7.31154546-2.7739192 2.1456919-2.4927323 2.1716212-6.00623734 1.9574899-8.04366158.4751414.95878283.7645707 2.02746465.8046667 3.1644899.1510252 4.28425758-3.2115404 7.89263638-7.49579802 8.04357578z"/></svg>