<svg height="17" viewBox="0 0 17 17" width="17" xmlns="http://www.w3.org/2000/svg"><g fill-rule="evenodd"><g transform="translate(0 5.753)"><path d="m8.61032828 5.00813131c.42328283-.46784343.76113637-1.23138384.37880808-2.22502525-.02936363-.07074747-.73829798-1.74189899-2.63328282-2.60374747-1.67475758-.7619091-3.06377778 1.30625252-3.11082829 1.37820202-.05177272.06894444-1.27534343 1.70137373-2.03287373 3.09872222-.04138384.09152525-.04739394.19747475-.0269596.31278283l-1.09967677 1.22408586c-.04164141.04670707-.06911616.10431818-.07890404.16622222-.05323232.33716666.21584849.83969697.79985859 1.49428283.05649495.06319191 1.37596969 1.53137373 2.1585707 1.53120202.00901516 0 .01768687-.00017172.02644445-.00051516.07529798-.00326262.14664646-.03236868.20271212-.08276767l1.29002525-1.15840404c.03279798.00472222.06362121.00764141.09109596.00764141.0974495 0 .16364647-.02644444.21181313-.05357576.34437879-.09779293 2.44791414-.70721717 3.38351515-1.25147474.39649495-.23070202.63303536-.52176263.70283839-.86485354.09384343-.46226263-.16107071-.81969192-.17781313-.84115656zm-5.73586868 3.70840404c-.20606061-.07383838-.64814647-.35957575-1.19137374-.88623232-.64127778-.62213131-.95414647-1.11367172-1.0214596-1.30702525l.82166667-.91456566c.46973232.70034849 1.3345 1.46062626 1.57541919 1.66574243.30874748.26315656.56220202.45032828.77221212.58306565zm3.79709596-2.84947474c.08834848.15540404.28676767.20983838.44251515.12080303l.97810101-.5585101c.00437879-.00240405.00901515-.00489394.01339394-.00738384l.05580808.08542929c.00111616.00163131.11513636.16622222.07538384.34927273-.03331314.15214141-.16510606.2960404-.39254546.42817676-.92701515.53953536-3.25318182 1.19352021-3.27636364 1.20004546-.00978787.00274747-.01914646.0060101-.0285909.00944444-.5514697-.08963636-2.60572223-2.05785858-2.71759596-2.60160101.72713636-1.32385353 1.93001515-2.92906565 1.95319697-2.96091919.01116161-.017 1.14131818-1.69381818 2.31242929-1.16166666 1.65415151.75229292 2.29645959 2.24691919 2.29937879 2.25361616.45659596 1.18768181-.50081313 1.7765-.61311616 1.8405505l-.98093435.56022727c-.15583333.08877778-.20975252.28685354-.1210606.44251516z" fill-rule="nonzero"/><path d="m3.72145455 8.21323232c-.17601011-.07710101-.57035859-.32119697-.93603031-.67802525-.03657576-.03528788-.0945303-.03442929-.13033333.00085859l-.30522727.30531313c-.01811617.01794444-.02790404.04232828-.02721718.06774242.00077273.02532828.01159091.04945455.0304798.06645455.20425758.18536868.72567677.56924242 1.03854546.67390404.00935858.00326262.01957575.00489394.02936363.00489394.02421212 0 .04782324-.00944445.0655101-.02713132l.26324243-.26341414c.02172222-.02172222.03116667-.05263131.02567172-.08276767-.00583839-.03022223-.02610101-.05555051-.05400505-.06782829z"/></g><g transform="translate(7.727)"><path d="m9.18798485 6.43364141c-.00978788-.06190404-.03726263-.11951515-.07890404-.1660505l-1.10774748-1.23344445c.02043435-.11917171.01390909-.22924242-.02927777-.32471717-.74705556-1.37622727-1.97019697-3.0085707-2.01037879-3.06128788-.05829798-.0885202-1.44697475-2.15565151-3.12250505-1.39425757-1.89489899.86159091-2.60391919 2.53291414-2.63620202 2.61138889-.38061111.98891919-.04129798 1.75117171.38164141 2.2180707l-.07315151.1129899c-.02936364.03923738-.28427778.39649495-.19009091.85858586.06988889.34326263.30634343.63440909.70283838.86528283.93568687.54425758 3.03922222 1.15368182 3.38325758 1.25147475.04816666.02713131.11444949.05357576.21181313.05357576.02764646 0 .05864141-.00283334.09161111-.00764142l1.28985353 1.1584899c.05615152.05031313.12784344.07950505.20279798.08276768.00867172.00034343.0174293.00051515.02644445.00051515.78251515 0 2.1019899-1.46852525 2.15857071-1.53171717.5840101-.65424243.85274747-1.15703031.79942929-1.49402526zm-7.83708586-.07435353c-.22743939-.13213636-.35923232-.27629293-.39254545-.42834849-.03983839-.1830505.07383838-.34764141.08508585-.36352525l.04602021-.07100505c.00360606.00197475.00686868.0039495.01047474.00575253l.98093435.55996969c.15574747.08869192.35382323.03477273.44251515-.12088889.08869192-.15557575.03477273-.35382323-.12097475-.44251515l-.98239394-.56091414c-.11041414-.06319192-1.06816666-.6520101-.61483333-1.83136364.00652525-.01502525.6484899-1.50965151 2.30264141-2.26194444 1.16922222-.53155051 2.30118182 1.14440909 2.32367677 1.17720707.01227778.01648485 1.22606061 1.63689394 1.94237879 2.94374748-.10904041.54185353-2.16655556 2.51376767-2.71836869 2.60323232-.00944444-.00343434-.01880303-.00669697-.02859091-.00944445-.02318182-.00643939-2.34831818-.66025252-3.2760202-1.19995959zm6.16061111 1.54511111c-.54322727.52708586-.9849697.81256566-1.1910303.88666162l-.95663637-.85927273c.21009596-.13282323.46355051-.31999495.77229798-.5829798.24074748-.20511616 1.10439899-.96444949 1.57121213-1.67046465l.82372727.91722728c-.06911616.20090909-.38189899.69030303-1.01957071 1.30882828z" fill-rule="nonzero"/><path d="m6.84516162 7.91581818-.30531314-.30531313c-.03545959-.0354596-.09341414-.03657576-.13033333-.00085859-.36541414.35631314-.76010606.60058081-.93645959.67785354-.02790404.01227778-.04816667.03769192-.0539192.06774242-.00540909.03022223.0039495.06121718.02567172.08276768l.26358586.26341414c.01777273.01777273.04129798.02721717.06559596.02721717.00978788 0 .01991919-.00163131.02936364-.00489394.31286868-.10466161.83428787-.48827777 1.03854545-.67373232.01880303-.017.02970707-.04112626.03039394-.06645454.00077273-.02541415-.00901515-.04988384-.02713131-.06774243z"/></g></g></svg>