<svg xmlns="http://www.w3.org/2000/svg" width="75" height="40"><defs><linearGradient id="A" x1="14.721%" x2="83.426%" y1="54.081%" y2="46.141%"><stop offset="0%" stop-color="#fbaa19"/><stop offset="5%" stop-color="#ffc40c"/><stop offset="11%" stop-color="#fdb73b"/><stop offset="32%" stop-color="#fced99"/><stop offset="43%" stop-color="#f4d48b"/><stop offset="52%" stop-color="#f2d176"/><stop offset="66%" stop-color="#f4d595"/><stop offset="75%" stop-color="#e6a224"/><stop offset="87%" stop-color="#e6a224"/><stop offset="96%" stop-color="#e29c26"/><stop offset="100%" stop-color="#d69328"/></linearGradient></defs><g fill-rule="evenodd"><path fill="url(#A)" d="M54.745 30.48c-.012.978.166 1.948.523 2.846l.813 1.676c1.603 2.324 4.024 3.814 6.68 4.11a12.63 12.63 0 0 0 5.663-.474c1.045-.285 1.946-.95 2.294-.95s1.162 1.58 2.09 1.645c.523-1.202-.145-6.642.26-7.6.9 0 .987.158 1.016-.443v-.443h-7.957c-1.25 0-1.568-.41-1.568.696s1.19 0 1.19.57c.16 1.77.132 3.552-.087 5.313-.296.48-.853.678-1.353.485s-.815-.732-.767-1.307v-9.172c0-1.834-.668-5.25 1.452-5.25 1.307-.076 2.6.313 3.688 1.107.842.612 1.547 1.423 2.062 2.372.726 1.455-.145 2.53 1.336 2.182a10.81 10.81 0 0 0 0-1.961c.174-1.586.174-3.19 0-4.776-1.103 0-1.946 1.17-2.73 1.17l-2.265-.98c-2.79-.763-5.74-.333-8.247 1.202-.96.55-1.78 1.355-2.38 2.34a11.79 11.79 0 0 0-.726 1.645c-.617 1.216-.91 2.597-.842 3.985h-.145zM49.867 21.5h2.15c1.053-.096 2.112-.096 3.165 0v.886a2.75 2.75 0 0 0-1.278.474c-1.162.95-1.25 2.277-1.365 4.048v11.575c-.48.208-1 .274-1.5.2-3.514 0-2.294.6-4.995-2.973l-6.766-9.108c-.697-1.012-.958-1.613-.987-.917s.145 0 0 1.202v4.08c0 1.898 0 5.566 1.713 6.325.436.2 1.25.253 1.452.506s0 .696-.465.822H16.298a17.1 17.1 0 0 1-3.63 0c-.348-1.58.726-.76 1.25-.917s0-.506 0-.727l-2.178-4.048c-.377-.85-.835-1.656-1.365-2.404v3.605c-.13 1.166-.13 2.345 0 3.51a3.43 3.43 0 0 1 1.8.19c0 .822 0 .886-.813.886-2.236 0-9.786.158-10.802 0-.045-.218-.064-.44-.058-.664.188-.278.5-.423.813-.38h1.19V25.958c0-3.637.668-3.416-.987-3.416-.93 0-1.19-.285-.813-1.075H12.32l.3.285v.664h-2.09v1.455l-.03 4.68c.436 0 .58-.57 1.016-.664l3.978-3.163c.203-.285.494-.538.465-1.044s-.842-1.233-1.54-1.297c-.405.028-.8-.037-1.19-.2V21.5a48.36 48.36 0 0 1 7.637-.19c1.684 0 1.742-.158 1.742.886-1.822.24-3.55 1.016-4.995 2.245-1.655 1.17-1.54.886-.697 2.404.26.443.378.822.64 1.265l3.6 6.768v.57c.28.293.5.65.64 1.044 0 .2.203.38.32.538l.3.474h2.265V24.63c0-.506.174-1.74 0-2.024s-1.162 0-1.713 0-.232-.822.407-.95H42.49c1.25 0 1.888-.22 2.4.538l1.307 1.803 2.904 3.985c.097.155.204.303.32.443.223.3.426.618.6.95.407.348.726 1.17 1.25 1.55v-1.17a15.13 15.13 0 0 0-.523-5.693c-.32-.727-.93-1.012-1.103-1.233h-.668c-1.336 0-1.103 0-1.074-.98h1.83l.116-.348zm-14.17 15.813c.495-.306.868-.802 1.045-1.392a7.34 7.34 0 0 0 .348-2.056V24.06c-.153-.585-.507-1.083-.987-1.392-.6-.316-1.278 0-2.09-.22-.174.158-.26.158-.64 0h-.64v15.117c.987.158 1.993.104 2.962-.158v-.095z"/><g><path d="M21.413 15.84V7.568c0-.236.293-.288.556-.34.703-.183 1.523-.367 2.05.47a2.52 2.52 0 0 1 .293 1.44v6.78c.002.252-.102.495-.293.68-.498.497-1.29.236-1.845 0l-.47-.262c-.205-.13-.293-.183-.293-.445v-.052zm23.43-4.712c-.887.066-1.778.066-2.665 0-1.054 0-.264-4.1-.176-4.215a2.01 2.01 0 0 1 2.548 0 15.53 15.53 0 0 1 .293 4.11v.105zM12.98.657v15.707c0 .995.556.785-2.05.785-.293.393-.264.42 0 .864 1.845.367 6.706-.157 9.196.157.527 0 1.464.576 1.523-.157v-.733c1.82 1.095 4.078 1.435 6.2.933s3.895-1.796 4.87-3.55c0-.183 0 0 .146-.21s0-.838.498-.9c0 .157 0 .393.176.55 4.656 9.163 19.387 2.853 17.396 0a.9.9 0 0 0-.469-.183c-.732 1.44-5.857 4.607-8.054 2.618-.253-.4-.384-.85-.38-1.31v-3.14c.47-.183 8.024 0 9.284 0C53.89 6.86 38.37.71 33.742 9.715a2.27 2.27 0 0 0-.176.262c0 .236 0 .445-.293.602a6.63 6.63 0 0 0-1.406-2.618c-.752-.868-1.77-1.523-2.93-1.885-.752-.273-1.56-.398-2.372-.367-1.613.116-3.2.36-4.774.733V1.86c0-.445-.644-.262-.996-.262-1.116.04-2.234-.012-3.34-.157-1.086-.132-2.15-.387-3.163-.76 0 0-1.376-.445-1.376.052l.06-.08z"/><path d="M50.1 3.243h-.42c-1.05-.307-.813.168-.813 2.46 0 1.48.184 1.844-.34 1.872s-.55 0-.787 0c-.34.503-.34 1.2.288 1.2h.84l.157 9.388c.058.276.137.547.236.8l.393.67c.337.4.747.724 1.206.95h.367a1.49 1.49 0 0 1 .42.168 10.79 10.79 0 0 0 3.907 0l.97-.335c.762-.266 1.418-.797 1.862-1.51.39-.51.717-1.075.97-1.676l.42-.922c0-.56-.944-1.006-1.337 0-.2.53-.682 1.956-1.4 1.956-.12.032-.247.032-.367 0v-9.22c0-.447 1.285 0 2.23-.28a.91.91 0 0 0 0-1.118h-2.098c-.08-1.377-.08-2.758 0-4.135 0 0 .157-.978-.2-.978a20.41 20.41 0 0 1-6.503.699z"/></g></g></svg>