<svg xmlns="http://www.w3.org/2000/svg" xmlns:xlink="http://www.w3.org/1999/xlink" width="28" height="20" viewBox="0 0 28 20">
  <defs>
    <circle id="brazil-a" cx="14" cy="10" r="4.667"/>
  </defs>
  <g fill="none" fill-rule="evenodd">
    <rect width="28" height="20" fill="#05AB41"/>
    <path fill="#FDD216" d="M3.22868843,10.3636611 C2.91829238,10.1628166 2.92467316,9.83305462 3.22868843,9.63633886 L13.4379782,3.03032781 C13.7483743,2.82948331 14.2580065,2.83361204 14.5620218,3.03032781 L24.7713116,9.63633886 C25.0817076,9.83718336 25.0753268,10.1669454 24.7713116,10.3636611 L14.5620218,16.9696722 C14.2516257,17.1705167 13.7419935,17.166388 13.4379782,16.9696722 L3.22868843,10.3636611 Z"/>
    <mask id="brazil-b" fill="#fff">
      <use xlink:href="#brazil-a"/>
    </mask>
    <use fill="#053087" xlink:href="#brazil-a"/>
    <path fill="#FFF" fill-rule="nonzero" d="M9.13807118,9.80473786 L8.66666665,10.2761424 L7.72385763,9.33333331 L8.19526216,8.8619288 C9.00029215,8.05689884 10.5783667,8.1204517 14.1035555,8.67475858 C16.3662613,9.03055043 18.9806723,10.0378634 19.8047378,10.8619288 L20.2761424,11.3333333 L19.3333334,12.2761424 L18.8619288,11.8047379 C18.2796054,11.2224145 15.9060525,10.3079024 13.8964445,9.9919081 C11.0723521,9.54784283 9.45990341,9.48290564 9.13807118,9.80473786 Z" mask="url(#brazil-b)"/>
  </g>
</svg>
