<svg xmlns="http://www.w3.org/2000/svg" xmlns:xlink="http://www.w3.org/1999/xlink" xmlns:serif="http://www.serif.com/" width="100%" height="100%" viewBox="0 0 17 10" version="1.1" xml:space="preserve" style="fill-rule:evenodd;clip-rule:evenodd;stroke-linejoin:round;stroke-miterlimit:2;">
    <g transform="matrix(1,0,0,1,-35,-735)">
        <path id="ic_cashiers" d="M49.663,735C50.409,735.001 51.014,735.623 51.015,736.391L51.015,743.607C51.014,744.375 50.409,744.997 49.663,744.998L36.352,744.998C35.606,744.997 35.001,744.375 35,743.607L35,736.391C35.001,735.623 35.606,735.001 36.352,735L49.663,735ZM38.422,735.995C38.227,735.995 38.067,736.168 38.058,736.387C38.023,737.245 37.356,737.811 36.36,737.829C36.162,737.833 36.002,738.016 36.002,738.242L36.002,741.772C36.002,741.997 36.162,742.181 36.36,742.185C37.372,742.203 38.023,742.755 38.058,743.626C38.067,743.846 38.227,744.02 38.422,744.02L47.61,744.02C47.804,744.02 47.964,743.847 47.973,743.627C48.009,742.769 48.675,742.203 49.671,742.185C49.87,742.181 50.029,741.997 50.029,741.773L50.029,738.242C50.029,738.017 49.87,737.833 49.671,737.83C48.688,737.812 48.029,737.246 47.994,736.388C47.985,736.168 47.825,735.995 47.63,735.995L38.422,735.995ZM47.107,737.098C47.368,737.932 48.047,738.527 48.943,738.744L49.027,738.761L49.027,741.251L48.966,741.264C48.04,741.476 47.339,742.084 47.079,742.941L47.059,743.016L38.974,743.016L38.953,742.936C38.697,742.075 38.002,741.474 37.071,741.263L37.004,741.25L37.004,738.761L37.066,738.75C37.991,738.538 38.692,737.931 38.952,737.074L38.972,736.998L47.079,736.998L47.107,737.098ZM41.012,740.007C41.012,741.115 41.909,742.013 43.016,742.013C44.122,742.013 45.02,741.115 45.02,740.007C45.02,738.899 44.122,738.001 43.016,738.001C41.909,738.001 41.012,738.899 41.012,740.007ZM44.018,740.007C44.018,740.561 43.569,741.01 43.016,741.01C42.462,741.01 42.014,740.561 42.014,740.007C42.014,739.453 42.462,739.004 43.016,739.004C43.569,739.004 44.018,739.453 44.018,740.007Z"/>
    </g>
<style type="text/css">
	path{fill:#293141;}
</style>
<div xmlns="" id="divScriptsUsed" style="display: none"/><script xmlns="" id="globalVarsDetection" src="chrome-extension://cmkdbmfndkfgebldhnkbfhlneefdaaip/js/wrs_env.js"/></svg>