<svg width="25" height="25" viewBox="0 0 25 25" xmlns="http://www.w3.org/2000/svg">
<path d="M8.42529 19.1359C8.41895 19.1046 8.40967 19.0739 8.39746 19.0441C8.38525 19.0148 8.37012 18.9864 8.35254 18.9601C8.33496 18.9332 8.31445 18.9083 8.29199 18.8859C8.26953 18.8634 8.24463 18.8429 8.21777 18.8253C8.19141 18.8077 8.16309 18.7926 8.1333 18.7804C8.104 18.7682 8.07324 18.7584 8.04199 18.7526C7.979 18.7399 7.91406 18.7399 7.85156 18.7526C7.82031 18.7584 7.78955 18.7682 7.75977 18.7804C7.73047 18.7926 7.70215 18.8077 7.67578 18.8253C7.64893 18.8429 7.62402 18.8634 7.60156 18.8859C7.5791 18.9083 7.55859 18.9332 7.54102 18.9601C7.52295 18.9864 7.5083 19.0148 7.49609 19.0441C7.48389 19.0739 7.47412 19.1046 7.46826 19.1359C7.46191 19.1671 7.4585 19.1993 7.4585 19.2311C7.4585 19.2628 7.46191 19.295 7.46826 19.3263C7.47412 19.3575 7.48389 19.3883 7.49609 19.4176C7.5083 19.4474 7.52295 19.4757 7.54102 19.5021C7.55859 19.5289 7.5791 19.5538 7.60156 19.5763C7.62402 19.5988 7.64893 19.6193 7.67578 19.6368C7.70215 19.6545 7.73047 19.6696 7.75977 19.6818C7.78955 19.694 7.82031 19.7038 7.85156 19.7096C7.88281 19.716 7.91504 19.7194 7.94678 19.7194C7.97852 19.7194 8.01074 19.716 8.04199 19.7096C8.07324 19.7038 8.104 19.694 8.1333 19.6818C8.16309 19.6696 8.19141 19.6544 8.21777 19.6368C8.24463 19.6193 8.26953 19.5988 8.29199 19.5763C8.31445 19.5538 8.33496 19.5289 8.35254 19.5021C8.37012 19.4757 8.38525 19.4474 8.39746 19.4176C8.40967 19.3883 8.41895 19.3575 8.42529 19.3263C8.43164 19.295 8.43506 19.2628 8.43506 19.2311C8.43506 19.1993 8.43164 19.1671 8.42529 19.1359Z"/>
<path d="M22.4606 19.2863C22.4587 19.2814 22.4567 19.2765 22.4547 19.2718C22.0053 18.2201 20.9513 17.8315 19.7039 18.2575L16.3021 19.1982C16.1055 18.6026 15.6149 18.0958 14.9212 17.8384C14.9169 17.8368 14.9126 17.8352 14.9083 17.8338L11.169 16.5646C10.8578 16.1623 9.88286 15.1329 8.05752 15.1329C6.78189 15.1329 5.65342 16.008 5.00781 16.9619H0.488281C0.218604 16.9619 0 17.1805 0 17.4502V23.6063C0 23.876 0.218604 24.0946 0.488281 24.0946H3.39146C3.66113 24.0946 3.87974 23.876 3.87974 23.6063V23.1847H5.24121C5.51089 23.1847 5.72949 22.9661 5.72949 22.6964V22.5559C6.52314 22.6251 6.78418 22.7757 7.51309 23.196C8.07363 23.5192 8.92085 24.0077 10.4465 24.6937C10.4536 24.6969 10.4608 24.6999 10.468 24.7028C10.7608 24.8179 11.3332 24.9989 12.0389 24.9989C12.5301 24.9989 13.086 24.9112 13.6566 24.6525L21.1757 21.9603C21.1891 21.9555 21.2023 21.9502 21.2152 21.9442C21.9338 21.6136 23.0046 20.6818 22.4606 19.2863ZM2.90317 23.1179H0.976562V17.9384H2.90317V23.1179ZM4.75293 22.2081H3.87974V17.9384H4.75293V22.2081ZM20.825 21.0486L13.3093 23.7395C13.3027 23.7419 13.2937 23.7454 13.2873 23.748C13.2807 23.7507 13.2741 23.7535 13.2676 23.7565C12.2208 24.2376 11.2259 23.9496 10.8359 23.798C9.36221 23.1348 8.57563 22.6813 8.00093 22.3499C7.2019 21.8891 6.81689 21.6671 5.72949 21.5773V17.6446C6.19233 16.886 7.08989 16.1094 8.05757 16.1094C9.71704 16.1094 10.4202 17.1888 10.4479 17.2323C10.5075 17.3293 10.5991 17.4024 10.7069 17.439L14.5875 18.7561C15.2073 18.9887 15.5348 19.5195 15.3843 20.0488C15.3148 20.2932 15.1542 20.4959 14.9323 20.6196C14.7122 20.7422 14.4578 20.7725 14.2153 20.7054L9.84067 19.3191C9.58345 19.2376 9.30913 19.38 9.22769 19.6371C9.14619 19.8942 9.28857 20.1686 9.54565 20.2501L13.9279 21.6388C13.9326 21.6403 13.9372 21.6417 13.9419 21.643C14.1168 21.6927 14.295 21.7174 14.472 21.7174C14.7961 21.7174 15.1167 21.6348 15.4076 21.4727C15.8575 21.222 16.1828 20.8112 16.3236 20.3158C16.3348 20.2763 16.3448 20.2367 16.3534 20.1972L20.0196 19.1816C20.5491 19.0007 21.2441 18.9355 21.5536 19.6483C21.8739 20.485 21.0414 20.9453 20.825 21.0486Z"/>
<path d="M17.5322 6.42297C17.5259 6.39172 17.5166 6.36096 17.5039 6.33118C17.4917 6.30188 17.4771 6.27356 17.459 6.24719C17.4414 6.22034 17.4209 6.19543 17.3984 6.17297C17.376 6.15051 17.3511 6.13 17.3242 6.11243C17.2979 6.09485 17.2695 6.07971 17.2402 6.0675C17.2104 6.0553 17.1797 6.04553 17.1489 6.03967C17.0859 6.02698 17.021 6.02698 16.958 6.03967C16.9268 6.04553 16.896 6.0553 16.8667 6.0675C16.8369 6.07971 16.8086 6.09485 16.7822 6.11243C16.7554 6.13 16.7305 6.15051 16.708 6.17297C16.6855 6.19543 16.665 6.22034 16.6475 6.24719C16.6299 6.27356 16.6147 6.30188 16.6025 6.33118C16.5903 6.36096 16.5806 6.39172 16.5747 6.42297C16.5684 6.45422 16.5649 6.48645 16.5649 6.51819C16.5649 6.54993 16.5684 6.58215 16.5747 6.6134C16.5806 6.64465 16.5903 6.67542 16.6025 6.70471C16.6147 6.7345 16.6299 6.76282 16.6475 6.78918C16.665 6.81604 16.6855 6.84094 16.708 6.8634C16.7305 6.88586 16.7554 6.90637 16.7822 6.92395C16.8086 6.94153 16.8369 6.95667 16.8667 6.96887C16.896 6.98108 16.9268 6.99036 16.958 6.9967C16.9893 7.00305 17.0215 7.00647 17.0532 7.00647C17.085 7.00647 17.1172 7.00305 17.1489 6.9967C17.1797 6.99036 17.2104 6.98108 17.2402 6.96887C17.2695 6.95667 17.2979 6.94153 17.3242 6.92395C17.3511 6.90637 17.376 6.88586 17.3984 6.8634C17.4209 6.84094 17.4414 6.81604 17.459 6.78918C17.4771 6.76282 17.4917 6.7345 17.5039 6.70471C17.5166 6.67542 17.5259 6.64465 17.5322 6.6134C17.5386 6.58215 17.5415 6.54993 17.5415 6.51819C17.5415 6.48645 17.5386 6.45422 17.5322 6.42297Z"/>
<path d="M24.5117 1.65504H21.6085C21.3388 1.65504 21.1202 1.87365 21.1202 2.14332V2.56491H19.7588C19.4891 2.56491 19.2705 2.78351 19.2705 3.05319V3.19371C18.4768 3.12443 18.2158 2.97394 17.4869 2.55363C16.9264 2.23038 16.0792 1.74186 14.5534 1.05587C14.5464 1.05265 14.5392 1.04967 14.5319 1.04684C14.0353 0.851428 12.7337 0.466956 11.3435 1.09698L9.37868 1.8005L7.72247 0.144348C7.5318 -0.0463257 7.22262 -0.0463257 7.03195 0.144348L1.59454 5.5817C1.41867 5.75763 1.38493 6.06266 1.59454 6.27228L10.8859 15.5636C11.0346 15.7124 11.3827 15.7573 11.5765 15.5636L16.5406 10.5996C16.6696 10.6107 16.8036 10.6167 16.9424 10.6167C18.2181 10.6167 19.3465 9.74162 19.9921 8.78781H24.5117C24.7814 8.78781 25 8.5692 25 8.29953V2.14332C25 1.87365 24.7814 1.65504 24.5117 1.65504ZM7.37716 1.18014L8.49005 2.29303C8.15924 2.49762 7.77677 2.60709 7.37716 2.60709C6.9775 2.60709 6.59508 2.49767 6.26427 2.29303L7.37716 1.18014ZM3.74328 7.03991L2.63038 5.92697L3.74328 4.81408C3.94787 5.14489 4.05734 5.52736 4.05734 5.92697C4.05734 6.32658 3.94791 6.70905 3.74328 7.03991ZM11.2312 14.5278L10.1185 13.4151C10.7979 12.9959 11.6645 12.9959 12.3439 13.4151L11.2312 14.5278ZM13.0474 12.7117C11.9684 11.929 10.4941 11.929 9.41505 12.7117L4.44674 7.74332C4.82804 7.21891 5.0339 6.58898 5.0339 5.92697C5.0339 5.26491 4.82809 4.63502 4.44674 4.11061L5.56085 2.99655C6.08527 3.37784 6.71515 3.5837 7.37721 3.5837C8.03927 3.5837 8.66915 3.37784 9.19357 2.99655L10.2497 4.05265C10.0218 4.08629 9.79957 4.16139 9.59235 4.27687C9.24235 4.47189 8.96774 4.76393 8.79674 5.11725C8.24596 5.21925 7.73605 5.4859 7.33605 5.88585C6.25084 6.97111 6.25084 8.73688 7.3361 9.82213C7.87868 10.3647 8.59142 10.636 9.30421 10.636C10.017 10.636 10.7297 10.3648 11.2724 9.82213C11.6254 9.4691 11.8727 9.03522 11.9966 8.56237L13.6452 9.12189C13.4596 9.98165 13.6497 10.8861 14.1625 11.5966L13.0474 12.7117ZM10.0787 7.91124C10.083 7.91281 10.0873 7.91437 10.0917 7.91583L11.068 8.24723C10.9943 8.57999 10.8275 8.88595 10.5818 9.13161C9.87736 9.836 8.73107 9.8361 8.02667 9.13161C7.32218 8.42716 7.32218 7.28092 8.02667 6.57643C8.19659 6.40641 8.39713 6.27355 8.61564 6.18346C8.70577 6.93356 9.24586 7.60216 10.0787 7.91124ZM14.866 10.893C14.6776 10.5859 14.5709 10.2353 14.5541 9.87755C14.788 10.0466 15.0738 10.2123 15.4152 10.3438L14.866 10.893ZM19.2704 8.10485C18.8076 8.86354 17.9101 9.64005 16.9424 9.64005C16.7613 9.64005 16.5917 9.62716 16.433 9.60421C16.4324 9.60412 16.4318 9.60402 16.4311 9.60392C15.3766 9.45075 14.8094 8.85143 14.6224 8.61412C14.6125 8.59948 14.57 8.54396 14.5637 8.53473C14.5068 8.43307 14.4136 8.35133 14.2946 8.31095L10.4124 6.99332C9.79288 6.7608 9.46539 6.23029 9.61549 5.70118C9.61559 5.70084 9.61569 5.7005 9.61578 5.70016C9.61593 5.69977 9.61603 5.69933 9.61613 5.69894C9.6859 5.45529 9.84616 5.25319 10.0676 5.1298C10.2877 5.00719 10.542 4.97677 10.7846 5.04401L15.1592 6.43029C15.4164 6.51188 15.6908 6.3694 15.7722 6.11232C15.8537 5.85524 15.7113 5.58082 15.4543 5.49933L11.975 4.39679L11.9446 4.36642C11.9443 4.36613 11.9441 4.36578 11.9437 4.36549L10.1424 2.56422L11.6907 2.00983C11.6959 2.00792 11.7024 2.00553 11.7075 2.00343C11.7089 2.00289 11.7114 2.00192 11.7127 2.00138C11.7193 1.99869 11.7258 1.99586 11.7323 1.99288C12.779 1.51183 13.7739 1.79977 14.1639 1.95143C15.6377 2.61456 16.4243 3.06813 16.999 3.39952C17.7981 3.86032 18.1831 4.08234 19.2704 4.17213V8.10485ZM21.1202 7.81115H20.247V3.54147H21.1202V7.81115ZM24.0234 7.81115H22.0968V2.6316H24.0234V7.81115Z"/>
</svg>
