<?xml version="1.0"?>
<svg xmlns="http://www.w3.org/2000/svg" xmlns:xlink="http://www.w3.org/1999/xlink" xmlns:svgjs="http://svgjs.com/svgjs" version="1.1" width="512" height="512" x="0" y="0" viewBox="0 0 511.999 511.999" style="enable-background:new 0 0 512 512" xml:space="preserve"><g><g xmlns="http://www.w3.org/2000/svg"><path d="m420.999 44.098v-44.098h-30v44.098h-30v-44.098h-30v44.098h-30v-44.098h-30v44.098h-30v-44.098h-30v44.098h-30v-44.098h-30v44.098h-30v-44.098h-30v44.098h-60v467.901h450v-467.901zm30 437.901h-390v-407.901h30v31.902h30v-31.902h30v31.902h30v-31.902h30v31.902h30v-31.902h30v31.902h30v-31.902h30v31.902h30v-31.902h30v31.902h30v-31.902h30z" fill="#000000" data-original="#000000" style=""/><path d="m150.999 154.734h183v30h-183z" fill="#000000" data-original="#000000" style=""/><path d="m150.999 214.734h240v30h-240z" fill="#000000" data-original="#000000" style=""/><path d="m150.999 274.734h200.366v30h-200.366z" fill="#000000" data-original="#000000" style=""/><path d="m150.999 334.734h240v30h-240z" fill="#000000" data-original="#000000" style=""/><path d="m150.999 394.734h200.366v30h-200.366z" fill="#000000" data-original="#000000" style=""/><path d="m90.999 154.734h30v30h-30z" fill="#000000" data-original="#000000" style=""/><path d="m90.999 214.734h30v30h-30z" fill="#000000" data-original="#000000" style=""/><path d="m90.999 274.734h30v30h-30z" fill="#000000" data-original="#000000" style=""/><path d="m90.999 334.734h30v30h-30z" fill="#000000" data-original="#000000" style=""/><path d="m90.999 394.735h30v30h-30z" fill="#000000" data-original="#000000" style=""/></g></g></svg>
