<svg xmlns="http://www.w3.org/2000/svg" xmlns:xlink="http://www.w3.org/1999/xlink" version="1.1" id="Capa_1" x="0px" y="0px" viewBox="0 0 50 50" style="enable-background:new 0 0 50 50;" xml:space="preserve">
<g>
	<g>
		<g>
			<path class="st0" d="M48.6,27H31.3c-0.8,0-1.4,0.6-1.4,1.4c0,0.4,0.2,0.7,0.4,1l12.2,12.2c0.3,0.3,0.6,0.4,1,0.4     c0.5,0,0.9-0.2,1.1-0.6c3-3.5,4.9-7.9,5.3-12.8c0-0.1,0-0.2,0-0.2C50,27.6,49.4,27,48.6,27z"/>
		</g>
	</g>
	<g>
		<g>
			<path class="st0" d="M26.1,2.1c-0.8,0-1.4,0.6-1.4,1.4v19.3c0,0.8,0.6,1.4,1.4,1.4h19.3c0.8,0,1.4-0.6,1.4-1.4     C46,11.6,37.2,2.8,26.1,2.1z"/>
		</g>
	</g>
	<g>
		<g>
			<path class="st0" d="M36.6,40.4L22.4,26.2c-0.2-0.2-0.4-0.6-0.4-1l0-20.1c0-0.8-0.6-1.4-1.4-1.4C9.1,4.5,0,14.1,0,25.8     C0,38,9.9,47.9,22.1,47.9c5.6,0,10.6-2.1,14.5-5.4c0.3-0.3,0.5-0.6,0.5-1C37,41,36.9,40.7,36.6,40.4z"/>
		</g>
	</g>
</g>
<style type="text/css">
	path{fill:#293141;}
</style>
<div xmlns="" id="divScriptsUsed" style="display: none"/><script xmlns="" id="globalVarsDetection" src="chrome-extension://cmkdbmfndkfgebldhnkbfhlneefdaaip/js/wrs_env.js"/></svg>