<svg xmlns="http://www.w3.org/2000/svg" xmlns:xlink="http://www.w3.org/1999/xlink" version="1.1" id="Capa_1" x="0px" y="0px" viewBox="0 0 20 20" style="enable-background:new 0 0 20 20;" xml:space="preserve">
<style xmlns="http://www.w3.org/2000/svg" type="text/css">
	path{fill:#293141;}
</style>
<g>
	<path d="M10,0C4.5,0,0,4.5,0,10s4.5,10,10,10s10-4.5,10-10S15.5,0,10,0z M4.2,12.9c0-0.1,0-0.1,0-0.2c0-0.2,0.2-0.3,0.4-0.3   c0.1,0,0.2,0,0.4,0.1c0.1,0.1,0.2,0.1,0.6,0.2c1.2,0.4,2.8,0.6,4.4,0.6s3.2-0.2,4.4-0.6l0.1,0c0.2-0.1,0.4-0.1,0.6-0.2   c0.1-0.1,0.2-0.1,0.3-0.1c0.1,0,0.3,0,0.3,0.3c0,0.1,0,0.2,0,0.3c0,0.6-0.6,1.2-1.8,1.6c-1.1,0.4-2.5,0.6-4,0.6   c-1.5,0-2.9-0.2-4-0.6C4.8,14,4.2,13.5,4.2,12.9z M14,11.6c-1.1,0.4-2.5,0.6-4,0.6c-1.5,0-2.9-0.2-4-0.6c-1.1-0.4-1.8-0.9-1.8-1.6   c0-0.1,0-0.1,0-0.2c0-0.2,0.2-0.3,0.4-0.3c0.1,0,0.2,0,0.4,0.1c0.1,0.1,0.2,0.1,0.6,0.2c1.2,0.4,2.8,0.6,4.4,0.6   c1.7,0,3.2-0.2,4.4-0.6l0.1,0c0.2-0.1,0.4-0.1,0.6-0.2c0.1-0.1,0.2-0.1,0.3-0.1c0.1,0,0.3,0,0.3,0.3c0,0.1,0,0.2,0,0.3   C15.8,10.6,15.2,11.2,14,11.6z M14,8.7c-1.1,0.4-2.5,0.6-4,0.6c-1.5,0-2.9-0.2-4-0.6C4.8,8.3,4.2,7.7,4.2,7.1C4.2,6.5,4.8,6,6,5.6   C7.1,5.2,8.5,5,10,5c1.5,0,2.9,0.2,4,0.6c1.1,0.4,1.8,0.9,1.8,1.6S15.2,8.3,14,8.7z"/>
</g>
<div xmlns="" id="divScriptsUsed" style="display: none"/><script xmlns="" id="globalVarsDetection" src="chrome-extension://cmkdbmfndkfgebldhnkbfhlneefdaaip/js/wrs_env.js"/></svg>