<?xml version="1.0"?>
<svg xmlns="http://www.w3.org/2000/svg" xmlns:xlink="http://www.w3.org/1999/xlink" xmlns:svgjs="http://svgjs.com/svgjs" version="1.1" width="512" height="512" x="0" y="0" viewBox="0 0 512 512" style="enable-background:new 0 0 512 512" xml:space="preserve"><g><g xmlns="http://www.w3.org/2000/svg"><path d="m192 464h-64a8 8 0 0 0 0 16h64a8 8 0 0 0 0-16z" fill="#000000" data-original="#000000" style=""/><path d="m468 160h-164v-124a28.031 28.031 0 0 0 -28-28h-232a28.031 28.031 0 0 0 -28 28v440a28.031 28.031 0 0 0 28 28h232a28.031 28.031 0 0 0 28-28v-116h164a28.031 28.031 0 0 0 28-28v-144a28.031 28.031 0 0 0 -28-28zm-270.25-136-4 16h-67.5l-4-16zm90.25 452a12.01 12.01 0 0 1 -12 12h-232a12.01 12.01 0 0 1 -12-12v-440a12.01 12.01 0 0 1 12-12h61.75l6.49 25.94a8 8 0 0 0 7.76 6.06h80a8 8 0 0 0 7.76-6.06l6.49-25.94h61.75a12.01 12.01 0 0 1 12 12zm16-196h24v32h-24zm176 52a12.01 12.01 0 0 1 -12 12h-164v-16h32a8 8 0 0 0 8-8v-48a8 8 0 0 0 -8-8h-32v-24h176zm0-108h-176v-16h176zm0-32h-176v-16h164a12.01 12.01 0 0 1 12 12z" fill="#000000" data-original="#000000" style=""/><path d="m456 264h-72a8 8 0 0 0 0 16h72a8 8 0 0 0 0-16z" fill="#000000" data-original="#000000" style=""/><path d="m456 288h-72a8 8 0 0 0 0 16h72a8 8 0 0 0 0-16z" fill="#000000" data-original="#000000" style=""/><path d="m456 312h-32a8 8 0 0 0 0 16h32a8 8 0 0 0 0-16z" fill="#000000" data-original="#000000" style=""/><path d="m160 160a96 96 0 1 0 96 96 96.108 96.108 0 0 0 -96-96zm0 176a80 80 0 1 1 80-80 80.091 80.091 0 0 1 -80 80z" fill="#000000" data-original="#000000" style=""/><path d="m202.343 226.343-51.094 51.094-26.449-19.837a8 8 0 1 0 -9.6 12.8l32 24a8 8 0 0 0 10.457-.743l56-56a8 8 0 0 0 -11.314-11.314z" fill="#000000" data-original="#000000" style=""/></g></g></svg>
