<svg height="17" viewBox="0 0 17 17" width="17"
  xmlns="http://www.w3.org/2000/svg">
  <g fill-rule="evenodd">
    <path d="m7.06421891 12.4073781c-.55626369 0-1.11252737-.2116965-1.53617413-.6352587l-.26185075-.2618507c-.40893035-.4087612-.63424378-.9543682-.63424378-1.53617417 0-.58163682.22522885-1.12715921.63424378-1.53617413l7.89408957-7.89408955c.6120846-.61242289 1.6087413-.61242289 2.2208259 0l1.1132885 1.11345771c.6122537.61225373.6122537 1.60857214 0 2.22082587l-7.89392039 7.89392037c-.42347761.4236468-.97974129.6353433-1.5362587.6353433zm7.20656219-11.59256218c-.2150796 0-.4301592.08187065-.5939005.24561194l-7.89408956 7.89408955c-.27090049.2709005-.4201791.63314428-.4201791 1.01966169 0 .3866866.14927861.7487612.4201791 1.0196617l.26185075.2618507c.56252239.5625224 1.47764677.5621841 2.03949254 0l7.89392037-7.89392036c.3274826-.32748258.3274826-.86040298 0-1.18780099l-1.1132885-1.11345771c-.1638259-.16382587-.3789055-.24569652-.5939851-.24569652z" fill-rule="nonzero"/>
    <path d="m6.457801 11.9760348c-.12060697-.1764278-.25669155-.3408457-.4009801-.4976517-.24586568.1955423-.48158209.4041094-.70410448.6263781l-3.81417413 3.8163731c-.05133831.0513383-.0820398.1166319-.09066667.1843781-.07882587-.0647015-.16974627-.1444577-.27394527-.242398-.1330398-.1412438-.23326368-.2584676-.30853731-.3540398.07451243-.0053283.14733333-.0365373.20366169-.0929502l3.85240298-3.8541791c.19435821-.1944428.37712935-.4008955.55152736-.6140299-.17135323-.1298258-.34972636-.2508557-.5391791-.3548855-.14851741.1781194-.3008408.3532786-.46466667.5169353l-3.67648258 3.6784278c-.36207463-.1655174-.5839204-.0103184-.67095025.0770498-.27326866.2726766-.0920199.7155224.60032836 1.4494826.50729353.478199.87681094.7093482 1.14610447.7093482.11341791 0 .20907463-.0410199.28967662-.121791.10233831-.1022537.22040796-.3201244.01429353-.7105324l3.63267164-3.6349552c.20628359-.2062836.42491543-.399796.65301991-.5809602z"/>
    <g transform="translate(4.99 .677)">
      <path d="m2.03078109 4.0408408c-.53224378 0-1.03260199-.20721393-1.40897014-.58366667-.37670647-.37628358-.58408956-.87689552-.58408956-1.40939304 0-.53224378.20738309-1.03285572.58408956-1.4091393.37636815-.37645273.87672636-.58366667 1.40897014-.58366667.53266667 0 1.03310946.20721394 1.40939304.58366667.37670647.37628358.58408955.87689552.58408955 1.4091393 0 .53249752-.20738308 1.03285573-.58408955 1.40939304-.37628358.37653731-.87672637.58366667-1.40939304.58366667zm0-3.5837015c-.42457711 0-.8241194.16543284-1.12462189.46593533-.30050248.30050248-.46618905.6999602-.46618905 1.12470646 0 .425.16577114.82445772.46618905 1.1249602.60142786.60134329 1.649.60058209 2.24958209 0 .30050249-.30050248.46627364-.6999602.46627364-1.1249602 0-.42483084-.16577115-.82428855-.46627364-1.12470646-.30050248-.30050249-.69987562-.46593533-1.1249602-.46593533z" fill-rule="nonzero"/>
      <path d="m.18395522 2.53621393c-.03095522 0-.06140298-.01370149-.08263184-.03975124-.03662189-.04575622-.02892537-.11231841.01657712-.14868657.03095522-.02452736.06038806-.05006965.08880597-.07637313-.02275125-.03712936-.04440299-.07485075-.06453234-.11282588-.02740299-.05142288-.00778109-.11544776.04389552-.1430199.04956219-.02714925.11510945-.00854228.1430199.04389553.0299403.05649751.06351742.11282587.10115423.16780099.02841791.04152736.02376617.09760199-.01192537.13371642-.05159204.05294527-.1079204.10377612-.16830846.15206965-.01962189.01539304-.0428806.02317413-.06605473.02317413zm.55034329.01522388c-.02012936 0-.04076617-.00600497-.05886567-.0180995-.04854727-.03247761-.06140299-.09836319-.02892538-.14682587.02224378-.03306965.04338806-.06630846.06292538-.10022388-.03146269-.0307015-.06199503-.06224876-.09083582-.09421891-.03873632-.04338806-.03518408-.11020398.00828855-.14919403.04279602-.03924378.10995025-.036199.1497015.00828856.04178109.04677114.087199.09185075.13574626.13523881.03619901.03256218.04550249.08491542.02275125.12779601-.03357712.06453234-.07129851.12804976-.1130796.19055224-.02055224.03010946-.05362189.04668657-.08770647.04668657zm.5110995-.12652736c-.01082587 0-.02165174-.00177612-.03247761-.00515921-.05573632-.01801492-.08626866-.07764179-.06816916-.13320895.01234826-.03822886.02376617-.07637314.03349254-.11460199-.03763681-.02190547-.07434328-.04491045-.11045771-.06867662-.04854726-.03247761-.06140299-.09810945-.02892537-.14682587.03197015-.04829353.09810945-.06140298.14657214-.0291791.05218408.03484577.10580597.06732338.16314925.09709452.04178109.02190548.06453234.06943781.05421393.11612438-.01505473.07019901-.03408458.14065174-.05683582.21118906-.01437811.04465671-.0561592.07324378-.10056219.07324378zm.45223383-.24857214c-.00202985 0-.00414428-.00025373-.00625871-.00025373-.05827363-.00329851-.10276119-.05345274-.09912437-.11172637.00211442-.04000498.00312935-.07950249.00312935-.11874627-.0417811-.01192537-.0831393-.02503483-.12339801-.03924378-.05522886-.01936816-.08415423-.08000995-.06453234-.13498508.01962189-.05522885.08161692-.08415422.13473134-.0642786.05886568.02063681.11925374.03873632.18124876.05370647.04592537.01082587.07899503.05083084.08153234.09777114.00312935.07155224.00262189.14428856-.00202985.21812438-.00304478.05632836-.04956219.09963184-.10529851.09963184zm.37484577-.3510796c-.04956219 0-.09396517-.03509951-.10377612-.08542289-.00778109-.03924378-.01657711-.07772637-.02630348-.11536318-.04389552-.00109951-.08728358-.00363682-.1300796-.00752737-.05835821-.0051592-.10115423-.05675124-.0960796-.11485572.00575124-.05810448.0609801-.09836318.11460199-.09574129.06199502.00566667.1260199.0092189.18894527.00668159.05573632-.00228358.08931343.02968657.10326866.07434328.02114427.06842289.03924378.13938309.05311442.21169652.01133334.05734329-.02630348.11299503-.08364676.12415921-.00668159.00126865-.01336319.00202985-.02004478.00202985zm.27673632-.43421891c-.03975124 0-.07747264-.02241293-.09557214-.06064179-.017-.0358607-.0350995-.0709602-.05421393-.10529851-.04237313.01031841-.08525373.01911443-.12804975.02630349-.05370647.0103184-.11206468-.02917911-.12187562-.08677612-.00981095-.05759702.02892537-.11206468.08677612-.12179105.06140298-.01040298.12339801-.02427363.18480099-.0421194.04541791-.01192537.0949801.0059204.1197612.04668657.03763681.06148756.07222885.12568159.10369154.19258208.02478109.05294528.00262189.11587065-.05049254.14065175-.01437811.00710447-.02985572.01040298-.04482587.01040298zm.1600199-.49790547c-.03044776 0-.06038806-.01319403-.08153234-.03814428-.02528855-.03095522-.05159204-.06072637-.07848756-.08956716-.03873632.02139801-.07747264.04127363-.11671642.05937313-.05057711.02444279-.11570149.00202985-.14039801-.05108458-.02427363-.05294527-.00160696-.11595522.05159204-.14039801.05675125-.02655721.1130796-.05683582.16830846-.09092039.04127363-.02503483.09447264-.01911443.12957214.01471641.05108458.05083085.10115423.10529851.14919403.16264179.03712935.04491045.03095522.11181095-.01395522.1489403-.01953732.01640796-.04381095.02444279-.06757712.02444279zm-.30100995-.51363682c-.02892537 0-.05785075-.01192537-.07848756-.0350995-.03932836-.04338806-.03560697-.11020398.00769652-.14927861.04702487-.04228855.09244278-.08846766.13574626-.13862189.03408458-.03873632.0909204-.04744776.13371642-.02139801.06453234.03797513.12695025.07975622.18843781.12517413.04702488.03484577.05675125.10115423.02165174.14792538-.0350995.04677114-.10115422.05573631-.14767164.02190547-.03197015-.02376617-.06453234-.04643284-.09751741-.06791542-.03053234.03154726-.06148756.06140298-.09295025.08982089-.0199602.01843781-.04533333.02748756-.07062189.02748756z" transform="translate(.592 .761)"/>
    </g>
  </g>
</svg>
