<svg xmlns="http://www.w3.org/2000/svg" width="28" height="20" viewBox="0 0 28 20">
  <defs>
    <linearGradient id="croatia-a" x1="50%" x2="50%" y1="0%" y2="100%">
      <stop offset="0%" stop-color="#FF212E"/>
      <stop offset="100%" stop-color="#FD0D1B"/>
    </linearGradient>
  </defs>
  <g fill="none" fill-rule="evenodd">
    <rect width="28" height="6.67" y="6.67" fill="#FFF"/>
    <rect width="28" height="6.67" fill="#FF202D"/>
    <path fill="#1895DB" d="M10.6666667,5.33333333 L11.3333333,4.66666667 L12,5.33333333 L12,6.66666667 L10.6666667,6.66666667 L10.6666667,5.33333333 Z M13.3333333,5.33333333 L14,4.66666667 L14.6666667,5.33333333 L14.6666667,6.66666667 L13.3333333,6.66666667 L13.3333333,5.33333333 Z M16,5.33333333 L16.6666667,4.66666667 L17.3333333,5.33333333 L17.3333333,6.66666667 L16,6.66666667 L16,5.33333333 Z" opacity=".5"/>
    <path fill="#191F94" d="M12,5.33333333 L12.6666667,4.66666667 L13.3333333,5.33333333 L13.3333333,6.66666667 L12,6.66666667 L12,5.33333333 Z M14.6666667,5.33333333 L15.3333333,4.66666667 L16,5.33333333 L16,6.66666667 L14.6666667,6.66666667 L14.6666667,5.33333333 Z" opacity=".5"/>
    <rect width="28" height="6.667" y="13.333" fill="#2027AC"/>
    <path fill="url(#croatia-a)" d="M13.3333333,6.66666667 L14.6666667,6.66666667 L14.6666667,8 L13.3333333,8 L13.3333333,6.66666667 Z M16,6.66666667 L16.6666667,6.66666667 L17.3333333,8 L16,8 L16,6.66666667 Z M11.3333333,6.66666667 L12,6.66666667 L12,8 L10.6666667,8 L11.3333333,6.66666667 Z M12,8 L13.3333333,8 L13.3333333,9.33333333 L12,9.33333333 L12,8 Z M14.6666667,8 L16,8 L16,9.33333333 L14.6666667,9.33333333 L14.6666667,8 Z M13.3333333,9.33333333 L14.6666667,9.33333333 L14.6666667,10.6666667 L13.3333333,10.6666667 L13.3333333,9.33333333 Z M16,9.33333333 L17.3333333,9.33333333 L17.3333333,10.6666667 L16,10.6666667 L16,9.33333333 Z M14.6666667,10.6666667 L16,10.6666667 L16,12 L14.6666667,12 L14.6666667,10.6666667 Z M10.6666667,9.33333333 L12,9.33333333 L12,10.6666667 L10.6666667,10.6666667 L10.6666667,9.33333333 Z M12,10.6666667 L13.3333333,10.6666667 L13.3333333,12 L12,12 L12,10.6666667 Z M10.6666667,12 L12,12 L12,13.3333333 L10.6666667,13.3333333 L10.6666667,12 Z M13.3333333,12 L14.6666667,12 L14.6666667,13.3333333 L13.3333333,13.3333333 L13.3333333,12 Z M16,12 L17.3333333,12 L17.3333333,13.3333333 L16,13.3333333 L16,12 Z M14.6666667,13.3333333 L16,13.3333333 L16,14.6666667 L14.6666667,14.6666667 L14.6666667,13.3333333 Z M12,13.3333333 L13.3333333,13.3333333 L13.3333333,14.6666667 L12,14.6666667 L12,13.3333333 Z"/>
  </g>
</svg>
