<?xml version="1.0"?>
<svg xmlns="http://www.w3.org/2000/svg" xmlns:xlink="http://www.w3.org/1999/xlink" xmlns:svgjs="http://svgjs.com/svgjs" version="1.1" width="512" height="512" x="0" y="0" viewBox="0 0 512 512" style="enable-background:new 0 0 512 512" xml:space="preserve"><g><g xmlns="http://www.w3.org/2000/svg" id="Outline"><path d="M81.025,152.5c-2.739,9.559.336,21.166,8.825,29.655a32.358,32.358,0,0,0,22.572,9.8,23.476,23.476,0,0,0,16.852-6.678c.411-.41.795-.838,1.167-1.273H200v48h16V176a8,8,0,0,0-8-8H176V136h10.5V120H131.681L87.3,68.227,79.761,38.06a7.994,7.994,0,0,0-2.1-3.717l-16-16a8,8,0,0,0-9.235-1.5l-32,16A8,8,0,0,0,17.14,44.116ZM77.145,80.96l29.736,34.693L93.372,138.165q-.862.386-1.691.843L60.28,85.176Zm40.816,93c-3.708,3.7-11.4,2.275-16.8-3.124s-6.83-13.091-3.125-16.8a7.666,7.666,0,0,1,5.553-2.063c3.626,0,7.881,1.823,11.244,5.187C120.235,162.562,121.666,170.255,117.961,173.96ZM160,168H135.941q-.009-.611-.046-1.225L149.882,136H160Zm-27.693-32-5.019,11.043c-.369-.4-.746-.8-1.138-1.193a33.841,33.841,0,0,0-13.689-8.4l5.395-8.991,4.069,4.746A8,8,0,0,0,128,136ZM54.42,33.734,64.776,44.09,70.3,66.179,51.811,70.8,35.305,43.292Z" data-original="#000000" style=""/><path d="M491.578,232.845l-14.839-7.42-6.685-6.686-55.48-73.97c3.4-9.784.443-22.052-8.424-30.919-11.731-11.73-29.418-13.132-39.424-3.123A22.372,22.372,0,0,0,361.177,120H296V72a56,56,0,0,0-112,0v8a8,8,0,0,0,8,8h8v32a32.036,32.036,0,0,0,32,32h32A32.012,32.012,0,0,0,291.7,136H336v32H312a8,8,0,0,0-8,8v72H144a32.036,32.036,0,0,0-32,32v81.754l-15.731,3.934A21.461,21.461,0,0,0,95.9,407.24a7.975,7.975,0,0,0-4.934,5.777L87.6,428.66h0A40,40,0,0,1,56.9,381.15a40.179,40.179,0,0,1,39.049-31.6v-16a56.262,56.262,0,0,0-54.691,44.238A56,56,0,0,0,84.24,444.3l234.639,50.439a55.96,55.96,0,0,0,66.522-42.98,56,56,0,0,0-42.981-66.523l-50.259-10.8L281.5,353.1,299.6,331.372A88.163,88.163,0,0,0,320,275.036V184h52.369l53.61,61.269c.065.073.137.136.2.207s.1.124.161.181l24,24a8.025,8.025,0,0,0,3.127,1.933l24,8a8,8,0,0,0,10.291-5.65l8-32A8,8,0,0,0,491.578,232.845ZM251.314,88H272l-8.865,11.82ZM259.7,37.207l-7.275,3.638,7.156,14.31L272.484,48.7A39.772,39.772,0,0,1,280,72H200a39.751,39.751,0,0,1,6.279-21.474L221.47,55.59l5.06-15.18-7.453-2.484a39.88,39.88,0,0,1,40.62-.719ZM216,120V88h12.686l24.751,24.751L236,136h-4A16.019,16.019,0,0,1,216,120Zm48,16h-8l14.4-19.2L280,104v16A16.019,16.019,0,0,1,264,136ZM100.149,381.209,120.985,376H160v16H101.478a5.477,5.477,0,0,1-1.329-10.791Zm115.7-23.177L176,349.467V312h55.354l-10.973,13.718A32.045,32.045,0,0,0,215.845,358.032ZM104.928,424.2l15.642,3.362-1.68,7.822-15.643-3.363Zm16.634-12.791-5.45-1.171.482-2.239h13.6ZM137.9,423.105a8.041,8.041,0,0,0,.143-1l13.982-5.524a8,8,0,0,0,4.882-5.763l.605-2.817H168a8,8,0,0,0,8-8V365.832l51.073,10.979,18.77,30.032-10.429,10.428a20.833,20.833,0,0,0,25.063,32.814l14.636-8.364a7.994,7.994,0,0,0,1.189,1.573l10.477,10.786a8.24,8.24,0,0,0-.279.968l-3.363,15.644-148.6-31.944Zm122.711-8.4,27.658-12.293,5.2,10.394-40.921,23.383a4.828,4.828,0,0,1-5.81-7.606Zm68.948-7.688h0l-15.638-3.36,1.681-7.819,15.642,3.362ZM316.1,469.6l-1.681,7.82-15.643-3.362,1.681-7.821Zm-4.456-17.326-5.46-1.172-15.426-15.88.6-2.78,16.609-9.491a7.972,7.972,0,0,0,2.418-2.136l2.527-1,5.455,1.173Zm52.6-33.989a39.752,39.752,0,0,1,5.51,30.119A40.185,40.185,0,0,1,330.7,480c-.155,0-.31-.011-.465-.012l3.193-14.853a8,8,0,0,0-6.137-9.5l6.721-31.287h0a8,8,0,0,0,9.5-6.141l3.194-14.865A39.707,39.707,0,0,1,364.249,418.28ZM304,275.036a72.14,72.14,0,0,1-16.688,46.094l-21.458,25.749a8,8,0,0,0-1.009,8.7L281.1,388.09l-11,4.889-11,4.888-27.3-43.679a16.017,16.017,0,0,1,1.073-18.475L254.247,309A8,8,0,0,0,248,296H168a8,8,0,0,0-8,8v56H128V280a16.019,16.019,0,0,1,16-16H304ZM433.95,230.08,397.217,188.1l7.468-29.85,47.163,62.882-8.949,4.475Zm-51.929-59.348A8,8,0,0,0,376,168h-1.754l3.046-12.183a31.83,31.83,0,0,0,10.568,3.76l-3.468,13.864Zm-3.982-48.692a7.666,7.666,0,0,1,5.553-2.063c3.626,0,7.881,1.823,11.244,5.187,5.4,5.4,6.83,13.091,3.125,16.8s-11.4,2.275-16.8-3.124S374.334,125.745,378.039,122.04ZM352,136h9.313a32.522,32.522,0,0,0,2.8,6.58L357.754,168H352ZM474.334,261.679l-14.013-4.671-14.816-14.816,16.915-8.458,3.923,3.923a7.986,7.986,0,0,0,2.079,1.5l10.261,5.13Z" data-original="#000000" style=""/></g></g></svg>
