<svg height="17" viewBox="0 0 17 17" width="17" xmlns="http://www.w3.org/2000/svg"><g fill-rule="evenodd"><path d="m3.96604918 7.40162928h6.93240742c.0028905-.24637671.0056433-.49412982.0074326-.74050653.001927-.32483186-.0432191-.69783794-.1936603-.94972028-.0750142-.12525296-.2222896-.21884858-.4880737-.2229778-1.52244287-.01789328-4.13844048-.01789328-5.66143394-.02615172-.63121988-.00275281-1.15975986-.43632076-1.30896229-1.01991699h6.87088213c.5395512 0 1.0306529.22022499 1.3861786.5767142.3560763.3551128.5769895.84648981.5769895 1.38604103v2.07974976c0 .43769717-.1797586.83685497-.468391 1.12727668-.289183.2890453-.688616.46797807-1.1276896.46797807h-6.08275191c-.4835315 0-.92315564-.19820246-1.24289479-.51615229-.31794983-.31794983-.51546412-.75702341-.51546412-1.24151839v-.65654575c.40576454-.17067437.84993082-.26426999 1.3154314-.26426999z"/><path d="m3.22746961 3.89729911c.10047765-.65241654.66563004-1.15067558 1.34584998-1.14929917 1.53001312.00963484 4.15303041.00963484 5.68290591.02752812 1.3971899.01789328 2.2641882.667557 2.7859838 1.54295134.4460932.74738857.5808434 1.63104134.5767142 2.3536546-.0020647.25876436-.0048175.51890513-.0082585.7790459l.0094972.00137641v.86988871c0 .63177045.2590397 1.20848464.676366 1.62691212.4171887.41705106.9930771.67581546 1.6264992.67581546h.5303293c.0041293.0674439.0061939.1335114.0061939.2023317 0 .2766576-.0338596.5478097-.0967614.806574-.0295927-.0013764-.0587725-.0013764-.0882276-.0013764-2.8604474-.0178933-5.740715-.0178933-8.6010247 0-.62777886.0041292-1.26230212.1899441-1.74390665.6248884-.46646406.4211803-.78372568 1.0667148-.80285773 1.9944126h-1.14640872c-.01926969-.9263214-.33653131-1.5732323-.80299537-1.9944126-.48160453-.4349443-1.11612779-.6207592-1.74390665-.6248884l-.79776503-.0055056c-.06180064-.2560116-.09524731-.5244108-.09524731-.799692 0-1.2002262.62488841-2.26143538 1.56538676-2.87255973v.36750045c0 .63177045.25931493 1.20848464.67636601 1.62691212.41732636.41705106.99321471.67581546 1.62677448.67581546h6.08275191c.588276 0 1.1231474-.2408711 1.5122575-.62901764.3878712-.38814655.628467-.92356856.628467-1.51129401v-2.07974976c0-.6895795-.2820256-1.31722072-.7363773-1.77143477-.4543517-.45421404-1.08158-.73637731-1.7714347-.73637731z"/><path d="m14.1648062 7.59432615c1.1031895.38952295 1.9521569 1.32960838 2.21216 2.48578955h-.4539388c-.4832562 0-.9228803-.19820246-1.2426195-.51615229-.3179498-.31794983-.5156017-.75702341-.5156017-1.24151839zm2.0168479 4.57930345c-.5256495 1.2194958-1.7411538 2.0783733-3.1478409 2.0783733h-7.36225911c.01816856-.7542706.26289358-1.2676701.62199796-1.592502.37355664-.3372195.87773423-.4817421 1.38204946-.4844949 2.71234609.1348878 5.74539469-.0137641 8.50605259-.0013764zm-12.74662243 2.0370811c-1.17641438-.1844384-2.15875548-.9744956-2.6169611-2.0370811.20591037 0 .41016905 0 .6133266.0013764.50459051.0027528 1.00890574.1472754 1.38204946.4844949.35235998.3179499.59488276.8189617.62158504 1.5512098z"/></g></svg>