<svg height="17" viewBox="0 0 17 17" width="17" xmlns="http://www.w3.org/2000/svg"><g fill-rule="evenodd"><g><path d="m.68610256 8.97974872c-.05405128 0-.10757948-.02318975-.14471794-.06765128-.06677949-.07985641-.05588206-.19859488.02388718-.26511282l1.56504615-1.30638462c.03382564-.02833333.07645641-.0437641.12056923-.0437641h12.41531792c.0441128 0 .0867436.01543077.1205693.0437641l1.5652205 1.30638462c.0797692.06651794.0906666.18525641.0238872.26511282-.0663436.07942051-.1854308.09084102-.2651129.02388718l-1.5128256-1.26262052h-12.27879488l-1.51265128 1.26262052c-.03513334.02946666-.07793847.0437641-.12039488.0437641z"/><path d="m16.6423897 9.12097949h-.4108769c-.0290307 0-.0580615-.00366154-.0862205-.01133334l-1.3307949-.36066153h-12.56631278l-1.48414359.36257948c-.02554359.00627693-.0518718.00950257-.07811282.00950257h-.35647693c-.18203077 0-.32945128-.14742052-.32945128-.32945129v-1.72301538c0-.01473333.00087179-.02929231.0029641-.0437641.17409744-1.29609744.64137949-2.10259487 1.28302052-3.10045128.05108717-.07959488.13382051-.13329744.22718974-.14742052.09415385-.01412307.18865641.01229231.26110256.07279487.06660513.04428718 1.17055898.73753847 2.30188718 1.44683077l-1.61491282-2.44590769c-.08709231-.13164102-.06834872-.30661026.04446154-.41697949.81164103-.79385641 1.74890769-1.40707692 2.78573333-1.82274871.14489231-.05788718.31123077-.00645129.39745129.12388205l1.50567692 2.27608205-.5027641-2.48723077c-.01761026-.08700513.00052307-.1772359.0505641-.25064103.04977949-.07331794.12719487-.12353333.21454872-.1389641 1.16663589-.20722564 2.30458974-.1759282 3.48744102.10513846.1734.04097436.2825487.21271795.2465436.38716411l-.4937846 2.38880512 1.415359-2.11837435c.089882-.13434359.2638051-.1840359.4108769-.11655898.8596769.39309231 1.6461231.92323077 2.3375436 1.57620513.1160359.10958461.1369589.28629743.0496051.41976923l-1.6401949 2.51164102 2.4093795-1.53008717c.1518667-.09633334.3520308-.05352821.4511539.09598461.6480051.97675898 1.1578307 1.83033333 1.3379435 3.17089231.0020052.01447179.0029641.02920513.0029641.04393846v1.72292821c0 .18194358-.1474205.32945128-.3293641.32945128zm-.3672-.65890257h.0376616v-1.37124615c-.1480308-1.07422564-.5283949-1.79084103-1.054-2.60283077l-3.4196154 2.17164103c-.1314667.08273333-.3022513.06346666-.4110513-.04672821-.1089743-.11028205-.1263231-.28185128-.0413231-.41157436l2.3187129-3.55090769c-.5180206-.45708205-1.0893949-.8427641-1.7040103-1.1500718l-2.19526666 3.28544616c-.08752821.13103077-.25534872.18203077-.40111282.12074359-.14541539-.06085128-.22718975-.21620513-.19545641-.3706l.76979487-3.7238718c-.8751077-.17409743-1.71098462-.19911795-2.57397436-.08177436l.76979487 3.80712821c.03121026.15448205-.05134872.3094-.19693846.3697282-.14637436.06050257-.31384616.00863077-.4007641-.12266153l-2.28758975-3.45814872c-.77729231.34305128-1.49076923.80998461-2.12665641 1.39225641l2.29874872 3.48151282c.08552308.12928718.06913333.30059487-.03914359.41166154-.10827692.11028205-.2792359.13181538-.41052821.04908205-2.06528205-1.29313333-2.95834871-1.85517949-3.34865128-2.10294359-.5134.81774359-.86220512 1.4964359-1.00483077 2.533v1.36828205l1.47141539-.35978974c.02554359-.00627693.05187179-.00941539.07811282-.00941539h12.64991795c.0290308 0 .0580615.0038359.0862205.01133334z" fill-rule="nonzero"/></g><g transform="translate(.697 10.2)"><path d="m6.0991641 3.78498462c-.06268205 0-.12597436-.00514359-.1895282-.01621539l-3.70896411-.71182051c-.5499282-.09371795-.95391794-.57250769-.95391794-1.13682051v-.27574872c0-.61034359.30181538-.95191282 1.00945128-1.14126667 1.39844615-.36441026 2.54250256-.47390769 4.07904102-.39309231.27095385.01438462.55245641.05997949.83666154.1364359.27339487.07349231.50459487.11507692.62010769.1117641.15788206-.0029641.43694359-.05038974.78592308-.13312307.2545641-.06067693.50241539-.09816411.73666667-.11141539 1.59207177-.08822564 2.71546667.01577949 4.14738977.38899487.0007846 0 .001482.00034872.0021795.00034872.7076359.18935385 1.0094512.53092308 1.0094512 1.14126667v.27574872c0 .5644-.4040769 1.04310256-.9607179 1.13795384l-3.69536411.70964103c-.56710256.09668205-1.11371795-.24192308-1.27691795-.78723077-.00113333-.00409744-.19432308-.60485128-.64748205-.61949744-.50834359-.03121025-.70667692.59962052-.71530769.62577436-.14314872.47765641-.58881026.79830257-1.0786718.79830257zm-.68261538-3.04177949c-1.05365128 0-1.93181026.12100513-2.99217436.39710256-.51880513.1389641-.51880513.28420513-.51880513.5040718v.27574872c0 .24227179.17357436.44784102.41253333.48864102l3.70896411.71182051c.22745128.04010257.45368205-.10295897.52133333-.32910256.01577949-.05038974.37321538-1.11921026 1.36627692-1.08939487.92706667.03086154 1.24387693 1.04563077 1.25695385 1.08869743.068.22718975.29597436.3680718.52839487.32866667l3.69536406-.70964103c.245759-.04193333.4193334-.24741538.4193334-.48968717v-.27574872c0-.21986667 0-.3651077-.5198513-.50442052-1.3589539-.35368717-2.4280359-.4551641-3.94338975-.36807179-.19502051.01107179-.40425128.04263077-.62115384.09450256-.40494872.09598462-.71644103.14672308-.92575898.15073334-.18769744.00148205-.45891282-.04193334-.80353333-.13460513-.23939487-.06398974-.47504103-.10261026-.70022564-.11437949-.31157949-.01647692-.60432821-.02493333-.88426154-.02493333z" fill-rule="nonzero"/><path d="m13.9131487 2.81066667c-.1563128 0-.294841-.11141539-.3237846-.27060513-.0325179-.17906667.0862205-.35037436.2652872-.38315385l1.0306359-.18717436v-.3765282l-1.0308103-.18752308c-.1790666-.03277949-.2976307-.2044359-.2651128-.38315384.032518-.17906667.2027795-.29484103.3831538-.26546154l1.3012411.23677948c.1566615.02868206.2704307.16511795.2704307.3243077v.92654359c0 .15918974-.1137692.29562564-.2706051.32430769l-1.301241.23643077c-.0198769.0034-.0397539.00523077-.0591949.00523077zm-12.24932819 0c-.0195282 0-.03931795-.00183077-.05919487-.00514359l-1.30124102-.23643077c-.1568359-.02868205-.27060513-.16511795-.27060513-.32430769v-.92654359c0-.15918975.11376923-.29562565.27043077-.3243077l1.30124102-.23677948c.1797641-.02937949.35054872.08639487.38315385.26546153.03251795.17871795-.08604616.35037436-.26511282.38315385l-1.03072308.18752308v.3765282l1.0306359.18717436c.17906666.03269231.29780513.20408718.26528718.38315385-.02903077.15910256-.16764616.27051795-.3238718.27051795z"/></g></g></svg>