<?xml version="1.0"?>
<svg xmlns="http://www.w3.org/2000/svg" xmlns:xlink="http://www.w3.org/1999/xlink" xmlns:svgjs="http://svgjs.com/svgjs" version="1.1" width="512" height="512" x="0" y="0" viewBox="0 0 455 455" style="enable-background:new 0 0 512 512" xml:space="preserve"><g>
<g xmlns="http://www.w3.org/2000/svg">
	<path d="M227.5,167.5c-33.084,0-60,26.916-60,60s26.916,60,60,60s60-26.916,60-60S260.584,167.5,227.5,167.5z" fill="#000000" data-original="#000000" style=""/>
	<path d="M227.5,83.75c-79.264,0-143.75,64.486-143.75,143.75s64.486,143.75,143.75,143.75s143.75-64.486,143.75-143.75   S306.764,83.75,227.5,83.75z M227.5,317.5c-49.626,0-90-40.374-90-90s40.374-90,90-90s90,40.374,90,90S277.126,317.5,227.5,317.5z" fill="#000000" data-original="#000000" style=""/>
	<path d="M227.5,0C101.753,0,0,101.753,0,227.5S101.753,455,227.5,455S455,353.247,455,227.5S353.247,0,227.5,0z M350.387,350.387   c-32.8,32.8-76.442,50.863-122.887,50.863s-90.087-18.063-122.887-50.863S53.75,273.945,53.75,227.5s18.063-90.087,50.863-122.887   S181.056,53.75,227.5,53.75s90.087,18.063,122.887,50.863S401.25,181.055,401.25,227.5S383.187,317.587,350.387,350.387z" fill="#000000" data-original="#000000" style=""/>
</g>
<g xmlns="http://www.w3.org/2000/svg">
</g>
<g xmlns="http://www.w3.org/2000/svg">
</g>
<g xmlns="http://www.w3.org/2000/svg">
</g>
<g xmlns="http://www.w3.org/2000/svg">
</g>
<g xmlns="http://www.w3.org/2000/svg">
</g>
<g xmlns="http://www.w3.org/2000/svg">
</g>
<g xmlns="http://www.w3.org/2000/svg">
</g>
<g xmlns="http://www.w3.org/2000/svg">
</g>
<g xmlns="http://www.w3.org/2000/svg">
</g>
<g xmlns="http://www.w3.org/2000/svg">
</g>
<g xmlns="http://www.w3.org/2000/svg">
</g>
<g xmlns="http://www.w3.org/2000/svg">
</g>
<g xmlns="http://www.w3.org/2000/svg">
</g>
<g xmlns="http://www.w3.org/2000/svg">
</g>
<g xmlns="http://www.w3.org/2000/svg">
</g>
</g></svg>
