<svg width="30" height="30" viewBox="0 0 30 30" xmlns="http://www.w3.org/2000/svg">
<g clip-path="url(#clip0)">
<path d="M30.0504 3.91182C30.0504 1.75484 28.2953 0 26.1385 0C24.1805 0 22.5542 1.44608 22.2707 3.32611H0.644531C0.320892 3.32611 0.0585938 3.58841 0.0585938 3.91205V16.7235V20.1379C0.0585938 20.4616 0.320892 20.7239 0.644531 20.7239H8.44322V22.7655C8.44322 23.0891 8.70552 23.3514 9.02916 23.3514C9.35257 23.3514 9.6151 23.0891 9.6151 22.7655V14.2488C9.6151 13.5081 10.1949 12.9282 10.9351 12.9282C11.2878 12.9282 11.6196 13.0655 11.8689 13.3147C12.1184 13.5642 12.2557 13.8959 12.2557 14.2488V19.2405C12.2557 19.2995 12.2585 19.3579 12.263 19.416C12.2948 19.8033 12.4313 20.1695 12.6622 20.484L12.6629 20.4849C13.0577 21.0233 13.6924 21.3455 14.3605 21.3455C14.9224 21.3455 15.4507 21.1265 15.8485 20.7287L15.8533 20.7239H20.5673L17.3877 25.5977C17.3765 25.6149 17.3664 25.6325 17.357 25.6506C17.1151 26.1223 16.9872 26.6519 16.9872 27.1825V29.4141C16.9872 29.7377 17.2497 30 17.5731 30C17.8967 30 18.159 29.7377 18.159 29.4141V27.1825C18.159 26.8467 18.2378 26.5114 18.387 26.2109L21.5742 21.3251C21.5852 21.3082 21.5955 21.2908 21.6046 21.2727C21.6955 21.096 21.7694 20.9125 21.8273 20.7239H26.1385C26.4619 20.7239 26.7245 20.4616 26.7245 20.1379V16.7242V7.77969C28.6043 7.49611 30.0504 5.86967 30.0504 3.91182ZM24.2553 7.33932C24.6041 7.53181 24.9827 7.67029 25.3734 7.74811C25.4157 7.75635 25.4583 7.7639 25.5009 7.77077C25.5173 7.77351 25.5338 7.77672 25.5503 7.77924L25.5524 7.77969V13.6507C24.2965 13.8897 23.3045 14.8817 23.0656 16.1375H17.81C19.0697 14.6647 19.8136 12.5693 19.8136 10.3461C19.8136 8.08617 19.0524 5.97153 17.7626 4.49799H22.27C22.2796 4.56184 22.2915 4.62524 22.3041 4.68819C22.4803 5.56023 22.9612 6.35788 23.6467 6.92459C23.8364 7.08138 24.0397 7.22031 24.2553 7.33932ZM25.5526 17.8448H13.4276V17.3101H25.5526V17.8448ZM24.2713 16.1375C24.4627 15.5292 24.944 15.0478 25.5526 14.8565V16.1375H24.2713ZM1.23047 16.1375V14.8565C1.83907 15.0478 2.3204 15.5292 2.51175 16.1375H1.23047ZM1.23047 17.3101H8.44322V17.8448H1.23047V17.3101ZM8.44322 14.7981V16.1375H3.71727C3.47832 14.8817 2.48657 13.8899 1.23047 13.6507V6.98479C2.48657 6.74583 3.47832 5.75386 3.71727 4.49799H9.40681C8.11707 5.97153 7.3558 8.08617 7.3558 10.3461C7.35558 11.9513 7.73209 13.4864 8.44322 14.7981ZM1.23047 4.49799H2.51175C2.3204 5.10658 1.83907 5.58792 1.23047 5.77927V4.49799ZM1.23047 19.552V19.0166H8.44322V19.552H1.23047ZM10.9351 11.7563C10.1669 11.7563 9.42856 12.1227 8.96027 12.7311C8.9415 12.7556 8.92319 12.7803 8.90533 12.8053C8.89938 12.8139 8.89275 12.822 8.8868 12.8307C8.6499 12.0483 8.52745 11.2099 8.52745 10.3461C8.52745 7.91107 9.51599 5.69 11.1184 4.49799H16.051C17.6534 5.69 18.6417 7.91107 18.6417 10.3461C18.6417 12.7338 17.682 14.9327 16.1256 16.1375H13.4276V14.4759C13.4944 14.5024 13.567 14.5173 13.6432 14.5173C13.9666 14.5173 14.2291 14.255 14.2291 13.9314V13.548C14.9691 13.521 15.5628 12.911 15.5628 12.1646V11.0863C15.5628 10.3228 14.9416 9.70161 14.1781 9.70161H13.1083C12.9909 9.70161 12.8954 9.60617 12.8954 9.48875V8.47092C12.8954 8.3535 12.9909 8.25806 13.1083 8.25806H14.1781C14.2955 8.25806 14.3909 8.3535 14.3909 8.47092C14.3909 8.79456 14.6535 9.05685 14.9769 9.05685C15.3005 9.05685 15.5628 8.79456 15.5628 8.47092C15.5628 7.72453 14.9691 7.11456 14.2291 7.08755V6.70418C14.2291 6.38054 13.9668 6.11824 13.6434 6.11824C13.32 6.11824 13.0573 6.38054 13.0573 6.70418V7.08755C12.3175 7.11456 11.7238 7.72453 11.7236 8.47092V9.48898C11.7236 10.2525 12.3447 10.8735 13.1083 10.8735H14.1781C14.2955 10.8735 14.3909 10.9692 14.3909 11.0866V12.1646C14.3909 12.282 14.2955 12.3775 14.1781 12.3775H13.6434H13.1083C12.9909 12.3775 12.8954 12.282 12.8954 12.1651V12.0664C12.8957 11.7428 12.6334 11.4803 12.31 11.48C12.047 11.48 11.8238 11.6535 11.7499 11.8922C11.5295 11.8163 11.2976 11.7709 11.0593 11.7593C11.0181 11.7572 10.9767 11.7563 10.9351 11.7563ZM21.3606 19.552H13.4811C13.48 19.5486 13.4786 19.5451 13.4775 19.5417C13.4727 19.528 13.4686 19.5138 13.4647 19.4998C13.4404 19.4158 13.4276 19.3279 13.4276 19.2405V19.0166H25.5526V19.552H21.3606ZM26.1404 6.65176L26.1385 6.65154C25.5718 6.65154 25.0449 6.47873 24.6075 6.18301C23.8786 5.69023 23.3986 4.85596 23.3986 3.91182C23.3986 2.40097 24.6277 1.17188 26.1385 1.17188C27.6492 1.17188 28.8785 2.40097 28.8785 3.91182C28.8785 5.42198 27.6503 6.65062 26.1404 6.65176Z"/>
<path d="M27.4104 3.20891H26.7245V2.52295C26.7245 2.19931 26.4619 1.93701 26.1385 1.93701C25.8149 1.93701 25.5526 2.19931 25.5526 2.52295V3.20891H24.8664C24.5428 3.20891 24.2805 3.47121 24.2805 3.79485C24.2805 4.11848 24.5428 4.38078 24.8664 4.38078H25.5526V5.06697C25.5526 5.39061 25.8149 5.65291 26.1385 5.65291C26.4619 5.65291 26.7245 5.39061 26.7245 5.06697V4.38078H27.4104C27.7341 4.38078 27.9964 4.11848 27.9964 3.79485C27.9964 3.47121 27.7341 3.20891 27.4104 3.20891Z"/>
<path d="M9.02917 26.9585C8.70554 26.9585 8.44324 27.2208 8.44324 27.5444V29.4139C8.44324 29.7376 8.70554 29.9999 9.02917 29.9999C9.35258 29.9999 9.61511 29.7376 9.61511 29.4139V27.5444C9.61511 27.2208 9.35258 26.9585 9.02917 26.9585Z"/>
<path d="M9.56999 24.9028C9.47546 24.6718 9.23559 24.5244 8.98703 24.5425C8.74418 24.5601 8.53292 24.7318 8.46586 24.9659C8.39811 25.2015 8.4892 25.4601 8.6881 25.6029C8.8838 25.7437 9.15388 25.7478 9.35438 25.6141C9.58395 25.461 9.67596 25.1571 9.56999 24.9028Z"/>
</g>
<defs>
<clipPath id="clip0">
<rect width="30" height="30"/>
</clipPath>
</defs>
</svg>
