<svg width="30" height="30" viewBox="0 0 30 30" fill="none" xmlns="http://www.w3.org/2000/svg">
<path d="M23.1508 2.38531L8.1508 1.63379L0 14.2484L6.8492 27.6146L21.8492 28.3661L30 15.7514L23.1508 2.38531ZM22.0092 4.15215L27.4194 14.71L15.5708 14.1164L10.1607 3.55859L22.0092 4.15215ZM2.101 14.3536L8.53934 4.3894L13.9495 14.9473L7.51113 24.9116L2.101 14.3536ZM20.8898 26.4939L9.04131 25.9003L15.4796 15.936L27.3282 16.5296L20.8898 26.4939Z"/>
<path d="M19.0389 9.95439C19.6259 9.95439 20.1018 9.47852 20.1018 8.8915C20.1018 8.30449 19.6259 7.82861 19.0389 7.82861C18.4519 7.82861 17.976 8.30449 17.976 8.8915C17.976 9.47852 18.4519 9.95439 19.0389 9.95439Z"/>
<path d="M14.2512 24.5994C14.8382 24.5994 15.3141 24.1235 15.3141 23.5365C15.3141 22.9495 14.8382 22.4736 14.2512 22.4736C13.6641 22.4736 13.1883 22.9495 13.1883 23.5365C13.1883 24.1235 13.6641 24.5994 14.2512 24.5994Z"/>
<path d="M21.9838 20.3079C22.5708 20.3079 23.0467 19.832 23.0467 19.245C23.0467 18.658 22.5708 18.1821 21.9838 18.1821C21.3968 18.1821 20.9209 18.658 20.9209 19.245C20.9209 19.832 21.3968 20.3079 21.9838 20.3079Z"/>
<path d="M8.05723 11.2249C8.64424 11.2249 9.12011 10.749 9.12011 10.162C9.12011 9.57499 8.64424 9.09912 8.05723 9.09912C7.47021 9.09912 6.99434 9.57499 6.99434 10.162C6.99434 10.749 7.47021 11.2249 8.05723 11.2249Z"/>
<path d="M5.13221 15.7002C5.71923 15.7002 6.1951 15.2244 6.1951 14.6373C6.1951 14.0503 5.71923 13.5745 5.13221 13.5745C4.54519 13.5745 4.06932 14.0503 4.06932 14.6373C4.06932 15.2244 4.54519 15.7002 5.13221 15.7002Z"/>
<path d="M10.5065 16.0647C11.0935 16.0647 11.5694 15.5889 11.5694 15.0018C11.5694 14.4148 11.0935 13.939 10.5065 13.939C9.91945 13.939 9.44357 14.4148 9.44357 15.0018C9.44357 15.5889 9.91945 16.0647 10.5065 16.0647Z"/>
<path d="M7.67285 20.3079C8.25986 20.3079 8.73574 19.832 8.73574 19.245C8.73574 18.658 8.25986 18.1821 7.67285 18.1821C7.08583 18.1821 6.60995 18.658 6.60995 19.245C6.60995 19.832 7.08583 20.3079 7.67285 20.3079Z"/>
</svg>
