<?xml version="1.0"?>
<svg xmlns="http://www.w3.org/2000/svg" xmlns:xlink="http://www.w3.org/1999/xlink" xmlns:svgjs="http://svgjs.com/svgjs" version="1.1" width="512" height="512" x="0" y="0" viewBox="0 0 512 512" style="enable-background:new 0 0 512 512" xml:space="preserve"><g><path xmlns="http://www.w3.org/2000/svg" d="M256,16A239.99957,239.99957,0,0,0,86.29492,425.70557,239.99957,239.99957,0,1,0,425.70508,86.29443,238.42568,238.42568,0,0,0,256,16ZM97.6084,97.60791A224.00207,224.00207,0,0,1,479.1626,236.6283L456,254l-25.25073-18.93781C420.36377,147.84979,345.96216,80,256,80,164.1709,80,88.55591,150.69531,80.689,240.51691L60.7998,225.6001a7.998,7.998,0,0,0-9.5996,0L32.59375,239.55493A222.33226,222.33226,0,0,1,97.6084,97.60791ZM168,176V160h64v16a47.80135,47.80135,0,0,0,12.26123,32H200A32.03635,32.03635,0,0,1,168,176ZM392,336H320V320h72Zm-96-32V288h72v16Zm-64,0V224h48v80Zm136-32H296V256h72Zm0-32H296V224h72ZM216,224v16H160v16h56v16H160v16h56v16H144V224Zm24,96v16H184v16h56v16H184v16h56v31.20227a158.9699,158.9699,0,0,1-72-25.64563V320Zm16,0h48v88.64062A159.43248,159.43248,0,0,1,256,416Zm64,64h31.89429A160.10792,160.10792,0,0,1,320,402.62646Zm50.14282-16H320V352h63.919A161.31245,161.31245,0,0,1,370.14282,368Zm37.01782-59.55139A7.99264,7.99264,0,0,0,400,304H384V216a8.00008,8.00008,0,0,0-8-8H280a32.03635,32.03635,0,0,1-32-32V152a8.00008,8.00008,0,0,0-8-8H160a8.00008,8.00008,0,0,0-8,8v24a47.80135,47.80135,0,0,0,12.26123,32H136a8.00008,8.00008,0,0,0-8,8v96a8.00008,8.00008,0,0,0,8,8h16v57.48633A159.69316,159.69316,0,0,1,96,256c0-88.22412,71.77539-160,160-160s160,71.77588,160,160A159.29869,159.29869,0,0,1,407.16064,308.44861Zm7.231,105.94348A223.9864,223.9864,0,0,1,32.04834,259.96362L56,242l24.05127,18.03833C82.20581,355.22705,160.30322,432,256,432c97.04688,0,176-78.95312,176-176v-.00024l19.2002,14.40014a7.999,7.999,0,0,0,9.5996,0L480,255.99976V256A222.53216,222.53216,0,0,1,414.3916,414.39209Z" data-original="#000000" style=""/></g></svg>
