<svg xmlns="http://www.w3.org/2000/svg" width="17" height="17">
  <path fill-rule="evenodd" d="M11.677 3.065c1.42 0 3.165 1.416 4.203 3.645 1.22 2.62.997 5.31-.498 6.004-1.134.528-2.673-.243-3.883-1.79-.716-.915-1.798-1.47-2.96-1.47H8.31c-1.162 0-2.244.555-2.96 1.47-1.2 1.547-2.75 2.318-3.883 1.79C-.027 12.02-.25 9.333.97 6.712c1.015-2.18 2.71-3.648 4.1-3.648 1.268 0 2.172.5 3.345.5s2.04-.51 3.252-.51zm.28 4.46a.63.63 0 0 0-.628.628.63.63 0 0 0 .628.628.63.63 0 0 0 .628-.628.63.63 0 0 0-.628-.628zm-6.57-2.743H4.4v1.507l-1.507.001v.985L4.4 7.273V8.78h.985V7.273l1.507.001V6.29l-1.507-.001V4.782zm5.198 1.372a.63.63 0 0 0-.628.628.63.63 0 0 0 .628.628.63.63 0 0 0 .628-.628.63.63 0 0 0-.628-.628zm2.744 0a.63.63 0 0 0-.628.628.63.63 0 0 0 .628.628.63.63 0 0 0 .628-.628.63.63 0 0 0-.628-.628zM11.956 4.78a.63.63 0 0 0-.628.628.63.63 0 0 0 .628.628.63.63 0 0 0 .628-.628.63.63 0 0 0-.628-.628z"/>
</svg>
