<svg xmlns="http://www.w3.org/2000/svg" xmlns:xlink="http://www.w3.org/1999/xlink" width="28" height="20"><path d="M25.624 7.83c0 1.626-1.104 3.028-2.61 3.57l2.408 6.152c1.706-.606 1.84-2.136 1.806-2.614-.033-.32-1.104-4.973-1.606-7.108z" class="B"/><path d="M21.577 11.656c-1.104 0-2.14-.414-2.843-1.116l3.546 6.184c.3.382 1.438 1.434 3.144.83L23.015 11.4a4.25 4.25 0 0 1-1.438.255z" class="C"/><path d="M2.1 7.83L.504 14.97a2.64 2.64 0 0 0 1.806 2.614l2.408-6.152C3.18 10.86 2.1 9.456 2.1 7.83z" class="B"/><path d="M4.72 11.4L2.3 17.553c1.706.606 2.877-.478 3.144-.83.2-.287 2.408-4.176 3.546-6.184-.736.7-1.74 1.116-2.843 1.116a4.25 4.25 0 0 1-1.438-.255z" class="C"/><g class="E"><ellipse cx="6.157" cy="7.799" rx="4.047" ry="3.857"/><ellipse cx="10.037" cy="11.337" rx="2.609" ry="2.486"/></g><ellipse cx="10.037" cy="11.337" rx="1.706" ry="1.626" class="D"/><path d="M4.217 3.336l-.2 1.18c.636-.383 1.338-.574 2.14-.574V2.444c-1.806 0-1.873.637-1.94.892z" class="B"/><use xlink:href="#B" class="D"/><use xlink:href="#B" class="C"/><use xlink:href="#C" class="E"/><path d="M5.22 7.352c-.033-.064-.134-.096-.234-.096h-.77c-.067 0-.134.064-.134.127v.86c0 .064.067.128.134.128h.77c.067 0 .167-.032.2-.096l.3-.35c.033-.064.033-.127 0-.2l-.268-.383zm2.877-.127h-.77c-.067 0-.167.032-.2.096l-.3.35c-.033.064-.033.128 0 .2l.3.35c.033.064.134.096.234.096h.77c.067 0 .134-.064.134-.127v-.86c-.033-.032-.1-.096-.167-.096zM6.625 5.822h-.937c-.067 0-.134.064-.134.127v.733c0 .064.033.16.1.2l.368.287a.22.22 0 0 0 .2 0l.368-.287c.067-.032.1-.128.1-.223v-.733c.067-.032 0-.096-.067-.096zm-.368 2.582a.22.22 0 0 0-.2 0l-.368.287c-.067.032-.1.127-.1.223v.733c0 .064.067.127.134.127h.903c.067 0 .134-.064.134-.127v-.733c0-.064-.033-.16-.1-.2l-.4-.32z" class="D"/><g class="E"><ellipse cx="21.577" cy="7.799" rx="4.047" ry="3.857"/><ellipse cx="17.697" cy="11.337" rx="2.609" ry="2.486"/></g><path d="M8.833 5.337h5.017V4.54H8.23c.234.245.435.5.602.797z" class="C"/><path d="M13.85 5.337h5.017c.2-.306.368-.552.602-.797h-5.62v.797z" class="B"/><path d="M12.312 12.58h1.572v-.924h-1.238c-.067.32-.167.637-.334.924z" class="C"/><path d="M13.85 11.656v.924h1.572c-.167-.287-.268-.574-.334-.924H13.85zM8.834 4.898c.836.7 1.37 1.753 1.37 2.9 0 .383-.067.733-.167 1.052 1.438 0 2.576 1.116 2.576 2.486 0 .096 0 .223-.033.32h1.238V4.898H8.834z" class="B"/><path d="M13.85 11.656h1.238c0-.096-.033-.223-.033-.32 0-1.37 1.17-2.486 2.576-2.486-.1-.35-.167-.7-.167-1.052 0-1.147.535-2.2 1.37-2.9h0-5.017v6.758h.033z"/><ellipse cx="17.697" cy="11.337" rx="1.706" ry="1.626" class="D"/><use xlink:href="#B" x="15.42" class="B"/><path d="M19.637 3.336l-.2 1.18c.636-.383 1.338-.574 2.14-.574V2.444c-1.806 0-1.873.637-1.94.892z" class="C"/><use xlink:href="#C" x="15.42" class="E"/><g class="D"><path d="M11.977 7.512h-.803c-.067 0-.134.094-.134.188v.422c0 .094.067.188.134.188h.803c.067 0 .134-.094.134-.187V7.7c0-.094-.067-.187-.134-.187zm3.78.004c-.067-.046-.134.046-.134.138v.508a.13.13 0 0 0 .134.138l.87-.323c.067-.046.067-.092 0-.092l-.87-.37z"/><circle cx="19.737" cy="7.799" r="1"/><circle cx="23.383" cy="7.799" r="1"/><circle cx="21.577" cy="6.046" r="1"/><circle cx="21.577" cy="9.52" r="1"/><path d="M13.148 9.87h1.472v.797h-1.472z"/></g><defs ><path id="B" d="M6.157 2.444v1.498c.77 0 1.505.223 2.14.574h0l-.2-1.18c-.033-.255-.134-.892-1.94-.892z"/><path id="C" d="M6.157 2.125c-1.472 0-1.438.797-1.438.797h0c.268-.187.736-.375 1.438-.375s1.17.14 1.438.375h0s.033-.797-1.438-.797z"/></defs></svg>