<?xml version="1.0"?>
<svg xmlns="http://www.w3.org/2000/svg" xmlns:xlink="http://www.w3.org/1999/xlink" xmlns:svgjs="http://svgjs.com/svgjs" version="1.1" width="512" height="512" x="0" y="0" viewBox="0 0 512 512" style="enable-background:new 0 0 512 512" xml:space="preserve" class=""><g><g xmlns="http://www.w3.org/2000/svg"><path d="m463.382 454.837-10.89-35.63c-1.211-3.96-5.401-6.192-9.365-4.98-3.961 1.21-6.191 5.403-4.98 9.365l10.89 35.628c2.735 8.957 1.108 18.412-4.463 25.939-5.57 7.525-14.133 11.841-23.494 11.841h-58.66c-5.099 0-10.13-2.519-14.166-7.091-8.94-10.134-18.03-18.843-27.094-26.003 1.372-3.516 2.134-7.335 2.134-11.33 0-17.239-14.025-31.264-31.265-31.264-12.311 0-22.979 7.155-28.075 17.523-5.296-.497-10.614-.497-15.91 0-5.095-10.368-15.763-17.523-28.075-17.523-17.239 0-31.265 14.025-31.265 31.264 0 3.996.762 7.814 2.134 11.33-9.064 7.16-18.154 15.87-27.093 26.002-4.037 4.574-9.068 7.093-14.167 7.093h-58.658c-9.36 0-17.923-4.316-23.494-11.841-5.572-7.527-7.199-16.982-4.464-25.938l36.18-118.389c2.522-8.25 10.012-13.792 18.637-13.792h56.76c6.119 0 11.957 2.931 15.621 7.847 6.481 8.681 16.818 13.863 27.649 13.863h76.38c10.832 0 21.168-5.182 27.654-13.869 3.659-4.91 9.497-7.841 15.616-7.841h56.76c8.625 0 16.115 5.543 18.637 13.792l15.06 49.29c1.21 3.961 5.405 6.193 9.364 4.981 3.961-1.21 6.191-5.403 4.981-9.364l-15.061-49.291c-4.463-14.599-17.717-24.408-32.982-24.408h-56.76c-10.833 0-21.167 5.188-27.639 13.873-3.665 4.908-9.508 7.837-15.631 7.837h-8.23v-68.473c35.272-9.221 64.185-34.325 78.617-67.177h50.443c25.188 0 45.68-20.492 45.68-45.68s-20.492-45.68-45.68-45.68h-40.492v-42.637h25.126c10.146 0 18.401-8.255 18.401-18.401v-27.302c.003-10.146-8.252-18.401-18.399-18.401h-215.287c-4.142 0-7.5 3.358-7.5 7.5s3.358 7.5 7.5 7.5h215.288c1.875 0 3.401 1.526 3.401 3.401v27.301c0 1.875-1.526 3.401-3.401 3.401h-287.309c-1.875 0-3.401-1.526-3.401-3.401v-27.301c0-1.875 1.526-3.401 3.401-3.401h37.021c4.142 0 7.5-3.358 7.5-7.5s-3.358-7.5-7.5-7.5h-37.021c-10.146 0-18.401 8.255-18.401 18.401v27.301c0 10.146 8.255 18.401 18.401 18.401h25.126v42.636h-40.492c-25.188 0-45.68 20.492-45.68 45.68s20.492 45.68 45.68 45.68h50.443c14.432 32.852 43.344 57.956 78.617 67.177v68.473h-8.23c-6.123 0-11.966-2.93-15.626-7.832-6.476-8.69-16.81-13.878-27.644-13.878h-56.76c-15.265 0-28.519 9.809-32.982 24.408l-36.181 118.392c-4.139 13.552-1.677 27.855 6.753 39.244 8.428 11.387 21.386 17.917 35.55 17.917h58.66c9.463 0 18.488-4.321 25.415-12.168 8.14-9.227 16.361-17.143 24.511-23.651 5.489 4.765 12.643 7.659 20.465 7.659 16.887 0 30.68-13.46 31.237-30.214 3.192-.219 6.391-.219 9.584 0 .557 16.754 14.35 30.214 31.237 30.214 7.822 0 14.977-2.894 20.465-7.659 8.15 6.509 16.371 14.424 24.512 23.652 6.925 7.846 15.95 12.167 25.413 12.167h58.66c14.164 0 27.122-6.53 35.55-17.917 8.431-11.388 10.893-25.692 6.753-39.246zm-48.362-333.097c16.917 0 30.68 13.763 30.68 30.68s-13.763 30.68-30.68 30.68h-45.026c2.952-10.335 4.534-21.242 4.534-32.512v-28.848zm-318.04 61.36c-16.917 0-30.68-13.763-30.68-30.68s13.763-30.68 30.68-30.68h40.492v28.848c0 11.27 1.582 22.177 4.534 32.512zm55.492-32.512v-86.484h207.056v86.484c0 57.085-46.442 103.528-103.528 103.528s-103.528-46.442-103.528-103.528zm88.568 117.587c4.901.62 9.894.941 14.96.941s10.059-.321 14.96-.941v65.575h-29.92zm-21.069 200.665c-8.968 0-16.265-7.296-16.265-16.265s7.296-16.264 16.265-16.264 16.264 7.296 16.264 16.264-7.296 16.265-16.264 16.265zm72.058 0c-8.968 0-16.264-7.296-16.264-16.265s7.296-16.264 16.264-16.264 16.265 7.296 16.265 16.264-7.296 16.265-16.265 16.265z" data-original="#000000" style="" class=""/><path d="m142.763 439.918h13.207c8.043 0 14.587-6.543 14.587-14.587v-9.372h9.372c8.043 0 14.587-6.543 14.587-14.587v-13.206c0-8.043-6.543-14.587-14.587-14.587h-9.372v-9.372c0-8.043-6.543-14.587-14.587-14.587h-13.207c-8.043 0-14.587 6.543-14.587 14.587v9.372h-9.372c-8.043 0-14.587 6.543-14.587 14.587v13.206c0 8.043 6.543 14.587 14.587 14.587h9.372v9.372c0 8.044 6.544 14.587 14.587 14.587zm-23.545-38.959v-12.38h14.658c5.128 0 9.301-4.172 9.301-9.301v-14.658h12.38v14.658c0 5.128 4.172 9.301 9.301 9.301h14.658v12.38h-14.658c-5.128 0-9.301 4.172-9.301 9.301v14.658h-12.38v-14.658c0-5.128-4.172-9.301-9.301-9.301z" data-original="#000000" style="" class=""/><path d="m364.417 350.125c-24.618 0-44.646 20.028-44.646 44.645 0 24.618 20.028 44.646 44.646 44.646 24.617 0 44.645-20.028 44.645-44.646s-20.028-44.645-44.645-44.645zm0 74.29c-16.347 0-29.646-13.299-29.646-29.646 0-16.346 13.299-29.645 29.646-29.645 16.346 0 29.645 13.299 29.645 29.645 0 16.347-13.299 29.646-29.645 29.646z" data-original="#000000" style="" class=""/></g></g></svg>
