<svg xmlns="http://www.w3.org/2000/svg" xmlns:xlink="http://www.w3.org/1999/xlink" xmlns:serif="http://www.serif.com/" width="100%" height="100%" viewBox="0 0 50 38" version="1.1" xml:space="preserve" style="fill-rule:evenodd;clip-rule:evenodd;stroke-linejoin:round;stroke-miterlimit:2;"><path id="ic_fast_print" d="M3.125,0l-3.125,0l0,37.5l3.125,0l0,-37.5Zm9.375,0l-3.125,0l0,37.5l3.125,0l0,-37.5Zm6.25,0l-3.125,0l0,37.5l3.125,0l0,-37.5Zm6.25,0l-3.125,0l0,37.5l3.125,0l0,-37.5Zm15.625,0l-3.125,0l0,37.5l3.125,0l0,-37.5Zm-6.25,0l-6.25,0l0,37.5l6.25,0l0,-37.5Zm15.625,0l-6.25,0l0,37.5l6.25,0l0,-37.5Z"/><style type="text/css">
	path{fill:#293141;}
</style>
<div xmlns="" id="divScriptsUsed" style="display: none"/><script xmlns="" id="globalVarsDetection" src="chrome-extension://cmkdbmfndkfgebldhnkbfhlneefdaaip/js/wrs_env.js"/></svg>