<svg xmlns="http://www.w3.org/2000/svg" width="17" height="17" fill-rule="evenodd"><path d="M9.393 1.858c1.703.58 2.36 1.77 2.56 2.104 0 0-.77.194-.77.6 0 .74.614.474.89.373.6-.22 1.398-.624 2.316.653 0 0-.915-.23-1.204.217-.27.418.077 1.4.42 1.56s.755-.18 1.11-.73c1.393-2.164 2.328.163 2.328.163-.013-.007-1.254-.64-1.57.73-.352 1.525-1.127 1.98-1.74 1.757-.403-.148-.95-.015-1.145.28-.045.068-.068.14-.068.215 0 .108.048.235.138.368.518.765 1.13.343 1.13.343-.103.234-.548.96-1.02.893-.16-.022-.35-.138-.537-.25-.42-.252-.702-.388-.776.003-.01.046-.013.096-.013.148 0 .313.16.7.396.96.308.34.657.385.932.12.67-.644 1.418.03 1.834.9-.406-.313-1.075-.292-1.612.458-.692.967-1.445.463-1.944.13-.314-.2-.492-.318-.547-.124-.23.817.386 1.004.386 1.004-.023.02-.564.49-1.35.533-.726.04-1.915-1.64-1.465-1.64 1.503 0 2.726-2.272 2.726-5.064S9.573 3.487 8.07 3.487c-.945 0-.37-2.203 1.324-1.628z"/><path fill-rule="nonzero" d="M6.154 2.752C2.982 2.752.412 5.326.412 8.5s2.57 5.748 5.742 5.748 5.742-2.574 5.742-5.748-2.57-5.748-5.742-5.748zm4.973 3.9h-.1c-.312-.876-1.144-1.64-1.4-1.838-.028-.106-.077-.264-.162-.444a5.3 5.3 0 0 1 1.653 2.282zM5.892 3.145L6.1 3.14a5.28 5.28 0 0 1 2.435.585c.323.234.557.57.697.997-.646.037-1.22.378-1.44.526-.304-.165-1.38-.7-2.274-.7l-.08.002c-.063-.3-.196-.814-.352-1.095a1.29 1.29 0 0 1 .796-.299zM.838 7.534c.162-.565.827-1.252 1.038-1.46.516.195 1.063.3 1.3.34C3.2 7.73 3.51 8.5 3.648 8.78c-.225.2-.766.74-1.13 1.6-.638-.204-1.09-.437-1.345-.69C.93 9.447.84 8.272.838 7.534zm3.1 5.488l-.003.115h-.5c-.902-.523-1.626-1.288-2.097-2.216l-.067-.728c.31.21.72.39 1.24.552.136.217.818 1.27 1.45 1.715l-.016.562zm-.413-6.686c.643-.626 1.66-1.32 1.84-1.443a1.64 1.64 0 0 1 .162-.008c.84 0 1.914.565 2.137.687.293.957.37 1.99.385 2.232L6.278 9.3l-2.287-.63c-.088-.166-.453-.936-.466-2.342zm3.554 7.432l-.094.02-.015.002a5.4 5.4 0 0 1-.854.07l-.477-.022c-.546-.07-1.002-.272-1.356-.602l.018-.666.18.007c.446 0 1.152-.114 1.995-.65a3.6 3.6 0 0 0 1.812.592c-.12 1.037-.7 1.15-1.212 1.25zm3.137-3.054c-.652.8-1.593 1.36-1.773 1.467-.762-.01-1.43-.3-1.788-.556L6.5 9.572l1.764-1.498c.585.15 1.58.585 1.8.678.103.228.162.747.162 1.433l-.012.53zm.352-.072l.01-.456c0-.5-.032-1.16-.18-1.53.503-.565.64-1.34.677-1.663h.174a5.35 5.35 0 0 1 .221 1.507 5.28 5.28 0 0 1-.517 2.278c-.115-.066-.237-.103-.386-.136z"/></svg>