<svg height="17" viewBox="0 0 17 17" width="17" xmlns="http://www.w3.org/2000/svg"><g fill="#fff" fill-rule="evenodd"><path d="m7.56190909 11.502303c-.20142424-.2014242-.52751515-.2014242-.72842424 0-.20142424.2014243-.20142424.5275152 0 .7284243l4.05424245 4.0547575c.2014242.2009091.5275151.2009091.7284242 0 .2014243-.2014242.2014243-.5275151 0-.7289393zm-2.90906061.1818485c-.20090909-.2009091-.527-.2009091-.72842424 0-.20090909.2014243-.20090909.5275152 0 .7289394l3.93936364 3.9388485c.20090909.2014242.527.2014242.72842424 0 .20090909-.2009091.20090909-.527 0-.7284242z"/><path d="m13.9477273 1.74842424v.00206061c.1432121-.43221212.5450303-.70266667.9762121-.70318182.1076667 0 .2168788.01751515.3271212.05357576l-.0005151.00051515c.4322121.14269697.7047272.54606061.7047272.97672727 0 .10766667-.0164848.21687879-.0530606.32609091l-4.1212121 12.36363638v-.0092727c-.1432121.4327272-.5460606.6959697-.9772424.6959697h-5.66666669c-.85360606 0-1.53669697-.683091-1.53824243-1.5361819.00154546-.853606.52236364-1.5351515 1.55266667-1.5366969v-.0180303h4.88209095c.2225454 0 .418303-.132394.4883636-.3430909zm-4.28554548 9.58490906h-4.51066667v.0180303c-1.54545454.0005152-2.58245454 1.1441516-2.5829697 2.567.00051516 1.4223334 1.14569697 2.5664849 2.56854546 2.5664849h5.66666669c.8633939 0 1.666-.5367879 1.9544848-1.400697v.0046364l4.1212121-12.36106063v.00154546c.0716061-.21533334.1061213-.43530303.1061213-.65166667.0005151-.86339394-.5460606-1.66548485-1.4094546-1.9539697h-.0005151c-.2148182-.07160606-.4353031-.10560606-.6516667-.10560606-.8639091-.0010303-1.666.54657576-1.9539697 1.40945455v-.00927273z"/><circle cx="2.569" cy="8.06" r="2.06"/></g></svg>