<svg height="17" viewBox="0 0 17 17" width="17" xmlns="http://www.w3.org/2000/svg"><g fill-rule="evenodd"><path d="m4.59662105 12.2595053c-2.70147894 0-3.58109473-.8001632-3.76979473-1.0175842-.14378421-.1228474-.6664-.6264053-.53881053-1.35096321.16865789-.95548947 1.34792105-1.76316842 3.60489474-2.46938421 3.69078947-1.15483684 4.47198421-2.69879473 5.04255789-3.82616315.14414211-.28488421.28041053-.55393158.44718947-.78468421.38715264-.53514211.98376321-.85420527 1.63665261-.8755 2.0396421-.06737369 3.3132106.15962105 3.7844684.67373684.1758158.1921.2528527.42696842.2226106.6796421-.0452737.37507369.2033737 1.34416316.4437894 2.28113158.4868264 1.8972 1.038879 4.04752105.3660369 4.98699476-.2011369.2809473-.5015.4443263-.8687.4726-2.1332316.1639158-5.70940527.662821-5.74519475.667921-1.94462105.4122948-3.45592105.5622527-4.6257.5622527zm6.44452105-9.64839477c-.4422684.01449473-.8471368.23173684-1.11054736.59607368-.13546316.1873579-.25437369.42186842-.39171579.6936-.58945263 1.16521579-1.48043158 2.92596842-5.4437579 4.16616316-2.57737894.80642631-3.07431579 1.56265789-3.14115263 1.94148943-.07283158.4128316.31432105.7216948.31816842.7247369.0238.0183421.04527369.0396368.06334737.0636158.00867895.0096631 1.42415263 1.5798368 7.76980526.2348684.05923158-.0090368 3.65625263-.5109842 5.81015263-.6766.1709842-.0130632.2853316-.0722947.3709579-.1919211.4890632-.68322101-.0660316-2.84597891-.4713474-4.42527891-.2909684-1.1335421-.5207368-2.02908421-.4603421-2.53022631.0057263-.04643684-.0003579-.08831053-.0493894-.14172632-.2419369-.26385789-1.2287422-.52351052-3.264179-.45479473z" fill-rule="nonzero"/><path d="m16.9097211 14.5974526-.3102053-.7060368c-.1690158-.3859-.550979-.6350842-.9720421-.6350842h-1.1852579l.1255316-.4393158.3570894-.0004474c.1577421-.0001789.2943685-.1094263.3294421-.2634105l.3925211-1.7311368c.0238-.1053106-.0042053-.2156316-.0751579-.2969632-.0713105-.0815105-.1785-.1255316-.2841684-.1145263l-3.6336158.3170052c-.0913526.0079632-.1754579.0526106-.2331684.1237421-.0577106.0711316-.0841053.1626632-.0731895.2535685l.1712526 1.4179789c.0207579.1698211.1649.2975.3358842.2975h.0003579l.2912369-.0003579.0918.4089842h-5.1456316l.18601579-1.1062526c.0166421-.0990474-.01172105-.2003316-.07739474-.2765632-.06567368-.0762315-.16606316-.1224894-.26188947-.1175684l-1.69436316.0277369c-.09734737.0017-.18977368.0452736-.25285263.1199842-.06298947.0745316-.09054737.1728631-.07587368.2692263l.16221578 1.0582947-2.83577894-.0013421c-.03507369-.0005368-.10754737-.0164631-.12195263-.0449158-.00152106-.0025947-.12186316-.2692263.54042105-1.1849.10942631-.1513.07542631-.3626368-.07587369-.4720631-.1513-.1097842-.36299473-.0755158-.47206315.0757842-.62712106.867-.81510527 1.4696052-.59097369 1.8963947.21321579.4052263.6732.4056737.72232105.4058527l3.22794211.001521c.09851053 0 .19245789-.0430368.25661053-.1177474.06415263-.0748894.09242631-.1741158.07775263-.2715526l-.16337895-1.0649158.90073158-.0147631-.18494211 1.0996315c-.01619473.0981527.01136316.1985421.07542632.2743264.06415263.0759631.15854737.1198052.25813158.1198052h5.96753682c.1026263 0 .1996158-.0466158.2641263-.1267842.0641527-.0801684.0883106-.185121.0656737-.2853316l-.1513-.6740052 1.0256369-.0012527-.1955.683579c-.0294369.1020895-.0090369.2118737.0551158.2966052.0637947.0847316.1637368.134479.2697631.134479h1.6336105c.1528211 0 .2916842.0905474.3531527.2307526l.1019105.2320948-13.43357895.0003579c-.01503158-.0013422-1.36411579.0401736-1.76603158-.6543211-.26493158-.4577474-.07846842-1.2145158.5389-2.1880789.0999421-.1577422.05323684-.3665737-.10459474-.4666053-.1581-.1002105-.36639473-.0532369-.46678421.1043263-.77171053 1.217379-.95772632 2.1894211-.55276842 2.8890158.53773684.9294526 1.91733158.9930684 2.27925263.9930684.04938948 0 .07998948-.0011631.08678948-.001521h13.93651049c.1143474 0 .2207316-.0575316.2830053-.153179.0629-.0953789.0727421-.2161684.0266632-.3206737zm-2.024879-3.4730105-.2305737 1.0162421-2.4999842.0030421-.0932316-.7730526z" fill-rule="nonzero"/><path d="m2.53613158 1.23804737c-.03015263 0-.06039474-.00697895-.08866842-.02147369l-1.49510526-.77206842c-.09475264-.04903158-.13206316-.16543684-.08303158-.26036842.04903158-.09511052.16677894-.13116842.26036842-.08303158l1.49510526.77206842c.09475263.04903158.13206316.16543685.08303158.26036843-.0343579.06638947-.10191053.10450526-.1717.10450526zm-.84230526 1.00586316c-.03015264 0-.06039474-.00697895-.08866843-.02156316l-1.49510526-.77224737c-.09475263-.04903158-.13206316-.16552632-.08303158-.26036842.04903158-.09511053.16642106-.13134737.26036842-.08303158l1.49510527.77224737c.09475263.04903158.13206315.16552631.08303158.26036842-.0343579.06638947-.10191053.10459474-.1717.10459474z" transform="translate(7.874 4.34)"/></g></svg>