<svg height="17" viewBox="0 0 17 17" width="17" xmlns="http://www.w3.org/2000/svg"><path d="m8.49044845 0c-4.68919587 0-8.49044845 3.80125258-8.49044845 8.49044845 0 4.68919585 3.80125258 8.49044845 8.49044845 8.49044845 4.68919585 0 8.49044845-3.8012526 8.49044845-8.49044845 0-4.68919587-3.8013402-8.49044845-8.49044845-8.49044845zm-5.82074742 13.3309794c-.26052062-.0878041-.5773866-.4068608-.81056701-.8489485-.27156186-.5149948-.34131443-1.0293763-.1927835-1.2636082.26052061.0878041.57738659.4067732.81056701.8489484.27147422.5149073.34131443 1.0293763.1927835 1.2636083zm-.09963402-9.82030414c-.42710309.50001031-.8879433.80741237-1.02937629.68674742-.14143299-.12092783.09008248-.62409278.51718557-1.12419072s.8879433-.8075 1.02937629-.68674742c.14143299.1208402-.09017011.62418041-.51718557 1.12419072zm2.08144845 5.94640721c-.74282989 0-1.34501546-.59903092-1.34501546-1.33791752s.60218557-1.33800516 1.34501546-1.33800516c.7428299 0 1.34501547.59911856 1.34501547 1.33800516s-.60218557 1.33791752-1.34501547 1.33791752zm.58106701-6.37394845c-.11812371-.50036082.36146908-1.04173196 1.071-1.20927835.70961856-.16737113 1.38050516.1026134 1.49854124.60306186.11803608.50044845-.36146907 1.04181958-1.071 1.20927835-.70961856.16737113-1.38050515-.10261341-1.49854124-.60306186zm2.67644846 11.75418558c-.73897423 0-1.33800516-.4611031-1.33800516-1.0298144 0-.5687114.59903093-1.0297268 1.33800516-1.0297268.73897422 0 1.33800515.4610154 1.33800515 1.0297268 0 .5687113-.59911855 1.0298144-1.33800515 1.0298144zm1.06521649-14.31408764c-.55486598-.03505155-.99958247-.14423711-.99327319-.24360825.00630928-.09937113.46119072-.15151031 1.0160567-.11645876s.99958247.14406185.99336082.24352062c-.0063969.09945876-.46127835.15159794-1.01614433.11654639zm2.59591748 3.09820618c.6227784-.22231443 1.3326598.17175258 1.5855567.88005671.252897.70839175-.0468814 1.46296391-.6696597 1.68527835-.6227784.22240206-1.3326598-.17157732-1.5855567-.88005671-.252897-.70839175.046969-1.46287628.6696597-1.68527835zm.7374846 12.35304126c-.5964021.3109948-1.1279588.4710051-1.1871959.3573505-.0593247-.1136546.3760155-.4581237.9725052-.7691186.596402-.3109948 1.1279587-.4709175 1.1871958-.3572628.0592372.1137422-.3761031.458036-.9725051.7690309zm2.6837216-4.9691701c-.2128505.6920051-.8428144 1.3679742-1.3649072 1.2073505-.5220928-.1605361-.641268-.8236237-.4284175-1.5156289.2128505-.6920051.7388866-1.18307729 1.2609794-1.02236595.5220051.16053608.7451958.63863915.5323453 1.33064435zm1.4609485-4.08525775c-.1725412.04880927-.4589124-.42999485-.6396907-1.0691598-.1807784-.63925257-.1874382-1.19709794-.0148969-1.24590721.1725412-.04880928.4589123.42990721.6396907 1.06924742.1807783.63925258.1874381 1.19709794.0148969 1.24581959z" /></svg>