<?xml version="1.0" standalone="no"?>
<!DOCTYPE svg PUBLIC "-//W3C//DTD SVG 20010904//EN"
 "http://www.w3.org/TR/2001/REC-SVG-20010904/DTD/svg10.dtd">
<svg version="1.0" xmlns="http://www.w3.org/2000/svg"
 width="1200.000000pt" height="517.000000pt" viewBox="0 0 1200.000000 517.000000"
 preserveAspectRatio="xMidYMid meet">

<g transform="translate(0.000000,517.000000) scale(0.100000,-0.100000)"
 stroke="none">
<path d="M4050 3070 c-7 -13 -10 -179 -8 -515 3 -528 3 -529 50 -504 17 9 18
38 18 512 0 512 -1 527 -37 527 -7 0 -17 -9 -23 -20z"/>
<path d="M11552 3028 c-78 -38 -132 -128 -132 -221 0 -65 18 -113 62 -162 49
-57 101 -79 183 -79 83 0 132 21 188 83 107 119 59 324 -90 386 -52 22 -159
18 -211 -7z m200 -17 c49 -21 114 -87 125 -128 4 -16 8 -53 8 -83 -1 -70 -36
-134 -97 -176 -39 -26 -51 -29 -124 -29 -73 0 -85 3 -123 29 -110 77 -131 224
-45 324 65 76 167 102 256 63z"/>
<path d="M11582 2927 c-9 -10 -12 -48 -10 -123 2 -89 6 -109 18 -109 10 0 17
13 20 40 4 34 9 40 31 43 21 2 34 -6 64 -42 37 -45 65 -59 65 -33 0 8 -9 22
-20 32 -11 10 -20 26 -20 35 0 9 9 25 20 35 27 25 27 86 -1 111 -28 25 -149
33 -167 11z m121 -26 c33 -13 41 -39 22 -68 -14 -21 -23 -24 -63 -21 -47 3
-47 3 -50 42 -5 53 29 70 91 47z"/>
<path d="M3127 3033 c-4 -3 -7 -223 -7 -488 0 -502 1 -516 42 -494 17 9 18 26
18 224 0 118 1 216 3 217 1 1 128 5 282 8 l280 5 3 23 c2 12 2 23 0 24 -2 1
-129 5 -283 8 l-280 5 0 205 0 205 306 3 c257 2 309 5 319 17 10 12 10 18 0
30 -11 13 -62 15 -345 15 -182 0 -335 -3 -338 -7z"/>
<path d="M5307 2993 c-4 -3 -7 -50 -7 -103 0 -112 -8 -128 -65 -132 -33 -2
-41 -7 -43 -25 -3 -23 9 -29 73 -35 l30 -3 5 -277 c5 -261 6 -278 26 -305 43
-58 79 -73 174 -73 73 0 90 3 104 19 28 31 11 40 -72 38 -92 -2 -131 15 -156
67 -13 29 -16 73 -16 285 l0 251 119 0 c123 0 151 9 138 45 -5 11 -32 15 -129
17 l-123 3 -3 104 c-1 58 -8 111 -14 118 -11 14 -31 17 -41 6z"/>
<path d="M5893 2993 c-9 -3 -13 -34 -13 -107 0 -66 -4 -106 -12 -114 -7 -7
-29 -12 -50 -12 -73 0 -59 -57 15 -62 l42 -3 5 -270 c3 -180 9 -279 17 -297 7
-15 31 -41 54 -58 39 -28 48 -30 128 -30 90 1 129 15 118 44 -5 12 -23 14 -86
13 -91 -2 -122 13 -154 74 -15 30 -17 62 -15 279 l3 245 117 3 c120 3 148 12
135 47 -5 11 -32 15 -129 17 l-123 3 -3 104 c-3 117 -12 140 -49 124z"/>
<path d="M7727 2790 c-46 -36 -44 -69 13 -235 29 -82 58 -168 65 -190 54 -164
98 -272 122 -297 23 -24 34 -28 83 -28 91 0 97 10 190 308 25 80 46 132 53
129 11 -3 56 -133 107 -304 12 -40 33 -87 47 -103 22 -27 31 -30 83 -30 94 0
95 1 215 340 115 324 123 363 80 405 -36 36 -102 35 -137 -2 -27 -29 -38 -57
-104 -280 -24 -81 -44 -133 -52 -133 -7 0 -14 6 -16 13 -8 28 -70 227 -93 299
-29 93 -63 128 -123 128 -48 0 -85 -16 -103 -44 -13 -19 -73 -201 -112 -338
-18 -63 -39 -75 -49 -30 -7 26 -46 158 -87 292 -27 86 -59 120 -115 120 -26 0
-51 -7 -67 -20z"/>
<path d="M9145 2806 c-5 -2 -36 -10 -68 -17 -73 -16 -107 -47 -107 -100 0 -53
38 -83 95 -75 109 15 214 18 247 7 43 -14 75 -47 87 -88 13 -45 0 -52 -67 -37
-123 29 -271 8 -346 -50 -50 -38 -76 -99 -76 -180 0 -78 21 -128 72 -171 52
-44 89 -55 189 -55 87 0 96 2 156 35 70 38 83 42 83 22 0 -8 11 -24 24 -36 19
-18 33 -22 77 -19 48 3 56 6 77 38 23 35 23 37 19 270 -2 148 -8 249 -16 272
-21 65 -71 120 -136 152 -55 27 -71 30 -180 33 -66 1 -124 1 -130 -1z m234
-442 c32 -13 33 -16 28 -54 -7 -54 -29 -86 -77 -110 -71 -36 -183 -21 -210 29
-24 46 -4 107 43 133 51 27 151 28 216 2z"/>
<path d="M9769 2781 c-21 -21 -29 -39 -29 -64 0 -46 244 -609 281 -648 24 -26
34 -29 86 -29 54 0 62 3 89 33 17 17 36 46 43 62 195 442 241 554 241 585 0
48 -47 90 -99 90 -54 0 -92 -36 -120 -115 -73 -207 -140 -370 -150 -370 -7 0
-48 94 -93 215 -90 243 -108 270 -179 270 -31 0 -47 -7 -70 -29z"/>
<path d="M10811 2790 c-67 -24 -92 -41 -141 -92 -52 -52 -87 -127 -100 -211
-27 -176 57 -345 208 -415 49 -23 73 -27 167 -30 131 -4 201 16 266 77 45 44
51 84 19 119 -34 37 -62 37 -136 0 -119 -57 -234 -41 -290 41 -49 72 -51 71
199 71 203 0 225 2 254 20 38 23 47 52 40 129 -10 111 -96 233 -197 279 -77
35 -212 41 -289 12z m192 -161 c62 -32 116 -121 86 -140 -8 -5 -78 -9 -155 -9
-168 0 -176 4 -141 71 32 60 77 89 139 89 27 0 59 -5 71 -11z"/>
<path d="M6614 2770 c-159 -33 -269 -166 -281 -338 -7 -96 13 -175 62 -248 39
-56 67 -79 143 -118 45 -23 63 -26 153 -26 91 0 107 3 163 29 33 17 76 46 95
65 29 30 32 38 21 51 -18 21 -24 20 -74 -19 -66 -50 -129 -71 -211 -70 -85 1
-144 26 -204 87 -57 57 -104 186 -68 187 6 1 132 1 279 0 184 -1 274 3 289 11
20 10 21 17 17 78 -9 126 -76 230 -181 280 -68 33 -140 44 -203 31z m129 -64
c97 -29 177 -129 180 -224 l2 -47 -254 -3 c-149 -1 -259 2 -264 7 -15 15 11
105 44 154 34 52 90 93 151 112 56 18 85 18 141 1z"/>
<path d="M7509 2764 c-66 -20 -138 -73 -174 -127 -16 -25 -34 -45 -40 -43 -5
1 -12 38 -15 82 -5 76 -6 79 -30 79 l-25 0 -3 -347 c-2 -333 -1 -348 17 -357
13 -8 22 -7 29 2 5 7 12 97 14 202 5 214 18 266 83 343 38 43 142 102 182 102
35 0 63 18 63 40 0 18 -28 41 -47 39 -4 0 -29 -7 -54 -15z"/>
<path d="M4374 2726 c-11 -61 2 -477 16 -519 19 -53 74 -114 131 -142 41 -21
62 -25 141 -25 85 0 98 3 145 30 28 16 61 43 73 60 29 41 40 38 40 -14 0 -38
18 -76 35 -76 2 0 11 7 19 16 14 13 16 58 16 340 0 205 -4 332 -10 345 -13 23
-46 25 -54 3 -3 -9 -6 -116 -6 -238 l0 -222 -27 -55 c-89 -175 -341 -187 -425
-20 l-28 55 0 236 c0 244 -3 260 -42 260 -12 0 -19 -11 -24 -34z"/>
</g>
</svg>
