<svg xmlns="http://www.w3.org/2000/svg" width="17" height="17" viewBox="0 0 17 17">
  <g fill-rule="evenodd">
    <path fill-rule="nonzero" d="M4.19837037,16.6163757 C2.6968836,16.6163757 1.52352381,16.309836 1.05166138,15.8358148 C0.0602645503,14.8398307 -0.254100529,12.8675608 0.210835979,10.5599683 C0.714,8.06303704 2.0197619,5.6640582 3.88751323,3.80458201 C5.74213228,1.95841799 8.15964021,0.675232804 10.6947989,0.191767196 C12.9808042,-0.24357672 14.9869841,0.0742962963 15.9311587,1.02269841 C17.7492593,2.84889418 17.2020212,8.96538624 13.0953069,13.0539312 C10.4603968,15.677328 6.82671429,16.6163757 4.19837037,16.6163757 Z M12.675254,0.678830688 C10.2328307,0.678830688 6.87186772,1.79273545 4.36702116,4.28651852 C2.59353439,6.052 1.35415344,8.32775132 0.877343915,10.6943492 C0.463497354,12.7477513 0.714989418,14.5341905 1.53341799,15.3563968 C2.49980952,16.3271958 8.62313757,16.5469365 12.6157989,12.5720847 C16.6351746,8.57024868 16.8611217,2.92040212 15.4494021,1.50220635 C14.9143968,0.964862434 13.9124762,0.678830688 12.675254,0.678830688 Z"/>
    <path d="M15.8896931 8.04378836C15.7940794 8.04378836 15.7108783 7.97344974 15.6975661 7.87612698 15.5234286 6.61326984 14.7609471 4.7521746 13.4502381 3.44146561 12.037709 2.02893651 10.0881958 1.29469841 8.7828836 1.19359788 8.67593651 1.1852328 8.5958836 1.09195767 8.60415873.984920635 8.61252381.877973545 8.7007619.799179894 8.81283598.806195767 10.1895661.912783069 12.2423386 1.68425926 13.7248466 3.1667672 15.099418 4.54133862 15.8993175 6.49579894 16.0821799 7.82296825 16.0970212 7.92919577 16.0226349 8.0272381 15.9164074 8.04189947 15.9073228 8.04324868 15.898418 8.04378836 15.8896931 8.04378836zM7.86083598 15.8610899C7.85211111 15.8610899 7.84320635 15.8605503 7.83412169 15.8592011 6.61488889 15.691 4.66933333 14.9726825 3.19860847 13.5018677 1.81962963 12.1231587.926994709 10.4011217.810603175 8.89585714.802238095 8.78891005.882291005 8.69554497.989328042 8.68717989 1.10005291 8.67674603 1.18964021 8.75886772 1.19800529 8.86590476 1.3074709 10.281672 2.15819048 11.9121429 3.47339683 13.2273492 4.7861746 14.540127 6.6362963 15.3017989 7.88737037 15.4746772 7.99359788 15.4892487 8.06798413 15.587291 8.05314286 15.6935185 8.03974074 15.7907513 7.95644974 15.8610899 7.86083598 15.8610899z"/>
    <path d="M1.28444444 15.6492646C1.25961905 15.6492646 1.2347037 15.6397302 1.21572487 15.6207513 1.1777672 15.5827937 1.1777672 15.5213598 1.21572487 15.4834021L3.33532804 13.3637989C3.37328571 13.3258413 3.43471958 13.3258413 3.47267725 13.3637989 3.51063492 13.4017566 3.51063492 13.4631905 3.47267725 13.5011481L1.35298413 15.6207513C1.33409524 15.6397302 1.30926984 15.6492646 1.28444444 15.6492646zM13.5507989 3.38282011C13.5259735 3.38282011 13.5011481 3.37337566 13.4820794 3.35439683 13.4441217 3.31643915 13.4441217 3.25500529 13.4820794 3.21704762L15.6017725 1.0973545C15.6397302 1.05939683 15.701164 1.05939683 15.7391217 1.0973545 15.7770794 1.13531217 15.7770794 1.19674603 15.7391217 1.2347037L13.6195185 3.35439683C13.6004497 3.37337566 13.5756243 3.38282011 13.5507989 3.38282011z"/>
    <g transform="translate(5.307 5.127)">
      <path d="M0.237280423,6.40873016 C0.187539683,6.40873016 0.137888889,6.38975132 0.0999312169,6.35179365 C0.024015873,6.27596825 0.024015873,6.15301058 0.0999312169,6.07718519 L6.06756085,0.109555556 C6.14338624,0.0337301587 6.26634392,0.0337301587 6.34216931,0.109555556 C6.41799471,0.185380952 6.41799471,0.308338624 6.34216931,0.384164021 L0.374539683,6.35179365 C0.336671958,6.38975132 0.286931217,6.40873016 0.237280423,6.40873016 Z"/>
      <path d="M5.94973016 2.23662434C5.90007937 2.23662434 5.85033862 2.2176455 5.81238095 2.17968783L4.27203704.639343915C4.19621164.563428571 4.19621164.440560847 4.27203704.364645503 4.34786243.288820106 4.47082011.288820106 4.5466455.364645503L6.08707937 1.90507937C6.16290476 1.98090476 6.16290476 2.10386243 6.08707937 2.17968783 6.04912169 2.2176455 5.9994709 2.23662434 5.94973016 2.23662434zM4.56454497 3.62180952C4.51489418 3.62180952 4.46515344 3.60283069 4.42719577 3.56487302L2.88685185 2.02461905C2.81102646 1.94879365 2.81102646 1.82583598 2.88685185 1.74992063 2.96267725 1.67409524 3.08563492 1.67409524 3.16146032 1.74992063L4.70180423 3.2903545C4.77771958 3.36617989 4.77771958 3.48913757 4.70180423 3.56496296 4.66393651 3.60292063 4.61428571 3.62180952 4.56454497 3.62180952zM3.17935979 5.00708466C3.12970899 5.00708466 3.07996825 4.98810582 3.04201058 4.95014815L1.50184656 3.40980423C1.42602116 3.33397884 1.42602116 3.21102116 1.50184656 3.13519577 1.5777619 3.05928042 1.70062963 3.05928042 1.77654497 3.13519577L3.31670899 4.67553968C3.39253439 4.75136508 3.39253439 4.87432275 3.31670899 4.95014815 3.27875132 4.98810582 3.22901058 5.00708466 3.17935979 5.00708466zM1.7941746 6.39226984C1.74452381 6.39226984 1.69478307 6.37329101 1.6568254 6.33533333L.116661376 4.79498942C.0408359788 4.71916402.0408359788 4.59620635.116661376 4.52038095.192486772 4.44455556.315444444 4.44455556.391359788 4.52038095L1.93152381 6.06072487C2.00734921 6.13655026 2.00734921 6.25950794 1.93152381 6.33533333 1.89347619 6.37329101 1.8438254 6.39226984 1.7941746 6.39226984z"/>
    </g>
  </g>
</svg>
