<svg xmlns="http://www.w3.org/2000/svg" xmlns:xlink="http://www.w3.org/1999/xlink" width="344" height="113" xmlns:v="https://vecta.io/nano"><defs><path id="A" d="M.106.457h7.15V9.13H.106z"/><path id="B" d="M.665.464H7.84V9.27H.665z"/><path id="C" d="M.948 1.094h7.6V8.91h-7.6z"/><path id="D" d="M.04.5h1.472c.164 0 .295.04.393.118s.158.18.177.303L3 7.262c.024.152.04.316.047.492l.025.557.383-1.05L6.053.932c.043-.105.126-.2.25-.29S6.563.5 6.717.5h.433c.164 0 .296.04.397.118a.49.49 0 0 1 .188.303l1.04 6.33.07.485.047.535.16-.54.166-.482L11.7.932a.65.65 0 0 1 .256-.293.74.74 0 0 1 .422-.128h1.48L9.583 10.83H7.886L6.663 3.383l-.04-.34-.12.34-.12.296-2.952 7.152h-1.69L.04.5zm18.78 4.696c0 .328-.066.628-.198.9s-.37.514-.71.728-.805.398-1.39.553-1.33.277-2.234.368v.093c0 1.15.493 1.727 1.48 1.727.212 0 .4-.02.563-.06s.307-.09.43-.146.233-.12.332-.193l.274-.193c.084-.057.167-.106.25-.146s.17-.06.267-.06c.058 0 .115.013.173.04s.106.065.144.118l.455.542c-.255.252-.505.47-.75.657s-.496.338-.75.457a3.57 3.57 0 0 1-.808.264c-.284.057-.594.086-.93.086-.433 0-.825-.073-1.176-.218s-.652-.35-.902-.614-.444-.583-.58-.956-.206-.79-.206-1.253c0-.385.042-.764.126-1.135s.206-.723.364-1.056a4.47 4.47 0 0 1 .585-.921 3.96 3.96 0 0 1 .783-.728c.29-.205.61-.364.96-.478s.723-.17 1.122-.17c.4 0 .73.055 1.02.164s.534.25.73.425.34.368.437.582.144.423.144.628zm-2.432-.57c-.24 0-.464.05-.67.146a1.85 1.85 0 0 0-.559.41c-.166.176-.3.387-.433.632s-.22.513-.292.803l1.44-.264c.363-.095.645-.2.844-.314s.332-.236.397-.364.097-.266.097-.414a.58.58 0 0 0-.047-.221c-.03-.076-.08-.144-.144-.203s-.15-.11-.253-.15-.23-.06-.38-.06zm3.067 6.195L20.763.225h1.74l-.585 4.732c.346-.48.733-.86 1.158-1.142s.88-.42 1.36-.42c.308 0 .588.056.84.168a1.69 1.69 0 0 1 .646.503c.178.224.315.507.41.85s.144.745.144 1.206c0 .414-.043.82-.13 1.22a5.81 5.81 0 0 1-.368 1.135c-.16.357-.348.685-.567.985s-.463.56-.733.778a3.37 3.37 0 0 1-.863.514c-.306.124-.622.186-.95.186-.38 0-.718-.075-1.014-.225s-.545-.353-.747-.6l-.058.243c-.038.17-.103.295-.195.37s-.236.114-.433.114h-.967zm4.287-6.052c-.197 0-.397.067-.6.2s-.398.316-.588.55-.366.508-.527.824a6.78 6.78 0 0 0-.415 1.017l-.217 1.75a1.35 1.35 0 0 0 .563.371c.212.07.42.107.628.107a1.41 1.41 0 0 0 .866-.293c.26-.195.482-.45.668-.764a4.07 4.07 0 0 0 .429-1.06 4.72 4.72 0 0 0 .152-1.181c0-.514-.084-.896-.253-1.146s-.404-.375-.707-.375z"/><path id="E" d="M27.843 13.28V3.6h.765c.183 0 .298.088.346.264l.108.856c.313-.376.67-.678 1.072-.906s.865-.343 1.39-.343c.42 0 .8.08 1.14.24s.633.395.873.707.426.698.556 1.16a5.89 5.89 0 0 1 .195 1.592c0 .533-.072 1.03-.217 1.488a3.61 3.61 0 0 1-.621 1.192c-.27.335-.6.6-.992.792s-.834.29-1.324.29c-.452 0-.838-.074-1.158-.22a2.61 2.61 0 0 1-.848-.628v3.198h-1.285zm3.255-8.78c-.42 0-.786.095-1.1.285s-.605.46-.87.807V9.09c.236.314.494.535.776.664s.595.193.942.193c.678 0 1.2-.24 1.566-.72s.55-1.166.55-2.056c0-.47-.042-.876-.126-1.213s-.206-.615-.364-.83-.354-.375-.585-.475-.493-.15-.787-.15zm10.083 6.33h-.57c-.125 0-.226-.02-.303-.057s-.128-.12-.152-.243l-.144-.67-.563.46a3.23 3.23 0 0 1-.577.343c-.202.093-.417.163-.646.21s-.482.07-.76.07-.55-.04-.798-.118-.463-.196-.646-.353-.328-.356-.437-.596-.162-.525-.162-.853c0-.285.08-.56.238-.824s.415-.498.77-.703.817-.372 1.39-.503 1.273-.206 2.1-.225v-.564c0-.56-.12-.986-.364-1.274s-.603-.432-1.08-.432c-.313 0-.576.04-.8.118s-.4.167-.556.264l-.404.264c-.113.08-.225.118-.336.118-.087 0-.162-.023-.227-.068a.52.52 0 0 1-.155-.168l-.23-.407c.404-.385.84-.673 1.306-.864s.984-.285 1.552-.285c.41 0 .772.067 1.1.2s.585.32.8.557a2.35 2.35 0 0 1 .491.864 3.56 3.56 0 0 1 .166 1.113v4.625zm-3.335-.778a2.65 2.65 0 0 0 .621-.068c.188-.045.364-.11.53-.193s.325-.184.476-.303a4.11 4.11 0 0 0 .444-.407V7.576c-.592.02-1.095.065-1.508.14s-.75.17-1 .29-.45.26-.567.42a.9.9 0 0 0-.177.542c0 .2.03.354.094.492s.147.25.253.34a1 1 0 0 0 .375.193c.144.04.3.06.47.06zm7.196 2.912c-.043.095-.097.17-.162.228s-.165.086-.3.086h-.953l1.335-2.87-3.017-6.81h1.112c.11 0 .197.027.26.082s.108.115.137.182L45.41 8.42a3.27 3.27 0 0 1 .112.314l.083.32.1-.32.115-.32 1.898-4.546c.03-.076.078-.14.148-.19s.146-.075.227-.075h1.025l-4.078 9.364z"/><path id="F" d="M.486.457h7.146V9.13H.486z"/><path id="G" d="M.758.468H7.91V9.35H.758z"/><linearGradient id="H" x1="1.076%" x2="1.076%" y1="0%" y2="97.848%"><stop offset="0%" stop-color="#108767"/><stop offset="54.733%" stop-color="#1dcf9f"/></linearGradient></defs><g fill-rule="evenodd"><g transform="translate(0 2)"><g transform="translate(283.5 43.4)"><path d="M.888 24.02L2.9 14.525h4c.695 0 1.216.08 1.563.236s.635.427.862.8.34.81.34 1.286c0 .393-.08.792-.242 1.198s-.366.74-.613 1.004a2.91 2.91 0 0 1-.75.596 3.26 3.26 0 0 1-.813.298 8.26 8.26 0 0 1-1.868.214H2.985l-.813 3.854H.888zm2.326-4.93H5.33c.82 0 1.424-.087 1.81-.262a2.13 2.13 0 0 0 .924-.8c.232-.358.347-.738.347-1.14 0-.31-.06-.565-.183-.76s-.295-.34-.518-.434-.65-.14-1.284-.14H3.96l-.747 3.537zM14.4 23.165c-.41.35-.806.606-1.186.768s-.786.243-1.22.243c-.642 0-1.16-.187-1.553-.56s-.6-.852-.6-1.435c0-.384.088-.724.265-1.02s.412-.533.704-.712.65-.308 1.075-.385c.266-.052.772-.093 1.517-.123s1.28-.108 1.602-.233a3 3 0 0 0 .138-.797c0-.272-.1-.486-.3-.64-.275-.216-.677-.324-1.206-.324-.498 0-.905.11-1.222.327s-.547.528-.69.93l-1.2-.104c.245-.682.632-1.205 1.163-1.567s1.2-.544 2.008-.544c.86 0 1.542.203 2.045.61a1.43 1.43 0 0 1 .577 1.179c0 .367-.055.792-.164 1.276l-.387 1.7c-.122.544-.183.987-.183 1.328 0 .216.048.527.144.933h-1.2c-.066-.225-.11-.5-.138-.855zm.44-2.63c-.166.065-.344.114-.534.15s-.508.07-.953.1c-.7.06-1.177.137-1.46.23s-.498.24-.642.444-.216.427-.216.674c0 .328.115.598.344.8s.556.317.98.317a2.27 2.27 0 0 0 1.134-.308c.363-.205.65-.49.858-.858s.374-.9.49-1.567zm1.887 6.14l.072-1.1c.245.07.483.104.714.104.24 0 .435-.054.583-.162.192-.142.402-.4.63-.803l.38-.674-1.16-6.898h1.166l.524 3.478.27 2.06 3.113-5.538h1.24l-4.436 7.792c-.428.76-.808 1.263-1.14 1.51s-.714.37-1.147.37a2.45 2.45 0 0 1-.806-.136zm14.056-2.656h-1.7v-1c-.284.393-.62.686-1.006.878s-.777.288-1.17.288c-.8 0-1.484-.318-2.054-.955s-.855-1.525-.855-2.665c0-1.166.277-2.052.832-2.66s1.256-.9 2.104-.9c.778 0 1.45.32 2.018.96v-3.42h1.84v9.496zm-4.915-3.588c0 .734.103 1.265.308 1.593.297.475.712.712 1.245.712.424 0 .784-.178 1.08-.534s.446-.888.446-1.597c0-.8-.144-1.36-.432-1.707s-.657-.52-1.107-.52c-.437 0-.803.172-1.098.515s-.442.856-.442 1.538zm6.73-4.223v-1.684h1.84v1.684h-1.84zm0 7.81v-6.88h1.84v6.88h-1.84zm5.49 0h-1.84v-6.88h1.7v.978c.293-.462.556-.766.8-.913s.5-.22.796-.22c.42 0 .823.114 1.212.343l-.57 1.587c-.3-.2-.6-.298-.865-.298a1.03 1.03 0 0 0-.655.211c-.18.14-.32.394-.423.76s-.154 1.136-.154 2.306v2.125zm7.5-2.19l1.835.304c-.236.665-.608 1.17-1.117 1.52s-1.146.52-1.9.52c-1.2 0-2.106-.39-2.687-1.172-.46-.626-.688-1.416-.688-2.37 0-1.14.3-2.033.904-2.678s1.365-.968 2.287-.968c1.035 0 1.852.338 2.45 1.014s.885 1.71.858 3.106h-4.613c.013.54.162.96.446 1.26a1.4 1.4 0 0 0 1.062.45c.288 0 .53-.078.727-.233s.345-.406.446-.75zm.105-1.84c-.013-.527-.15-.927-.413-1.202s-.58-.41-.957-.41c-.402 0-.734.145-.996.434s-.39.682-.387 1.18h2.752zm9.397-.816l-1.815.324c-.06-.358-.2-.628-.416-.8s-.497-.272-.842-.272c-.46 0-.825.157-1.098.47s-.4.837-.4 1.57c0 .816.14 1.393.416 1.73s.65.505 1.117.505c.35 0 .636-.098.858-.295s.38-.534.472-1.014l1.81.304c-.188.82-.548 1.44-1.08 1.86s-1.247.628-2.143.628c-1.018 0-1.83-.317-2.434-.952s-.908-1.513-.908-2.636c0-1.136.304-2.02.91-2.652s1.43-.95 2.464-.95c.848 0 1.52.18 2.022.54s.86.9 1.078 1.648zm4.587-2.034v1.45H58.41v2.772l.036.98a.4.4 0 0 0 .164.23c.085.06.19.09.31.09.17 0 .417-.058.74-.175l.157 1.412c-.428.18-.913.272-1.455.272a2.33 2.33 0 0 1-.898-.165c-.266-.1-.462-.253-.586-.427s-.21-.41-.26-.71c-.04-.212-.06-.64-.06-1.282v-3h-.845v-1.45h.845v-1.367l1.848-1.062v2.43h1.258z" class="B"/><g transform="translate(5.5)"><path d="M.03 4.896V9.68h1.08V4.68z" class="B"/><path d="M48.038 1.727A1.47 1.47 0 0 1 46.575 3.2a1.47 1.47 0 0 1-1.464-1.474A1.47 1.47 0 0 1 46.575.254a1.47 1.47 0 0 1 1.464 1.473" class="D"/><g transform="translate(39.318 3.504)"><mask id="I" class="E"><use xlink:href="#A"/></mask><path d="M1.075.87c-.515.085-1 .168-.967.312s2.297.18 3.407.958c.113.08.237.19.275.302C4.373 4.16.5 9 .894 9.124c.57.183 4.765-4.44 6.06-7.027.09-.178.443-1.024.24-1.295C7.1.66 6.738.55 6.243.5 5.948.47 5.625.457 5.288.457c-1.463 0-3.203.246-4.213.412" mask="url(#I)" class="D"/></g><g class="B"><path d="M15.75 6.745l.162-.87s-1.252-.382-2.268.325v3.482h1.08V6.854c.432-.327 1.027-.11 1.027-.11h0zM6.425 4.883l1.08-.192v1.13h1.07v.905h-1.07v1.35c0 .23.04.41.12.547s.24.205.482.205c.116 0 .236-.01.36-.033s.236-.053.337-.09l.153.847c-.13.053-.276.1-.435.138s-.356.06-.588.06c-.295 0-.54-.04-.733-.12a1.14 1.14 0 0 1-.464-.336c-.117-.143-.197-.317-.243-.52a3.09 3.09 0 0 1-.069-.68v-3.21zM17.514 8.9c.2 0 .34-.02.42-.058s.123-.114.123-.226c0-.088-.054-.165-.16-.23s-.27-.14-.487-.223l-.46-.197c-.138-.068-.255-.15-.352-.245s-.172-.207-.224-.34-.08-.3-.08-.474c0-.36.134-.646.4-.854s.632-.315 1.095-.315c.233 0 .456.02.668.062a3.05 3.05 0 0 1 .508.136l-.19.846c-.126-.043-.262-.083-.4-.117s-.312-.05-.496-.05c-.34 0-.508.095-.508.284 0 .045.008.083.02.117a.25.25 0 0 0 .088.099c.043.032.1.065.178.102s.17.078.286.12c.236.09.432.176.588.262s.276.178.366.277a.87.87 0 0 1 .188.333c.037.12.054.26.054.42 0 .38-.14.666-.423.86s-.684.292-1.2.292c-.34 0-.62-.03-.845-.088l-.468-.145.182-.883a3.49 3.49 0 0 0 .565.172c.194.04.385.06.573.06h0zm4.95-1.423l-.308 1.102-.344 1.103h-.842l-.283-.73-.317-.924-.335-1.06-.33-1.128h1.14l.128.573.147.64.16.66.172.64.185-.658.173-.66.16-.628.135-.566h.783l.13.566.152.628.167.66.18.658.175-.64.164-.66.146-.64.128-.573h1.125l-.332 1.128-.334 1.06-.32.924-.287.73h-.842l-.355-1.103-.32-1.102z" class="C"/><path d="M26.016 9.68h1.08V5.84h-1.08z"/><path d="M27.955 4.884l1.08-.193v1.15h1.068v.905h-1.068v1.35c0 .23.04.41.12.548s.24.204.48.204a2.05 2.05 0 0 0 .36-.033c.123-.022.235-.052.338-.092l.15.847a3.06 3.06 0 0 1-.435.14 2.6 2.6 0 0 1-.587.058c-.295 0-.54-.04-.733-.12s-.35-.192-.465-.336a1.25 1.25 0 0 1-.242-.522 3.1 3.1 0 0 1-.069-.679v-3.23zm2.914 2.88c0-.278.044-.54.134-.785s.218-.46.386-.642.375-.327.618-.434.516-.16.826-.16c.203 0 .4.02.558.054s.334.088.494.157l-.225.87c-.1-.04-.214-.074-.334-.102s-.257-.044-.407-.044c-.32 0-.557.1-.714.3s-.235.462-.235.79c0 .346.073.613.22.803s.405.285.772.285c.13 0 .27-.012.42-.037s.288-.063.414-.117l.152.89a2.55 2.55 0 0 1-.472.138 3.07 3.07 0 0 1-.623.059 2.34 2.34 0 0 1-.9-.157c-.25-.104-.458-.247-.62-.428s-.28-.392-.356-.638-.11-.512-.11-.8h0zm3.78 1.92v-4.8l1.08-.192v1.166c.074-.025.165-.047.28-.07s.224-.033.33-.033c.31 0 .566.043.772.128s.37.205.494.36a1.41 1.41 0 0 1 .262.555 3.12 3.12 0 0 1 .076.716v2.168H36.86V7.645c0-.35-.044-.598-.135-.745s-.254-.22-.497-.22a1.35 1.35 0 0 0-.271.026l-.23.055v2.92h-1.08zM2.067 9.68l-.003-3.48s.542-.437 1.73-.437c1.08 0 1.677.544 1.677 1.74V9.68H4.39V7.507c0-.763-.38-.816-.704-.816s-.54.163-.54.163V9.68h-1.08zm9.11-3.928c1.62 0 1.73 1.63 1.62 2.283h-2.43s.053.816 1.135.816c.54 0 1.08-.163 1.08-.163l.108.87-.032.012a3.91 3.91 0 0 1-1.264.205c-1.08 0-2.054-.544-2.054-2.067 0-1.196.756-1.958 1.837-1.958zm-.055.762c-.702 0-.756.76-.756.76h1.512s-.054-.76-.757-.76z" class="C"/></g></g></g><g transform="translate(180.933 43.4)"><g class="B"><path d="M5.756 21.725a2.82 2.82 0 0 1-2.819-2.819 2.82 2.82 0 0 1 2.819-2.819 2.82 2.82 0 0 1 2.82 2.819 2.82 2.82 0 0 1-2.82 2.819zm4.05-.13a4.84 4.84 0 0 0 .81-2.688 4.861 4.861 0 1 0-4.861 4.86c.995 0 1.92-.3 2.7-.812L9.45 23.96l1.555-1.166-1.2-1.2zm61.71-5.09s-2.25-.684-4.08.583v6.22h1.944v-5.054c.777-.583 1.846-.194 1.846-.194l.3-1.555zM23.4 18.478a3.34 3.34 0 0 1 .699-1.148 3.31 3.31 0 0 1 1.109-.776c.434-.2.93-.287 1.487-.287a4.78 4.78 0 0 1 1.005.098 4.96 4.96 0 0 1 .888.28l-.405 1.553c-.183-.07-.383-.13-.6-.182a3.15 3.15 0 0 0-.73-.078c-.574 0-1.002.178-1.285.534s-.424.827-.424 1.4c0 .618.132 1.096.397 1.435s.73.5 1.4.5c.234 0 .486-.02.756-.065a3.28 3.28 0 0 0 .745-.209l.274 1.592c-.226.095-.5.177-.85.247a5.57 5.57 0 0 1-1.122.104c-.627 0-1.166-.092-1.618-.28s-.824-.442-1.115-.763a2.97 2.97 0 0 1-.64-1.142 4.85 4.85 0 0 1-.202-1.43 4.06 4.06 0 0 1 .241-1.403zm21.76 1.895s.097 1.458 2.04 1.458c.972 0 1.943-.292 1.943-.292l.195 1.555s-.972.4-2.333.4c-1.944 0-3.694-.972-3.694-3.694 0-2.138 1.36-3.5 3.304-3.5 2.917 0 3.1 2.915 2.917 4.082H45.15zm0-1.362h2.72s-.097-1.36-1.36-1.36-1.36 1.36-1.36 1.36zm16.387 1.362s.098 1.458 2.04 1.458c.972 0 1.944-.292 1.944-.292l.194 1.555s-.972.4-2.332.4c-1.944 0-3.694-.972-3.694-3.694 0-2.138 1.36-3.5 3.304-3.5 2.917 0 3.1 2.915 2.917 4.082h-4.374zm0-1.362h2.72s-.097-1.36-1.36-1.36-1.36 1.36-1.36 1.36z" class="C"/><path d="M19.832 23.3h1.944v-6.863h-1.944z"/><path d="M18.112 16.448l.004 6.217s-.975.78-3.114.78c-1.945 0-3.014-.972-3.014-3.11v-3.887h1.944v3.887c0 1.362.68 1.458 1.264 1.458s.972-.29.972-.29l-.001-5.054h1.944zm13.967 2.464l.593-.648.593-.668.54-.63.437-.52h2.312l-1.35 1.517-1.44 1.49c.26.235.53.517.81.843l.81 1.013.718 1.046.55.953H34.41l-.475-.75-.567-.825-.632-.79c-.22-.252-.44-.467-.657-.64V23.3h-1.944v-8.577l1.944-.343v4.522zm5.623-4.178l1.944-.343v2.023h1.924v1.617h-1.924v2.414c0 .408.072.735.215.978s.433.366.868.366a3.67 3.67 0 0 0 .646-.06 3.28 3.28 0 0 0 .607-.162l.274 1.513c-.235.096-.496.18-.783.248s-.64.105-1.057.105c-.53 0-.97-.072-1.318-.216a2.08 2.08 0 0 1-.835-.601c-.21-.257-.355-.568-.437-.932s-.124-.77-.124-1.215v-5.737zM53.7 23.44c-.566-.01-1.024-.07-1.377-.183s-.63-.272-.835-.476a1.58 1.58 0 0 1-.418-.744 4.02 4.02 0 0 1-.111-.985v-6.32l1.944-.343v6.272c0 .174.014.33.04.47s.076.257.15.352.18.174.32.235a1.74 1.74 0 0 0 .562.118L53.7 23.44zm4.455 0c-.566-.01-1.024-.07-1.377-.183s-.63-.272-.835-.476-.344-.452-.418-.744-.11-.62-.11-.985v-6.32l1.944-.343v6.272c0 .174.013.33.04.47s.077.257.15.352a.79.79 0 0 0 .319.235c.14.06.327.1.562.118l-.274 1.605z" class="C"/></g><g transform="translate(12.1)"><path d="M.59 4.97v4.86h1.085V4.75z" class="B"/><path d="M48.77 1.753c0 .826-.657 1.496-1.47 1.496s-1.47-.67-1.47-1.496S46.5.258 47.302.258s1.47.67 1.47 1.496" class="D"/><g transform="translate(39.461 3.558)"><mask id="J" class="E"><use xlink:href="#B"/></mask><path d="M1.637.883C1.12.97.635 1.053.666 1.2s2.305.183 3.42.972c.113.08.238.194.276.307.586 1.744-3.29 6.66-2.906 6.786.573.186 4.782-4.51 6.08-7.136.09-.18.444-1.04.242-1.315C7.674.67 7.32.558 6.824.508a9.51 9.51 0 0 0-.958-.043c-1.468 0-3.214.25-4.228.418" mask="url(#J)" class="D"/></g><g class="B"><path d="M16.366 6.85l.162-.883s-1.256-.388-2.277.33V9.83h1.083V6.96c.433-.332 1.03-.11 1.03-.11h0zm-9.36-1.9l1.084-.195v1.15h1.073v.92H8.09v1.372c0 .232.04.418.12.555s.24.208.484.208c.116 0 .236-.012.36-.033a1.92 1.92 0 0 0 .339-.092l.153.86a3.02 3.02 0 0 1-.436.14c-.16.04-.358.06-.6.06-.296 0-.54-.04-.736-.122s-.35-.195-.465-.34-.198-.322-.244-.53-.07-.438-.07-.7v-3.26zm11.13 4.08c.2 0 .34-.02.423-.06s.124-.116.124-.23c0-.1-.054-.167-.16-.234s-.27-.142-.488-.227l-.462-.2a1.37 1.37 0 0 1-.354-.249.99.99 0 0 1-.225-.344c-.054-.134-.08-.294-.08-.482 0-.365.134-.655.4-.867s.634-.32 1.1-.32c.234 0 .457.022.67.063s.383.088.5.138l-.2.86c-.127-.044-.263-.084-.41-.118a2.17 2.17 0 0 0-.498-.052c-.34 0-.5.096-.5.29 0 .046.008.084.02.12s.044.068.088.1.102.066.178.104.17.08.287.123c.237.1.434.18.6.266a1.42 1.42 0 0 1 .367.281c.09.1.153.214.19.338s.055.265.055.428c0 .384-.14.676-.425.873s-.686.296-1.205.296c-.34 0-.623-.03-.848-.1l-.47-.148.182-.897c.185.074.373.133.567.174s.386.062.575.062h0zm4.968-1.445l-.31 1.12-.345 1.12h-.845L21.32 9.1l-.318-.938-.336-1.075-.333-1.145h1.143l.128.582.147.65.16.67.173.65.186-.668.174-.67.16-.638.136-.575h.786l.13.575.152.638.168.67.182.668.176-.65.164-.67.146-.65.13-.582h1.13l-.333 1.145-.335 1.075-.322.938-.288.742h-.845l-.357-1.12-.32-1.12z" class="C"/><path d="M26.67 9.83h1.085v-3.9H26.67z"/><path d="M28.615 4.96l1.085-.196v1.17h1.072v.92H29.7v1.37c0 .234.04.417.12.557s.24.207.483.207c.116 0 .236-.01.36-.033s.236-.053.34-.093l.152.86c-.13.055-.276.1-.436.142a2.58 2.58 0 0 1-.589.059c-.296 0-.543-.04-.736-.122s-.35-.195-.467-.34-.198-.322-.243-.53-.07-.437-.07-.69V4.96zm2.925 2.923c0-.282.045-.547.134-.798s.22-.468.388-.652a1.88 1.88 0 0 1 .62-.44c.243-.11.518-.163.83-.163.204 0 .392.02.56.055a2.64 2.64 0 0 1 .495.159l-.225.883a2.6 2.6 0 0 0-.335-.104 1.75 1.75 0 0 0-.408-.044c-.32 0-.56.1-.717.304s-.236.47-.236.8c0 .35.073.623.222.815s.406.29.775.29c.13 0 .27-.012.42-.037s.29-.064.416-.12l.153.905a2.54 2.54 0 0 1-.473.14 3.05 3.05 0 0 1-.626.06c-.35 0-.65-.053-.903-.16a1.69 1.69 0 0 1-.622-.435c-.163-.182-.28-.398-.357-.648a2.82 2.82 0 0 1-.111-.811h0zm3.793 1.95V4.958l1.085-.195v1.184a2.14 2.14 0 0 1 .28-.07c.114-.023.225-.034.332-.034.3 0 .568.044.775.13s.37.208.495.366a1.44 1.44 0 0 1 .262.564c.05.217.077.46.077.727V9.83h-1.086V7.763c0-.356-.045-.607-.135-.756s-.255-.222-.5-.222a1.34 1.34 0 0 0-.272.027l-.23.055V9.83h-1.085zm-32.7-.001L2.63 6.298s.544-.444 1.737-.444c1.085 0 1.683.552 1.683 1.768V9.83H4.966V7.623c0-.775-.38-.83-.706-.83s-.542.165-.542.165V9.83H2.633zm9.142-3.988c1.626 0 1.735 1.657 1.626 2.318h-2.44s.053.83 1.14.83c.54 0 1.085-.165 1.085-.165l.108.884-.032.012c-.127.046-.62.21-1.27.21-1.085 0-2.06-.553-2.06-2.1 0-1.215.758-1.988 1.844-1.988zm-.055.773c-.705 0-.758.773-.758.773h1.518s-.054-.773-.76-.773z" class="C"/></g></g></g><g class="C"><path d="M6.915 29.38v-1.853c.022-.315-.092-.625-.312-.85s-.526-.343-.838-.324a1.13 1.13 0 0 0-1.028.525 1.07 1.07 0 0 0-.967-.525c-.342-.017-.668.15-.857.44v-.364h-.637v2.953h.643v-1.625c-.028-.204.037-.41.175-.562a.68.68 0 0 1 .541-.222c.422 0 .637.278.637.778v1.643h.643v-1.637a.7.7 0 0 1 .176-.561c.138-.15.336-.233.54-.223.435 0 .643.278.643.778v1.643l.643-.012zm9.508-2.953h-1.047v-.896h-.643v.896h-.58v.587h.594v1.36c0 .686.263 1.093 1.016 1.093.28.001.557-.078.796-.23l-.184-.55c-.17.103-.364.16-.563.167-.306 0-.422-.198-.422-.494v-1.347h1.04l-.006-.587zm5.43-.074a.86.86 0 0 0-.771.432v-.358h-.63v2.953h.637v-1.655c0-.488.208-.76.612-.76a1.03 1.03 0 0 1 .398.074l.196-.618a1.35 1.35 0 0 0-.453-.08l.012.012zm-8.208.31c-.36-.216-.775-.323-1.193-.31-.74 0-1.224.358-1.224.945 0 .482.355.778 1 .87l.306.043c.35.05.514.142.514.31 0 .23-.233.358-.667.358a1.55 1.55 0 0 1-.973-.309l-.306.5a2.1 2.1 0 0 0 1.267.383c.845 0 1.334-.4 1.334-.964s-.386-.79-1.022-.883l-.306-.043c-.275-.037-.496-.093-.496-.3s.208-.346.557-.346a1.87 1.87 0 0 1 .918.253l.282-.52zm17.05-.31a.86.86 0 0 0-.771.432v-.358h-.63v2.953h.637v-1.655c0-.488.208-.76.612-.76a1.03 1.03 0 0 1 .398.074l.196-.618a1.35 1.35 0 0 0-.453-.08l.012.012zm-8.2 1.544a1.5 1.5 0 0 0 .442 1.12 1.47 1.47 0 0 0 1.118.424 1.52 1.52 0 0 0 1.053-.352l-.306-.52a1.28 1.28 0 0 1-.765.266c-.488-.04-.864-.45-.864-.945s.376-.905.864-.945a1.28 1.28 0 0 1 .765.266l.306-.52a1.52 1.52 0 0 0-1.053-.352 1.47 1.47 0 0 0-1.118.424 1.5 1.5 0 0 0-.442 1.12v.012zm5.96 0v-1.47h-.637v.358c-.22-.285-.56-.446-.918-.432-.845 0-1.53.69-1.53 1.544s.685 1.544 1.53 1.544c.357.013.7-.148.918-.432v.358h.637v-1.47zm-2.37 0c.028-.485.435-.858.916-.84a.89.89 0 0 1 .851.906.89.89 0 0 1-.88.878c-.245.003-.48-.097-.65-.277a.89.89 0 0 1-.239-.668h0zm-7.68-1.544c-.845.012-1.52.713-1.51 1.566s.706 1.535 1.552 1.523c.44.023.873-.12 1.215-.4l-.306-.476c-.242.196-.54.304-.85.31-.438.038-.825-.282-.875-.723H19.8v-.247c0-.927-.57-1.544-1.39-1.544l-.01-.006zm0 .574a.72.72 0 0 1 .517.203c.14.134.22.32.223.513h-1.53c.023-.412.368-.73.777-.717h.012zm15.947.976V25.24h-.612v1.544c-.22-.285-.56-.446-.918-.432-.845 0-1.53.69-1.53 1.544s.685 1.544 1.53 1.544c.357.013.7-.148.918-.432v.358h.612v-1.464zm1.062 1.047c.04 0 .08.007.116.022s.067.035.095.062a.31.31 0 0 1 .064.093.29.29 0 0 1 0 .229.31.31 0 0 1-.064.093c-.028.026-.06.047-.095.062s-.076.025-.116.025c-.118-.001-.226-.07-.275-.18-.03-.073-.03-.156 0-.23a.31.31 0 0 1 .064-.093c.028-.026.06-.047.095-.062s.083-.023.125-.022h-.01zm0 .522c.03 0 .06-.006.09-.02a.23.23 0 0 0 .07-.049.23.23 0 0 0 0-.309c-.02-.02-.044-.038-.07-.05s-.058-.02-.09-.02-.06.006-.09.02-.052.028-.073.05a.23.23 0 0 0 0 .309c.02.02.046.038.073.05s.064.02.098.02h-.01zm.018-.368c.03-.001.057.007.08.025s.03.04.028.065-.007.04-.02.056-.04.026-.064.028l.09.102h-.07l-.083-.102h-.028v.102H35.3v-.272l.13-.003zm-.067.053v.074h.067c.012.004.025.004.037 0 .004-.01.004-.02 0-.028.004-.01.004-.02 0-.028-.012-.004-.025-.004-.037 0l-.067-.02zm-3.366-1.254c.028-.485.435-.858.916-.84a.89.89 0 0 1 .851.906.89.89 0 0 1-.88.878c-.245.003-.48-.097-.65-.277a.89.89 0 0 1-.239-.668h0zm-21.492 0v-1.476h-.637v.358c-.22-.285-.56-.446-.918-.432-.845 0-1.53.69-1.53 1.544s.685 1.544 1.53 1.544c.357.013.7-.148.918-.432v.358h.637v-1.464zm-2.37 0c.028-.485.435-.858.916-.84a.89.89 0 0 1 .851.906.89.89 0 0 1-.88.878c-.246.005-.483-.095-.653-.274a.89.89 0 0 1-.241-.671h.006z" class="B"/><path d="M13.433 3.93h9.64v17.483h-9.64z"/><path d="M14.045 12.672c-.004-3.412 1.548-6.637 4.208-8.743C13.736.346 7.25.868 3.352 5.127s-3.898 10.827 0 15.086 10.384 4.78 14.9 1.2c-2.66-2.106-4.2-5.33-4.208-8.74h0z"/><path d="M36.08 12.672c0 4.257-2.41 8.14-6.203 10s-8.307 1.37-11.623-1.26c2.658-2.108 4.21-5.33 4.21-8.742s-1.552-6.634-4.21-8.742c3.316-2.63 7.83-3.12 11.623-1.26s6.203 5.743 6.203 10v.003zm-1.053 7.13v-.56h.144v-.116h-.364v.116h.156v.56h.064zm.707 0v-.675h-.1l-.13.482-.13-.482h-.098v.675h.08v-.506l.12.44h.083l.12-.44v.51l.064-.005z"/></g><path d="M79.94 23.435L82.642 7.14h4.32L84.26 23.435h-4.32M99.932 7.54c-.854-.327-2.198-.684-3.872-.684-4.272 0-7.28 2.2-7.304 5.378-.027 2.342 2.146 3.648 3.784 4.427 1.684.798 2.25 1.3 2.243 2.022-.012 1.1-1.344 1.6-2.586 1.6-1.73 0-2.65-.246-4.07-.855l-.556-.26-.604 3.647c1.008.454 2.875.848 4.814.868 4.54 0 7.5-2.185 7.524-5.566.016-1.857-1.136-3.265-3.63-4.427-1.5-.756-2.437-1.256-2.426-2.02.001-.677.783-1.402 2.475-1.402 1.413-.022 2.436.295 3.234.626l.388.186.585-3.532m5.753 10.117l1.72-4.555c-.025.043.356-.944.574-1.555l.292 1.405 1 4.704h-3.587zm5.33-10.5h-3.34c-1.036 0-1.8.288-2.265 1.35L98.996 23.44h4.538l.908-2.45 5.534.008.526 2.44h4l-3.497-16.284zm-34.702-.003l-4.23 11.1-.453-2.258c-.788-2.602-3.24-5.422-5.985-6.835l3.87 14.25 4.573-.003L80.89 7.152h-4.58" /><path d="M68.16 7.143h-6.968l-.057.338c5.422 1.35 9.01 4.608 10.498 8.524l-1.514-7.487c-.26-1.033-1.02-1.34-1.96-1.375"/><g transform="translate(4 89)"><g class="C"><path d="M205.952 12.68v1.2s-.5.143-1.192.143c-.906 0-1.55-.238-1.884-.738-.286-.44-.286-1-.286-1.7V8.61h-1.192V7.468h1.192v-1.7l1.55-.452v2.142h1.812V8.61h-1.812v2.952c0 .428 0 .738.143.976s.405.31.703.31c.465 0 .87-.167.87-.167h.095zm4.68-5.38v1.476s-.322-.07-.69-.07c-1.407 0-1.407 1.035-1.407 1.547v3.666h-1.574V7.373h1.192l.3 1.285c.238-1.095 1.05-1.357 2.003-1.357h.167zm.685 1.476V7.564s.81-.286 2.098-.286c.978 0 1.86.167 2.313.81.358.5.358 1.166.358 1.76v2.237c0 .274 0 .762.56.762.18 0 .346-.048.346-.048v1.095s-.358.095-.835.095c-.835 0-1.36-.286-1.454-1.166-.238.762-.978 1.2-1.93 1.2-1.288 0-2.098-.785-2.098-1.964 0-1.416 1.168-2.107 3.243-2.107l.62.024c0-.547 0-.81-.19-1.095-.19-.274-.513-.428-1.156-.428-.942 0-1.776.333-1.776.333h-.095zm.978 3.2c0 .524.3.88.918.88.465 0 .894-.214 1.11-.62s.215-.88.215-1.143v-.143h-.358c-.69 0-1.884 0-1.884 1.024zm5.406-4.594h1.216l.286 1.12c.215-.762.81-1.262 1.943-1.262 1.013 0 1.586.405 1.896.857.38.547.38 1.2.38 1.976v3.856h-1.574v-3.88c0-.38 0-.762-.215-1.07s-.525-.476-1.037-.476c-1.18 0-1.323.904-1.323 1.428v4H217.7V7.373zm10.973.143v1.262h-.095s-.835-.333-1.574-.333c-.668 0-.978.262-.978.595 0 1.012 2.957.714 2.957 2.975 0 1.392-1.11 2-2.682 2-1.133 0-1.848-.31-1.848-.31v-1.262h.095s1 .405 1.836.405c.715 0 1.025-.286 1.025-.666 0-1.178-2.957-.833-2.957-2.963 0-1.2.93-1.94 2.587-1.94.93 0 1.633.238 1.633.238zm5.263 1.095h-1.86v5.308h-1.55V8.61h-1.264V7.468h1.264v-.405c0-.57 0-1.047.286-1.547.3-.524.882-.904 2.086-.904a5.44 5.44 0 0 1 1.037.095V5.92h-.095s-.43-.143-.846-.143c-.513 0-.703.214-.8.405-.12.25-.12.524-.12.904v.38h1.86V8.61zm5.585 3.904v1.214s-.894.286-2.074.286c-1.264 0-2.003-.333-2.504-.81-.596-.57-.882-1.428-.882-2.51 0-2.13 1.097-3.487 3.052-3.487 1.073 0 1.884.405 2.337 1.143s.453 1.714.453 2.737h-4.22c0 1.12.644 1.785 1.884 1.785.906 0 1.86-.357 1.86-.357h.095zm-3.84-2.5h2.623c0-1.095-.334-1.714-1.24-1.714-.918 0-1.288.655-1.383 1.714zm8.935-2.713v1.476s-.322-.07-.69-.07c-1.407 0-1.407 1.035-1.407 1.547v3.666h-1.574V7.373h1.192l.3 1.285c.238-1.095 1.05-1.357 2.003-1.357h.167z" class="B"/><path d="M177.176 8.456l-.894.655-1.037-1.476-1.037 1.476-.894-.655 1.085-1.44-1.73-.524.346-1.06 1.705.583-.036-1.797h1.12l-.036 1.797 1.705-.583.346 1.06-1.73.524 1.085 1.44zm5.144-1.5h-3.743V5.743h5.39v.88l-2.73 7.307h-1.693l2.778-6.974zm2.962 3.32V9.1h.835c.37 0 .846-.012 1.24-.238.3-.18.536-.488.536-.964 0-.666-.453-1.07-1.443-1.07-.835 0-1.717.286-1.717.286h-.095v-1.2s.882-.262 1.967-.262c1.92 0 2.91.81 2.91 2.047 0 1-.632 1.678-1.62 1.892 1.025.155 1.8.857 1.8 2.023 0 1.452-1.228 2.392-3.3 2.392-1.097 0-1.848-.262-1.848-.262v-1.178h.083a6.61 6.61 0 0 0 1.717.274c1.073 0 1.705-.452 1.705-1.273 0-.512-.25-.857-.584-1.047-.44-.25-.966-.25-1.37-.25h-.823zm8.53-3.32h-3.743V5.743h5.39v.88l-2.73 7.307h-1.693l2.778-6.974zm6.944 1.5l-.894.655-1.037-1.476-1.037 1.476-.894-.655 1.085-1.44-1.73-.524.346-1.06 1.705.583-.036-1.797h1.12l-.036 1.797 1.705-.583.346 1.06-1.73.524 1.085 1.44z"/></g><g transform="translate(86 2.5)"><path d="M27.576 3.615h-1.68l2.217 6.244c0 .32-.1.572-.27.778-.157.183-.403.274-.716.274s-.582-.023-.76-.09l-.112 1.144c.358.09.716.16 1.075.16s.65-.07.895-.183c.246-.137.47-.297.627-.503.157-.23.313-.435.403-.686l.38-.96c.045-.137.1-.23.112-.274l2.172-5.9h-1.522l-1.41 4.346h-.022l-1.388-4.346zm-5.8 4.232a.91.91 0 0 1 .157-.526c.112-.137.246-.252.425-.32.157-.068.336-.137.515-.16.2-.023.38-.023.582-.023h.672c0 .252-.022.457-.067.663s-.134.39-.246.55c-.27.366-.627.526-1.075.526-.29 0-.515-.046-.694-.16-.18-.137-.27-.32-.27-.55h0zm-.76-2.585c.27-.206.56-.366.85-.48.313-.114.627-.16.94-.16.47 0 .806.09 1.008.274.2.206.313.526.313 1.006h-.85a7.89 7.89 0 0 0-1.052.068c-.336.046-.627.137-.895.275-.313.137-.537.366-.717.64s-.27.618-.27 1.052c0 .526.2.96.604 1.28s.873.48 1.433.48c.358 0 .694-.09 1.03-.274a1.88 1.88 0 0 0 .761-.755h.022v.16a2.13 2.13 0 0 0 .022.389c0 .114.022.23.045.343h1.32l-.067-1.327-.022-.755V5.994c0-.892-.2-1.5-.582-1.92-.403-.39-1.03-.595-1.925-.595-.313 0-.672.046-1.03.137-.358.07-.694.183-.985.32l.045 1.327zM17.143 4.7c.224 0 .425.046.582.16s.29.274.38.457a1.84 1.84 0 0 1 .224.618c.045.206.045.435.045.64 0 .23 0 .457-.045.686-.045.206-.112.412-.224.618-.1.183-.224.343-.403.457-.157.114-.358.16-.582.16-.246 0-.448-.046-.627-.16s-.313-.274-.425-.457c-.1-.183-.157-.39-.224-.618a3.56 3.56 0 0 1-.067-.686c0-.206.022-.435.1-.64a2.5 2.5 0 0 1 .224-.618c.112-.206.27-.343.425-.457.18-.114.38-.16.627-.16h0zm-2.888 7.297h1.522v-3.11h.022c.246.32.493.526.76.64s.582.183.94.183c.425 0 .806-.09 1.12-.252a1.92 1.92 0 0 0 .783-.686 2.89 2.89 0 0 0 .425-1.006c.1-.366.134-.755.134-1.19a5.23 5.23 0 0 0-.134-1.189c-.1-.366-.224-.686-.425-.983-.2-.275-.448-.503-.76-.663s-.694-.252-1.12-.252-.784.09-1.075.275c-.313.16-.537.412-.716.71H15.7v-.846h-1.455v8.372z"/><path d="M68.1 11.14c.067.023.157.046.246.07a.83.83 0 0 0 .246.023c.246 0 .448-.068.604-.206s.29-.297.38-.48c.112-.16.18-.32.224-.48l.067-.275c0-.07-.022-.16-.067-.274-.067-.137-.112-.252-.134-.343l-1.948-5.5h1.142l1.545 4.85h.022l1.6-4.85h1.075l-2.127 5.993c-.1.297-.2.572-.313.87-.112.274-.246.55-.403.778-.18.23-.38.435-.605.572-.246.137-.537.23-.896.23-.157 0-.313-.023-.403-.046-.112 0-.2-.023-.313-.046l.067-.892zm-2.127-1.578h1.052V.916h-1.052v8.646zm-1.03-5.01H63.42v3.225c0 .343.067.595.246.778s.403.274.627.274a1.11 1.11 0 0 0 .425-.068c.112-.046.224-.092.313-.16v.938c-.134.023-.27.07-.425.114-.157.023-.313.046-.492.046-.537 0-.985-.137-1.3-.412s-.47-.71-.47-1.304v-3.43h-1.3v-.87h1.3V2.31l1.075-.343v1.716h1.523v.87zm-9.516-.87h1.007v.938h.022c.18-.343.425-.618.76-.8a2.41 2.41 0 0 1 1.142-.274c.74 0 1.276.23 1.634.663.336.457.515 1.075.515 1.853v3.5h-1.075V6.52c0-.686-.067-1.212-.246-1.555-.18-.32-.493-.526-.963-.55-.29 0-.56.07-.784.183s-.403.274-.537.503c-.157.206-.246.457-.336.755a4.45 4.45 0 0 0-.09.984v2.722h-1.052v-5.88zm-5.575.412c.27-.16.56-.297.873-.39.314-.114.65-.16 1.03-.16.828 0 1.4.206 1.77.618.358.39.537 1.006.537 1.807v3.202l.045.39h-.985v-.755H53.1a1.53 1.53 0 0 1-.269.274c-.1.114-.224.206-.358.297-.157.092-.336.16-.515.23-.2.046-.403.09-.65.09a3.2 3.2 0 0 1-.851-.114 1.85 1.85 0 0 1-.672-.32c-.18-.16-.336-.343-.425-.572-.112-.23-.157-.503-.157-.823 0-.366.1-.686.27-.938a1.78 1.78 0 0 1 .649-.572 2.91 2.91 0 0 1 .873-.343l.873-.09h.56l.582.023c0-.503-.112-.892-.313-1.144-.224-.252-.582-.39-1.12-.39a2.47 2.47 0 0 0-.896.16c-.29.114-.56.252-.784.435l-.045-.915zM53 6.75h-.358c-.112 0-.224-.023-.336-.023-.134 0-.313.023-.537.046-.224 0-.448.07-.672.137-.202.07-.403.183-.56.343-.134.137-.224.343-.224.618 0 .137.045.274.112.412a1.02 1.02 0 0 0 .246.297c.112.068.224.137.336.183a1.22 1.22 0 0 0 .381.068c.515 0 .918-.16 1.186-.457S53 7.71 53 7.275V6.75zm-4.32-2.196h-1.523v3.225c0 .343.1.595.27.778s.38.274.627.274c.157 0 .29-.023.403-.068.134-.046.224-.092.313-.16v.938c-.134.023-.27.07-.425.114a2.99 2.99 0 0 1-.47.046c-.56 0-.985-.137-1.3-.412-.336-.274-.492-.71-.492-1.304v-3.43h-1.3v-.87h1.3V2.31l1.075-.343v1.716h1.523v.87zm-7.433 3.843a1.18 1.18 0 0 0 .336.183.98.98 0 0 0 .358.137c.112.046.224.07.336.09.112 0 .2.023.27.023.134 0 .246-.023.38-.046s.246-.07.358-.137c.1-.068.18-.16.246-.274.067-.09.112-.23.112-.39 0-.183-.067-.32-.2-.457-.112-.114-.27-.23-.448-.343l-.605-.297c-.202-.092-.403-.23-.605-.366a1.81 1.81 0 0 1-.448-.48c-.134-.183-.2-.412-.2-.686 0-.297.067-.572.18-.8.1-.23.246-.412.425-.572a1.82 1.82 0 0 1 .627-.32c.246-.09.515-.114.806-.114a3.4 3.4 0 0 1 .694.069l.627.16-.1.938c-.067-.023-.134-.07-.246-.114-.1-.023-.2-.046-.313-.092l-.313-.068c-.112-.023-.18-.023-.246-.023-.27 0-.493.07-.716.183-.202.114-.29.297-.29.526 0 .206.067.366.18.503a2.45 2.45 0 0 0 .47.32 3.75 3.75 0 0 0 .605.297c.2.092.403.206.582.343s.336.297.47.503a1.59 1.59 0 0 1 .179.778c0 .32-.045.572-.157.823a1.39 1.39 0 0 1-.47.549 1.53 1.53 0 0 1-.627.343 2.76 2.76 0 0 1-.739.114 4.87 4.87 0 0 1-.828-.069 2.98 2.98 0 0 1-.761-.252l.067-.984zM35.21 3.683h1.03v.938h.022c.157-.343.403-.618.76-.8.336-.183.716-.274 1.12-.274.74 0 1.3.23 1.635.663.358.457.515 1.075.515 1.853v3.5H39.24V6.52c0-.686-.1-1.212-.27-1.555-.157-.32-.492-.526-.94-.55a1.66 1.66 0 0 0-.784.183c-.224.114-.403.274-.56.503a2.31 2.31 0 0 0-.313.755c-.067.297-.1.618-.1.984v2.722H35.21v-5.88zm-2.552 5.88h1.052v-5.88H32.66v5.88zm-.067-7.205h1.187V1.145H32.59v1.212z" class="B"/><path d="M.597.916h10.568c.112 0 .2.09.2.206v10.796c0 .114-.1.206-.2.206H.597c-.112 0-.2-.09-.2-.206V1.122c0-.114.1-.206.2-.206"/><path d="M3.665 6.59V4.187h2.508V4.2h.2v.023h.134v.023h.067v.023h.1V4.3h.067v.023H6.8v.023h.045v.023h.067v.023h.045v.023H7v.023h.045v.023H7.1v.023h.045v.023h.045v.023h.045v.023h.022v.023h.045V4.6h.022v.023h.022v.023h.045v.023h.022V4.7h.045v.023h.022v.023h.022v.023h.022v.023h.022v.023h.045v.023h.022v.046h.022v.023h.022v.023h.045v.023h.022v.046h.022V5h.022v.023h.022v.023h.022v.023h.022v.046h.022v.023h.022v.023h.022v.046h.022v.046h.022v.023h.022v.023h.022v.046h.022V5.4h.022v.046h.022v.046h.022v.023h.022v.046h.022v.07h.022v.046h.022v.07h.022v.07h.022v.046h.022v.09h.022v.092h.022v.137H8.3v.206h.022v.39H8.3v.183h-.022v.137h-.022v.092h-.022v.07H8.21v.07h-.022v.07h-.022v.07h-.022v.046H8.12v.046h-.022v.07h-.022v.023h-.022v.046H8.03v.046h-.022v.046h-.022v.046h-.022v.023H7.94v.023h-.022v.046h-.022v.023h-.022v.046H7.85v.023H7.83v.046h-.045v.046h-.022v.023H7.74v.023h-.022v.023h-.022V8.2h-.022v.023H7.65v.046h-.045v.023h-.022v.023H7.56v.023h-.022v.023h-.022v.023h-.022v.023H7.47v.023h-.022v.023h-.045v.023H7.38v.023h-.045V8.5h-.022v.023h-.022v.023h-.045v.023h-.045v.023H7.18v.023h-.045v.023H7.1v.023h-.045v.023H7v.023h-.045v.023H6.91v.023h-.067v.023H6.8v.023h-.067v.023h-.067v.023h-.1v.023h-.112V8.9H6.33v.023h-.134v.023h-.38v-.023h-.157V8.9h-.134v-.023H5.41v-.023h-.067V8.83h-.1v-.023h-.067v-.023h-.022v-.023h-.067V8.74h-.045v-.023h-.067v-.023H4.94V8.67h-.045v-.023h-.022v-.023H4.83v-.023h-.045V8.58h-.022v-.023h-.045v-.023h-.045V8.5H4.65v-.023h-.022v-.023h-.045V8.44H4.56v-.023h-.022v-.023h-.045V8.35h-.045v-.023h-.022v-.023h-.022V8.28H4.38v-.023H4.36v-.023h-.022v-.023h-.022V8.2h-.022v-.023H4.27v-.023h-.022V8.12h-.022v-.046h-.022v-.023H4.18V8.03h-.022v-.023h-.022V7.96h-.022v-.023H4.1v-.046h-.022V7.87h-.022v-.046h-.022V7.8H4v-.046h-.022V7.7h-.022v-.023h-.022V7.64H3.91v-.046h-.022v-.07h-.022V7.48h-.022v-.07H3.82v-.046H3.8V7.32h-.022v-.09h-.022v-.092h-.022v-.114H3.71v-.137h-.022V6.75h-.022v-.16zm1.6 2.447h0v-.023h-.067V9H5.12v-.023h-.067v-.023h-.067v-.023h-.022V8.9h-.045v-.023H4.85v-.023h-.045V8.83h-.022v-.023h-.067v-.023h-.022v-.023h-.022V8.74h-.045v-.023h-.045v-.023H4.56V8.67h-.045v-.023h-.022v-.023H4.47v-.023h-.022V8.58h-.045v-.023H4.38v-.023H4.36V8.5h-.022v-.023h-.022v-.023h-.022V8.44H4.27v-.023h-.045v-.023h-.022v-.023H4.18v-.046h-.022v-.023h-.022V8.28h-.022v-.023H4.1v-.023h-.022v-.023h-.022V8.2h-.022v-.046H4V8.12h-.022v-.046h-.045V8.03H3.91v-.023h-.022V7.96h-.022v-.046h-.022v-.023H3.82v-.046H3.8V7.8h-.022v-.023h-.022v-.046h-.022v-.07H3.71v-.046h-.022v-.023h-.022v-.07h-.022v-.07H3.62v-.07h-.022v-.07h-.022v-.023 2.516h1.68v-.778zm1.6-2.356H6.82v.137H6.8v.046h-.022v.07h-.022v.046h-.022V7H6.7v.046h-.022v.046h-.022v.023h-.022v.023H6.62v.023h-.022v.023h-.022v.023h-.022v.023H6.53v.023h-.045v.023h-.022v.023H6.44v.023h-.045v.023H6.33v.023h-.045v.023h-.1v.023H6.06v.023h-.134v-.023h-.134V7.39h-.067v-.023h-.067v-.023h-.045V7.32h-.045v-.023h-.045v-.023H5.5v-.023h-.022V7.23h-.022v-.023H5.41v-.023h-.022V7.16h-.022v-.046h-.022v-.023H5.32V7.07H5.3v-.046h-.022V7h-.022v-.046h-.022V6.91H5.21v-.07h-.022v-.09h-.022v-.39h.022v-.07h.022v-.068h.022v-.046h.022V6.13h.022v-.023H5.3v-.046h.022V6.04h.022v-.046h.022V5.97h.022v-.023h.045v-.046h.022V5.88H5.5v-.023h.022v-.023h.045V5.81h.045v-.023h.022v-.023h.067v-.023h.067V5.72h.112v-.023h.2v.023h.134v.023h.067v.023h.067v.023h.045v.023h.022v.023h.045v.023h.045v.023h.022v.023h.022v.023h.022v.023h.022v.023h.022v.023h.022v.023h.022v.023h.022v.046H6.7v.046h.022v.023h.022V6.2h.022v.046H6.8v.07h.022v.114h.022v.252z"/><path d="M3.508 6.314V3.913h2.575v.023h.134v.023h.112v.023h.1v.023h.1v.023h.1v.023h.067v.023h.022v.023h.067v.023H6.8v.023h.045v.023h.045v.023h.067V4.2h.022v.023h.045v.023h.045v.023H7.1V4.3h.045v.023h.022v.023h.022v.023h.045v.023h.022v.023h.022v.023h.045v.023h.022v.023h.022v.023h.022v.023h.022v.023h.022v.023h.045V4.6h.022v.046h.022v.023h.022V4.7h.022v.023h.022v.023h.022v.023h.022v.023h.022v.046h.022v.023h.022v.023h.022v.023h.022v.046h.022v.023h.022V5h.022v.046h.022v.046h.022v.023h.022v.023h.022v.07h.022v.046h.022v.046h.022v.046h.022V5.4h.022v.07h.022v.07h.022v.092h.022v.068h.022v.115h.022v.09h.022v.183h.022v.39h-.022v.206H8.12v.092h-.022v.09h-.022v.092h-.022v.09H8.03v.07h-.022v.046h-.022v.046h-.022v.068H7.94v.046h-.022v.046h-.022v.046h-.022v.046H7.85v.023H7.83v.046h-.022v.046h-.022v.023h-.022v.046H7.74v.023h-.022v.023h-.022v.046h-.022v.023H7.65v.023h-.022v.046h-.022v.023h-.022v.023H7.56v.023h-.022v.023h-.022v.023h-.022v.023H7.47v.023h-.022v.023h-.022v.023h-.022v.023H7.38v.023H7.36v.023h-.022v.023h-.045v.023H7.27v.023h-.022V8.2h-.022v.023H7.18v.023h-.045v.023h-.022v.023h-.045v.023h-.022v.023H7v.023h-.022v.023h-.045v.023h-.067v.023H6.82v.023H6.8v.023h-.067v.023h-.045V8.5H6.62v.023h-.067v.023h-.1v.023h-.045V8.6h-.112v.023h-.134v.023H5.5v-.023h-.134V8.6h-.112V8.58H5.21v-.023h-.1v-.023h-.067V8.5h-.067v-.023H4.94v-.023h-.067V8.44H4.85v-.023h-.045v-.023H4.74v-.023h-.022V8.35h-.045v-.023h-.045v-.023h-.022V8.28H4.56v-.023h-.022v-.023h-.045v-.023H4.47V8.2h-.045v-.023h-.022v-.023H4.38V8.12H4.36v-.023h-.045v-.023H4.29v-.023H4.27V8.03h-.022v-.023h-.022v-.023h-.022V7.96H4.18v-.023h-.022v-.023h-.022v-.023h-.022V7.87H4.1v-.023h-.022V7.8h-.022v-.023h-.022v-.023H4V7.71h-.045v-.046h-.022V7.64H3.91v-.046h-.022V7.55h-.022v-.023h-.022v-.023H3.82v-.046H3.8v-.046h-.022v-.046h-.022v-.07h-.022v-.046H3.71V7.23h-.022v-.07h-.022v-.07h-.022v-.07H3.62v-.07h-.022v-.092h-.022v-.068h-.022V6.68H3.53v-.206h-.022v-.16zm1.6 2.447h0V8.74h-.1v-.023h-.022v-.023h-.067V8.67H4.85v-.023h-.045v-.023H4.74V8.6h-.045V8.58h-.022v-.023h-.045v-.023h-.045V8.5h-.045v-.023h-.045v-.023H4.47V8.44h-.022v-.023h-.045v-.023H4.38v-.023h-.045V8.35h-.022v-.023H4.29v-.023H4.27V8.28h-.045v-.023h-.022v-.023H4.18v-.023h-.022V8.2h-.022v-.023h-.022v-.023h-.045V8.12h-.022v-.023h-.022v-.046H4V8.03h-.022v-.023h-.022v-.023h-.022V7.96H3.91v-.023h-.022v-.023h-.022V7.87h-.022v-.023H3.82v-.023H3.8V7.8h-.022v-.046h-.022V7.71h-.022v-.023H3.71v-.023h-.022v-.046h-.022v-.046h-.022v-.046H3.62v-.023h-.022v-.07h-.022v-.023h-.022v-.046H3.53v-.07h-.022v-.046h-.022v-.07h-.022v-.07H3.44V7.07h-.022v-.046V9.54h1.68v-.778zm1.6-2.356h-.022v.137h-.022v.046H6.62v.046h-.022v.07h-.022v.023h-.022v.046H6.53v.023h-.022v.023h-.022v.046h-.022v.023H6.44v.023h-.022v.023h-.022v.023H6.35v.023H6.33V7h-.022v.023h-.045v.023h-.045v.023h-.045v.023h-.045v.023h-.1v.023h-.134v.023H5.77v-.023h-.134v-.023h-.1v-.023H5.5V7.07h-.045v-.023H5.41v-.023h-.045V7h-.022v-.023H5.3v-.023h-.022v-.023h-.022V6.91h-.022v-.023H5.21V6.84h-.045v-.046h-.022v-.023H5.12v-.046h-.022V6.68h-.022v-.046h-.022V6.59H5.03V6.52h-.022v-.137h-.022v-.206h.022v-.114h.022v-.07h.022v-.046h.022v-.046h.022v-.046h.022V5.81h.022v-.046h.022v-.023h.022V5.72h.022v-.023h.022v-.023h.022V5.65h.022v-.023H5.3v-.023h.045v-.023h.022V5.56h.022v-.023h.045v-.023h.045V5.49h.067v-.023h.067v-.023h.067v-.023h.313v.023h.067v.023h.067v.023h.067v.023h.045v.023h.045v.023h.022v.023h.022v.023h.045v.023h.022v.023h.022v.023h.022v.023h.022v.023h.022v.023h.022v.046h.022v.023h.022v.046h.022v.023h.022v.046h.022v.07h.022v.046h.022v.114h.022v.252z" class="E"/></g><g transform="translate(0 .5)"><path d="M3.63.7H20.55l-1.27 1.006L3.587 14.09l-1.7 1.352.483-.565 8.164-9.406-6.416.003c-.6-.027-1.222.107-1.72.47a2.08 2.08 0 0 0-.413.409l.47-1.61L3.63.7z" class="B"/><path d="M19.888 2.17l-.57.685-8.124 9.565c-.03.032-.056.067-.072.11l.945-.01 2.834-.01c.116-.007.232-.016.348-.006l2.155-.014.452-.008a2 2 0 0 0 .961-.347c.27-.188.493-.45.652-.747.062-.127.136-.25.162-.392.002.108-.03.212-.052.317l-1.3 5.99H2.035c-.5-.002-.997.003-1.495-.003L19.542 2.445l.346-.275z"/><g transform="translate(22.382 5.975)"><g transform="translate(0 .35)"><mask id="K" class="E"><use xlink:href="#C"/></mask><path d="M2.6 2.4l.275-1.307H8.55L8.324 2.18c-.024.093-.034.198-.1.274L3.3 7.613l3.952.003L6.97 8.91H.947v-.026l.288-1.276 1.508-1.583 3.47-3.622C5.006 2.4 3.798 2.406 2.6 2.4" mask="url(#K)" class="B"/></g><path d="M10.19 1.445h5.262L15.18 2.75l-3.578.005-.4 1.82 3.344.002-.274 1.3-3.346.001-.445 2.087 3.692.002-.282 1.295H8.536c.006-.16.048-.314.082-.47l1.57-7.347m5.256 5.86l1.258-5.862 2.492.001 1.683 6.16c.07-.243.115-.492.17-.74l1.16-5.422h1.57L23.06 4.85l-.946 4.41H19.71l-.48-1.86L18 2.76l-1.394 6.5h-1.575l.413-1.956m9.16.55l1.38-6.405 1.68-.006L26 9.262h-1.68c.07-.473.195-.936.287-1.405M28.4 2.753l.285-1.308 6.355.001-.272 1.305-2.334.001-1.398 6.5H29.35l1.38-6.508c-.776-.003-1.552 0-2.328-.001m6.078 6.51l1.672-7.817 1.67.001c-.046.35-.138.695-.208 1.042L37.18 4.53h2.96l.665-3.086 1.704.001-1.666 7.816h-1.68l.717-3.426c-.992-.001-1.982.001-2.975-.001l-.73 3.427" class="B C"/></g></g></g><g transform="translate(0 4)"><path d="M228.144 9.63c0 4.697-3.8 8.505-8.487 8.505s-8.487-3.808-8.487-8.505 3.8-8.505 8.487-8.505 8.487 3.808 8.487 8.505"/><path d="M219.21 13.047l-3.318-8.34h-2.935s1.786 5.17 5.105 11.638h2.297c3.318-6.467 5.105-11.638 5.105-11.638h-2.935s-1.404 4.03-3.318 8.34" class="E"/><path d="M256.374 9.084c-1.62 0-1.744 1.694-1.744 1.694h3.487s-.124-1.694-1.744-1.694m3.86 3.387h-5.604s.124 1.815 2.615 1.815c1.245 0 2.49-.363 2.49-.363l.25 1.936s-1.246.484-2.99.484c-2.49 0-4.732-1.2-4.732-4.597 0-2.66 1.744-4.355 4.234-4.355 3.736 0 3.985 3.63 3.736 5.08M240.268 9.62l.383-1.992s-2.957-.876-5.36.747v7.97h2.552V9.868c1.02-.747 2.425-.25 2.425-.25m-10.694-.535c-1.62 0-1.744 1.694-1.744 1.694h3.487s-.124-1.694-1.744-1.694m3.86 3.387h-5.604s.125 1.815 2.615 1.815c1.245 0 2.49-.363 2.49-.363l.25 1.936s-1.245.484-2.99.484c-2.49 0-4.733-1.2-4.733-4.597 0-2.66 1.744-4.355 4.234-4.355 3.736 0 3.985 3.63 3.736 5.08m13.47.83c-1.277-3.044-1.914-5.9-1.914-5.9h-2.552s1.276 4.895 3.446 8.952h2.04c2.17-4.056 3.446-8.95 3.446-8.95h-2.552s-.638 2.866-1.914 5.91" class="B"/><g class="C"><path d="M284.617 4.5h9.888c.34 0 .618.263.618.59v1.046c0 .325-.277.59-.618.59h-9.888c-.34 0-.617-.265-.617-.59V5.09c0-.326.276-.59.617-.59zm0 5.84h9.888c.34 0 .618.264.618.59v1.048c0 .325-.277.588-.618.588h-9.888c-.34 0-.617-.263-.617-.588V10.93c0-.325.276-.59.617-.59zm5.562 2.92h-5.562c-.34 0-.617.263-.617.59v1.047c0 .325.276.59.617.59h5.562c.342 0 .618-.264.618-.59V13.85c0-.325-.276-.59-.618-.59zm-5.562-5.842h10.506c.34 0 .617.264.617.59v1.047c0 .325-.276.59-.617.59h-10.506c-.34 0-.617-.265-.617-.59V8.01c0-.325.276-.59.617-.59z"/><path d="M343.936 11.857l-1.712-2.397 1.465-1.842c.077-.106.096-.208.06-.304-.026-.07-.095-.152-.272-.152h-1.158a.45.45 0 0 0-.191.044.38.38 0 0 0-.17.156l-1.17 1.56h-.285v-3.69c0-.078-.028-.143-.08-.198s-.125-.08-.205-.08h-1.084c-.08 0-.15.03-.207.078s-.09.118-.09.2v6.8c0 .078.03.146.09.197a.3.3 0 0 0 .207.079h1.084a.28.28 0 0 0 .205-.08c.053-.052.08-.118.08-.196V10.24h.313l1.28 1.865c.09.143.217.215.374.215h1.213c.184 0 .26-.083.29-.154.044-.1.03-.2-.038-.3zm-17.877-1.15c.098.005.18.055.24.147l.376.58c.1.152.086.305-.037.443-.187.187-.42.328-.7.42s-.577.138-.9.138a2.45 2.45 0 0 1-.678-.096 1.74 1.74 0 0 1-.594-.296 1.52 1.52 0 0 1-.418-.516c-.107-.21-.163-.467-.163-.765v-2.23h-.625c-.082 0-.152-.03-.207-.092s-.08-.125-.08-.195V7.45c0-.078.028-.144.08-.2s.125-.088.207-.088h.625V5.886c0-.084.033-.155.09-.207s.13-.078.208-.078h1.094c.072 0 .138.025.198.078s.088.122.088.207v1.277h1.41a.32.32 0 0 1 .214.083c.063.057.093.127.093.204v.796c0 .07-.03.138-.09.197s-.135.09-.216.09h-1.41v1.876c0 .116.017.208.048.276s.07.12.116.155.097.06.147.07a.65.65 0 0 0 .153.019.73.73 0 0 0 .194-.029.97.97 0 0 0 .248-.108c.093-.06.188-.09.28-.086zm-4.492-1.1c-.15-.127-.33-.23-.532-.307s-.414-.138-.638-.18l-.825-.156c-.212-.038-.36-.09-.442-.155-.074-.056-.11-.122-.11-.202s.052-.153.154-.215c.112-.066.268-.1.46-.1a1.63 1.63 0 0 1 .616.12c.197.08.383.173.544.275.24.142.445.123.592-.04l.396-.435c.08-.086.124-.18.124-.272s-.052-.187-.15-.268c-.168-.14-.434-.288-.79-.433s-.804-.222-1.332-.222a3.25 3.25 0 0 0-.95.132c-.285.088-.53.2-.726.36s-.356.336-.464.544a1.45 1.45 0 0 0-.162.667c0 .428.136.776.403 1.036.267.254.623.427 1.06.51l.858.177c.244.046.43.1.55.16.104.05.154.124.154.227 0 .092-.05.173-.153.247-.108.08-.28.12-.506.12-.248 0-.473-.05-.677-.145s-.39-.212-.552-.35a.82.82 0 0 0-.249-.13c-.103-.03-.218.002-.35.1l-.474.35c-.138.1-.196.244-.17.398.023.148.154.3.4.474.22.147.5.28.837.394s.733.174 1.182.174c.36 0 .695-.044.988-.13a2.56 2.56 0 0 0 .766-.367 1.67 1.67 0 0 0 .495-.564c.115-.217.172-.455.172-.704 0-.243-.044-.457-.134-.637a1.41 1.41 0 0 0-.364-.457zm-17.444-1.85c-.24-.235-.522-.42-.836-.547a2.66 2.66 0 0 0-.999-.19c-.365 0-.7.065-.966.197a1.78 1.78 0 0 0-.538.379V7.45c0-.078-.03-.144-.08-.2s-.125-.088-.207-.088h-1.07c-.084 0-.153.03-.206.088s-.08.122-.08.2v6.842a.27.27 0 0 0 .082.197c.055.052.122.078.206.078h1.092c.074 0 .14-.026.198-.078s.09-.12.09-.197v-2.335c.146.155.34.274.572.355a2.64 2.64 0 0 0 .889.155c.35 0 .7-.063 1.01-.19a2.55 2.55 0 0 0 .847-.552 2.64 2.64 0 0 0 .574-.86c.144-.335.214-.714.214-1.127s-.07-.79-.214-1.126a2.57 2.57 0 0 0-.574-.855zm-.98 2.472a1.22 1.22 0 0 1-.257.389c-.108.11-.237.2-.382.26s-.31.094-.484.094c-.17 0-.333-.034-.48-.094s-.282-.15-.394-.26a1.21 1.21 0 0 1-.26-.389 1.25 1.25 0 0 1-.093-.48 1.26 1.26 0 0 1 .093-.482c.06-.145.15-.275.26-.383s.245-.196.394-.262a1.19 1.19 0 0 1 .48-.099c.176 0 .337.034.483.1a1.31 1.31 0 0 1 .385.261c.107.11.194.24.255.384a1.26 1.26 0 0 1 .091.482 1.25 1.25 0 0 1-.091.48zm7.628-3.066h-1.082c-.073 0-.143.03-.2.084s-.088.126-.088.204v.126c-.122-.14-.287-.26-.5-.36-.273-.132-.592-.197-.95-.197a2.7 2.7 0 0 0-1 .19 2.64 2.64 0 0 0-.858.546 2.7 2.7 0 0 0-.598.857 2.75 2.75 0 0 0-.224 1.126c0 .413.075.79.224 1.127s.348.623.592.86.53.423.852.552.657.19 1 .19c.356 0 .678-.066.954-.197.204-.1.37-.22.495-.36v.135c0 .078.03.147.09.197s.125.08.198.08h1.082c.082 0 .15-.026.204-.08a.26.26 0 0 0 .083-.196V7.45c0-.078-.028-.144-.08-.2s-.124-.088-.206-.088zm-1.46 3.06a1.17 1.17 0 0 1-.254.39c-.11.11-.24.196-.385.262a1.18 1.18 0 0 1-.485.099 1.19 1.19 0 0 1-.479-.099c-.15-.066-.28-.153-.39-.262s-.194-.238-.255-.4a1.27 1.27 0 0 1-.091-.474c0-.17.03-.332.09-.482a1.18 1.18 0 0 1 .255-.384 1.29 1.29 0 0 1 .389-.261 1.19 1.19 0 0 1 .479-.099c.176 0 .34.034.485.1s.275.153.385.26a1.23 1.23 0 0 1 .254.384 1.26 1.26 0 0 1 .091.482 1.26 1.26 0 0 1-.091.474zm21.838-3.06h1.08c.084 0 .153.03.206.088s.08.122.08.2v4.595c0 .078-.03.144-.082.196s-.124.08-.205.08h-1.08c-.074 0-.14-.026-.198-.08s-.088-.12-.088-.197V11.9a1.56 1.56 0 0 1-.498.359 2.22 2.22 0 0 1-.956.197c-.342 0-.677-.063-.998-.19a2.61 2.61 0 0 1-.852-.552 2.77 2.77 0 0 1-.592-.86 2.75 2.75 0 0 1-.225-1.127 2.74 2.74 0 0 1 .225-1.126 2.68 2.68 0 0 1 .598-.857 2.64 2.64 0 0 1 .858-.546 2.7 2.7 0 0 1 .998-.19c.36 0 .677.065.95.197.203.098.368.218.492.36V7.45a.28.28 0 0 1 .087-.204c.06-.055.125-.084.2-.084zm-.636 3.45c.11-.108.196-.238.256-.4a1.25 1.25 0 0 0 .094-.474 1.25 1.25 0 0 0-.094-.482c-.06-.145-.147-.275-.256-.384s-.237-.195-.384-.26-.306-.1-.483-.1c-.168 0-.33.034-.48.1s-.28.153-.39.26-.194.238-.255.384-.09.3-.09.482a1.26 1.26 0 0 0 .091.474c.062.152.148.284.255.4s.24.196.39.262a1.19 1.19 0 0 0 .479.099c.177 0 .338-.034.483-.1s.277-.153.384-.262zm7.04-.278l.62.453c.074.056.127.125.16.21s.027.18-.026.27c-.228.35-.55.637-.962.86s-.9.34-1.452.34c-.398 0-.78-.07-1.126-.2s-.66-.336-.916-.578a2.6 2.6 0 0 1-.608-.86 2.64 2.64 0 0 1-.222-1.069 2.66 2.66 0 0 1 .222-1.073c.145-.335.35-.625.608-.868a2.88 2.88 0 0 1 .916-.577c.347-.14.728-.21 1.126-.21.55 0 1.042.114 1.452.337s.734.514.96.86c.055.093.06.186.028.278s-.09.156-.163.205l-.62.453c-.116.09-.227.114-.326.077-.088-.035-.163-.087-.226-.156-.154-.174-.314-.312-.475-.408s-.362-.142-.604-.142a1.17 1.17 0 0 0-.486.099 1.27 1.27 0 0 0-.384.261 1.09 1.09 0 0 0-.251.384c-.058.148-.086.308-.086.482 0 .165.028.322.086.47s.144.278.25.39.237.2.382.26.31.093.488.093c.242 0 .448-.047.604-.14a2.02 2.02 0 0 0 .474-.408c.064-.07.14-.122.227-.156.097-.038.2-.014.33.077zm-21.84-3.17h1.212c.165 0 .235.072.266.133.037.08.037.178-.004.297l-1.78 5.536c-.16.486-.42.876-.774 1.162s-.82.43-1.374.43c-.328 0-.637-.047-.916-.142a2.03 2.03 0 0 1-.713-.4c-.1-.084-.19-.237-.03-.47l.385-.54c.074-.11.165-.164.27-.164h.013c.1.004.192.034.273.087.084.06.18.114.285.16s.212.068.325.068c.138 0 .255-.037.36-.112a.67.67 0 0 0 .236-.325l.155-.418.053-.145h-.648c-.095 0-.17-.026-.23-.08a.42.42 0 0 1-.118-.178l-1.535-4.473a.42.42 0 0 1 .002-.282c.038-.097.14-.147.303-.147h1.255a.27.27 0 0 1 .216.095.49.49 0 0 1 .091.189l.962 3.178h.22l.894-3.18a.41.41 0 0 1 .106-.19c.057-.06.14-.092.242-.092z"/></g><g transform="translate(0 39)"><g transform="translate(.563 13.65)"><use xlink:href="#D"/><use xlink:href="#D" class="B"/><use xlink:href="#E"/><use xlink:href="#E" class="B"/></g><g transform="translate(3.3)"><path d="M.4 4.896V9.68h1.08V4.68z" class="B"/><path d="M48.396 1.727c0 .814-.655 1.474-1.463 1.474a1.47 1.47 0 0 1-1.464-1.474A1.47 1.47 0 0 1 46.933.254c.808 0 1.463.66 1.463 1.473" class="D"/><g transform="translate(39.3 3.504)"><mask id="L" class="E"><use xlink:href="#F"/></mask><path d="M1.454.87c-.514.085-1 .168-.967.312s2.296.18 3.405.958c.113.08.237.19.275.302C4.75 4.16.89 9 1.273 9.124c.57.183 4.763-4.44 6.057-7.027.09-.178.442-1.024.24-1.295C7.466.66 7.115.55 6.62.5a9.58 9.58 0 0 0-.954-.043c-1.462 0-3.2.246-4.21.412" mask="url(#L)" class="D"/></g><g class="B"><path d="M16.123 6.745l.162-.87s-1.25-.382-2.267.325v3.482h1.08V6.854c.43-.327 1.027-.11 1.027-.11h0zm-9.32-1.862l1.08-.192v1.13H8.95v.905H7.882v1.35c0 .23.04.41.12.547s.24.205.482.205a2.09 2.09 0 0 0 .358-.033 1.93 1.93 0 0 0 .337-.091l.152.847c-.13.053-.275.1-.435.138s-.356.06-.587.06c-.295 0-.54-.04-.733-.12s-.347-.192-.463-.336-.197-.317-.243-.52-.07-.432-.07-.68v-3.21zM17.886 8.9c.198 0 .338-.02.42-.058s.123-.114.123-.226c0-.088-.054-.165-.16-.23a3.07 3.07 0 0 0-.486-.223l-.46-.197c-.138-.068-.255-.15-.352-.245s-.172-.207-.224-.34-.08-.3-.08-.474c0-.36.134-.646.4-.854s.632-.315 1.095-.315a3.52 3.52 0 0 1 .668.062c.212.042.382.086.507.136l-.19.846a3.95 3.95 0 0 0-.41-.117c-.147-.034-.312-.05-.496-.05-.34 0-.508.095-.508.284 0 .045.008.083.02.117a.25.25 0 0 0 .088.099c.043.032.1.065.178.102a2.99 2.99 0 0 0 .286.121 4.56 4.56 0 0 1 .588.262c.154.085.276.178.366.277a.87.87 0 0 1 .188.333c.037.12.054.26.054.42 0 .38-.14.666-.423.86s-.684.292-1.2.292c-.338 0-.62-.03-.845-.088l-.468-.145.182-.883c.184.073.372.13.565.172a2.76 2.76 0 0 0 .573.061h0zm4.948-1.423l-.308 1.102-.344 1.103h-.842l-.283-.73-.317-.924-.335-1.06-.33-1.128h1.14l.128.573.147.64.16.66.172.64.185-.658.173-.66.16-.628.135-.566h.782l.13.566.152.628.167.66.18.658.175-.64.164-.66.146-.64.128-.573h1.124L25.3 6.97l-.334 1.06-.32.924-.286.73h-.84l-.355-1.103-.32-1.102z" class="C"/><path d="M26.384 9.68h1.08V5.84h-1.08z"/><path d="M28.322 4.884l1.08-.193v1.15h1.068v.905h-1.068v1.35c0 .23.04.41.12.548s.24.204.48.204c.116 0 .235-.01.36-.033s.235-.052.338-.092l.15.847c-.13.055-.275.1-.435.14s-.355.058-.587.058c-.295 0-.54-.04-.733-.12a1.14 1.14 0 0 1-.465-.336 1.25 1.25 0 0 1-.242-.522 3.1 3.1 0 0 1-.069-.679v-3.23zm2.913 2.88c0-.278.044-.54.134-.785s.218-.46.386-.642a1.87 1.87 0 0 1 .618-.434c.242-.108.516-.16.826-.16a2.7 2.7 0 0 1 .558.054 2.65 2.65 0 0 1 .493.157l-.224.87c-.1-.04-.214-.074-.334-.102s-.256-.044-.406-.044c-.32 0-.557.1-.714.3s-.235.462-.235.79c0 .346.073.613.22.803s.404.285.772.285c.13 0 .27-.012.42-.037s.287-.063.414-.117l.152.89a2.55 2.55 0 0 1-.471.138 3.07 3.07 0 0 1-.623.059c-.348 0-.648-.053-.9-.157s-.458-.247-.62-.428-.28-.392-.356-.638a2.75 2.75 0 0 1-.111-.799h0zm3.778 1.92v-4.8l1.08-.192v1.166a2.15 2.15 0 0 1 .279-.069c.114-.023.224-.033.33-.033.31 0 .565.043.77.128s.37.205.493.36a1.41 1.41 0 0 1 .261.555c.05.214.076.452.076.716v2.168h-1.082V7.645c0-.35-.044-.598-.135-.745s-.254-.22-.497-.22a1.35 1.35 0 0 0-.271.026l-.23.055v2.92h-1.08zM2.446 9.68l-.003-3.48s.542-.437 1.73-.437c1.08 0 1.676.544 1.676 1.74V9.68H4.77V7.507c0-.763-.38-.816-.703-.816s-.54.163-.54.163V9.68h-1.08zm9.105-3.928c1.62 0 1.728 1.63 1.62 2.283h-2.43s.053.816 1.135.816c.54 0 1.08-.163 1.08-.163l.108.87-.032.012c-.127.046-.617.205-1.264.205-1.08 0-2.053-.544-2.053-2.067 0-1.196.755-1.958 1.836-1.958zm-.055.762c-.702 0-.755.76-.755.76h1.512s-.054-.76-.756-.76z" class="C"/></g></g></g><g transform="translate(83.867 39)"><path d="M1.488 24.546l4.16-7.425h1.156l1.21 7.425h-.95l-.355-2.137H3.74l-1.176 2.137H1.488zm2.672-2.902h2.427l-.285-1.864-.205-1.85c-.167.425-.4.93-.73 1.514L4.16 21.644zm5.935 2.902l1.356-6.58H9.045l.175-.846h5.775l-.175.846h-2.387l-1.356 6.58h-.98zm4.384 0l1.53-7.425h1.206l.74 4.812.2 1.818c.204-.5.544-1.177 1.02-2.03l2.572-4.6h1.226l-1.53 7.425h-.966l.766-3.61a29.53 29.53 0 0 1 .761-2.806 18 18 0 0 1-.781 1.56l-2.733 4.857h-.946l-.736-4.76a15.48 15.48 0 0 1-.145-1.525l-.245 1.55-.976 4.736h-.956zm10.852.322v-6.7h-2.364v-1.364H29.3v1.364h-2.36v6.7h-1.61zm5.842 0h-1.527v-5.84h1.418v.83c.243-.392.46-.65.655-.776s.414-.187.66-.187a1.92 1.92 0 0 1 1.005.292l-.473 1.348c-.257-.17-.496-.253-.717-.253a.84.84 0 0 0-.543.179c-.15.12-.265.335-.35.646s-.128.964-.128 1.958v1.804zm4.01-4.06l-1.386-.253c.156-.565.424-.983.804-1.254s.946-.407 1.696-.407c.68 0 1.188.082 1.522.245s.568.37.704.622.204.712.204 1.383l-.016 1.804c0 .513.024.892.073 1.136s.14.505.274.784h-1.51c-.04-.103-.09-.255-.147-.457l-.054-.182c-.26.257-.54.45-.837.578s-.614.193-.95.193c-.594 0-1.063-.163-1.405-.5s-.514-.74-.514-1.238c0-.33.078-.624.234-.883s.374-.457.655-.594.686-.258 1.215-.36c.714-.136 1.208-.262 1.484-.38v-.154c0-.297-.072-.51-.217-.635s-.418-.2-.82-.2c-.272 0-.484.054-.636.162s-.275.298-.37.57zm2.043 1.254c-.196.066-.505.145-.93.237s-.7.182-.832.27c-.2.143-.3.325-.3.545s.08.403.24.56a.83.83 0 0 0 .609.237c.275 0 .538-.092.788-.275.185-.14.306-.3.364-.512.04-.132.06-.383.06-.754v-.308zm8.255 2.805h-1.527v-2.98c0-.63-.033-1.04-.098-1.224s-.17-.33-.318-.432a.9.9 0 0 0-.53-.154c-.264 0-.502.073-.712.22s-.354.34-.432.583-.117.69-.117 1.342v2.646h-1.527v-5.84h1.418v.858c.504-.66 1.138-1 1.902-1 .337 0 .645.06.924.184s.5.28.633.47.243.407.3.65.084.59.084 1.04v3.63zm1.01-1.667l1.533-.237c.065.3.197.53.397.685s.478.234.837.234c.395 0 .692-.073.89-.22.134-.103.2-.24.2-.413 0-.117-.036-.215-.11-.292s-.246-.14-.51-.204c-1.232-.275-2.013-.526-2.342-.754-.457-.315-.685-.754-.685-1.315 0-.506.197-.93.592-1.276s1.007-.517 1.837-.517c.8 0 1.377.13 1.76.39s.65.645.793 1.155l-1.44.27a.9.9 0 0 0-.351-.523c-.172-.12-.418-.182-.736-.182-.402 0-.7.057-.864.17-.116.08-.174.185-.174.314 0 .1.05.204.152.28.138.103.613.248 1.427.435s1.38.416 1.704.688.478.658.478 1.15c0 .535-.22.996-.663 1.38S50.128 25 49.262 25c-.786 0-1.41-.16-1.867-.484a2.23 2.23 0 0 1-.899-1.315zm6.06-4.175h.848v-.44c0-.49.052-.858.155-1.1s.293-.44.57-.59.628-.228 1.052-.228c.435 0 .86.066 1.277.198l-.207 1.078c-.243-.06-.476-.088-.7-.088s-.38.052-.476.157-.144.305-.144.602v.413h1.14v1.216h-1.14v4.626h-1.527v-4.626h-.848v-1.216zm7.717 3.982l1.522.26c-.196.565-.505.995-.927 1.3s-.95.443-1.584.443c-1.004 0-1.746-.332-2.228-.996-.38-.532-.57-1.203-.57-2.013 0-.968.25-1.726.75-2.274s1.132-.822 1.897-.822c.86 0 1.536.287 2.033.86s.734 1.453.712 2.637H58.05c.01.458.134.815.37 1.07a1.15 1.15 0 0 0 .88.382c.24 0 .44-.066.603-.198s.286-.345.37-.638zm.087-1.562c-.01-.447-.125-.787-.342-1.02s-.482-.35-.793-.35c-.333 0-.61.123-.826.37s-.324.58-.32 1h2.283zm4.223 3.42h-1.527v-5.84h1.418v.83c.243-.392.46-.65.655-.776s.414-.187.66-.187a1.92 1.92 0 0 1 1.005.292l-.473 1.348c-.257-.17-.496-.253-.717-.253a.84.84 0 0 0-.543.179c-.15.12-.265.335-.35.646s-.128.964-.128 1.958v1.804z" class="B"/><g transform="translate(8.8)"><path d="M.683 5.015v4.9h1.08V4.793z" class="B"/><path d="M48.707 1.77c0 .834-.655 1.51-1.464 1.51s-1.465-.676-1.465-1.51.656-1.51 1.465-1.51 1.464.676 1.464 1.51" class="D"/><g transform="translate(39.332 3.589)"><mask id="M" class="E"><use xlink:href="#G"/></mask><path d="M1.728.9c-.515.087-1 .172-.968.32s2.298.185 3.408.98c.113.08.237.196.275.3.584 1.76-3.28 6.72-2.896 6.845.57.188 4.767-4.55 6.06-7.198.09-.182.443-1.05.242-1.327-.105-.146-.457-.258-.952-.31a9.37 9.37 0 0 0-.955-.044C4.478.468 2.738.72 1.728.9" mask="url(#M)" class="D"/></g><g class="B"><path d="M16.408 6.91l.162-.89s-1.252-.39-2.27.333v3.566h1.08V7.02c.432-.335 1.028-.112 1.028-.112h0zM7.08 5.002l1.08-.196v1.16h1.07v.927H8.16v1.384c0 .234.04.42.12.56s.24.2.482.2c.116 0 .236-.012.36-.034a1.9 1.9 0 0 0 .337-.093l.153.868c-.13.054-.276.102-.435.14a2.48 2.48 0 0 1-.588.06c-.295 0-.54-.04-.734-.123a1.14 1.14 0 0 1-.464-.344c-.117-.147-.197-.325-.243-.534a3.24 3.24 0 0 1-.069-.696V5.002zm11.092 4.116c.2 0 .34-.02.42-.06s.123-.117.123-.23c0-.1-.054-.17-.16-.236a3.04 3.04 0 0 0-.487-.229l-.46-.202c-.138-.07-.255-.154-.352-.25a1 1 0 0 1-.224-.347 1.31 1.31 0 0 1-.081-.486c0-.37.134-.66.4-.875s.632-.323 1.096-.323c.233 0 .456.022.67.064s.382.088.508.14l-.19.867c-.126-.045-.262-.085-.4-.12s-.312-.053-.496-.053c-.34 0-.508.097-.508.29 0 .046.008.085.02.12s.044.068.088.1a1.14 1.14 0 0 0 .178.105c.074.038.17.08.286.124.236.09.432.18.588.27s.276.183.366.284.152.216.188.34.055.268.055.432c0 .388-.14.682-.423.88s-.684.3-1.202.3c-.34 0-.62-.03-.846-.1l-.468-.15.182-.905a3.43 3.43 0 0 0 .566.176c.194.042.385.063.573.063h0zm4.952-1.458l-.308 1.13-.344 1.13h-.842l-.283-.748-.317-.946-.335-1.084-.33-1.155h1.14l.128.587.147.655.16.676.172.656.185-.674.173-.676.16-.643.135-.58h.783l.13.58.152.643.167.676.18.674.175-.656.164-.676.146-.655.128-.587h1.125l-.332 1.155-.334 1.084-.32.946-.287.748h-.842l-.356-1.13-.32-1.13z" class="C"/><path d="M26.677 9.916h1.082V5.982h-1.082z"/><path d="M28.617 5.002l1.082-.198v1.18h1.07V6.9h-1.07v1.383c0 .236.04.42.12.56s.24.21.482.21c.116 0 .236-.01.36-.034s.235-.053.338-.094l.15.868a3.01 3.01 0 0 1-.435.143c-.16.038-.355.06-.587.06-.295 0-.54-.04-.733-.123s-.35-.197-.465-.344-.197-.325-.242-.535-.07-.44-.07-.695V5.002zm2.915 2.95c0-.284.044-.552.134-.805a1.94 1.94 0 0 1 .387-.658c.17-.186.375-.334.618-.444s.517-.165.826-.165c.203 0 .4.02.56.056a2.61 2.61 0 0 1 .494.161l-.225.9a2.57 2.57 0 0 0-.334-.105c-.12-.03-.257-.045-.407-.045-.32 0-.557.102-.714.307s-.235.473-.235.808c0 .354.073.628.22.822s.405.292.773.292a2.54 2.54 0 0 0 .42-.038c.15-.026.288-.064.414-.12l.152.913c-.126.054-.283.102-.472.14s-.396.06-.623.06c-.35 0-.65-.054-.9-.16s-.458-.253-.62-.438-.28-.4-.356-.653-.11-.524-.11-.818h0zm3.78 1.967V5l1.08-.197V6a2.11 2.11 0 0 1 .279-.071 1.65 1.65 0 0 1 .331-.034c.31 0 .566.044.772.13a1.2 1.2 0 0 1 .494.369 1.46 1.46 0 0 1 .262.569 3.27 3.27 0 0 1 .076.733v2.22h-1.082V7.83c0-.36-.044-.613-.135-.763s-.254-.224-.497-.224a1.32 1.32 0 0 0-.271.027l-.23.056v2.99h-1.08zM2.72 9.916l-.003-3.563s.542-.447 1.73-.447c1.082 0 1.677.557 1.677 1.784v2.227h-1.08V7.69c0-.782-.38-.836-.704-.836s-.54.167-.54.167v2.897H2.72zm9.112-4.023c1.62 0 1.73 1.67 1.62 2.34h-2.43s.053.836 1.135.836c.54 0 1.08-.167 1.08-.167l.108.892-.032.012a3.83 3.83 0 0 1-1.265.21c-1.08 0-2.054-.558-2.054-2.117 0-1.225.756-2.005 1.838-2.005zm-.055.78c-.703 0-.756.78-.756.78h1.513s-.054-.78-.757-.78z" class="C"/></g></g></g><g class="B"><path d="M276.285 88.664L267.5 93.1v2.2h.772v1.56h.772v6.236h-.772v1.56h-.772v2.34h19.294v-2.34h-.772v-1.56h-.772V96.85h.772V95.3h.772v-2.2l-8.784-4.436h-1.726zm-7.24 15.2h2.315v.78h-2.315v-.78zm4.63-7.016v6.236h-.772v1.56h-.772v-1.56h-.772V96.85h.772V95.3h.772v1.56h.772zm4.63 0v6.236h-.772v1.56h-.772v-1.56H276V96.85h.772V95.3h.772v1.56h.772zm4.63 0v6.236h-.772v1.56h-.772v-1.56h-.772V96.85h.772V95.3h.772v1.56h.772zm2.315 7.016v.78h-2.315v-.78h2.315zm-1.544-.78V96.85h.772v6.236h-.772zm-3.087-7.016h-2.315v-.78h2.315v.78zm-.772.78v6.236h-.772V96.85h.772zm.772 7.016v.78h-2.315v-.78h2.315zM276 96.07h-2.315v-.78H276v.78zm-.772.78v6.236h-.772V96.85h.772zm.772 7.016v.78h-2.315v-.78H276zm-4.63-7.796h-2.315v-.78h2.315v.78zm-.772.78v6.236h-.772V96.85h.772zm15.435 8.575v.78h-17.75v-.78h17.75zm-.772-9.355h-2.315v-.78h2.315v.78zm.772-1.56h-17.75v-.928l8.195-4.14h1.36l8.195 4.14v.928zm-15.435-1.56v.78h13.12v-.78h-13.12zm16.593-10.134c2.34 0 4.245 1.924 4.245 4.288s-1.904 4.288-4.245 4.288-4.245-1.924-4.245-4.288 1.904-4.288 4.245-4.288zm0 7.796c1.915 0 3.473-1.574 3.473-3.508s-1.558-3.508-3.473-3.508-3.473 1.574-3.473 3.508 1.558 3.508 3.473 3.508zm1.93 7.406v-6.236h.772v6.236c0 1.075-.866 1.95-1.93 1.95h-.386v-.78h.386c.638 0 1.158-.525 1.158-1.17zm-3.087 1.17h.772v.78h-.772v-.78z" class="C"/><path d="M288.53 86.463h.55v.442h-.55v.43h.55v.442h-.55v1.418h-.535l-.728-1.418h-.947v1.418h-.527v-1.418h-.532v-.442h.532v-.43h-.532v-.442h.532v-1.5h.527l.768 1.5h.915v-1.5h.527v1.5zm-2.2.872h.72l-.222-.43h-.498v.43zm1.217 0h.466v-.43h-.688l.222.43zm-1.217-.872h.27l-.27-.53v.53zm1.683 1.776v-.462h-.24l.24.462z"/><path d="M294.05 101.303h-1.366l.78-4.98h1.366l-.78 4.98zm3.663-3.584c.458 0 1.28.217 1.052 1.677l-.3 1.908h-1.345l.293-1.872c.093-.636-.036-.78-.315-.78-.122 0-.308.072-.444.16l-.386 2.493h-1.302l.544-3.498h1.216l.007.29c.336-.267.672-.376.98-.376zm3.455.918c-.365 0-.4.13-.4.18 0 .022-.014.137.25.2.787.253 1.36.405 1.188 1.25-.23.925-.966 1.106-1.83 1.106a2.95 2.95 0 0 1-1.202-.289l.143-.896a3.47 3.47 0 0 0 1.223.289c.25 0 .386-.065.408-.188.02-.137-.143-.173-.365-.238l-.372-.108c-.894-.318-.737-1.062-.737-1.135.08-.556.665-1.098 1.703-1.098.45 0 .91.145 1.202.29l-.143.89a2.72 2.72 0 0 0-1.066-.26zm2.168.03h-.508l.136-.86h.508l.114-.723 1.36-.397-.172 1.12h.65l-.136.86h-.65l-.23 1.453c-.014.087-.036.26.172.26h.465l-.143.954h-.572c-.98 0-1.374-.238-1.238-1.142l.243-1.525zm4.157 1.684l.1-.614-.25-.007c-.372 0-.537.282-.558.434-.014.108.03.332.28.332a.74.74 0 0 0 .429-.145zm.73 1.033c-.265 0-.53-.217-.587-.426-.286.31-.844.42-1.102.42-.644 0-1.13-.412-1.016-1.127.136-.81.952-1.163 1.58-1.163l.587.03c.05-.26-.086-.448-.508-.448-.25 0-.608.08-1.16.246l.143-.896c.522-.18.93-.296 1.5-.296.773 0 1.495.376 1.302 1.575l-.15.903c-.02.145.03.195.093.195s.13-.007.358-.087l-.13.817c-.23.108-.6.26-.923.26zm4.128-3.664c.458 0 1.28.217 1.052 1.677l-.3 1.908h-1.345l.293-1.872c.093-.636-.036-.78-.315-.78-.122 0-.308.072-.444.16l-.386 2.493h-1.302l.544-3.498h1.216l.007.29c.336-.267.672-.376.98-.376zm2.153.947h-.508l.136-.86h.508l.114-.723 1.36-.397-.172 1.12h.65l-.136.86h-.65l-.23 1.453c-.014.087-.036.26.172.26h.465l-.143.954h-.572c-.98 0-1.374-.238-1.238-1.142l.243-1.525zm4.264 2.638h-1.94l.78-4.98h1.94c1.26 0 2.304.853 2.04 2.5-.265 1.677-1.56 2.48-2.82 2.48zm-.4-1.09h.3c.866 0 1.38-.49 1.517-1.387.136-.89-.186-1.41-1.08-1.41h-.3l-.436 2.797zm4.98-1h.88c.057-.2.02-.556-.343-.556-.372 0-.515.347-.537.556zm.157 2.16c-1.023 0-1.738-.57-1.53-1.85.172-1.15 1.13-1.814 2.06-1.814 1.11 0 1.645.715 1.46 1.864l-.057.318h-2.16c-.02.246.143.556.672.556.258 0 .9-.094 1.21-.173l-.122.845c-.537.137-.966.246-1.53.253zm5.1-1.814c.08-.484-.15-.874-.558-.874a.91.91 0 0 0-.515.152l-.243 1.474c.122.08.286.123.43.123.48 0 .816-.44.887-.874zm1.238.03c-.172 1.135-1.102 1.785-1.896 1.785-.258 0-.587-.087-.78-.26l-.258 1.626h-1.302l.78-4.943h1.095l.02.354c.336-.318.708-.44 1.06-.44.45 0 1.53.332 1.28 1.88zm3.148-.058c.08-.5-.186-.845-.587-.845-.393 0-.765.376-.844.845-.086.513.18.867.58.867.393 0 .773-.34.85-.867zm-2.71.03c.207-1.315 1.388-1.872 2.282-1.85.91 0 1.924.44 1.696 1.828-.193 1.214-1.16 1.836-2.268 1.836-.887.022-1.917-.506-1.7-1.814zm6.267-.932c-.365 0-.4.13-.4.18 0 .022-.014.137.25.2.787.253 1.36.405 1.188 1.25-.23.925-.966 1.106-1.83 1.106a2.95 2.95 0 0 1-1.202-.289l.143-.896a3.47 3.47 0 0 0 1.223.289c.25 0 .386-.065.408-.188.02-.137-.143-.173-.365-.238l-.372-.108c-.894-.318-.737-1.062-.737-1.135.08-.556.665-1.098 1.703-1.098.45 0 .91.145 1.202.29l-.143.89a2.72 2.72 0 0 0-1.066-.26zm2.8 2.667h-1.288l.544-3.498h1.288l-.544 3.498zm-.615-4.53c.057-.34.222-.6.765-.6.55 0 .644.26.587.6s-.258.6-.773.6c-.522 0-.637-.26-.58-.6zm2.082 1.893h-.508l.136-.86h.508l.114-.723 1.36-.397-.172 1.12h.65l-.136.86h-.65l-.23 1.453c-.014.087-.036.26.172.26h.465l-.143.954h-.572c-.98 0-1.374-.238-1.238-1.142l.243-1.525zm-44.19-6.377c-.026.18-.187.562-.572.657.395.068.562.436.505.804-.125.767-.692 1.093-1.472 1.093h-1.597l.567-3.62h1.655c.35 0 1.056.2.916 1.067zm-1.795.394h.447c.203 0 .302-.163.338-.347.036-.19-.062-.33-.234-.33h-.447l-.104.678zm.48.7h-.588l-.11.678h.593c.16 0 .302-.12.338-.326.042-.263-.11-.352-.234-.352zm2.97.767l.073-.447-.182-.005c-.27 0-.4.205-.406.315-.01.08.02.242.203.242a.54.54 0 0 0 .312-.105zm.53.752c-.193 0-.385-.158-.427-.3-.208.226-.614.305-.8.305-.468 0-.822-.3-.74-.82.1-.59.692-.846 1.15-.846l.427.02c.036-.19-.062-.326-.37-.326-.182 0-.442.058-.843.18l.104-.652c.38-.13.676-.215 1.098-.215.562 0 1.087.273.947 1.146l-.11.657c-.016.105.02.142.068.142s.094-.005.26-.063l-.094.594c-.166.08-.437.19-.67.19zm3.002-2.665c.333 0 .93.158.765 1.22l-.22 1.387h-.978l.213-1.36c.068-.462-.026-.568-.23-.568-.088 0-.224.053-.323.116l-.28 1.813h-.947l.395-2.544h.885l.005.2a1.14 1.14 0 0 1 .713-.273zm3.772 2.607h-1.056c-.094-.22-.333-.636-.54-.862l-.13.862h-.942l.583-3.73h.942l-.286 1.824c.234-.168.49-.452.588-.636h1c-.317.42-.676.825-1.108 1.12a6.51 6.51 0 0 1 .952 1.424zm1.65-1.94c-.265 0-.29.095-.29.13 0 .016-.01.1.182.152.572.184.99.294.864.91-.166.673-.702.804-1.332.804-.317 0-.66-.105-.874-.2l.104-.652c.24.116.656.2.9.2.182 0 .28-.047.297-.137.016-.1-.104-.126-.265-.173l-.27-.08c-.65-.23-.536-.773-.536-.825.057-.405.484-.8 1.238-.8.328 0 .66.105.874.2l-.104.646c-.224-.1-.546-.19-.775-.19z" class="C"/></g></g></g><path d="M171.913 11.05H168.5v8.553h.72v-3.29h2.684c1.773 0 2.9-1.01 2.9-2.62s-1.126-2.643-2.9-2.643zm-.024 4.637h-2.66V11.7h2.66c1.462 0 2.18.72 2.18 1.994.024 1.25-.72 1.994-2.18 1.994zm14.763-2.138l-2.06 5.14-2.037-5.14h-.79l2.468 6.054-.503 1.25c-.192.456-.43.65-.79.65-.192 0-.288-.048-.43-.096l-.12.65c.192.072.36.12.575.12.67 0 1.078-.336 1.366-1.105l3.092-7.52h-.767zm-6.662 1.08c-.503-.65-1.246-1.057-2.11-1.057-1.606 0-2.924 1.417-2.924 3.147s1.318 3.147 2.924 3.147c.863 0 1.606-.408 2.11-1.057v.89h.695v-5.982h-.695v.913zm-2.11 4.54c-1.222 0-2.23-1.105-2.23-2.475s1.007-2.475 2.23-2.475 2.23 1.105 2.23 2.475-.983 2.475-2.23 2.475zm-15.074-8.625c-2.468 0-4.458 2.114-4.458 4.685 0 2.595 1.99 4.685 4.458 4.685 2.444 0 4.458-2.114 4.458-4.685s-2.013-4.685-4.458-4.685zm0 8.673c-2.06 0-3.763-1.778-3.763-3.988 0-2.186 1.678-3.988 3.763-3.988 2.06 0 3.763 1.778 3.763 3.988 0 2.186-1.702 3.988-3.763 3.988z" class="C"/><g ><path d="M148.314 19.32c-.682.582-1.5.924-2.403.924-1.752 0-3.254-1.313-3.89-3.182a8.57 8.57 0 0 1-.261-2.111c0-.456.035-.9.103-1.333.51-2.158 2.13-3.735 4.05-3.735 1.182 0 2.25.597 3.015 1.56.743.934 1.2 2.212 1.2 3.62 0 1.764-.717 3.32-1.813 4.257zM154 14.545c-.015-.323-.048-.64-.097-.95-.423-2.346-1.886-4.336-3.9-5.483l-.02-.01V8.1a8.03 8.03 0 0 0-3.97-1.042h-.034c-.008 0-.015 0-.023 0-.636 0-1.255.074-1.848.215l-.095.023a7.94 7.94 0 0 0-1.957.797l-.05.03C139.607 9.5 138 12.064 138 15v12.407h1.07a2.94 2.94 0 0 0 2.945-2.935v-2.588c.992.567 2.118.93 3.32 1.03l.158.012.168.01.047.002.127.004.134.002h.047l.174-.002.165-.006c1.74-.074 3.33-.693 4.608-1.69 1.22-.95 2.154-2.246 2.654-3.737.208-.66.338-1.362.377-2.096l.003-.216v-.38-.192-.08z"/><path d="M147.886 22.232c-2.765 0-5.1-2.18-5.86-5.174a8.57 8.57 0 0 1-.261-2.111 8.68 8.68 0 0 1 .103-1.333c.527-3.386 3.02-5.95 6.02-5.95.633 0 1.243.114 1.818.327.094.05.28.112.28.112V8.1a8.03 8.03 0 0 0-3.97-1.042h-.034c-.008 0-.015 0-.023 0-.636 0-1.255.074-1.848.215l-.095.023a7.94 7.94 0 0 0-1.957.797l-.05.03C139.607 9.5 138 12.064 138 15v12.407h1.07a2.94 2.94 0 0 0 2.945-2.935v-2.588c.992.567 2.118.93 3.32 1.03l.158.012.168.01.047.002.127.004.134.002h.047l.174-.002.165-.006c1.74-.074 3.33-.693 4.608-1.69-.904.627-1.956.987-3.08.987z"/></g><path d="M15.62 10.452c.208-.66.338-1.362.377-2.096L16 8.14l-.01-.38.01-.192v-.08a8.63 8.63 0 0 0-.097-.951c-.423-2.346-1.886-4.336-3.9-5.483l-.02-.01s-.185-.062-.28-.112C11.132.72 10.52.607 9.888.607c-3 0-5.493 2.565-6.02 5.95.51-2.158 2.13-3.735 4.05-3.735 1.182 0 2.25.597 3.015 1.56.743.934 1.2 2.212 1.2 3.62 0 1.764-.717 3.32-1.813 4.257-.682.582-1.5.924-2.403.924-1.752 0-3.254-1.313-3.89-3.182.76 2.994 3.097 5.174 5.86 5.174 1.122 0 2.174-.36 3.078-.987 1.22-.95 2.154-2.246 2.654-3.737z" transform="translate(138 7.058)"/></g></svg>