<svg height="17" viewBox="0 0 17 17" width="17" xmlns="http://www.w3.org/2000/svg"><g fill-rule="nonzero"><g transform="translate(1.5 1.828)"><path d="m9.81560311 1.32166768c.49160949.00777752.42363909.86343353-.19747747.86760618 1.46263936.01927552 1.44355866-2.12229709.03561073-2.16254083-1.45512762-.02598716-1.29198887-.0159478-2.87046811-.00511813-.95378765.08416213-1.89782894.53018194-2.34152306 1.29042294.87751613.01290112 4.17733422.01408443 5.37385791.00962984z"/><path d="m9.66830659.02672949c.73835891.01211936 1.10476011.6674285 1.03242881 1.25300802-.050569.40940283-.3213775.86298581-1.07775157.90953293l-7.14642079.00971192c-.79609411.01972472-1.79728235.35716275-2.47656285 1.29493476h9.24259652c1.39821629.04726868 2.22151249-1.12016655 2.22867919-2.04931464.0072476-.9396933-.7915331-1.41314078-1.3469132-1.41638732-.27749001-.00162202-.24682423-.00472674-.45605611-.00148567zm-5.9858356 4.33479381 10.19113561-.00161871c-.2055379.25780096-1.1409733 1.30880451-2.5429287 1.30950225l-5.49699671-.00647461c-1.44205252.00050164-1.87620574-.8965617-2.1512102-1.30140893z"/></g><path d="m8.13957564 11.2486761c-.15374716-.1632347-.24803529-.3835717-.24803529-.6278762 0-.514147.40107034-.91521738.9152174-.91521738.50465774 0 .91521739.40542768.91521739.91521738v.7652174l-.15.15h-.14117549c.04665275.1194374.15533583.2699581.36438696.4277325.07050102.0532083.15016968.1043066.23954499.1529185.3517151-.0366456.7062888-.0916691 1.0576626-.1612703.3782031-.0749157.6734137-.1496798.8512282-.2020333.2244481-.1256924.4832498-.1973474.7587875-.1973474.1050375 0 .2076429.0104129.3068402.0302628.0087814-.0016006.0178295-.0024367.0270729-.0024367 1.4633062 0 2.4525217.3723146 3.0479398.9997937.364917.3845664.5123813.7730779.5379111 1.0421233l-.1493292.16417h-1.0186957v.4930434h.8517392c.0828427 0 .15.0671573.15.15s-.0671573.15-.15.15h-2.0173913c-.0828427 0-.15-.0671573-.15-.15s.0671573-.15.15-.15h.8656521v-.4930434h-1.0520334c-.2520532.5188585-.7841111.8765217-1.3997057.8765217-.6190404 0-1.1536063-.3616785-1.403912-.8852499-.0822234.0091829-.1800883.0312996-.2753284.0727751-.2178147.0948548-.3411944.2600244-.3411944.5372574l-.15.15h-4.41039171-.00007976-2.96320891c-.18794023.080592-.39496198.1252174-.61240654.1252174-.82290437 0-1.49653392-.6391215-1.55158344-1.4480593l-.52997236-.1884346-.09974855-.1413322v-1.4747826c0-.0996568.09538574-.1716064.19120817-.1442286.0054397.0016415.02399173.0060001.04819843.0101959.08846893.0153346.18201802.0169116.26500497-.0030942.17553152-.0423157.27471887-.1707278.27471887-.461134l.15-.15h1.00173913l.15.15v.7436257c.03320575-.0021165.06669479-.0031909.10043478-.0031909.33941021 0 .65342604.1087263.90911823.2932496.35783238.0072336.86684706-.1696078 1.40568532-.708446.18096053-.1841434.38754849-.3358979.61395174-.4571254.5083892-.2722169 1.02325873-.3595245 1.40770037-.3521821l.00996565.0002589.14444826.1498972v.5704348l-.15.15h-.15304348c-.01894303 0-.0205867.0020905-.02718651.0520181-.00342322.0258967-.00416049.0503948-.0037963.0971707l.00011324.0208112-.00011324.0208112c-.00036419.0467758.00037308.0712739.0037963.0971706.00659981.0499276.00824348.0520182.02718651.0520182h.48695652l.15.15v.4760869h.52690152c-.01935336-.2694797.04161111-.5272264.15663216-.7640939.02895977-.0596381.05810606-.1116626.08537117-.1554212zm.24015906.1824756c-.01771478.0299725-.03662859.064788-.05566484.1039901-.0963813.1984819-.14540958.4123686-.12541313.6330494h.00979717.00007971.87648501c.15453235 0 .31078062-.0044728.46818332-.0130662-.26347314-.2151871-.39267198-.4355817-.43499696-.6191077h-.31144723c-.15412215 0-.29946789-.0378137-.42702305-.1048656zm-4.63226235.6926441c.2209598.2685674.35363322.6125094.35363322.9874389 0 .4450897-.18697335.8465094-.48666094 1.13h1.4571376l1.99908856-1.9990886v-.4000418h-.33695652c-.19786716 0-.30052264-.1305634-.32459934-.312704-.0057957-.0438445-.00684292-.0786416-.00637438-.1388205l.00010415-.0184755-.00010415-.0184755c-.00046854-.0601789.00057868-.0949761.00637438-.1388206.0240767-.1821405.12673218-.3127039.32459934-.3127039h.00304348v-.2685542c-.32066609.0151865-.72491694.1028024-1.12050223.3146185-.20046029.1073364-.38257437.2411129-.54251349.403858-.47285465.4728608-.93762902.7003762-1.32626968.7717692zm3.52141743.3443954-1.77304348 1.7730435h.56385569l1.7849431-1.7730435zm1.00144546 0-1.7849431 1.7730435h.57575531l1.77304348-1.7730435zm.98993503-.0018153-1.77485875 1.7748588h2.90641908c.0438878-.3216057.2317678-.5404633.5115589-.6623078.1000862-.043586.1996132-.0707921.290934-.0862086-.0307805-.1220621-.047131-.2498634-.047131-.3814836 0-.3463412.1132122-.6662403.3046484-.9247092-.0935279.0207514-.1941494.0419588-.3011544.0631546-.6298203.1247568-1.27020922.2039511-1.89041623.2166958zm2.80293473-.4356416c-.3687811.2186351-.6160125.6206957-.6160125 1.0805004 0 .1607107.0302028.3143672.0851864.4555057.0012856.0029715.002477.0059922.0035505.0089656.1846436.4633108.6373238.7907461 1.1664805.7907461.6932374 0 1.2552174-.56198 1.2552174-1.2552174s-.56198-1.2552174-1.2552174-1.2552174c-.2098677 0-.4077058.0515049-.5815638.142564-.0158051.0141938-.0348908.0252389-.0565571.0318237zm-2.64197621-1.4408039h-.36403626c-.08770769 0-.15608696.0619687-.15608696.1282608 0 .0662922.06837927.1282609.15608696.1282609h.36478261v-.2256522c0-.0103566-.00025072-.0206483-.00074635-.0308695zm-.09472057-.3c-.10910779-.1717443-.30109606-.2843479-.51975047-.2843479-.34846164 0-.6152174.2667558-.6152174.6152174 0 .3432538.27540624.6152174.6152174.6152174h.61521739v-.0895652h-.36478261c-.24716488 0-.45608696-.1893356-.45608696-.4282609 0-.2389252.20892208-.4282608.45608696-.4282608zm-6.93062004 3.3470026v-.3756983h-.37569832c.05039459.1837222.19197609.3253037.37569832.3756983zm.3 0c.18372223-.0503946.32530374-.1919761.37569832-.3756983h-.37569832zm0-1.0513966v.3756983h.37569832c-.05039458-.1837222-.19197609-.3253037-.37569832-.3756983zm-.3 0c-.18372223.0503946-.32530373.1919761-.37569832.3756983h.37569832zm.60382675 1.6963645c.02455927-.023077.05689552-.0379728.092657-.0403357.41946941-.2031761.70873364-.6329727.70873364-1.1303305 0-.6932374-.56197997-1.2552174-1.25521739-1.2552174-.06359364 0-.12608273.0047292-.18713477.013855-.01923233.0089649-.04068154.0139711-.06330001.0139711-.00389468 0-.00775469-.0001484-.01157468-.00044-.56643445.1202819-.99165488.6226116-.99320369 1.2245317.00004873.0021961.00004896.0043979.00000002.0066039.00178236.691718.56307746 1.2519131 1.25521313 1.2519131.16003723 0 .31307923-.0299502.45382675-.0845512zm-.85426153-2.6738456v-.6424728h-.71038301c-.04069284.3367506-.2227006.5369504-.49576769.6027791-.09094056.0219232-.18379701.0272332-.27471887.0207837v1.1936146l.33982857.120828c.0836804-.6271756.54114655-1.1361389 1.141041-1.2955326zm10.4069565 2.0248632v-.3716838h-.3617853c.049115.1790571.1848448.3180864.3617853.3716838zm.3.0076361c.1904705-.0469354.3379519-.1909863.3896114-.3793199h-.3896114zm0-1.0586398v.3793199h.3896114c-.0516595-.1883336-.1991409-.3323845-.3896114-.3793199zm-.3.0076361c-.1769405.0535974-.3126703.1926267-.3617853.3716838h.3617853zm.1402152 1.3670219c-.4611321-.012241-.8219543-.3808578-.8219543-.8453381s.3608222-.8330972.8219543-.8453381c.0032347-.0002083.0064974-.0003141.0097848-.0003141l.0040682.0000541c.0032768-.000036.0065584-.0000541.0098449-.0000541.4724079 0 .8456521.3732443.8456521.8456522s-.3732442.8456522-.8456521.8456522c-.0032865 0-.0065681-.0000181-.0098449-.0000541l-.0040682.0000541c-.0032874 0-.0065501-.0001058-.0097848-.0003141zm1.5185715-.4666424h2.0801593c-.0560707-.1966241-.1848853-.4470534-.4247119-.6997937-.4454203-.4694045-1.1506882-.7853829-2.1738405-.8780491.3449924.2852576.5648238.7165301.5648238 1.1991471 0 .1306184-.0161025.2574759-.0464307.3786957zm-12.51096059-.3786957c0-.4724079.37324424-.8456522.84565217-.8456522s.84565217.3732443.84565217.8456522-.37324424.8456522-.84565217.8456522-.84565217-.3732443-.84565217-.8456522z"/></g></svg>