<svg height="17" viewBox="0 0 17 17" width="17" xmlns="http://www.w3.org/2000/svg"><g><path d="m16.532 5.8c-1.3000969-3.79073943-5.0969349-6.13518062-9.06846187-5.59952136s-7.01158097 3.80222551-7.26094021 7.80194766c-.24935924 3.9997222 2.36142859 7.6185853 6.23567027 8.6433822 3.87424171 1.024797 7.93287141-.8299018 9.69373181-4.4298085.9787839-2.001028 1.122666-4.30889657.4-6.416zm.052 2.55-2.2-1.678.89-2.55c.8258475 1.25821239 1.281183 2.72332542 1.314 4.228zm-5.73-7.51-2.222 1.644-2.316-1.648c1.48089454-.43982455 3.05788313-.43843452 4.538.004zm-9.454 4.142c.14015975-.28440385.29710327-.56022373.47-.826l.874 2.506-2.16 1.646c.02803472-1.15466349.30644829-2.28947176.816-3.326zm.68 8.188 2.676.132.7 2.566c-.132-.056-.264-.116-.4-.18-1.18555503-.5794115-2.20828589-1.4447463-2.976-2.518zm9.448 2.774.722-2.642 2.84-.14c-.8918306 1.2537057-2.1295973 2.2204286-3.562 2.782zm3.802-3.144c-.0380008-.0335539-.0873256-.0514252-.138-.05l-3.106.152h-.01c-.0135926.0030784-.0269575.0070878-.04.012h-.034c-.0108458.0068813-.0209057.0149293-.03.024-.0104775.0073841-.020496.015399-.03.024l-.018.03c-.0071887.0120686-.0132158.0247924-.018.038l-.836 3.078c-1.67567032.5526345-3.48765968.5315239-5.15-.06l-.816-3c-.00478423-.0132076-.01081126-.0259314-.018-.038l-.018-.03c-.00909427-.0090707-.01915419-.0171187-.03-.024-.00909427-.0090707-.01915419-.0171187-.03-.024h-.032c-.01431863-.0051814-.0290334-.0091945-.044-.012l-3.106-.152c-.74249472-1.1877789-1.16295202-2.5484063-1.22-3.948l2.518-1.918.028-.032.02-.028c.00489205-.011684.00890324-.02371757.012-.036.00114839-.01264064.00114839-.02535936 0-.038.001981-.01124677.001981-.02275323 0-.034.00096826-.01398326.00096826-.02801674 0-.042v-.01l-1.02-2.918c.93002864-1.27295098 2.21811632-2.24006113 3.7-2.778.01419444.02255562.03251444.04223266.054.058l2.6 1.85.02.01h.018c.02425037.01222187.05086068.01904503.078.02.02776644-.00103713.05501214-.00784855.08-.02l.018-.01h.022l2.498-1.85c.02017-.01440737.0371844-.03278298.05-.054 1.4720648.52871595 2.7574522 1.47624592 3.698 2.726-.0009162.0046217-.0009162.0093783 0 .014l-1.044 2.936c-.0009445.00326643-.0009445.00673357 0 .01-.0009683.01398326-.0009683.02801674 0 .042v.034c-.0011484.01264064-.0011484.02535936 0 .038.0030968.01228243.0071079.024316.012.036.0067045.00981074.014054.01916471.022.028.0076496.01203007.0170918.02282117.028.032l2.54 1.934h.018c-.045859 1.11166541-.3230966 2.2015428-.814 3.2-.1300895.2674647-.2742926.5278314-.432.78z"/><path d="m5.448 12.164-.374.356c-.03786253.0375533-.05915966.0886725-.05915966.142s.02129713.1044467.05915966.142c.03804077.0399068.09086797.0623403.146.062.05149391-.0002051.1009245-.0202639.138-.056l.374-.356c.08008128-.0762153.08321528-.2029187.00699999-.283s-.2029187-.0832153-.28299999-.007zm6.182.11c-.0745584-.0817381-.2012619-.0875584-.283-.013s-.0875584.2012619-.013.283l.28.306c.0378118.0418959.0915644.0658666.148.066.0495672-.0001294.0973203-.0186605.134-.052.0809615-.0746626.086326-.2007294.012-.282zm-3.072-7.758c.11045695 0 .2-.08954305.2-.2v-1c0-.11045695-.08954305-.2-.2-.2s-.2.08954305-.2.2v1c0 .0530433.02107137.10391408.05857864.14142136.03750728.03750727.08837806.05857864.14142136.05857864zm3.41 2.828-.8.358-2.41-1.702v-.68c0-.11045695-.08954305-.2-.2-.2s-.2.08954305-.2.2v.646l-2.358 1.738-.82-.328c-.06749628-.0340376-.14841609-.02711169-.20914649.01790079s-.09089314.12041933-.07795905.19489761c.0129341.07447828.06675472.13530036.13910554.1572016l.842.336.93 2.8-.632.6c-.07754472.0780075-.07754472.2039925 0 .282.03756177.0394031.08956248.0617922.144.062.05121754.0003345.10061149-.0189936.138-.054l.666-.634h2.926l.614.662c.0378118.0418959.0915644.0658666.148.066.0495672-.0001294.0973203-.0186605.134-.052.0815494-.0740954.0878095-.2001917.014-.282l-.6-.654.936-2.8.834-.368c.1010681-.04473506.1467351-.16293189.102-.264s-.1629319-.14673506-.264-.102zm-1.968 3.388h-2.822l-.908-2.732 2.266-1.678 2.362 1.678zm3.58-4.1-.698.308c-.0989035.04464497-.1441634.16001339-.102.26.0319106.07311775.1042227.1202778.184.12.0276237-.00041026.0548627-.00653906.08-.018l.698-.302c.1000054-.04467031.1454771-.16147009.102-.262-.020703-.04927453-.0602672-.08821263-.1098656-.10812716-.0495985-.01991453-.1051044-.01914851-.1541344.00212716zm-9.33.368-.814-.32c-.0664514-.02643766-.14195935-.01541566-.19808073.02891411-.05612139.04432978-.08433003.11523258-.07400001.18600001.01033003.07076743.05762934.13064823.12408074.15708588l.814.324c.0493262.01967584.10445257.01892619.15322549-.00208369.04877292-.02100987.08718749-.06055477.10677451-.10991631.02094317-.04978891.02085733-.10593198-.00023797-.15565662s-.06140623-.08880251-.11176203-.10834338zm-1.178-2.948c-.09343521-.05738341-.21565261-.02883628-.274.064l-.06.098c-.02687479.04586173-.03438707.10053537-.02087771.15194597.01350935.0514106.04692888.09532843.09287771.12205403.03087114.01831786.06610333.02798944.102.028.07102221-.00042869.13648954-.03849109.172-.1l.054-.088c.02802699-.04530544.0368205-.09992042.02443045-.15173337-.01239006-.05181295-.04493963-.09654154-.09043045-.12426663zm1.15-1.432c-.28021567.20245865-.54251403.42862407-.784.676-.03786253.03755332-.05915966.08867249-.05915966.142s.02129713.10444668.05915966.142c.07800749.07754472.20399251.07754472.282 0 .22537392-.22995258.46955557-.44068469.73-.63.08842365-.06491925.10805404-.18894759.044-.278-.06206397-.08745091-.18205462-.1103903-.272-.052zm.978-.16c.03222802.00010551.06393046-.00816469.092-.024.2846814-.15108745.58176416-.27754836.888-.378.10603867-.03203252.16603252-.14396133.134-.25s-.14396133-.16603252-.25-.134c-.32913924.10677653-.64889361.24056497-.956.4-.094247.03550803-.14738815.13555736-.12403784.23352715.02335031.0979698.11590674.16329327.21603784.15247285zm7.116-.336c-.2994282-.17691297-.6140015-.32683725-.94-.448-.1029652-.03123067-.2121859.02459775-.2471787.12634595s.0167849.21294644.1171787.25165405c.3006975.11358883.5910956.25276582.868.416.0302866.01797532.0647828.02763425.1.028.0710222-.00042869.1364895-.03849109.172-.1.0563153-.09499552.0249786-.21765621-.07-.274zm.844.6c-.0543044-.04680179-.1294521-.0610774-.1971359-.03744933-.0676837.02362807-.1176206.08157014-.131.152-.0133793.07042986.0118315.14264754.0661359.18944933.2418182.20559819.4568366.44077459.64.7.0377444.05301448.0989227.08434968.164.084.040569.00049202.0803282-.011366.114-.034.0440077-.03030567.0740587-.07696102.0834518-.12956219.009393-.05260116-.002653-.10677382-.0334518-.15043781-.2029544-.28577265-.4400419-.54569584-.706-.774zm2.084 8.108c-.1038273-.0375076-.2184093.0162027-.256.12-.1112432.3061793-.2408107.6053867-.388.896-.0493849.0983307-.0100626.2180849.088.268.028011.0138792.0587449.021392.09.022.0760314.0005291.1457869-.0420992.18-.11.151169-.3054402.284721-.6192874.4-.94.0381288-.1021417-.0125751-.2160033-.114-.256zm.31-1.966c-.1104569 0-.2.08954305-.2.2v.028c-.0067687.30818559-.0436101.61497417-.11.916-.0130482.0531448-.0037503.109315.025727.1554204.0294773.0461055.076559.0781189.130273.0885796h.04c.0965522.0019471.1807053-.0653754.2-.16.0720569-.32865289.1115809-.66360185.118-1v-.044c-.0084562-.1057217-.0979692-.18645884-.204-.184zm-8.142 6.426c-.31486016-.0601189-.62399062-.1471037-.924-.26-.06684192-.0339294-.14704487-.027633-.20777326.0163114-.0607284.0439443-.09178512.1181578-.08045535.1922569s.06314361.1356416.13422861.1594317c.3236078.1260606.65843961.2211528 1 .284.01326046.0019715.02673954.0019715.04 0 .11045694.0104934.20850657-.0705431.21899998-.181s-.07054304-.2085066-.18099998-.219zm2.96-.306-.138.066c-.0854836.0389449-.1323438.1321331-.1126285.2239778.0197154.0918448.1006925.1575915.1946285.1580222.0281549.0004988.0560978-.0049535.082-.016l.152-.074c.0988162-.0491906.1390967-.1691371.09-.268-.0491906-.0988162-.1691371-.1390967-.268-.09zm-1.046.344c-.27194723.0486957-.5477285.0727931-.824.072h-.136c-.11045695 0-.2.0895431-.2.2s.08954305.2.2.2h.132c.30230138-.0011216.60399365-.0272103.902-.078.07145312-.0125043.13080757-.0621785.15570509-.1303109s.0115556-.1443719-.035-.2-.11925197-.0821934-.19070509-.0696891zm-7.02-4.688c-.05138351-.0977291-.17224261-.1353298-.27-.084-.0474645.0246723-.08306697.0673308-.09885159.1184429s-.01043566.1064173.01485159.1535571c.15099255.2828523.34232936.5422349.568.77.04490583.0666308.12532722.0999184.20418768.0845163.07886046-.015402.140847-.0765031.15738211-.1551338.0165351-.0786306-.01559199-.1595227-.08156979-.2053825-.19750698-.2016362-.36398805-.4314744-.494-.682zm-.342-.89c-.08254615-.30801887-.1334761-.62365058-.152-.942-.00214359-.07145312-.04224414-.13633493-.10519615-.17020509-.06295201-.03387015-.13919159-.03158297-.20000001.006s-.09694744.10475197-.09480384.17620509c.01821081.34895265.07386357.69493848.166 1.032.02335321.09063999.10644671.1529601.2.15.01721126.0029092.03478874.0029092.052 0 .05147214-.01522282.09466502-.05049646.11986573-.09788886.02520072-.04739239.03029392-.10292539.01413427-.15411114z"/></g></svg>