<svg width="35" height="35" viewBox="0 0 35 35" xmlns="http://www.w3.org/2000/svg">
<path d="M27.4432 8.62305H7.62311C3.44697 8.62305 0 13.0643 0 18.4999C0 23.9355 3.44697 28.3768 7.62311 28.3768C10.2746 28.3768 12.7936 26.5871 14.1193 23.6704H20.8807C22.2727 26.5871 24.7254 28.3768 27.3769 28.3768C31.553 28.3768 35 23.9355 35 18.4999C35 13.0643 31.6193 8.62305 27.4432 8.62305ZM27.4432 27.0511C25.1894 27.0511 23.0682 25.3939 21.9413 22.7424C21.8087 22.4772 21.6098 22.3446 21.3447 22.3446H13.7216C13.4564 22.3446 13.1913 22.4772 13.125 22.7424C11.9981 25.3939 9.87689 27.0511 7.62311 27.0511C4.17614 27.0511 1.32576 23.2064 1.32576 18.4999C1.32576 13.7935 4.17614 9.9488 7.62311 9.9488H27.4432C30.8902 9.9488 33.7405 13.7935 33.7405 18.4999C33.7405 23.2064 30.8902 27.0511 27.4432 27.0511Z"/>
<path d="M11.4015 16.3126H8.1534V13.0645C8.1534 12.6668 7.88825 12.4016 7.49052 12.4016C7.09279 12.4016 6.82764 12.6668 6.82764 13.0645V16.3126H3.57954C3.18181 16.3126 2.91666 16.5778 2.91666 16.9755C2.91666 17.3732 3.18181 17.6384 3.57954 17.6384H6.82764V20.8865C6.82764 21.2842 7.09279 21.5494 7.49052 21.5494C7.88825 21.5494 8.1534 21.2842 8.1534 20.8865V17.6384H11.4015C11.7992 17.6384 12.0644 17.3732 12.0644 16.9755C12.0644 16.5778 11.7992 16.3126 11.4015 16.3126Z"/>
<path d="M26.3163 11.1421C25.1894 11.1421 24.3277 12.0038 24.3277 13.1307C24.3277 14.2576 25.1894 15.1194 26.3163 15.1194C27.4432 15.1194 28.3049 14.2576 28.3049 13.1307C28.3049 12.0038 27.4432 11.1421 26.3163 11.1421ZM26.3163 13.7936C25.9186 13.7936 25.6534 13.5285 25.6534 13.1307C25.6534 12.733 25.9186 12.4678 26.3163 12.4678C26.714 12.4678 26.9792 12.733 26.9792 13.1307C26.9792 13.5285 26.714 13.7936 26.3163 13.7936Z"/>
<path d="M26.3163 18.699C25.1894 18.699 24.3277 19.5607 24.3277 20.6876C24.3277 21.8145 25.1894 22.6762 26.3163 22.6762C27.4432 22.6762 28.3049 21.8145 28.3049 20.6876C28.3049 19.5607 27.3769 18.699 26.3163 18.699ZM26.3163 21.3505C25.9186 21.3505 25.6534 21.0853 25.6534 20.6876C25.6534 20.2899 25.9186 20.0247 26.3163 20.0247C26.714 20.0247 26.9792 20.2899 26.9792 20.6876C26.9792 21.0853 26.6477 21.3505 26.3163 21.3505Z"/>
<path d="M22.8693 14.9204C21.7424 14.9204 20.8807 15.7822 20.8807 16.9091C20.8807 18.036 21.7424 18.8977 22.8693 18.8977C23.9962 18.8977 24.858 18.036 24.858 16.9091C24.858 15.7822 23.9299 14.9204 22.8693 14.9204ZM22.8693 17.5719C22.4716 17.5719 22.2064 17.3068 22.2064 16.9091C22.2064 16.5113 22.4716 16.2462 22.8693 16.2462C23.267 16.2462 23.5322 16.5113 23.5322 16.9091C23.5322 17.3068 23.2007 17.5719 22.8693 17.5719Z"/>
<path d="M29.7633 14.9204C28.6364 14.9204 27.7746 15.7822 27.7746 16.9091C27.7746 18.036 28.6364 18.8977 29.7633 18.8977C30.8901 18.8977 31.7519 18.036 31.7519 16.9091C31.7519 15.7822 30.8901 14.9204 29.7633 14.9204ZM29.7633 17.5719C29.3655 17.5719 29.1004 17.3068 29.1004 16.9091C29.1004 16.5113 29.3655 16.2462 29.7633 16.2462C30.161 16.2462 30.4261 16.5113 30.4261 16.9091C30.4261 17.3068 30.161 17.5719 29.7633 17.5719Z"/>
<path d="M16.4394 19.428H14.8485C14.4508 19.428 14.1856 19.6931 14.1856 20.0909C14.1856 20.4886 14.4508 20.7538 14.8485 20.7538H16.4394C16.8371 20.7538 17.1023 20.4886 17.1023 20.0909C17.1023 19.6931 16.7708 19.428 16.4394 19.428Z"/>
<path d="M20.2178 19.428H18.6269C18.2292 19.428 17.964 19.6931 17.964 20.0909C17.964 20.4886 18.2292 20.7538 18.6269 20.7538H20.2178C20.6155 20.7538 20.8807 20.4886 20.8807 20.0909C20.8807 19.6931 20.5492 19.428 20.2178 19.428Z"/>
</svg>
