<svg xmlns="http://www.w3.org/2000/svg" width="28" height="20" viewBox="0 0 28 20">
  <g fill="none" fill-rule="evenodd">
    <rect width="28" height="20"/>
    <path d="M11.0781215,9.89843738 C10.7499961,9.17968652 10.4999958,8.22656039 10.4999958,6.99999642 L8.49999344,6.99999642 L8.49999344,7.74999732 C8.49999344,8.51562323 9.53905718,9.5781245 11.0781215,9.89843738 Z M19.5000066,7.74999732 L19.5000066,6.99999642 L17.5000042,6.99999642 C17.5000042,8.22656039 17.2500039,9.17968652 16.9218785,9.89843738 C18.4609428,9.5781245 19.5000066,8.51562323 19.5000066,7.74999732 Z M20.5000077,6.74999613 L20.5000077,7.74999732 C20.5000077,9.23437409 18.7031306,10.875001 16.2656277,10.9921887 C15.9531273,11.3906267 15.6640645,11.6250019 15.5234393,11.7343771 C15.1093763,12.1093775 15.0000012,12.500003 15.0000012,13.0000036 C15.0000012,13.5000042 15.2500015,14.0000048 16.0000024,14.0000048 C16.7500033,14.0000048 17.5000042,14.5000054 17.5000042,15.2500063 L17.5000042,15.7500069 C17.5000042,15.890632 17.390629,16.0000072 17.2500039,16.0000072 L10.7499961,16.0000072 C10.609371,16.0000072 10.4999958,15.890632 10.4999958,15.7500069 L10.4999958,15.2500063 C10.4999958,14.5000054 11.2499967,14.0000048 11.9999976,14.0000048 C12.7499985,14.0000048 12.9999988,13.5000042 12.9999988,13.0000036 C12.9999988,12.500003 12.8906237,12.1093775 12.4765607,11.7343771 C12.3359355,11.6250019 12.0468727,11.3906267 11.7343723,10.9921887 C9.29686939,10.875001 7.49999225,9.23437409 7.49999225,7.74999732 L7.49999225,6.74999613 C7.49999225,6.33593313 7.83593015,5.99999523 8.24999315,5.99999523 L10.4999958,5.99999523 L10.4999958,5.24999434 C10.4999958,4.56249352 11.0624965,3.99999285 11.7499973,3.99999285 L16.2500027,3.99999285 C16.9375035,3.99999285 17.5000042,4.56249352 17.5000042,5.24999434 L17.5000042,5.99999523 L19.7500069,5.99999523 C20.1640698,5.99999523 20.5000077,6.33593313 20.5000077,6.74999613 Z"/>
  </g>
</svg>
