<svg xmlns="http://www.w3.org/2000/svg" width="28" height="20" viewBox="0 0 28 20">
  <g fill="none" fill-rule="evenodd">
    <rect width="28" height="20" fill="#FFF"/>
    <path fill="#FF2B37" d="M12,8 L12,0 L16,0 L16,8 L28,8 L28,12 L16,12 L16,20 L12,20 L12,12 L2.12792746e-16,12 L1.11022302e-16,8 L12,8 Z"/>
    <path fill="#FD0D1B" d="M21.6 3.6L21.3333333 2 22.6666667 2 22.4 3.6 24 3.33333333 24 4.66666667 22.4 4.4 22.6666667 6 21.3333333 6 21.6 4.4 20 4.66666667 20 3.33333333 21.6 3.6zM5.6 3.6L5.33333333 2 6.66666667 2 6.4 3.6 8 3.33333333 8 4.66666667 6.4 4.4 6.66666667 6 5.33333333 6 5.6 4.4 4 4.66666667 4 3.33333333 5.6 3.6zM5.6 15.6L5.33333333 14 6.66666667 14 6.4 15.6 8 15.3333333 8 16.6666667 6.4 16.4 6.66666667 18 5.33333333 18 5.6 16.4 4 16.6666667 4 15.3333333 5.6 15.6zM21.6 15.6L21.3333333 14 22.6666667 14 22.4 15.6 24 15.3333333 24 16.6666667 22.4 16.4 22.6666667 18 21.3333333 18 21.6 16.4 20 16.6666667 20 15.3333333 21.6 15.6z"/>
  </g>
</svg>
