<svg xmlns="http://www.w3.org/2000/svg" xmlns:xlink="http://www.w3.org/1999/xlink" width="17" height="17"><defs><path id="A" d="M.026.018h1.57V1.54H.026z"/><path id="B" d="M0 .013h14.234v4.68H0z"/><path id="C" d="M9.3 2.263c-.06 0-.12-.025-.166-.074-.09-.098-.09-.258 0-.356l.623-.67c.09-.098.24-.098.33 0s.09.258 0 .356l-.623.67c-.046.05-.106.074-.166.074"/></defs><g fill-rule="evenodd"><g transform="matrix(.978148 .207912 -.207912 .978148 .856658 6.237185)"><g transform="translate(6.791 .033)"><mask id="D"><use xlink:href="#A"/></mask><path d="M.07 1.54c.29 0 .663-.206.832-.458l.14-.21C1.164.69 1.385.59 1.597.6L.552.058C.356-.043.026.016.026.58v.96H.07z" mask="url(#D)"/></g><path d="M8.518.694c-.26-.135-.61-.04-.78.213l-.14.21c-.17.252-.543.458-.832.458h-2.88a1.07 1.07 0 0 1-.812-.473l-.11-.18a1.07 1.07 0 0 0-.812-.473H.63c-.3 0-.525.253-.525.564 0 .202.1.38.25.48C.133 2.007 0 2.673 0 3.402c0 1.21.367 2.25.893 2.707v.426c0 .3.236.564.525.564h.487l.16.522c.027.088.12.16.207.16h.444c.087 0 .18-.072.207-.16l.16-.522h.825l.16.522c.027.088.12.16.207.16h.444c.087 0 .18-.072.207-.16l.16-.522H9.36l.16.522c.027.088.12.16.207.16h.444c.087 0 .18-.072.207-.16l.16-.522h1.088l.16.522c.027.088.12.16.207.16h.444c.087 0 .18-.072.207-.16l.16-.522h1.088l.16.522c.027.088.12.16.207.16h.444c.087 0 .18-.072.207-.16l.16-.522h.382c.29 0 .525-.254.525-.564V5.13c0-.3-.213-.675-.473-.8L8.518.694z"/><path d="M.254 1.408c.03.032.062.06.094.1-.028-.04-.06-.064-.094-.1m.08 3.8l-.022-.06H.3l.024.06"/><g transform="translate(0 .435)"><mask id="E"><use xlink:href="#B"/></mask><path d="M8.518.258c-.26-.135-.61-.04-.78.213l-.14.21c-.17.252-.543.458-.832.458h-2.88a1.07 1.07 0 0 1-.812-.473l-.11-.18a1.07 1.07 0 0 0-.812-.473h-.177C1.907 1.1 1.092 1.967.077 2.03A5.65 5.65 0 0 0 0 2.967c0 .645.105 1.24.282 1.727h11.276c1.1 0 2.075-.578 2.677-1.466L8.518.258z" mask="url(#E)"/></g><path d="M14.27 3.68L8.518.694c-.26-.135-.61-.04-.78.213l-.088.13 6.15 3.194a3.5 3.5 0 0 0 .469-.551"/><g><path d="M2.294 5.2L3.73 1.554c-.165-.037-.337-.127-.474-.245L1.724 5.2h.57zm1.338 0l1.43-3.626h-.57L3.06 5.2zM8.4 1.808c-.06 0-.12-.025-.166-.074a.27.27 0 0 1 0-.356L8.86.7c.1-.098.24-.098.33 0a.27.27 0 0 1 0 .356l-.623.67c-.046.05-.106.074-.166.074"/><use xlink:href="#C"/><path d="M10.198 2.717c-.06 0-.12-.025-.166-.074a.27.27 0 0 1 0-.356l.623-.67c.1-.098.24-.098.33 0a.27.27 0 0 1 0 .356l-.623.67c-.046.05-.106.074-.166.074m.9.455c-.06 0-.12-.025-.166-.074a.27.27 0 0 1 0-.356l.623-.67c.1-.098.24-.098.33 0a.27.27 0 0 1 0 .356l-.624.67c-.046.05-.106.074-.166.074"/><use xlink:href="#C" x="2.695" y="1.364"/></g><path d="M15.972 5.834c-.001-.014-.002-.705-.002-.705 0-.3-.213-.675-.473-.8l-1.263-.656c-.602.888-1.576 1.466-2.677 1.466H.28c.1.274.222.512.363.705h15.328z"/><path d="M15.97 6.353v-.52H.644a1.56 1.56 0 0 0 .25.276.95.95 0 0 0 .525.244h14.55zM2.047.448H.63c-.3 0-.525.253-.525.564 0 .202.1.38.25.48-.13.3-.227.653-.288 1.04 1.07-.022 1.938-.94 1.98-2.083"/></g><g fill-rule="nonzero"><circle cx="12.665" cy="4.322" r="4.322"/><path d="M13.2 3.248c1.09-.347 2.346-.43 2.346-.43s.766-.215-.192-.144-2.215.42-2.215.42-1.006.503.06.156zm-2.98-.084s-.587-.215-1.305-.168c-.12.048-.012.132-.012.132s1.16.048 1.317.287c.168.204 0-.25 0-.25zm1.568-1.1c-.012-.144.036-1.15.287-1.544.25-.37-.132-.048-.132-.048s-.347.635-.287 1.604c.144.12.132.132.132-.012zm-1.137 2.91s-.443.85-.43 1.784c.072.323.144.036.144.036s.024-.97.443-1.724c.395-.682-.156-.096-.156-.096zm2.13-.024c-.42-.826-.192.048-.192.048s.67 1.16 1.664 1.64c.192-.024.12-.096.12-.096s-1.185-.766-1.592-1.592zm3.244-.958c.072.3-.18 1.58-.587 2.06.12.06.12.072.12.072s.61-.8.61-2c-.024-.455-.156-.168-.144-.132zm-2.37 3.855s-1.257.192-2.19-.108c-.12.048-.072.132-.072.132s1.16.36 2.406.048c.42-.168-.144-.072-.144-.072zM8.617 3.87s-.024-.215-.072.12c-.084 1.724.802 2.526.802 2.526s.25.156.156-.024c-.946-.802-.886-2.622-.886-2.622zm6.477-2.155s.42.335.12-.048C14.567.627 13.657.28 13.56.267c-.108-.024-.42-.048-.3.024 1.15.25 1.832 1.425 1.832 1.425z"/><path d="M14.938 2.89a10.85 10.85 0 0 0-1.413.287c-.072.024-.096.06-.144.204l-.515 1.592c-.036.12.024.06.06-.036l.55-1.508c.06-.144.168-.18.42-.227l1.03-.227c.096-.024.096-.096.012-.084z"/><path d="M13.462 2.96c-.426-.36-1.448-.898-1.594-.958-.1-.036-.122-.06-.23 0-.596.263-1.424.934-1.545 1.042-.122.12-.1.072-.073.25.1.61.487 1.52.56 1.664s.073.168.195.18a25.18 25.18 0 0 0 1.898.024c.207-.024.17-.036.22-.168.06-.215.584-1.712.62-1.796s.06-.132-.05-.24zm-1.85 4.813c-.596-.323-1.18-1.054-1.217-1.113s-.06-.096-.22-.12c-.146-.012-.694-.132-.754-.144-.06-.024-.122-.12-.134.06-.012.096.012.227.037.347.34.54 1.12 1.125 1.69 1.305.292-.024.487-.144.56-.204.097-.048.134-.072.037-.132zM9.24 1.86c-.462.49-.84 1.556-.78 2.37.073-.024.146-.012.146-.072.024-.323.33-.898.39-.994s.06-.108.06-.18c-.012-.215.195-1.018.23-1.113.024-.024 0-.024-.05-.012zm6.388 4.058c-.183.132-1.046.48-1.24.515-.17.036-.17.012-.22.204-.122.43-.475 1.054-.584 1.15-.097.108-.1.144-.05.192.05.048.22.168.51.192.06 0 .146 0 .23-.012.608-.168 1.363-.742 1.667-1.185.05-.42-.097-.898-.146-.97-.024-.096-.05-.144-.17-.084zM11.905.662c.134.012.122-.024.316-.072.183-.036.718-.215 1.338-.227.134-.012.183-.036 0-.168-.146-.072-.584-.12-.864-.12-.78 0-1.704.3-2.093.587.122-.012.925-.06 1.302 0zm3.967.826c-.1.048-.487.06-.596.06s-.146.012-.146.12-.06.922-.073 1.018c-.024.108.012.144.122.263.122.12.803 1.03.925 1.197.122.156.134.12.207.06s.438-.275.633-.263h.012c.012-.826-.487-1.892-1.083-2.454z"/></g></g></svg>