<svg height="17" viewBox="0 0 17 17" width="17" xmlns="http://www.w3.org/2000/svg"><g fill-rule="evenodd"><path d="m10.91896 2.369545c-.961265-.723435-1.916495-.85391-2.840275-.980475-.85357-.11679-1.661835-.232645-2.470695-.798235v-.31552c-.000085-.15198-.123335-.275315-.2754-.275315s-.275315.123335-.275315.275315v13.22107c0 .15198.123335.275315.275315.275315s.275315-.123335.275315-.275315v-8.77829c.879495-.041055 1.73553-.50456 2.565725-.95897.89335-.489345 1.73978-.953615 2.56088-.894795.123335.008925.23426-.064175.27676-.1785.04267-.11407.005015-.24276-.09231-.316285zm-3.00968.906355c-.79985.43775-1.55992.85391-2.30129.895815v-2.92315c.810815.46903 1.61466.579105 2.39598.686205.65144.08891 1.276445.17459 1.89533.46138-.6783.16201-1.341895.52513-1.99002.87975z" fill-rule="nonzero"/><path d="m4.322535 13.84769c0 .42874.63597.65314 1.264205.65314s1.264205-.2244 1.264205-.65314c.000085-.85748-2.52841-.85748-2.52841 0z"/><path d="m8.14065 15.46201c-.76789 0-7.503035-.05015-7.503035-1.78602 0-.101405.08211-.183515.183515-.183515.10149 0 .183515.08211.183515.183515 0 .782255 3.201185 1.418905 7.13592 1.418905 3.93482 0 7.13609-.63665 7.13609-1.418905 0-.101405.08211-.183515.183515-.183515s.183515.08211.183515.183515c.00017 1.735785-6.734975 1.78602-7.503035 1.78602z"/><path d="m15.758265 13.642245c-.144245-1.58984-1.95687-1.656055-3.876425-1.72142-1.178185-.04012-2.513365-.08568-3.63868-.46427-2.523055-.849235-5.53418.116195-6.86596 1.072955-.57392.41259-.8772.83708-.8772 1.227825v1.273385c0 1.830475 6.3648 1.923295 7.64065 1.923295s7.64082-.09282 7.64082-1.923295v-1.273385c0-.0408-.00935-.079135-.023205-.11509zm-7.617615 2.66934c-4.50619 0-6.99822-.757435-6.99822-1.27874l.008415-1.325575c.033915-.12257.185895-.357085.601375-.655775 1.22026-.87686 3.97817-1.76307 6.28592-.98617 1.214565.40868 2.59964.45594 3.821855.49759 2.088365.070975 3.26995.165665 3.26995 1.28486 0 .016065.0068.02992.00918.045305v1.137725c0 .523345-2.492285 1.28078-6.998475 1.28078z" fill-rule="nonzero"/></g></svg>