<svg xmlns="http://www.w3.org/2000/svg" width="28" height="20" viewBox="0 0 28 20">
  <g fill="none" fill-rule="evenodd">
    <rect width="28" height="20" fill="#FFF"/>
    <path fill="#1C6DC1" d="M13.3333333,13.3333333 L8,13.3333333 L8,8 L13.3333333,8 L13.3333333,10.6666667 L28,10.6666667 L28,13.3333333 L13.3333333,13.3333333 Z M13.3333333,0 L28,0 L28,2.66666667 L13.3333333,2.66666667 L13.3333333,5.33333333 L8,5.33333333 L8,0 L13.3333333,0 Z M0,0 L5.33333333,0 L5.33333333,5.33333333 L0,5.33333333 L0,0 Z M13.3333333,5.33333333 L28,5.33333333 L28,8 L13.3333333,8 L13.3333333,5.33333333 Z M0,16 L28,16 L28,18.6666667 L0,18.6666667 L0,16 Z M0,8 L5.33333333,8 L5.33333333,13.3333333 L0,13.3333333 L0,8 Z"/>
  </g>
</svg>
