<svg width="41" height="32" viewBox="0 0 41 32" xmlns="http://www.w3.org/2000/svg">
<path d="M7.825 31.6801V29.5831C7.83719 29.407 7.81195 29.2303 7.75093 29.0647C7.68992 28.899 7.59451 28.7482 7.471 28.6221C7.221 28.3681 6.876 28.2341 6.521 28.2551C6.055 28.2251 5.609 28.4521 5.357 28.8491C5.127 28.4641 4.707 28.2361 4.263 28.2551C4.07201 28.2454 3.88185 28.2861 3.71159 28.3732C3.54132 28.4603 3.39696 28.5906 3.293 28.7511V28.3391H2.573V31.6791H3.3V29.8411C3.2847 29.727 3.29449 29.611 3.32869 29.5012C3.36289 29.3913 3.42067 29.2903 3.498 29.2051C3.57495 29.1204 3.66981 29.0539 3.77567 29.0105C3.88154 28.9671 3.99575 28.9478 4.11 28.9541C4.588 28.9541 4.83 29.2691 4.83 29.8341V31.6941H5.557V29.8421C5.54198 29.7281 5.55201 29.6123 5.58638 29.5026C5.62075 29.3929 5.67863 29.2921 5.756 29.2071C5.912 29.0371 6.136 28.9431 6.366 28.9541C6.858 28.9541 7.093 29.2691 7.093 29.8341V31.6941L7.82 31.6801H7.825ZM18.585 28.3401H17.4V27.3271H16.673V28.3401H16.015V29.0041H16.687V30.5421C16.687 31.3181 16.985 31.7791 17.837 31.7791C18.1555 31.7798 18.4676 31.69 18.737 31.5201L18.529 30.8981C18.3363 31.0144 18.117 31.0794 17.892 31.0871C17.546 31.0871 17.414 30.8631 17.414 30.5271V29.0031H18.591L18.584 28.3391L18.585 28.3401ZM24.728 28.2561C24.37 28.2461 24.035 28.4331 23.855 28.7461V28.3411H23.142V31.6811H23.862V29.8081C23.862 29.2561 24.097 28.9481 24.555 28.9481C24.709 28.9461 24.862 28.9741 25.005 29.0321L25.227 28.3321C25.0625 28.2726 24.8889 28.2419 24.714 28.2411L24.728 28.2551V28.2561ZM15.44 28.6061C15.0328 28.3618 14.5636 28.2406 14.089 28.2571C13.251 28.2571 12.704 28.6621 12.704 29.3271C12.704 29.8721 13.106 30.2071 13.847 30.3131L14.193 30.3631C14.588 30.4191 14.775 30.5231 14.775 30.7131C14.775 30.9731 14.512 31.1181 14.02 31.1181C13.6241 31.1297 13.2359 31.0066 12.919 30.7691L12.573 31.3351C12.993 31.6311 13.495 31.7831 14.007 31.7681C14.963 31.7681 15.507 31.3141 15.507 30.6681C15.507 30.0221 15.071 29.7731 14.35 29.6681L14.004 29.6181C13.692 29.5761 13.444 29.5131 13.444 29.2881C13.444 29.0631 13.679 28.8981 14.074 28.8981C14.4393 28.9026 14.7972 29.0015 15.113 29.1851L15.433 28.5981L15.44 28.6061ZM34.732 28.2561C34.374 28.2461 34.039 28.4331 33.859 28.7461V28.3411H33.146V31.6811H33.866V29.8081C33.866 29.2561 34.101 28.9481 34.559 28.9481C34.713 28.9461 34.866 28.9741 35.009 29.0321L35.231 28.3321C35.0665 28.2726 34.8929 28.2419 34.718 28.2411L34.732 28.2551V28.2561ZM25.452 30.0031C25.435 30.4781 25.616 30.9381 25.952 31.2701C26.288 31.6021 26.748 31.7771 27.218 31.7501C27.651 31.7722 28.0763 31.6301 28.409 31.3521L28.063 30.7651C27.813 30.9571 27.51 31.0621 27.197 31.0651C26.9298 31.0418 26.6811 30.919 26.5002 30.721C26.3192 30.523 26.2192 30.2643 26.22 29.9961C26.2192 29.7279 26.3192 29.4691 26.5002 29.2712C26.6811 29.0732 26.9298 28.9504 27.197 28.9271C27.51 28.9311 27.814 29.0371 28.063 29.2271L28.409 28.6401C28.0763 28.362 27.651 28.2199 27.218 28.2421C26.748 28.2151 26.288 28.3891 25.952 28.7221C25.616 29.0551 25.434 29.5151 25.452 29.9891V30.0031ZM32.198 30.0031V28.3401H31.478V28.7451C31.23 28.4231 30.843 28.2411 30.438 28.2551C29.9745 28.2551 29.5301 28.4392 29.2023 28.7669C28.8746 29.0946 28.6905 29.5391 28.6905 30.0026C28.6905 30.466 28.8746 30.9105 29.2023 31.2382C29.5301 31.566 29.9745 31.7501 30.438 31.7501C30.842 31.7651 31.228 31.5831 31.478 31.2601V31.6651H32.198V30.0011V30.0031ZM29.518 30.0031C29.55 29.4551 30.011 29.0331 30.555 29.0531C31.099 29.0731 31.527 29.5291 31.518 30.0791C31.509 30.6291 31.068 31.0691 30.523 31.0731C30.3856 31.0747 30.2494 31.0477 30.1231 30.9938C29.9967 30.9399 29.8829 30.8603 29.789 30.7601C29.6947 30.6592 29.6221 30.5401 29.5757 30.41C29.5292 30.28 29.5099 30.1418 29.519 30.0041L29.518 30.0031ZM20.826 28.2561C20.3625 28.2624 19.9206 28.4527 19.5974 28.7849C19.2741 29.1171 19.0961 29.5641 19.1025 30.0276C19.1089 30.491 19.2991 30.933 19.6313 31.2562C19.9635 31.5794 20.4105 31.7574 20.874 31.7511C21.3729 31.7768 21.8635 31.6148 22.249 31.2971L21.903 30.7591C21.63 30.9791 21.291 31.1031 20.94 31.1091C20.7009 31.1287 20.4636 31.0542 20.2787 30.9014C20.0937 30.7486 19.9758 30.5296 19.95 30.2911H22.41V30.0111C22.41 28.9631 21.766 28.2641 20.838 28.2641L20.828 28.2571L20.826 28.2561ZM20.826 28.9061C21.044 28.9011 21.254 28.9841 21.411 29.1361C21.5689 29.2887 21.6598 29.4976 21.664 29.7171H19.934C19.96 29.2501 20.351 28.8901 20.814 28.9071H20.828L20.826 28.9061ZM38.87 30.0101V26.9971H38.177V28.7441C37.929 28.4221 37.542 28.2401 37.137 28.2541C36.6735 28.2541 36.229 28.4382 35.9013 28.7659C35.5736 29.0936 35.3895 29.5381 35.3895 30.0016C35.3895 30.465 35.5736 30.9095 35.9013 31.2372C36.229 31.565 36.6735 31.7491 37.137 31.7491C37.541 31.7641 37.927 31.5821 38.177 31.2591V31.6641H38.87V30.0101ZM40.072 31.1951C40.117 31.1941 40.172 31.2031 40.204 31.2191C40.236 31.2351 40.28 31.2591 40.311 31.2891C40.3416 31.3193 40.3663 31.3549 40.384 31.3941C40.419 31.4761 40.419 31.5701 40.384 31.6541C40.3663 31.6933 40.3416 31.7288 40.311 31.7591C40.281 31.7891 40.243 31.8131 40.204 31.8291C40.165 31.8451 40.118 31.8571 40.072 31.8571C39.938 31.8561 39.817 31.7771 39.76 31.6541C39.7425 31.6131 39.7335 31.5691 39.7335 31.5246C39.7335 31.4801 39.7425 31.436 39.76 31.3951C39.7777 31.3559 39.8024 31.3203 39.833 31.2901C39.863 31.2601 39.901 31.2361 39.94 31.2201C39.985 31.2021 40.033 31.1941 40.082 31.1961H40.072V31.1951ZM40.072 31.7851C40.107 31.7851 40.142 31.7781 40.172 31.7651C40.202 31.7516 40.2291 31.7326 40.252 31.7091C40.2953 31.6613 40.3193 31.5991 40.3193 31.5346C40.3193 31.4701 40.2953 31.4079 40.252 31.3601C40.229 31.3361 40.202 31.3171 40.172 31.3041C40.142 31.2911 40.106 31.2841 40.072 31.2841C40.038 31.2841 40.002 31.2911 39.972 31.3041C39.942 31.3171 39.912 31.3361 39.889 31.3601C39.8457 31.4079 39.8217 31.4701 39.8217 31.5346C39.8217 31.5991 39.8457 31.6613 39.889 31.7091C39.913 31.7331 39.941 31.7521 39.972 31.7651C40.003 31.7781 40.045 31.7871 40.082 31.7851H40.072ZM40.092 31.3691C40.124 31.3671 40.156 31.3771 40.192 31.3971C40.228 31.4171 40.225 31.4421 40.222 31.4701C40.219 31.4981 40.214 31.5161 40.198 31.5331C40.182 31.5501 40.152 31.5631 40.125 31.5631L40.225 31.6781H40.145L40.052 31.5631H40.022V31.6781H39.956V31.3701L40.101 31.3671L40.092 31.3691ZM40.016 31.4291V31.5131H40.092C40.106 31.5171 40.12 31.5171 40.134 31.5131C40.139 31.5031 40.139 31.4911 40.134 31.4831C40.139 31.4731 40.139 31.4611 40.134 31.4531C40.12 31.4491 40.106 31.4491 40.092 31.4531L40.016 31.4331V31.4291ZM36.206 30.0091C36.238 29.4611 36.699 29.0391 37.243 29.0591C37.787 29.0791 38.215 29.5351 38.206 30.0851C38.197 30.6351 37.756 31.0751 37.211 31.0791C37.0736 31.0807 36.9374 31.0537 36.8111 30.9998C36.6847 30.9459 36.5709 30.8663 36.477 30.7661C36.3827 30.6652 36.3101 30.5461 36.2637 30.416C36.2172 30.286 36.1979 30.1478 36.207 30.0101L36.206 30.0091ZM11.886 30.0091V28.3391H11.166V28.7441C10.918 28.4221 10.531 28.2401 10.126 28.2541C9.66253 28.2541 9.21805 28.4382 8.89033 28.7659C8.56261 29.0936 8.3785 29.5381 8.3785 30.0016C8.3785 30.465 8.56261 30.9095 8.89033 31.2372C9.21805 31.565 9.66253 31.7491 10.126 31.7491C10.53 31.7641 10.916 31.5821 11.166 31.2591V31.6641H11.886V30.0101V30.0091ZM9.206 30.0091C9.238 29.4611 9.699 29.0391 10.243 29.0591C10.787 29.0791 11.215 29.5351 11.206 30.0851C11.197 30.6351 10.756 31.0751 10.211 31.0791C10.073 31.0818 9.93599 31.0556 9.80873 31.0022C9.68146 30.9488 9.56677 30.8694 9.472 30.7691C9.37679 30.6681 9.30341 30.5486 9.25644 30.418C9.20947 30.2874 9.18992 30.1486 9.199 30.0101H9.206V30.0091Z"/>
<path d="M15.2 2.87988H26.108V22.6649H15.2V2.87988Z"/>
<path d="M15.893 12.773C15.889 8.91297 17.645 5.27297 20.653 2.87897C15.543 -1.17503 8.203 -0.584032 3.793 4.23597C1.66566 6.56967 0.48645 9.61366 0.48645 12.7715C0.48645 15.9293 1.66566 18.9733 3.793 21.307C8.193 26.127 15.543 26.707 20.655 22.664C17.645 20.281 15.89 16.634 15.895 12.764L15.893 12.773Z"/>
<path d="M40.826 12.773C40.826 17.59 38.1 21.983 33.806 24.089C29.512 26.195 24.406 25.639 20.653 22.663C23.66 20.278 25.416 16.631 25.416 12.771C25.416 8.91099 23.66 5.26399 20.653 2.87899C24.407 -0.0980105 29.514 -0.650011 33.807 1.45399C38.1 3.55799 40.827 7.95399 40.827 12.77V12.773H40.826ZM39.636 20.841V20.208H39.799V20.078H39.387V20.208H39.564V20.841H39.637H39.636ZM40.436 20.841V20.077H40.3L40.155 20.623L40.01 20.077H39.9V20.841H40V20.268L40.135 20.765H40.228L40.363 20.268V20.848L40.436 20.843V20.841Z"/>
</svg>
