<svg height="17" viewBox="0 0 17 17" width="17" xmlns="http://www.w3.org/2000/svg"><path d="m12.5947826 1.12717391c2.9360426 1.69532336 4.5644433 4.99002837 4.1280435 8.35217392.0006924.00984291.0006924.0197223 0 .02956521-.1462566 1.08752166-.5040774 2.13587386-1.0532609 3.08586956-1.1104554 1.9275769-2.9431081 3.3333199-5.0926087 3.9063044-2.14847347.5775563-4.43850406.2756765-6.36391302-.8389131-3.38075713-1.9397834-4.97819229-5.95404756-3.85456522-9.68630433v-.02217392c.1862916-.61215332.44170607-1.20109446.76130435-1.75543478.55564686-.95199202 1.29268463-1.78571107 2.16934782-2.45391304.35002249-.26793077.72075089-.50766847 1.10869566-.71695653 1.55969952-.8473942 3.34700891-1.18105977 5.1073913-.95347826.25130435.03326087.50260871.0776087.73913041.13304348h.0295652c.8159279.18701536 1.5994013.49467503 2.3245653.91282609zm-9.80086956 11.18673909 1.72586957-.9608695.11826087-3.22260872-1.68521739-2.08434782-1.68521739.96826087-.36956522 3.07478257 1.90695652 2.2469566zm1.90695653-.6245652-1.69630435.9608696 1.27130435 2.55h2.77913043l.28086957-1.8478261zm0-8.68478258-.36956522-1.51152174c-.28886046.16798026-.5666086.35438013-.83152174.55804348-.83027016.63648708-1.52720106 1.43010929-2.05108696 2.33565217-.29152705.50370463-.52698984 1.03783337-.70217391 1.59282609l.36956522.60608695 1.73695652-.97195652zm0-1.71108696.36956521 1.57434783 2.6276087.41021739 2.70891302-1.16413044-.3695652-1.52260869c-.20202898-.04188406-.40405797-.07637681-.60608695-.10347826-1.61547282-.20854127-3.25617597.07887177-4.70456522.82413043zm2.83456521 2.36521739-2.50195652-.39173913-1.77760869 2.49086957 1.64086956 2.02891304 2.77543478-1.47826087-.10347826-2.65717391zm-.36956521 11.96282605h-2.23956522c1.45932409.6974508 3.09661289.9333751 4.69347826.6763044l-2.45391304-.6615218zm-3.57-.8093478-1.02-2.1286956-1.90326087-2.2395653v.022174c.4628744 1.7436343 1.50558789 3.2777265 2.95652173 4.3497826zm-3.07478261-5.07413042.36956521-2.81978261-.255-.39543478c-.06627756.27426181-.11808822.55181889-.15521739.83152174-.10387254.79122919-.08767547 1.59360728.04804348 2.38zm7.34695652-3.06739131-2.82717391 1.50043479-.11826087 3.18195654 2.6497826 1.6926087 2.901087-1.4782609.1884782-3.17086956-2.79391302-1.74065217zm2.74586952-4.22782608-2.64978257 1.17152174.10347827 2.70521739 2.816087 1.75173913 2.4132608-.99782609v-2.76804348l-2.6904348-1.84782608zm-.1367391-1.76282609.3363044 1.40804348 2.7310869 1.87369565 1.2269565-.36956522-.0332608-.04434782c-.6398001-.8323153-1.4372107-1.53052041-2.3467392-2.05478261-.5988472-.34574053-1.2397868-.61279867-1.9069565-.79456522zm4.5419565 3.24478261-1.3082608.40652174v2.81608695l1.3378261 2.43543479 1.3045652-.28456522c.2066418-1.89269881-.2662156-3.79722717-1.3341305-5.37347826zm-.34 5.87978261-1.2786956-2.33565218-2.3504348.97195653-.1847826 3.09695653 2.2580435.7391304zm-1.7110869 4.90043478-1.2897826.9793478c.5225112-.2340818 1.0181513-.5240312 1.4782608-.8647826l-.1884782-.1108695zm.0332608-2.0621739-2.3171739-.7391304-2.9565217 1.507826-.28086957 1.87 3.01195657.8130435 2.2913043-1.7369565.2365217-1.711087zm3.2743479-2.91586958-1.2269565.26239131-1.6334783 2.58695647-.2476087 1.785.3252174.192174c.7288439-.6063406 1.3444518-1.3370622 1.8182609-2.1582609.4774795-.8250569.8041073-1.728602.9645652-2.66826088z" fill-rule="evenodd"/></svg>