<svg xmlns="http://www.w3.org/2000/svg"
  xmlns:xlink="http://www.w3.org/1999/xlink" width="29" height="29" viewBox="0 0 29 29">
  <defs>
    <path id="quicklinks-live-chat-a" d="M25.8051733,13.3378208 L25.8051733,12.3186547 C25.8371365,6.70356758 20.2504825,2.11791999 14.6142398,2.14507874 C8.97745691,2.11791999 3.3908029,6.70356758 3.42330624,12.3186547 L3.42330624,13.4519065 C4.01876893,13.1176067 4.68833696,12.8996622 5.40119831,12.828885 L5.40119831,22.9522286 C2.8306802,22.6970121 0.823089141,20.5282335 0.823089141,17.8905568 C0.823089141,16.4391763 1.43093676,15.1297662 2.40594864,14.2030099 L2.40594864,12.3186547 C2.40594864,5.87576031 8.15260139,0.619042353 14.6142398,0.619042353 C21.075338,0.619042353 26.8219907,5.87576031 26.8225309,12.3186547 L26.8225309,13.9677118 C27.993871,14.899632 28.7447758,16.3374047 28.7447758,17.9505607 C28.7447758,20.373022 27.0514293,22.399981 24.7838462,22.9123279 C24.1691483,24.4562508 23.0880214,25.4294447 22.0051069,26.0418809 C22.0703616,26.1552744 22.1221495,26.2791694 22.1577577,26.412061 C22.3758921,27.2261497 21.8900739,28.0636558 21.078525,28.2811096 L19.1134651,28.8076459 C18.2992869,29.0258042 17.463953,28.5483829 17.2442978,27.7286186 C17.0261634,26.9145299 17.5119816,26.0770238 18.3235305,25.8595699 L20.2885904,25.3330337 C20.3028967,25.3292004 20.3172095,25.3255818 20.3315254,25.322176 L24.1666667,21.244812 L24.1666667,12.8888889 C24.7470793,12.9465158 25.2987919,13.1017034 25.8051733,13.3378208 Z"/>
  </defs>
  <use xlink:href="#quicklinks-live-chat-a"/>
</svg>
