<svg width="50" height="50" viewBox="0 0 50 50" xmlns="http://www.w3.org/2000/svg">
<g clip-path="url(#clip0)">
<path d="M10.7259 48.4579L9.25574 46.387C8.94363 45.9471 8.33396 45.8437 7.89412 46.1559C7.45438 46.4681 7.35086 47.0777 7.66317 47.5175L9.13338 49.5885C9.3238 49.8568 9.62478 49.9998 9.93054 49.9998C10.126 49.9998 10.3234 49.9413 10.495 49.8195C10.9347 49.5073 11.0383 48.8977 10.7259 48.4579Z"/>
<path d="M21.9936 48.8226L20.3936 41.1969C19.6155 37.4887 17.4554 34.2822 14.3113 32.1681L10.8952 29.871C9.52535 28.9501 7.68415 29.1482 6.53923 30.3157V18.5485C6.53923 17.004 5.48621 15.6917 3.9784 15.357C3.00526 15.1408 2.00155 15.375 1.22412 15.9987C0.446776 16.6225 0.000976562 17.5518 0.000976562 18.5485V33.6903C0.000976562 35.6739 0.608005 37.5775 1.75634 39.1952L3.49784 41.6484C3.68827 41.9167 3.98924 42.0597 4.295 42.0597C4.49051 42.0597 4.68787 42.0012 4.85945 41.8794C5.2992 41.5672 5.40271 40.9576 5.09041 40.5178L3.34891 38.0646C2.43642 36.7791 1.95409 35.2665 1.95409 33.6902V18.5485C1.95409 18.1473 2.13359 17.7732 2.44647 17.5221C2.75927 17.271 3.16327 17.1767 3.55526 17.2638C4.16219 17.3984 4.58611 17.9267 4.58611 18.5485V30.5618C4.58611 32.2623 5.21092 33.8825 6.34597 35.1431C6.3946 35.2014 6.4446 35.2591 6.49744 35.3151C7.14597 36.0023 7.90846 36.812 8.62663 37.5753L9.63199 38.6453C9.63522 38.6487 9.63873 38.6517 9.64205 38.655C10.5021 39.5697 11.1364 40.2452 11.1497 40.2593C11.5187 40.6523 12.1369 40.6719 12.53 40.3026C12.9232 39.9334 12.9426 39.3154 12.5733 38.9223C12.5555 38.9033 11.4124 37.686 10.1069 36.2984L7.86774 33.9153C7.86208 33.9093 7.8569 33.9029 7.85124 33.8969C7.32624 33.269 7.33278 32.3585 7.88307 31.7372C8.36989 31.1878 9.19645 31.0824 9.80553 31.4918L13.2214 33.7889C15.941 35.6175 17.8092 38.3907 18.4821 41.5979L20.0821 49.2238C20.1787 49.684 20.5847 50 21.0369 50C21.1033 50 21.1708 49.9931 21.2384 49.979C21.7662 49.8682 22.1043 49.3504 21.9936 48.8226Z"/>
<path d="M7.23522 43.5407L7.22897 43.5319C6.91549 43.0928 6.30573 42.9909 5.86677 43.3041C5.4278 43.6174 5.32585 44.2273 5.63903 44.6662L5.64528 44.675C5.83591 44.9421 6.1362 45.0845 6.44108 45.0845C6.63737 45.0845 6.83551 45.0255 7.00748 44.9028C7.44635 44.5895 7.5484 43.9796 7.23522 43.5407Z"/>
<path d="M48.7767 15.9988C47.9993 15.3751 46.9951 15.1413 46.0225 15.3571C44.5147 15.6917 43.4615 17.0041 43.4615 18.5486V30.3158C42.3167 29.1483 40.4753 28.9502 39.1056 29.8711L35.6895 32.1681C32.5453 34.2821 30.3852 37.4887 29.6072 41.1969L28.0072 48.8227C27.8965 49.3506 28.2346 49.8682 28.7624 49.979C28.83 49.9931 28.8975 50 28.9638 50C29.4162 50 29.822 49.6839 29.9186 49.2237L31.5186 41.5978C32.1916 38.3907 34.0597 35.6174 36.7792 33.7889L40.1953 31.4919C40.8042 31.0824 41.6308 31.1878 42.1178 31.7372C42.6674 32.3577 42.6747 33.2667 42.1517 33.8946C42.1454 33.9015 42.1395 33.9085 42.1332 33.9153C42.1332 33.9153 37.4453 38.9035 37.4276 38.9223C37.0583 39.3154 37.0778 39.9334 37.4708 40.3026C37.864 40.6719 38.482 40.6524 38.8512 40.2593C38.8645 40.2452 42.8549 36.0024 43.5034 35.3151C43.5563 35.2592 43.6063 35.2015 43.6549 35.1432C44.7899 33.8826 45.4148 32.2624 45.4148 30.5618V18.5485C45.4148 17.9267 45.8387 17.3984 46.4457 17.2637C46.8376 17.1768 47.2415 17.2711 47.5545 17.522C47.8674 17.7731 48.0469 18.1472 48.0469 18.5485V33.6903C48.0469 35.2666 47.5646 36.7792 46.6521 38.0647L39.2741 48.4579C38.9619 48.8976 39.0653 49.5073 39.505 49.8195C39.6767 49.9413 39.874 49.9999 40.0695 49.9999C40.3751 49.9999 40.6762 49.8567 40.8666 49.5885L48.2446 39.1953C49.393 37.5776 50 35.674 50 33.6903V18.5485C49.9997 17.5518 49.554 16.6225 48.7767 15.9988Z"/>
<path d="M37.3688 18.7167L35.6314 18.3017V17.9902C36.7606 17.1992 37.5011 15.8893 37.5011 14.409V12.1504C37.5011 9.74031 35.5404 7.77968 33.1304 7.77968C32.0488 7.77968 31.0586 8.17538 30.2946 8.8285C29.4441 6.7455 27.3974 5.27344 25.0122 5.27344C22.6242 5.27344 20.5753 6.74931 19.7267 8.83631C18.9616 8.1785 17.9677 7.77948 16.8818 7.77948C14.4718 7.77948 12.5111 9.74012 12.5111 12.1502V12.3003V14.4088C12.5111 15.8891 13.2515 17.199 14.3807 17.99V18.3015L12.6433 18.7165C10.5689 19.2122 9.12012 21.0478 9.12012 23.1806V25.0044C9.12012 25.5438 9.55742 25.981 10.0967 25.981H14.5842C14.5772 26.0994 14.5724 26.2185 14.5724 26.3385V29.85C14.5724 30.3894 15.0097 30.8266 15.549 30.8266H21.4191C21.9583 30.8266 22.3956 30.3894 22.3956 29.85C22.3956 29.3106 21.9583 28.8734 21.4191 28.8734H20.4101V26.8554C20.4101 26.316 19.9728 25.8788 19.4336 25.8788C18.8943 25.8788 18.457 26.316 18.457 26.8554V28.8736H16.5257V26.3387C16.5257 24.4552 17.8049 22.8332 19.6364 22.3944L22.3163 21.7522L24.1097 25.8324C24.2656 26.187 24.6163 26.416 25.0035 26.416H25.0036C25.3909 26.416 25.7417 26.1871 25.8976 25.8325L27.6892 21.7583L30.3606 22.3965C32.1938 22.8345 33.4741 24.4567 33.4741 26.3415V28.8736H31.5428V26.8554C31.5428 26.316 31.1055 25.8788 30.5662 25.8788C30.027 25.8788 29.5897 26.316 29.5897 26.8554V28.8736H28.4829C27.9437 28.8736 27.5064 29.3108 27.5064 29.8502C27.5064 30.3895 27.9437 30.8268 28.4829 30.8268H34.4508C34.99 30.8268 35.4273 30.3895 35.4273 29.8502V26.3415C35.4273 26.2205 35.4224 26.1006 35.4154 25.9812H39.9156C40.4548 25.9812 40.8922 25.544 40.8922 25.0046V23.1808C40.8922 21.048 39.4433 19.2122 37.3688 18.7167ZM33.1304 9.7326C34.4099 9.7326 35.4602 10.7317 35.5427 11.9907H34.185C33.0436 11.9907 31.9203 11.7159 30.9107 11.1927C31.282 10.3345 32.1373 9.7326 33.1304 9.7326ZM30.7128 14.2663C30.714 14.2187 30.7164 14.1714 30.7164 14.1235V13.2538C31.8122 13.7073 32.9906 13.9438 34.185 13.9438H35.5479V14.4089C35.5479 15.742 34.4635 16.8265 33.1304 16.8265C31.7973 16.8265 30.7128 15.742 30.7128 14.4088V14.2663ZM21.2613 10.9775C21.2613 8.90926 22.9439 7.22655 25.0122 7.22655C26.8778 7.22655 28.4294 8.59549 28.7159 10.3814L27.0719 9.41551C26.6607 9.17391 26.1351 9.26463 25.8287 9.63035C25.0253 10.5891 23.8471 11.139 22.5961 11.139H21.2613V10.9775ZM16.8819 9.7326C17.875 9.7326 18.7301 10.3346 19.1016 11.1926C18.0919 11.7158 16.9687 11.9906 15.8273 11.9906H14.4696C14.552 10.7317 15.6025 9.7326 16.8819 9.7326ZM14.4643 13.9437H15.8273C17.0229 13.9437 18.2026 13.7067 19.2995 13.2522V14.4088C19.2995 15.7418 18.215 16.8263 16.8819 16.8263C15.5488 16.8263 14.4643 15.742 14.4643 14.4088V13.9437ZM19.1813 20.495C17.26 20.9553 15.7501 22.2949 15.0314 24.028H11.0732V23.1807C11.0732 21.9555 11.9055 20.9009 13.0972 20.6162L15.5842 20.0221C16.0238 19.9171 16.334 19.5243 16.334 19.0723V18.744C16.5136 18.7665 16.6963 18.7795 16.8819 18.7795C17.0662 18.7795 17.2475 18.7667 17.4258 18.7445V19.0231C17.4252 19.0376 17.4249 19.0522 17.4248 19.0667C17.4246 19.3872 17.5821 19.701 17.8714 19.8881C17.9803 19.9587 18.0981 20.0046 18.2183 20.0276L19.6751 20.3766L19.1813 20.495ZM21.9053 18.9789C21.6544 18.8683 21.3929 18.7798 21.1234 18.7153L19.3789 18.2972V17.9929C19.6937 17.7729 19.9784 17.5128 20.2252 17.2197C20.6614 17.8916 21.2344 18.4661 21.9053 18.9037V18.9789ZM26.1467 20.4138L25.0039 23.0129L23.8585 20.4072V19.7103C24.2313 19.7871 24.6171 19.8277 25.0122 19.8277C25.4006 19.8277 25.7799 19.7883 26.1467 19.714V20.4138ZM25.0122 17.8745C22.9439 17.8746 21.2613 16.1919 21.2613 14.1235V13.0921H22.5961C24.1448 13.0921 25.6172 12.5162 26.7457 11.489L28.7596 12.6722V14.2664C28.6842 16.2686 27.0327 17.8745 25.0122 17.8745ZM28.0998 18.9821V18.916C28.7762 18.4787 29.3543 17.9027 29.7939 17.2279C30.0391 17.5177 30.3213 17.775 30.6331 17.9929V18.2972L28.8885 18.7153C28.6166 18.7805 28.3528 18.8701 28.0998 18.9821ZM38.9389 24.028H34.9673C34.2479 22.2949 32.7369 20.9561 30.8145 20.4968L30.3241 20.3797L31.7887 20.0288C31.9105 20.0061 32.0303 19.9596 32.1407 19.8881C32.4295 19.7013 32.5865 19.3874 32.5865 19.067C32.5865 19.0594 32.5864 19.0517 32.5862 19.0441V18.7445C32.7646 18.7667 32.9459 18.7795 33.1302 18.7795C33.3158 18.7795 33.4984 18.7665 33.6781 18.744V19.0723C33.6781 19.5243 33.9883 19.9171 34.4278 20.0221L36.9149 20.6162C38.1066 20.901 38.9389 21.9555 38.9389 23.1807V24.028Z"/>
<path d="M25.6902 29.1591C25.5077 28.9774 25.2567 28.8739 24.9999 28.8739C24.742 28.8739 24.4911 28.9774 24.3094 29.1591C24.1268 29.3417 24.0233 29.5926 24.0233 29.8505C24.0233 30.1073 24.1268 30.3583 24.3094 30.5409C24.4911 30.7225 24.7421 30.827 24.9999 30.827C25.2567 30.827 25.5077 30.7225 25.6902 30.5409C25.8718 30.3583 25.9764 30.1073 25.9764 29.8505C25.9764 29.5926 25.8719 29.3417 25.6902 29.1591Z"/>
<path d="M24.9993 0C24.46 0 24.0227 0.437205 24.0227 0.976559V2.43778C24.0227 2.97714 24.46 3.41434 24.9993 3.41434C25.5385 3.41434 25.9758 2.97714 25.9758 2.43778V0.976559C25.9758 0.437205 25.5386 0 24.9993 0Z"/>
<path d="M21.402 3.18541L20.3776 2.16197C19.996 1.78073 19.3778 1.78102 18.9965 2.16256C18.6153 2.5441 18.6157 3.16246 18.9972 3.54361L20.0217 4.56704C20.2123 4.75757 20.4621 4.85279 20.7118 4.85279C20.9619 4.85279 21.2119 4.75728 21.4027 4.56646C21.7837 4.18492 21.7835 3.56656 21.402 3.18541Z"/>
<path d="M30.9786 2.18695C30.5971 1.8058 29.9786 1.80599 29.5976 2.18763L28.5811 3.20511C28.1999 3.58665 28.2002 4.20501 28.5818 4.58616C28.7725 4.77669 29.0222 4.8719 29.272 4.8719C29.5221 4.8719 29.7722 4.77639 29.9628 4.58548L30.9793 3.568C31.3605 3.18646 31.3602 2.5681 30.9786 2.18695Z"/>
</g>
<defs>
<clipPath id="clip0">
<rect width="50" height="50"/>
</clipPath>
</defs>
</svg>
