<svg xmlns="http://www.w3.org/2000/svg" width="28" height="20" viewBox="0 0 28 20">
  <g fill="none" fill-rule="evenodd">
    <rect width="28" height="6.667" y="6.667" fill="#FFF"/>
    <rect width="28" height="6.667" fill="#0884E6"/>
    <rect width="28" height="6.667" y="13.333" fill="#0884E6"/>
    <polygon fill="#0E88E9" points="14 10.667 13.057 10.943 13.333 10 13.057 9.057 14 9.333 14.943 9.057 14.667 10 14.943 10.943"/>
    <polygon fill="#0E88E9" points="19.333 9.333 18.391 9.609 18.667 8.667 18.391 7.724 19.333 8 20.276 7.724 20 8.667 20.276 9.609"/>
    <polygon fill="#0E88E9" points="19.333 12 18.391 12.276 18.667 11.333 18.391 10.391 19.333 10.667 20.276 10.391 20 11.333 20.276 12.276"/>
    <polygon fill="#0E88E9" points="8.667 12 7.724 12.276 8 11.333 7.724 10.391 8.667 10.667 9.609 10.391 9.333 11.333 9.609 12.276"/>
    <polygon fill="#0E88E9" points="8.667 9.333 7.724 9.609 8 8.667 7.724 7.724 8.667 8 9.609 7.724 9.333 8.667 9.609 9.609"/>
  </g>
</svg>
