<svg height="17" viewBox="0 0 17 17" width="17" xmlns="http://www.w3.org/2000/svg"><g fill-rule="evenodd"><g transform="translate(6.44 13.652)"><path d="m2.10156061 1.54614141c-.02318182 0-.04636364 0-.06954546-.00034343-.50261616-.00652525-.96968687-.08096465-1.31586868-.20932323-.37262627-.1384899-.57645455-.33201515-.57362122-.5454596.00068687-.05074242.04198485-.09143939.09272728-.09143939h.00111616c.05142929.00068687.09229798.04275757.09161111.09392929-.00180303.12526768.16759596.26324242.4529899.36919192.32626262.12114646.77161111.19137879 1.25327777.19773232 1.00557576.01373738 1.71785859-.26435858 1.72112122-.52193434.00068687-.05065657.04198485-.09143939.09272727-.09143939h.00111616c.05142929.00077272.09229798.04275757.09161111.09392929-.00626767.46724242-.91842929.70515656-1.83926262.70515656z"/><path d="m2.0885101 2.84088889c-.02464141 0-.04885353-.00017172-.07349495-.00051515-.95886869-.01270707-1.9879697-.28367677-1.98110101-.84879798l.01485354-1.12826768c.00721212-.5659798 1.03742929-.81763131 2.00282323-.79736869.51274747.00686869.99115151.08328283 1.34669192.21524748.52828788.19610101.63655555.45281818.63406565.63363636l-.01485353 1.12912626c-.00214647.18047475-.11693939.43435859-.65037879.61663637-.34180303.11668182-.79341919.18030303-1.27860606.18030303zm-.11333333-2.40481313c-1.00342929 0-1.55386869.28135858-1.55558586.43126767l-.01485354 1.12904041c-.00180303.15317172.56666667.45917172 1.6154293.47308081.47359596.00764141.90743939-.05065657 1.22717676-.15986869.29183334-.09976768.39872728-.21653535.39941415-.27071212l.01485353-1.12835354c0-.00034343 0-.00051515 0-.00085858.00077273-.05417677-.10320202-.17360606-.39254545-.28101515-.31647475-.11771213-.75066162-.1859697-1.22245455-.19215152-.02395454-.00025757-.04790909-.00042929-.07143434-.00042929z" fill-rule="nonzero"/><circle cx="3.046" cy=".902" r="1" transform="matrix(.01310705 -.9999141 .9999141 .01310705 2.104153 3.935916)"/></g><g fill-rule="nonzero"><g><path d="m1.18038384 13.8446111c-.0159697 0-.03185354-.0014596-.04782323-.0041212-.59276768-.103202-.93972223-.5536162-1.01098485-.9284747-.03511616-.1832223-.05469192-.4573687-.07169192-.6992324-.01047475-.1477626-.01923232-.2772373-.03005051-.3438636-.01880303-.1144495-.07529798-.4626061.15866667-.6964849.23937374-.238601.62496465-.2070909.89404545-.163303l4.03423738.3669596c.8860606-.0150252 1.30685353-.6541566 1.38215151-.782.36498485-.62281817 4.37535356-8.8115808 5.10832826-10.43087373.047394-.10466161.1564344-.16527778.2686515-.16313131l1.1500758.06319192c.0890354.00489394.1701717.05220202.2183384.12689899.0485101.07478283.0579545.16819697.0257576.25130808-.5370455 1.38721717-3.87531317 8.23761616-4.88561115 10.30414645l-.04670707.0954748c-.38859596.7986565-1.67475758 2.8901717-2.93885354 2.9749141-.07529798.0048939-.11839899.0052374-.11839899.0052374l-4.08858586.0233535c-.00051515 0-.00120202 0-.00154545 0zm-.43787879-2.3086515c-.13608586 0-.17051515.0295353-.17094444.0298788-.00686869.0068687-.02747475.0630202-.0029192.2134444.01227778.0760707.02386869.2245202.03588889.3940051.01519697.2152475.03434344.4833838.06302021.6345808.0300505.1575505.19773232.4115202.53773232.4803788l4.06102525-.0231818c.00214647 0 .03331313-.0005152.08542929-.0042071.83136869-.0555505 1.96916667-1.6220404 2.47573233-2.6633333l.0470505-.0961617c.93860606-1.91971208 3.8901667-7.97600501 4.7193889-9.90421713l-.5696717-.03133839c-.8462222 1.82715657-4.65997477 9.63444952-5.05578285 10.30964142-.10174243.1730909-.66995455 1.0370859-1.88296465 1.0557172l-4.0835202-.3706515c-.11238889-.0182021-.19678788-.0245556-.25946465-.0245556z"/><path d="m1.59387879 13.7557475c-.09015152 0-.16759596-.0651667-.18287879-.1548031l-.37511616-2.2376464c-.00944445-.0563233.00764141-.1139344.04636363-.1560909.03872223-.0421566.09882324-.0626768.15136869-.0594142l4.10884849.3336465c.08259596.006697.15025252.0669697.16690909.1479343l.36034848 1.7732374c.01090404.0535758-.0024899.1091263-.03623232.1518838-.034.0429293-.08508586.0686011-.13977778.0702324l-4.09399495.1306767c-.00188889.0003435-.00403535.0003435-.00583838.0003435zm-.15282828-2.2190152.30891919 1.8431263 3.71235353-.1185707-.28865656-1.4214748z"/></g><g transform="translate(3.692)"><path d="m12.1194545 13.8446111c-.0003434 0-.0011161 0-.0014596 0l-4.08746965-.0233535c-.00145959 0-.04378788-.0003435-.11917171-.0052374-1.2634091-.0847424-2.55034344-2.1762576-2.93928283-2.9749141l-.07023233-.1433839c-1.29011111-2.64083836-4.34710606-8.92654543-4.86165656-10.25640907-.03219697-.08293939-.02283839-.17635353.02575757-.25113636.04816667-.07478283.12930303-.12200505.21833839-.12689899l1.15007576-.06319192c.1140202-.00197475.22125757.0584697.26865151.16313131.73288889 1.61937879 4.74325758 9.80805556 5.10867172 10.43087373.07495454.1278434.49574747.7669748 1.41151515.7808838l4.02410608-.368505c.2501919-.0411263.6355252-.0723788.8744697.1658788.2339646.2341363.1771262.5822929.1582374.6966566-.0104748.0655959-.0192324.1937828-.0293637.3404292-.0174293.2429798-.0369192.5185-.0720353.7026667-.0713485.374601-.4183031.825101-1.0114142.928303-.015798.0027475-.0317677.0042071-.0477374.0042071zm-11.41335349-13.24737878c.7890404 1.83660101 3.50088384 7.41148485 4.6955202 9.85622218l.07066162.1443283c.50690909 1.0408637 1.6450505 2.6075253 2.47607576 2.6631616.05211616.0036061.08293939.0042071.08688888.0042071l4.05922223.0231818c.34-.0688586.5080252-.3228282.5380758-.480207.0289343-.1520556.0478232-.4213081.0633636-.6378435.0115909-.1680252.0228384-.3148434.0351162-.3904848.027904-.1709445-.0021465-.2134445-.0024899-.2138738-.0007728-.0006868-.0728081-.0633636-.4110051-.0078131l-4.07338889.3721111c-1.24271717-.017601-1.81084343-.8815959-1.91232828-1.0546868-.39615151-.675192-4.20990404-8.48239904-5.05612626-10.30964146z"/><path d="m11.706303 13.7557475c-.001803 0-.0040353 0-.0058384-.0001717l-4.0939949-.1306768c-.05469192-.0016313-.10569192-.0273889-.13977778-.0702323-.03365657-.0427576-.04705051-.0983081-.03623232-.1518839l.35991919-1.7732373c.01665656-.0808788.08439899-.1412374.16690909-.1479344l4.10884852-.3336465c.0542626-.0029191.112904.0171718.1513687.0594142.0387222.0421566.055808.0997677.0463636.1560909l-.3747727 2.2376465c-.0147677.0893787-.0926415.1546313-.182793.1546313zm-3.86878785-.4944596 3.71269695.1185707.3084899-1.8431263-3.73261614.3030808z"/></g></g></g></svg>