<svg width="50" height="13" viewBox="0 0 50 13" xmlns="http://www.w3.org/2000/svg">
<path fill-rule="evenodd" clip-rule="evenodd" d="M0.110003 4.88004V9.65004H1.23V4.66504L0.110003 4.88004Z"/>
<path fill-rule="evenodd" clip-rule="evenodd" d="M49.883 1.72195C49.883 2.53195 49.203 3.19195 48.366 3.19195C47.529 3.19195 46.848 2.53395 46.848 1.72195C46.848 0.909953 47.528 0.251953 48.366 0.251953C49.204 0.251953 49.883 0.909953 49.883 1.72195Z"/>
<mask id="mask0" mask-type="alpha" maskUnits="userSpaceOnUse" x="40" y="3" width="9" height="10">
<path d="M40.953 3.94897H48.366V12.593H40.953V3.94897Z"/>
</mask>
<g mask="url(#mask0)">
<path fill-rule="evenodd" clip-rule="evenodd" d="M41.956 4.35997C41.422 4.44497 40.92 4.52697 40.953 4.66997C40.986 4.81297 43.335 4.84997 44.485 5.62497C44.602 5.70497 44.731 5.82497 44.77 5.92497C45.376 7.63797 41.37 12.465 41.768 12.587C42.36 12.77 46.708 8.15997 48.05 5.58097C48.142 5.40297 48.51 4.56097 48.3 4.29097C48.19 4.14897 47.826 4.04097 47.313 3.99097C47.007 3.96097 46.673 3.94897 46.313 3.94897C44.796 3.94897 42.993 4.19397 41.945 4.35897"/>
</g>
<path d="M16.407 6.72398L16.575 5.85698C16.575 5.85698 15.277 5.47698 14.223 6.18098V9.65098H15.343V6.83098C15.79 6.50498 16.408 6.72098 16.408 6.72098L16.407 6.72398ZM6.737 4.86798L7.857 4.67798V5.80598H8.965V6.70798H7.86V8.05498C7.86 8.28298 7.9 8.45498 7.985 8.59998C8.07 8.74498 8.235 8.80398 8.485 8.80398C8.605 8.80398 8.729 8.79398 8.857 8.77098C8.985 8.74798 9.101 8.71898 9.207 8.68098L9.365 9.52498C9.2182 9.58153 9.06746 9.62732 8.914 9.66198C8.71382 9.70407 8.50954 9.72352 8.305 9.71998C7.999 9.71998 7.745 9.67998 7.545 9.59998C7.35905 9.53055 7.19361 9.41532 7.064 9.26498C6.944 9.12198 6.859 8.94898 6.812 8.74498C6.765 8.54098 6.742 8.31498 6.742 8.06698V4.86698L6.737 4.86798ZM18.234 8.87398C18.44 8.87398 18.584 8.85398 18.671 8.81598C18.758 8.77798 18.799 8.70198 18.799 8.59098C18.799 8.50298 18.743 8.42698 18.633 8.36098C18.523 8.29498 18.353 8.22098 18.128 8.13898L17.651 7.94298C17.508 7.87498 17.386 7.79298 17.286 7.69898C17.1851 7.60423 17.1057 7.48898 17.053 7.36098C16.997 7.22898 16.969 7.07098 16.969 6.88798C16.9633 6.72311 16.998 6.55934 17.0702 6.41099C17.1423 6.26264 17.2497 6.13423 17.383 6.03698C17.659 5.82698 18.038 5.72298 18.519 5.72298C18.761 5.72298 18.991 5.74298 19.212 5.78498C19.433 5.82698 19.608 5.87098 19.738 5.92098L19.542 6.76498C19.412 6.72198 19.27 6.68198 19.117 6.64898C18.964 6.61598 18.794 6.59898 18.603 6.59898C18.251 6.59898 18.076 6.69398 18.076 6.88198C18.076 6.92698 18.084 6.96498 18.098 6.99898C18.112 7.03298 18.144 7.06598 18.188 7.09698C18.2462 7.1363 18.3078 7.17043 18.372 7.19898C18.4689 7.2443 18.568 7.28468 18.669 7.31998C18.914 7.40998 19.117 7.49598 19.269 7.57998C19.4094 7.65096 19.5374 7.74416 19.648 7.85598C19.74 7.95598 19.806 8.05598 19.843 8.18798C19.88 8.31998 19.9 8.44798 19.9 8.60798C19.9 8.98498 19.755 9.27198 19.46 9.46498C19.165 9.65798 18.75 9.75498 18.215 9.75498C17.865 9.75498 17.572 9.72498 17.339 9.66698L16.854 9.52198L17.042 8.64198C17.232 8.71498 17.428 8.77198 17.628 8.81198C17.828 8.85198 18.028 8.87198 18.222 8.87198L18.234 8.87398ZM23.366 7.45398L23.046 8.55398L22.689 9.65398H21.816L21.523 8.92598L21.193 8.00598L20.846 6.94998L20.502 5.82598H21.682L21.814 6.39598L21.966 7.03298L22.132 7.69098L22.312 8.32898L22.504 7.67298L22.684 7.01498L22.849 6.38898L22.989 5.82498H23.799L23.934 6.38898L24.091 7.01498L24.264 7.67298L24.452 8.32898L24.634 7.69098L24.804 7.03298L24.954 6.39598L25.087 5.82598H26.253L25.909 6.94998L25.563 8.00598L25.23 8.92598L24.933 9.65398H24.06L23.69 8.55398L23.36 7.45398H23.366Z"/>
<path fill-rule="evenodd" clip-rule="evenodd" d="M27.05 9.65007H28.17V5.82007H27.05V9.65007Z"/>
<path d="M29.06 4.87L30.18 4.677V5.825H31.288V6.727H30.18V8.073C30.18 8.303 30.22 8.473 30.305 8.619C30.39 8.765 30.555 8.823 30.805 8.823C30.925 8.823 31.049 8.813 31.178 8.79C31.2973 8.77036 31.4145 8.73956 31.528 8.698L31.685 9.542C31.55 9.596 31.4 9.642 31.235 9.682C31.0347 9.72352 30.8305 9.74297 30.626 9.74C30.32 9.74 30.066 9.7 29.866 9.62C29.666 9.54 29.506 9.43 29.384 9.285C29.262 9.14 29.18 8.969 29.134 8.765C29.088 8.561 29.062 8.335 29.062 8.088V4.87H29.06ZM32.08 7.74C32.0784 7.47272 32.1255 7.20739 32.219 6.957C32.312 6.712 32.445 6.497 32.619 6.317C32.793 6.137 33.009 5.991 33.259 5.885C33.509 5.779 33.794 5.725 34.115 5.725C34.3093 5.72362 34.5033 5.74171 34.694 5.779C34.8692 5.81471 35.0406 5.86694 35.206 5.935L34.973 6.802C34.86 6.76057 34.7444 6.7265 34.627 6.7C34.4887 6.6697 34.3475 6.65494 34.206 6.656C33.876 6.656 33.629 6.756 33.466 6.956C33.303 7.156 33.222 7.416 33.222 7.742C33.222 8.087 33.298 8.352 33.452 8.542C33.606 8.732 33.872 8.826 34.252 8.826C34.387 8.826 34.532 8.814 34.687 8.789C34.8341 8.76693 34.9781 8.72766 35.116 8.672L35.274 9.562C35.144 9.615 34.98 9.662 34.784 9.699C34.5711 9.73977 34.3548 9.75953 34.138 9.758C33.778 9.758 33.466 9.706 33.205 9.602C32.944 9.498 32.73 9.356 32.562 9.175C32.394 8.994 32.272 8.785 32.192 8.539C32.1132 8.2811 32.0745 8.01265 32.077 7.743L32.08 7.74ZM36 9.654V4.867L37.12 4.677V5.84C37.196 5.815 37.29 5.793 37.41 5.77C37.53 5.747 37.642 5.737 37.753 5.737C38.073 5.737 38.339 5.78 38.553 5.865C38.7515 5.93896 38.9278 6.06256 39.065 6.224C39.193 6.38 39.283 6.564 39.335 6.778C39.387 6.992 39.415 7.228 39.415 7.492V9.654H38.293V7.624C38.293 7.274 38.247 7.028 38.153 6.881C38.059 6.734 37.89 6.663 37.638 6.663C37.538 6.663 37.445 6.673 37.358 6.689L37.121 6.743V9.653H36V9.654ZM2.22 9.65L2.217 6.182C2.217 6.182 2.779 5.746 4.011 5.746C5.131 5.746 5.749 6.288 5.749 7.482V9.65H4.63V7.484C4.63 6.724 4.236 6.67 3.9 6.67C3.564 6.67 3.34 6.832 3.34 6.832V9.652H2.22V9.65ZM13.344 8.01H10.824C10.824 8.01 10.879 8.824 12.001 8.824C12.561 8.824 13.121 8.662 13.121 8.662L13.233 9.53C13.233 9.53 12.673 9.747 11.889 9.747C10.769 9.747 9.759 9.204 9.759 7.687C9.759 6.494 10.543 5.735 11.664 5.735C13.344 5.735 13.457 7.361 13.344 8.011V8.01ZM11.608 6.493C10.88 6.493 10.824 7.253 10.824 7.253H12.392C12.392 7.253 12.336 6.493 11.607 6.493H11.608Z"/>
</svg>
