<svg xmlns="http://www.w3.org/2000/svg" width="28" height="20" viewBox="0 0 28 20">
  <g fill="none" fill-rule="evenodd">
    <rect width="28" height="20" fill="#30C6E0"/>
    <circle cx="14" cy="10" r="4" fill="#FFCD4B"/>
    <path fill="#FFCD4B" d="M14 14.713613L12.3681798 17.1494714 11.95484 14.2468186 9.42774145 15.7334309 10.3147489 12.9388896 7.39289497 13.1818141 9.40456711 11.0488776 6.66666667 10 9.40456711 8.95112243 7.39289497 6.81818591 10.3147489 7.06111036 9.42774145 4.26656913 11.95484 5.75318142 12.3681798 2.85052864 14 5.28638699 15.6318202 2.85052864 16.04516 5.75318142 18.5722585 4.26656913 17.6852511 7.06111036 20.607105 6.81818591 18.5954329 8.95112243 21.3333333 10 18.5954329 11.0488776 20.607105 13.1818141 17.6852511 12.9388896 18.5722585 15.7334309 16.04516 14.2468186 15.6318202 17.1494714 14 14.713613zM14 14.6666667C16.5773288 14.6666667 18.6666667 12.5773288 18.6666667 10 18.6666667 7.42267117 16.5773288 5.33333333 14 5.33333333 11.4226712 5.33333333 9.33333333 7.42267117 9.33333333 10 9.33333333 12.5773288 11.4226712 14.6666667 14 14.6666667zM1.33333333 1.66978963C1.33333333 1.48396995 1.47602336 1.33333333 1.66978963 1.33333333L2.33021037 1.33333333C2.51603005 1.33333333 2.66666667 1.47602336 2.66666667 1.66978963L2.66666667 2.33021037C2.66666667 2.51603005 2.52397664 2.66666667 2.33021037 2.66666667L1.66978963 2.66666667C1.48396995 2.66666667 1.33333333 2.52397664 1.33333333 2.33021037L1.33333333 1.66978963zM1.33333333 4.3364563C1.33333333 4.15063662 1.47602336 4 1.66978963 4L2.33021037 4C2.51603005 4 2.66666667 4.14269002 2.66666667 4.3364563L2.66666667 4.99687703C2.66666667 5.18269672 2.52397664 5.33333333 2.33021037 5.33333333L1.66978963 5.33333333C1.48396995 5.33333333 1.33333333 5.19064331 1.33333333 4.99687703L1.33333333 4.3364563zM1.33333333 7.00312297C1.33333333 6.81730328 1.47602336 6.66666667 1.66978963 6.66666667L2.33021037 6.66666667C2.51603005 6.66666667 2.66666667 6.80935669 2.66666667 7.00312297L2.66666667 7.6635437C2.66666667 7.84936338 2.52397664 8 2.33021037 8L1.66978963 8C1.48396995 8 1.33333333 7.85730998 1.33333333 7.6635437L1.33333333 7.00312297zM1.33333333 9.66978963C1.33333333 9.48396995 1.47602336 9.33333333 1.66978963 9.33333333L2.33021037 9.33333333C2.51603005 9.33333333 2.66666667 9.47602336 2.66666667 9.66978963L2.66666667 10.3302104C2.66666667 10.5160301 2.52397664 10.6666667 2.33021037 10.6666667L1.66978963 10.6666667C1.48396995 10.6666667 1.33333333 10.5239766 1.33333333 10.3302104L1.33333333 9.66978963zM1.33333333 12.3364563C1.33333333 12.1506366 1.47602336 12 1.66978963 12L2.33021037 12C2.51603005 12 2.66666667 12.14269 2.66666667 12.3364563L2.66666667 12.996877C2.66666667 13.1826967 2.52397664 13.3333333 2.33021037 13.3333333L1.66978963 13.3333333C1.48396995 13.3333333 1.33333333 13.1906433 1.33333333 12.996877L1.33333333 12.3364563zM1.33333333 15.003123C1.33333333 14.8173033 1.47602336 14.6666667 1.66978963 14.6666667L2.33021037 14.6666667C2.51603005 14.6666667 2.66666667 14.8093567 2.66666667 15.003123L2.66666667 15.6635437C2.66666667 15.8493634 2.52397664 16 2.33021037 16L1.66978963 16C1.48396995 16 1.33333333 15.85731 1.33333333 15.6635437L1.33333333 15.003123zM1.33333333 17.6697896C1.33333333 17.4839699 1.47602336 17.3333333 1.66978963 17.3333333L2.33021037 17.3333333C2.51603005 17.3333333 2.66666667 17.4760234 2.66666667 17.6697896L2.66666667 18.3302104C2.66666667 18.5160301 2.52397664 18.6666667 2.33021037 18.6666667L1.66978963 18.6666667C1.48396995 18.6666667 1.33333333 18.5239766 1.33333333 18.3302104L1.33333333 17.6697896zM2.66666667 16.3364563C2.66666667 16.1506366 2.80935669 16 3.00312297 16L3.6635437 16C3.84936338 16 4 16.14269 4 16.3364563L4 16.996877C4 17.1826967 3.85730998 17.3333333 3.6635437 17.3333333L3.00312297 17.3333333C2.81730328 17.3333333 2.66666667 17.1906433 2.66666667 16.996877L2.66666667 16.3364563zM2.66666667 13.6697896C2.66666667 13.4839699 2.80935669 13.3333333 3.00312297 13.3333333L3.6635437 13.3333333C3.84936338 13.3333333 4 13.4760234 4 13.6697896L4 14.3302104C4 14.5160301 3.85730998 14.6666667 3.6635437 14.6666667L3.00312297 14.6666667C2.81730328 14.6666667 2.66666667 14.5239766 2.66666667 14.3302104L2.66666667 13.6697896zM2.66666667 11.003123C2.66666667 10.8173033 2.80935669 10.6666667 3.00312297 10.6666667L3.6635437 10.6666667C3.84936338 10.6666667 4 10.8093567 4 11.003123L4 11.6635437C4 11.8493634 3.85730998 12 3.6635437 12L3.00312297 12C2.81730328 12 2.66666667 11.85731 2.66666667 11.6635437L2.66666667 11.003123zM2.66666667 8.3364563C2.66666667 8.15063662 2.80935669 8 3.00312297 8L3.6635437 8C3.84936338 8 4 8.14269002 4 8.3364563L4 8.99687703C4 9.18269672 3.85730998 9.33333333 3.6635437 9.33333333L3.00312297 9.33333333C2.81730328 9.33333333 2.66666667 9.19064331 2.66666667 8.99687703L2.66666667 8.3364563zM2.66666667 5.66978963C2.66666667 5.48396995 2.80935669 5.33333333 3.00312297 5.33333333L3.6635437 5.33333333C3.84936338 5.33333333 4 5.47602336 4 5.66978963L4 6.33021037C4 6.51603005 3.85730998 6.66666667 3.6635437 6.66666667L3.00312297 6.66666667C2.81730328 6.66666667 2.66666667 6.52397664 2.66666667 6.33021037L2.66666667 5.66978963zM2.66666667 3.00312297C2.66666667 2.81730328 2.80935669 2.66666667 3.00312297 2.66666667L3.6635437 2.66666667C3.84936338 2.66666667 4 2.80935669 4 3.00312297L4 3.6635437C4 3.84936338 3.85730998 4 3.6635437 4L3.00312297 4C2.81730328 4 2.66666667 3.85730998 2.66666667 3.6635437L2.66666667 3.00312297z"/>
  </g>
</svg>
