<svg xmlns="http://www.w3.org/2000/svg" width="28" height="20" viewBox="0 0 28 20">
  <g fill="none">
    <rect width="28" height="19.961" fill="#0052B4"/>
    <g transform="translate(7.421 4.737)">
      <polygon fill="#F0F0F0" points=".953 1.357 1.169 2.02 1.866 2.02 1.302 2.43 1.517 3.093 .953 2.683 .389 3.093 .605 2.43 .041 2.02 .738 2.02"/>
      <polygon fill="#F0F0F0" points="3.123 .706 3.338 1.37 4.035 1.37 3.471 1.779 3.687 2.442 3.123 2.032 2.559 2.442 2.774 1.779 2.21 1.37 2.907 1.37"/>
      <polygon fill="#F0F0F0" points="5.293 .056 5.508 .719 6.205 .719 5.641 1.128 5.856 1.791 5.293 1.382 4.729 1.791 4.944 1.128 4.38 .719 5.077 .719"/>
      <polygon fill="#F0F0F0" points="12.146 1.357 11.931 2.02 11.234 2.02 11.798 2.43 11.582 3.093 12.146 2.683 12.71 3.093 12.495 2.43 13.059 2.02 12.362 2.02"/>
      <polygon fill="#F0F0F0" points="9.977 .706 9.761 1.37 9.064 1.37 9.628 1.779 9.413 2.442 9.977 2.032 10.541 2.442 10.325 1.779 10.889 1.37 10.192 1.37"/>
      <polygon fill="#F0F0F0" points="7.807 .056 7.591 .719 6.894 .719 7.458 1.128 7.243 1.791 7.807 1.382 8.371 1.791 8.155 1.128 8.719 .719 8.022 .719"/>
      <path fill="#FFDA44" d="M8.28549708,5.69672515 L6.5497076,3.52701754 L5.68187135,3.96099415 L5.68187135,4.82883041 L4.38005848,5.69666667 L3.51222222,5.69666667 L3.51222222,6.81783626 C4.78421053,7.33292398 5.68187135,8.57923977 5.68187135,10.0359649 L6.5497076,10.0359649 L6.5497076,9.16812865 L7.41754386,8.3002924 L8.28538012,9.16812865 L9.15327485,8.30035088 L9.15327485,7.43251462 L10.0211111,6.13070175 L8.28549708,5.69672515 Z"/>
    </g>
  </g>
</svg>
