<svg xmlns="http://www.w3.org/2000/svg"
  xmlns:xlink="http://www.w3.org/1999/xlink" width="29" height="29" viewBox="0 0 29 29">
  <defs>
    <path id="quicklinks-live-a" d="M19.5555556,9.71883122 C19.9400086,9.8087525 20.2837573,10.0105467 20.5539906,10.2899088 L20.5539906,9.66666667 C21.7834272,9.66666667 22.7777778,10.6323402 22.7777778,11.8256302 L22.7777778,14.8287485 C22.7777778,20.1286955 18.8820203,24.5591971 13.7237872,25.5643488 C13.5214259,25.6037454 13.3171534,25.6378684 13.1111111,25.6665665 L13.1111111,27.3888889 L16.3333333,27.3888889 C17.2229889,27.3888889 17.9444444,28.1103444 17.9444444,29 L5.05555556,29 C5.05555556,28.1103444 5.77701111,27.3888889 6.66666667,27.3888889 L8.27777778,27.3888889 L8.27777778,25.4835332 C3.66533727,24.340039 0.222222222,19.9979395 0.222222222,14.8287485 L0.222222222,11.8256302 C0.222222222,10.795083 0.910516477,9.93467262 1.83333333,9.71883122 L1.83333333,9.66666667 L5.05555556,9.66666667 L5.05555556,5.85858586 C5.05555556,3.67867732 6.36507949,1.77690999 8.30801715,0.76792952 C8.02613697,0.916525915 7.7576311,1.08388331 7.50550964,1.26984368 L7.50550964,3.4695359 C7.50550964,3.79396995 7.79151515,4.05674685 8.1446281,4.05674685 C8.49774105,4.05674685 8.78374656,3.79396995 8.78374656,3.4695359 L8.78374656,0.544241531 C9.09092779,0.414269724 9.41125705,0.30566087 9.74242424,0.220515048 L9.74242424,3.4695359 C9.74242424,3.79396995 10.0284298,4.05674685 10.3815427,4.05674685 C10.7346556,4.05674685 11.0206612,3.79396995 11.0206612,3.4695359 L11.0206612,0.0159596819 C11.1789205,0.00538217548 11.3387686,0 11.5,0 C11.6612314,0 11.8210795,0.00538217548 11.9793388,0.0159596819 L11.9793388,3.4695359 C11.9793388,3.79396995 12.2653444,4.05674685 12.6184573,4.05674685 C12.9715702,4.05674685 13.2575758,3.79396995 13.2575758,3.4695359 L13.2575758,0.220515048 C13.588743,0.30566087 13.9090722,0.414269724 14.2162534,0.544241531 L14.2162534,3.4695359 C14.2162534,3.79396995 14.502259,4.05674685 14.8553719,4.05674685 C15.2084848,4.05674685 15.4944904,3.79396995 15.4944904,3.4695359 L15.4944904,1.26984368 C15.2423689,1.08388331 14.973863,0.916525915 14.6919828,0.767929519 C16.6349205,1.77690999 17.9444444,3.67867732 17.9444444,5.85858586 L17.9444444,9.66666667 L19.5555556,9.66666667 L19.5555556,9.71883122 Z M19.1017214,11.2777778 L17.9444444,11.2777778 L17.9444444,13.4747475 C17.9444444,15.654656 16.6349205,17.5564233 14.6919828,18.5654038 C14.973863,18.4168074 15.2423689,18.24945 15.4944904,18.0634897 L15.4944904,15.8009659 C15.4944904,15.4768254 15.2084848,15.2137549 14.8553719,15.2137549 C14.502259,15.2137549 14.2162534,15.4768254 14.2162534,15.8009659 L14.2162534,18.7890918 C13.9090722,18.9190636 13.588743,19.0276725 13.2575758,19.1128183 L13.2575758,15.8009659 C13.2575758,15.4768254 12.9715702,15.2137549 12.6184573,15.2137549 C12.2653444,15.2137549 11.9793388,15.4768254 11.9793388,15.8009659 L11.9793388,19.3173737 C11.8210795,19.3279512 11.6612314,19.3333333 11.5,19.3333333 C11.3387686,19.3333333 11.1789205,19.3279512 11.0206612,19.3173737 L11.0206612,15.8009659 C11.0206612,15.4768254 10.7346556,15.2137549 10.3815427,15.2137549 C10.0284298,15.2137549 9.74242424,15.4768254 9.74242424,15.8009659 L9.74242424,19.1128183 C9.41125705,19.0276725 9.09092779,18.9190636 8.78374656,18.7890918 L8.78374656,15.8009659 C8.78374656,15.4768254 8.49774105,15.2137549 8.1446281,15.2137549 C7.79151515,15.2137549 7.50550964,15.4768254 7.50550964,15.8009659 L7.50550964,18.0634897 C7.7576311,18.24945 8.02613697,18.4168074 8.30801715,18.5654038 C6.36507949,17.5564233 5.05555556,15.654656 5.05555556,13.4747475 L5.05555556,11.2777778 L2.28716745,11.2777778 L2.28716745,14.8287485 C2.28716745,19.6740795 6.06011737,23.6188143 10.6944444,23.6188143 C15.3287715,23.6188143 19.1017214,19.6740795 19.1017214,14.8287485 L19.1017214,11.2777778 Z M6.22817068,9.66666667 L6.66666667,9.66666667 L6.66666667,10.193248 C6.72949765,10.2122071 6.796635,10.2224618 6.86639118,10.2224618 L16.1336088,10.2224618 C16.4867218,10.2224618 16.7727273,9.95968493 16.7727273,9.63525088 C16.7727273,9.31111044 16.4867218,9.04803993 16.1336088,9.04803993 L6.86639118,9.04803993 C6.51327824,9.04803993 6.22727273,9.31111044 6.22727273,9.63525088 C6.22727273,9.64579017 6.22757454,9.6562644 6.22817068,9.66666667 Z M6.66666667,11.1325196 L6.66666667,11.2777778 L6.41176802,11.2777778 C6.29768416,11.3838636 6.22727273,11.529659 6.22727273,11.6904892 C6.22727273,12.0149233 6.51327824,12.2777002 6.86639118,12.2777002 L16.1336088,12.2777002 C16.4867218,12.2777002 16.7727273,12.0149233 16.7727273,11.6904892 C16.7727273,11.3663488 16.4867218,11.1032783 16.1336088,11.1032783 L6.86639118,11.1032783 C6.796635,11.1032783 6.72949765,11.1135445 6.66666667,11.1325196 Z M9.88888889,22.5555556 L9.88888889,19.3333333 L13.1111111,19.3333333 L13.1111111,22.5555556 L9.88888889,22.5555556 Z M16.7727273,5.52477423 C16.7727273,5.20063378 16.4867218,4.93756328 16.1336088,4.93756328 L6.86639118,4.93756328 C6.51327824,4.93756328 6.22727273,5.20063378 6.22727273,5.52477423 C6.22727273,5.84920828 6.51327824,6.11198518 6.86639118,6.11198518 L16.1336088,6.11198518 C16.4867218,6.11198518 16.7727273,5.84920828 16.7727273,5.52477423 Z M16.7727273,7.58001255 C16.7727273,7.25587211 16.4867218,6.9928016 16.1336088,6.9928016 L6.86639118,6.9928016 C6.51327824,6.9928016 6.22727273,7.25587211 6.22727273,7.58001255 C6.22727273,7.9044466 6.51327824,8.1672235 6.86639118,8.1672235 L16.1336088,8.1672235 C16.4867218,8.1672235 16.7727273,7.9044466 16.7727273,7.58001255 Z M16.7727273,13.7457275 C16.7727273,13.4215871 16.4867218,13.1585166 16.1336088,13.1585166 L6.86639118,13.1585166 C6.51327824,13.1585166 6.22727273,13.4215871 6.22727273,13.7457275 C6.22727273,14.0701616 6.51327824,14.3329385 6.86639118,14.3329385 L16.1336088,14.3329385 C16.4867218,14.3329385 16.7727273,14.0701616 16.7727273,13.7457275 Z"/>
  </defs>
  <use fill-rule="evenodd" transform="translate(3)" xlink:href="#quicklinks-live-a"/>
</svg>
