<svg width="25" height="20" viewBox="0 0 25 20"
  xmlns="http://www.w3.org/2000/svg">
  <path d="M23.7618 0.570312H12.5H4.8335C4.6312 0.570312 4.46729 0.734278 4.46729 0.936524C4.46729 1.13877 4.6312 1.30273 4.8335 1.30273H12.1337V5.78066C9.879 5.96738 8.10127 7.86191 8.10127 10.164C8.10127 12.466 9.879 14.3605 12.1337 14.5473V19.0252H1.23813C0.959326 19.0252 0.732471 18.7983 0.732471 18.5195V16.1938H4.33574C4.83286 16.1938 5.23721 15.7895 5.23721 15.2924V5.0355C5.23721 4.53848 4.83286 4.13413 4.33574 4.13413H0.732471V1.80835C0.732471 1.52954 0.959326 1.30273 1.23813 1.30273H3.56392C3.76621 1.30273 3.93013 1.13877 3.93013 0.936524C3.93013 0.734278 3.76621 0.570312 3.56392 0.570312H1.23813C0.55542 0.570312 0 1.12568 0 1.80835C0 1.95454 0 15.682 0 15.8276V18.5196C0 19.2023 0.55542 19.7577 1.23813 19.7577C1.72646 19.7577 23.2735 19.7577 23.7619 19.7577C24.4446 19.7577 25 19.2023 25 18.5196V15.8276C25 15.682 25 1.95459 25 1.8084C25 1.12568 24.4446 0.570312 23.7618 0.570312ZM0.732471 4.8666H4.33574C4.42891 4.8666 4.50474 4.94238 4.50474 5.0355V15.2924C4.50474 15.3855 4.42891 15.4613 4.33574 15.4613H0.732471V4.8666ZM12.1337 9.46953C11.8847 9.60117 11.7147 9.86255 11.7147 10.164C11.7147 10.4652 11.8847 10.7266 12.1337 10.8583V13.8119C10.2835 13.6275 8.83374 12.062 8.83374 10.164C8.83374 8.26606 10.2835 6.70049 12.1337 6.51611V9.46953ZM12.8662 10.8582C13.1153 10.7266 13.2852 10.4652 13.2852 10.1639C13.2852 9.86255 13.1153 9.60117 12.8662 9.46948V6.51606C14.7165 6.70039 16.1662 8.26597 16.1662 10.164C16.1662 12.062 14.7164 13.6275 12.8662 13.8119V10.8582ZM24.2675 4.13413H20.6642C20.1671 4.13413 19.7627 4.53848 19.7627 5.0355V6.01328C19.7627 6.21553 19.9267 6.37949 20.129 6.37949C20.3312 6.37949 20.4952 6.21553 20.4952 6.01328V5.0355C20.4952 4.94238 20.571 4.8666 20.6642 4.8666H24.2674V15.4613H20.6642C20.571 15.4613 20.4952 15.3855 20.4952 15.2924V7.28291C20.4952 7.08066 20.3312 6.9167 20.129 6.9167C19.9267 6.9167 19.7627 7.08066 19.7627 7.28291V15.2924C19.7627 15.7895 20.1671 16.1937 20.6642 16.1937H24.2675V18.5195C24.2675 18.7983 24.0407 19.0252 23.7618 19.0252H12.8662V14.5473C15.1209 14.3605 16.8987 12.4661 16.8987 10.164C16.8987 7.86186 15.1209 5.96738 12.8662 5.78066V1.30278H23.7619C24.0407 1.30278 24.2675 1.52959 24.2675 1.8084V4.13413H24.2675Z" />
</svg>
