<svg height="17" viewBox="0 0 17 17" width="17" xmlns="http://www.w3.org/2000/svg"><path d="m8.5-.00000218c-4.69183872 0-8.5 3.80817436-8.5 8.5 0 2.90040268 1.34225679 5.02939118 2.84695513 6.42269368.75234808.6965859 1.54793718 1.2099206 2.24078525 1.5528847.69284808.3428769 1.26909795.5244282 1.66866988.5244282h3.48717944c.3935195 0 .9753947-.1647475 1.6686699-.4903847.6932753-.3256371 1.4874804-.8216884 2.2407853-1.5051974 1.5066097-1.3671487 2.8469551-3.497532 2.8469551-6.50442448 0-4.69182564-3.8081613-8.5-8.5-8.5zm0 .43589744c4.4562623 0 8.0641026 3.60783589 8.0641026 8.0641091 0 1.49194615-.3484695 2.74746154-.8786058 3.79365894-.0681242-1.0196077-.9182637-1.8321205-1.9547276-1.8321205-.6166575 0-1.1656551.2885423-1.525641.7355769.0086308-1.24302688-.9709136-2.03404996-1.9615385-2.04326919-.66672906 0-1.25950598.33396282-1.61418265.84455128-.35854961-.38574743-.87076615-.62660256-1.43709936-.62660256-.76260038 0-1.4261191.43822949-1.75040064 1.07612177-.26134667-.1292654-.55448115-.2043269-.86498397-.2043269-1.08074667 0-1.96153846.8807962-1.96153846 1.9615385 0 .270191.05718974.5282641.15665064.7628205-.0994609.2345564-.15665064.4926295-.15665064.7628205 0 .1305731.01634615.2578769.04086538.3814102-1.22486308-1.3161269-2.22035256-3.1654435-2.22035256-5.61217944 0-4.45627321 3.60784025-8.0641091 8.06410256-8.0641091zm0 .93990384c-2.34333667 0-4.25.85193975-4.25 1.89342949s1.90666333 1.88660769 4.25 1.88660769c2.3433367 0 4.25-.84511795 4.25-1.88660769s-1.9066633-1.89342949-4.25-1.89342949zm0 .29285769c1.9899742 0 3.5961538.7161359 3.5961538 1.6005718s-1.6061796 1.59375-3.5961538 1.59375c-1.98997423 0-3.59615385-.7093141-3.59615385-1.59375s1.60617962-1.6005718 3.59615385-1.6005718zm1.7435897 7.92109116c.8451703 0 1.5256411.68047945 1.5256411 1.52564105 0 .8451615-.6804708 1.525641-1.5256411 1.525641-.50112291 0-.94134444-.2420321-1.2191506-.6129808.08255026-.2164666.12940705-.4497807.12940705-.6947115 0-.3464731-.09338012-.6705846-.2520032-.9535256.25860923-.47277441.76282923-.79006415 1.34174675-.79006415zm-3.05128201.21794872c.84517026 0 1.52564103.68047953 1.52564103 1.52564103s-.68047077 1.525641-1.52564103 1.525641c-.84517025 0-1.52564102-.6804795-1.52564102-1.525641s.68047077-1.52564103 1.52564102-1.52564103zm-2.61538461.87179483c.25873564 0 .50207756.0643385.71514423.1770834-.03820423.1524551-.06129808.3127128-.06129808.4767628 0 .20485.02989385.3998923.08854167.5857372-.22878949-.0935-.48034808-.1498398-.74238782-.1498398-.60103282 0-1.13815.2737218-1.49839744.7015334-.01523461-.0868744-.02724359-.174359-.02724359-.2656359 0-.8451616.68047077-1.5256411 1.52564103-1.5256411zm9.15384612.2179488c.8451703 0 1.5256411.6804794 1.5256411 1.525641 0 .5196551-.2592304.9779577-.6538462 1.2532051-.0286537-1.0560269-.8987835-1.9070513-1.9615385-1.9070513-.1001779 0-.1966703.0058846-.2928685.0204872.2403778-.5257141.7648779-.8922385 1.3826121-.8922385zm-9.15384612 1.3076923c.66575269 0 1.22783154.4226243 1.43709936 1.0148128-.55785718.1904872-1.19856539.9762359-1.21915065 1.8185205 0 .0675423.0001177.1317718.0068.1975051-.07379307.0108975-.14784987.0204872-.22475961.0204872-.84517026 0-1.52564103-.6804795-1.52564103-1.525641 0-.8451616.68047077-1.525641 1.52564103-1.525641zm8.06410252 0c.8451703 0 1.5256411.6804795 1.5256411 1.525641-.0189834.9210077-.7200263 1.5023423-1.5256302 1.525532-.8451702 0-1.525641-.6804794-1.525641-1.525641 0-.8451615.6804708-1.525641 1.525641-1.525641zm-3.83453522.2383923c.35871962.3877525.86891359.6334025 1.43709932.6334025.204024 0 .4009211-.0368987.5857372-.0953525-.0434023.1046154-.0773129.2141782-.1021634.326923-.2746939-.1467448-.5871844-.2315705-.91947119-.2315705-.61665757 0-1.16565513.2885423-1.52564103.735577-.18958705-.2354282-.43162346-.4299693-.70833333-.5584936.50753718-.1006705.94753641-.3996962 1.23277243-.8104859zm-2.05008012 1.0693c.84517025 0 1.52564102.6804795 1.52564102 1.525641-.03263564.8743013-.71343115 1.4859962-1.63461538 1.518841-.74634577-.0141666-1.43085513-.7799295-1.41666667-1.518841 0-.8451615.68047077-1.525641 1.52564103-1.525641zm3.05128205 0c.32551079 0 .62461049.1000166.87179489.2724359.0155397.5535679.2627633 1.048573.6470352 1.396223-.0716593.7776629-.7218984 1.3826231-1.51883009 1.3826231-.53725231 0-1.00878218-.2772525-1.28044872-.6947115.11922013-.2529513.19070513-.5335167.19070513-.8309295s-.071485-.5779782-.19070513-.8309295c.27166654-.417459.74319641-.6947115 1.28044872-.6947115zm1.91386219 1.9479166c.240356.1283936.5106996.2064847.796875.2247706-.2744999.1676897-.5447694.3106641-.796875.4290756-.1471524.0691115-.2868641.1244487-.4222757.1770833.2037843-.2329654.3521986-.5130077.4222757-.8309295zm-6.82451924.204327c.04255884.0925846.09586474.2080756.13620705.2928794-.14992475-.0808153-.299625-.1682128-.45633013-.2656358.11226974.0021794.22507128-.0165642.32012308-.0272436zm3.38501602.5993589c.08999757.1117641.19476334.2135898.30649039.2996795h-.60616988c.11108847-.0860897.20968193-.1879154.29967949-.2996795z"/></svg>