<svg height="17" viewBox="0 0 17 17" width="17" xmlns="http://www.w3.org/2000/svg"><path d="m2.91002222 4.38524444c1.13012222-.37003333 1.74684445-1.5878 1.37737778-2.71678888-.36965556-1.12898889-1.58685556-1.74646667-2.71735556-1.37624445-1.12804444.36927778-1.74457777 1.58704445-1.37511111 2.71603333.36965556 1.12898889 1.58685556 1.74627778 2.71508889 1.377zm13.37049998 7.45412226-1.3484778-.6813223c.0476-.9756111-.4625888-1.93799996-1.3841777-2.41815551l-.3364111.64562222c.5543888.28881111.9013777.82091109.9792 1.39777779l-3.2851556-1.66127779s-.1346778-.05005555-.0404222-.21061111c.2820111-.47845556.1224-1.0948-.3562445-1.37624444l-5.78415552-3.74075556c-.3434.5865-.89306667 1.05513333-1.58817778 1.28274444-.31808889.10407778-.64165556.14903334-.9588.14166667-.52511111 1.31938889.92121111 2.11158889.92121111 2.11158889l10.15655559 5.3168444c-.5037667.2789889-1.1284223.3192223-1.6828111.0604445l-10.76194449-5.69821112-.34037778.64354444 10.69281107 5.66439998c.3798556.1979556.7867223.2916445 1.1881112.2916445.5921666 0 1.1718666-.2045667 1.6338888-.5798889l1.3464.6750889c1.2546.6324 2.1977223-1.2355223.9489778-1.8649z" fill="#fff" transform="translate(0 1.5)"/></svg>