<svg xmlns="http://www.w3.org/2000/svg" xmlns:xlink="http://www.w3.org/1999/xlink" width="28" height="20" viewBox="0 0 28 20">
  <defs>
    <path id="malta-a" d="M5.33333333,4 L6.66666667,4 L6.66666667,5.33333333 L5.33333333,5.33333333 L5.33333333,6.66666667 L4,6.66666667 L4,5.33333333 L2.66666667,5.33333333 L2.66666667,4 L4,4 L4,2.66666667 L5.33333333,2.66666667 L5.33333333,4 Z"/>
  </defs>
  <g fill="none" fill-rule="evenodd">
    <rect width="13.333" height="20" x="14.667" fill="#DE233C"/>
    <rect width="14.667" height="20" fill="#FFF"/>
    <use fill="#CCCCCD" xlink:href="#malta-a"/>
    <path stroke="#7B716A" stroke-opacity=".66" stroke-width=".667" d="M5.66666667,3.66666667 L7,3.66666667 L7,5.66666667 L5.66666667,5.66666667 L5.66666667,7 L3.66666667,7 L3.66666667,5.66666667 L2.33333333,5.66666667 L2.33333333,3.66666667 L3.66666667,3.66666667 L3.66666667,2.33333333 L5.66666667,2.33333333 L5.66666667,3.66666667 Z"/>
    <circle cx="4.667" cy="4.667" r="1" fill="#7B716A"/>
  </g>
</svg>
