<svg xmlns="http://www.w3.org/2000/svg" xmlns:xlink="http://www.w3.org/1999/xlink" xmlns:serif="http://www.serif.com/" width="100%" height="100%" viewBox="0 0 50 38" version="1.1" xml:space="preserve" style="fill-rule:evenodd;clip-rule:evenodd;stroke-linejoin:round;stroke-miterlimit:2;"><path id="ic_messages" d="M49.669,12.317c0.202,0.097 0.33,0.301 0.331,0.525l-0,19.97c-0,2.589 -2.099,4.688 -4.688,4.688l-40.625,-0c-2.588,-0 -4.687,-2.099 -4.687,-4.688l-0,-19.96c0.001,-0.224 0.129,-0.428 0.33,-0.525c0.202,-0.098 0.441,-0.073 0.617,0.065c2.188,1.7 5.088,3.858 15.049,11.094c2.061,1.504 5.537,4.668 9.004,4.649c3.486,0.029 7.031,-3.203 9.014,-4.649c9.961,-7.236 12.851,-9.404 15.039,-11.103c0.176,-0.138 0.415,-0.164 0.616,-0.066Zm-24.669,12.683c2.266,0.039 5.527,-2.852 7.168,-4.043c12.959,-9.404 13.945,-10.225 16.934,-12.568c0.568,-0.444 0.899,-1.125 0.898,-1.846l-0,-1.856c-0,-2.588 -2.099,-4.687 -4.688,-4.687l-40.625,0c-2.588,0 -4.687,2.099 -4.687,4.687l-0,1.856c0.001,0.72 0.332,1.401 0.898,1.846c2.989,2.334 3.975,3.164 16.934,12.568c1.641,1.191 4.902,4.082 7.168,4.043Z"/><style type="text/css">
	path{fill:#293141;}
</style>
<div xmlns="" id="divScriptsUsed" style="display: none"/><script xmlns="" id="globalVarsDetection" src="chrome-extension://cmkdbmfndkfgebldhnkbfhlneefdaaip/js/wrs_env.js"/></svg>