<svg height="17" viewBox="0 0 17 17" width="17" xmlns="http://www.w3.org/2000/svg"><path d="m7.95103423 9.35868988c-.0763023-.13937901-.15994103-.27399621-.2504124-.40335776-.02450246.00312969-.04977529.00336381-.07541527.00038316-.50332525-.05857998-.92494685.05010129-1.28721767.33221005-.05423374.04209024-.12096376.06487612-.18961412.06474628-.13146871-.00017268-.24836563-.08369176-.2911375-.20800842-.04277186-.1243166-.0020084-.26207967.10152343-.34310572.35461494-.27878533.76085657-.4365706 1.2079297-.47335583-.10981505-.10659419-.22527155-.20739005-.34590468-.30193197-.01944428.00235503-.03938747.00288145-.05963368.00141562-.50949154-.05395523-.93573788.04547655-1.30186264.30831563-.05246874.0356176-.11464426.05418953-.17805224.05318444-.13404167-.00026249-.25255617-.08710062-.29319815-.21483261-.04064198-.12773198.00590146-.26708853.11514586-.34476022.23847099-.16904273.49910774-.28876664.78010177-.35871961-1.01734532-.35281245-1.97357965 1.06521848-1.98330343 1.08017814-.02389446.02851917-1.10376987 1.46989464-1.75662817 2.66153444.10097336.4855971 1.94470069 2.2584119 2.44031803 2.3354907l.02543604-.0084786c.0208113-.0077079 2.10887878-.5950491 2.94133089-1.0791047.2042591-.1194723.32218981-.2489648.35225058-.3853945.01784006-.1093844-.00639408-.2214672-.06782942-.3137111l-.0493305-.0770789-.01233263.0069371-.8779287.5010129c-.06714246.0383808-.14678964.0484923-.22139274.0281065-.07460306-.0203857-.13804029-.0695958-.17633438-.1367878-.03788546-.067446-.04739354-.1471899-.02642822-.2216529s.07068272-.1375317.13819263-.1753034l.88101185-.5033252c.08534928-.0482126.71259528-.4334585.65702239-1.1953048-.43154319-.03860157-.64280378.00427266-.93913116.2349016-.05536786.0419195-.12326647.0639186-.19269726.0624339-.13009237-.0022716-.24475591-.0859663-.28657433-.2091751-.04181842-.12320879-.00178925-.25940794.1000434-.34039745.3971696-.30841034.74234186-.38426551 1.12205272-.37706387zm-4.26073987 4.74503842.25824856-.2311499c-.2431693-.1580492-.47497292-.3329322-.69371012-.5233657-.21659171-.1857602-.99277626-.8671376-1.41439785-1.4961015l-.73764509.8216611c.06012154.1718859.34068874.6166312.91646815 1.1715993.48790944.4724937.88486579.7291664 1.06985515.7954543l.2049779-.183469c-.25351986-.1445894-.5389475-.3609707-.67284683-.4824927-.01682826-.0152664-.026825-.0366483-.02774841-.0593508-.00066051-.0228545.00828557-.0449401.02466525-.0608923l.2736301-.2744009c.03261196-.031721.08454798-.031721.11715994 0 .20387592.2029237.43292047.3784919.68134325.5225081zm4.54768946-2.7909402.07476652.1156184c.15051521.220984.20784418.4923964.15955335.7553732-.06243392.3083156-.27517171.5696131-.63127624.7761845-.83938925.4886803-2.72859309 1.0359405-3.03690872 1.1238104-.05815427.0323964-.12382478.0488805-.19038489.0477889-.02737262-.0002032-.05468857-.0025225-.08170363-.0069371l-1.15618353 1.0405652c-.0498791.0459842-.11417409.0732279-.18190621.0770789h-.02389446c-.70450116 0-1.88689152-1.3180492-1.93776359-1.3750876-.52413654-.5873412-.7653935-1.0390236-.71760458-1.3411729.00864416-.055664.033281-.1076156.07091259-.1495331l.98660994-1.0983743c-.02050438-.0941103-.011902-.1922312.02466525-.281338.67983592-1.25099057 1.77975185-2.7247392 1.82214524-2.78563153.0423934-.06089233 1.28953003-1.91695226 2.79333939-1.23326242 1.03963132.47605102 1.87770105 1.30402021 2.36632232 2.3378031.34300109.89180285.040081 1.57703435-.34068875 1.99711435zm-.17630422-6.35485362c-.01418034.71379262.57879473 1.07749013.6603597 1.12427934l.88178264.50332524c.14047936.08003065.18948272.25878932.10945207.39926868-.0800307.14047936-.25878936.18948271-.39926872.10945206l-.88101185-.50332524-.00924949-.00462475-.0416226.06320473c-.06658837.09505157-.09417659.21202567-.0770789.32681456.03006076.13720043.14876227.26669298.35225057.38539449h.0007708c.83322295.48405552 2.92051958 1.07370911 2.94133088 1.07679226l.0254361.00847869c.4956173-.08016206 2.3424278-1.85066444 2.440318-2.33703231-.642838-1.1731409-1.7327337-2.62761978-1.7435248-2.64226477-.0200405-.02928998-1.0359404-1.53464094-2.0857551-1.05675174-.0030996.00144223-.0061973.00288798-.0092928.00433723.3132115.06588801.6023362.1919597.8664103.37797412.1160434.07553404.1675003.21916323.1258225.35120281-.0416778.13203957-.1662668.22010054-.3046456.21532712-.0637402.00010005-.1259447-.01955765-.1780523-.0562676-.3661248-.2597559-.79160031-.35918768-1.30186261-.30831561-.03895453.00409023-.07763429.00072107-.11424067-.00930647-.11987238.09807261-.23434769.20245734-.34294394.31268117.4699422.02748771.89303129.18589861 1.26265912.47358063.1035318.08102603.1442953.21878912.1015234.34310574-.0427719.12431663-.1596688.20783572-.2911375.20800841-.06838635-.00004152-.13481811-.02281813-.18884332-.06474627-.36304161-.28210879-.78389241-.39079004-1.28798846-.33221007-.03595162.00416044-.07117356.00196138-.10454083-.00570554-.08750535.13004118-.16819017.26518363-.24156081.40494294.3889962-.01109956.74053602.06153549 1.14540989.37694714.10418636.08085694.14540828.21902658.10255588.34375152-.04285244.12472495-.16028908.20838339-.29217.20813342v.00385394c-.06838631-.00004151-.13481812-.02281813-.18884333-.06474628-.29462301-.22930246-.50575559-.2730038-.93244822-.23555959zm4.8575318 4.40843212.1994085.17900228c.1849894-.06628787.5819457-.32296062 1.0698552-.79622505l.0007708-.0007708c.5719254-.55496809.8532634-.99431781.9141557-1.1731409l-.7391867-.82320266c-.4193092.63358859-1.1947229 1.31496607-1.4105439 1.49918465-.2188786.19025898-.4506698.36513253-.6937101.52336573l.2584.23195689c.2483367-.1437851.4773296-.31910587.6811918-.52177355.0324434-.03213335.0847165-.03213335.11716 0l.2744009.27440088c.0156998.01647432.0233172.03904436.0208112.06166312.0019033.0242694-.0068138.04817117-.0238944.06551707-.1331389.12083195-.4160899.33544867-.668819.48002234zm2.7738438-1.93835514c.0485597.30292008-.1926973.75383165-.7152922 1.34348524-.0508721.05703838-1.2355748 1.3750876-1.9377636 1.3750876h-.0238944c-.0677766-.0036597-.1321338-.0309296-.1819063-.0770789l-1.1561835-1.03979436c-.0272777.00438503-.0548475.00670399-.0824744.00693709-.0665601.00109155-.1322306-.01539255-.1903849-.04778894-.3083156-.08786994-2.19674869-.63513014-3.03690873-1.12381036-.35610453-.20734225-.56807152-.46863974-.6312762-.77695537-.04868742-.26948159.01297139-.54722392.17111515-.77078898l.06243392-.10097337c-.37999899-.41930925-.68446068-1.10376988-.34300114-1.99171883.48727715-1.03621027 1.32553403-1.86654875 2.36632232-2.34396941 1.50380938-.68368986 2.75094598 1.17468246 2.80335968 1.25176137.0354563.05010128 1.1338306 1.51460042 1.8044171 2.74786287.0378045.09228197.0469367.19381127.0262068.29135825l.9943178 1.10762382c.0377619.04152862.0624295.09327697.0709126.14876228z"/></svg>