<svg width="28" height="50" viewBox="0 0 28 50"
  xmlns="http://www.w3.org/2000/svg">
  <path d="M22.4909 0H5.59953C2.72783 0 0.287827 2.34152 0.287827 5.21243V44.7935C0.287827 47.6644 2.67621 50 5.5479 50L22.4671 49.9817C25.3384 49.9817 27.6875 47.6458 27.6875 44.7745L27.7121 5.20965C27.7117 2.32842 25.3741 0 22.4909 0ZM11.605 3.12507H16.5057C16.9362 3.12507 17.2869 3.47456 17.2869 3.90624C17.2869 4.33793 16.9362 4.68741 16.5057 4.68741H11.605C11.1733 4.68741 10.8239 4.33793 10.8239 3.90624C10.8239 3.47456 11.1733 3.12507 11.605 3.12507ZM8.66026 3.37368C8.94977 3.08457 9.47677 3.0806 9.76589 3.37368C9.91084 3.51824 9.99662 3.72118 9.99662 3.92848C9.99662 4.13182 9.91084 4.33436 9.76589 4.47931C9.62173 4.62427 9.41799 4.70965 9.21506 4.70965C9.00815 4.70965 8.80919 4.62427 8.66026 4.47931C8.5161 4.33476 8.43389 4.13182 8.43389 3.92848C8.43349 3.72118 8.5161 3.51824 8.66026 3.37368ZM13.8977 48.4516C12.6086 48.4516 11.5601 47.4023 11.5601 46.1136C11.5601 44.8245 12.6086 43.7757 13.8977 43.7757C15.1868 43.7757 16.2352 44.8245 16.2352 46.1136C16.2352 47.4023 15.1864 48.4516 13.8977 48.4516ZM25.2872 42.1867H3.02211V7.4221H25.2872V42.1867Z" />
</svg>
