<svg version="1.0"
  xmlns="http://www.w3.org/2000/svg" width="225.000000pt" height="225.000000pt" viewBox="0 0 225.000000 225.000000" preserveAspectRatio="xMidYMid meet">

  <g transform="translate(0.000000,225.000000) scale(0.100000,-0.100000)" stroke="none">
    <path d="M0 1125 l0 -1125 1125 0 1125 0 0 1125 0 1125 -1125 0 -1125 0 0
-1125z m520 105 c11 -11 20 -28 20 -39 0 -10 7 -25 16 -32 14 -11 18 -10 30 6
8 10 14 27 14 37 0 28 46 53 75 40 47 -22 41 -79 -13 -104 -16 -8 -31 -26 -38
-46 -14 -44 -26 -54 -60 -50 -23 2 -33 12 -48 43 -10 22 -33 49 -50 60 -40 26
-47 67 -14 89 30 21 44 20 68 -4z m1230 0 c0 -13 -7 -20 -20 -20 -11 0 -20 -4
-20 -10 0 -5 11 -10 24 -10 19 0 28 -8 37 -35 7 -19 16 -35 19 -35 3 0 12 16
19 35 10 29 17 35 40 35 l29 0 -37 -87 c-45 -109 -47 -113 -72 -113 -17 0 -19
5 -14 33 5 23 0 47 -17 82 l-23 50 -3 -52 c-3 -49 -5 -53 -28 -53 -22 0 -24 4
-24 49 0 34 -4 51 -15 55 -8 3 -15 12 -15 20 0 7 7 16 15 20 8 3 15 12 15 20
0 19 28 35 63 36 20 0 27 -5 27 -20z m-815 -40 c4 -6 15 -5 30 2 56 25 95 -14
95 -97 0 -43 -1 -45 -30 -45 -29 0 -30 1 -30 51 0 43 -3 50 -17 47 -14 -2 -19
-15 -21 -51 -3 -42 -5 -47 -28 -47 -22 0 -24 4 -24 51 0 43 -3 50 -17 47 -14
-2 -19 -15 -21 -51 -3 -42 -5 -47 -28 -47 -23 0 -24 2 -24 69 l0 70 38 4 c20
2 45 4 54 5 9 1 19 -2 23 -8z m269 -11 c20 -16 26 -29 26 -59 0 -72 -84 -106
-135 -55 -73 72 28 178 109 114z m175 -5 c15 -19 21 -41 21 -75 0 -48 -1 -49
-30 -49 -29 0 -30 1 -30 50 0 43 -3 50 -20 50 -17 0 -20 -7 -20 -50 0 -47 -2
-50 -25 -50 -24 0 -25 2 -25 69 l0 70 33 4 c68 8 76 7 96 -19z m161 6 c15 -15
20 -33 20 -75 0 -52 -1 -55 -24 -55 -23 0 -25 5 -28 48 -3 39 -6 47 -23 47
-17 0 -20 -8 -23 -47 -3 -43 -5 -48 -28 -48 -23 0 -24 2 -24 69 l0 70 38 4
c20 2 45 4 55 5 9 1 26 -7 37 -18z"/>
  </g>
</svg>
