<svg height="17" viewBox="0 0 17 17" width="17" xmlns="http://www.w3.org/2000/svg"><g fill-rule="evenodd"><path d="m9.87797396 4.6696875c-1.00902084-.09332292-2.0145-.19771354-2.98411979-.41694271.29670312-.94518229.59340625-1.89036458.89010937-2.83554687.96953125.21914062 1.97501042.32361979 2.98403126.41694271-.2966146.94518229-.5933177 1.89036458-.89002084 2.83554687zm5.70952084 1.39683333c-.8657604-.53098437-1.7982813-.84920312-2.7652448-1.05763021.2950208-.93978125.5900417-1.87965104.8850625-2.81943229.9669635.20842709 1.8994844.52664584 2.7652448 1.05763021-.2950208.93978125-.5900417 1.87965104-.8850625 2.81943229z"/><path d="m6.10671875 7.20569792c-1.02699479-.25553125-2.01255208-.6428125-2.92196354-1.27260938.31635937-1.00786979.63271875-2.01565104.94916667-3.02352083.90941145.62979687 1.89496875 1.01716666 2.92196354 1.27260937-.31644792 1.00786979-.63271875 2.01573959-.94916667 3.02352084zm5.90112495.81449479c-1.0713541-.20966667-2.17750516-.30821354-3.28303641-.40923958.32494792-1.03522917.64989583-2.0703698.97484375-3.10551042 1.10553126.1009375 2.21168226.19957292 3.28303646.40923958-.3249479 1.03514063-.6498958 2.07036979-.9748438 3.10551042z"/><path d="m8.15079167 10.5757708c-1.04496875-.0965989-2.08639584-.2047968-3.09045834-.4318177.30732813-.97891664.61456771-1.95774477.92189584-2.93666143 1.00415104.22702083 2.04548958.3351302 3.09054687.4318177-.30741667.97891667-.61465625 1.95783334-.92198437 2.93666143zm5.70332293 1.3947969c-.9327865-.5721562-1.9375573-.9149896-2.9794271-1.1395312.3178646-1.01265108.6357292-2.02521358.9535937-3.03786463 1.0418698.22454167 2.0466407.567375 2.9794271 1.13953125-.3178646 1.0125625-.6357291 2.02521358-.9535937 3.03786458z"/><path d="m16.810875 3.24115625c-1.7747292-1.22860417-3.8675885-1.41976562-5.8915625-1.60464062-2.02698437-.184875-3.94152083-.35956771-5.57130729-1.48847396-.08774479-.06091667-.19886458-.07579167-.29891667-.0414375-.10067187.03470833-.17885416.11501562-.21081771.21657291l-2.54238541 8.09828646-2.18839584 6.23386456c-.06127083.1743386.03054688.3655886.20479688.4264167.03674479.0131042.07410937.0190365.11085417.0190365.13821354 0 .26739583-.0862396.31573958-.2236563l1.8009375-5.13010417c1.69796354 1.03044797 3.65314062 1.20894797 5.54793229 1.38195837 2.0269844.1852291 3.9415208.3600104 5.5714844 1.4888281.0565781.039224.12325.0593229.1904531.0593229.0365677 0 .073224-.0059323.1086406-.0178854.1004948-.0347969.1786771-.1150156.2106407-.2165729l2.7706458-8.82627607c.0440052-.13954166-.0083229-.2915677-.1287396-.37523958zm-3.1489844 8.58243225c-1.6899062-1.0120312-3.6313593-1.189026-5.51322393-1.3607968-1.94295834-.177349-3.78258854-.3454011-5.36748438-1.35327087l2.56416667-8.16761458c1.68972917 1.01203125 3.63118229 1.18938021 5.51331254 1.36115104 1.9428698.17734896 3.7825885.34540104 5.3672187 1.35291667z" fill-rule="nonzero"/></g></svg>