<svg xmlns="http://www.w3.org/2000/svg" width="42" height="26" viewBox="0 0 42 26">
  <path fill-rule="evenodd" d="M19.8138031,1.55554649 L20.1311467,1.55554649 L21.5475947,1.77635684e-15 L22.8520686,1.44197501 L24.1651008,1.66533454e-15 L25.5723165,1.55554649 L25.8896602,1.55554649 L27.3061081,4.4408921e-16 L28.7133238,1.55554649 L29.0697548,1.55554649 L30.4471155,0.0429257816 L31.8154986,1.55554649 L31.9400489,1.55554649 L31.9400489,1.69322526 L32,1.75949564 L31.9400489,1.75949564 L31.9400489,22.3189527 L29.7563229,25.4072593 L11,25.4072593 L11,1.55554649 L11.1825187,1.55554649 L12.1245727,0 L13.5317884,1.55554649 L13.8491321,1.55554649 L15.26558,6.66133815e-16 L16.6727957,1.55554649 L16.9901394,1.55554649 L18.4065873,-1.11022302e-15 L19.8138031,1.55554649 Z M12.5705037,3.62960848 L12.5705037,23.3331973 L24.4855244,23.3331973 L26.2109313,23.3331973 L26.2109313,19.8253691 L30.3695452,19.8253691 L30.3695452,3.62960848 L12.5705037,3.62960848 Z M15.711511,6.22218596 L27.2285379,6.22218596 L27.2285379,7.77773245 L15.711511,7.77773245 L15.711511,6.22218596 Z M15.711511,10.3703099 L27.2285379,10.3703099 L27.2285379,11.9258564 L15.711511,11.9258564 L15.711511,10.3703099 Z M15.711511,14.5184339 L27.2285379,14.5184339 L27.2285379,16.0739804 L15.711511,16.0739804 L15.711511,14.5184339 Z M15.711511,19.1850734 L25.134533,19.1850734 L25.134533,20.7406199 L15.711511,20.7406199 L15.711511,19.1850734 Z"/>
</svg>
