<svg xmlns="http://www.w3.org/2000/svg" width="42" height="26" viewBox="0 0 42 26">
  <path d="M29.1860022,10.8571296 L29.1860022,12.5714173 C29.1860022,16.5357078 26.1859986,19.8035688 22.3288512,20.2321407 L22.3288512,22 L25.7574267,22 C26.2261773,22 26.6145706,22.3883933 26.6145706,22.8571439 C26.6145706,23.3258944 26.2261773,23.7142878 25.7574267,23.7142878 L17.1859879,23.7142878 C16.7172374,23.7142878 16.328844,23.3258944 16.328844,22.8571439 C16.328844,22.3883933 16.7172374,22 17.1859879,22 L20.6145634,22 L20.6145634,20.2321407 C16.757416,19.8035688 13.7574124,16.5357078 13.7574124,12.5714173 L13.7574124,10.8571296 C13.7574124,10.388379 14.1458057,9.99998569 14.6145563,9.99998569 C15.0833068,9.99998569 15.4717002,10.388379 15.4717002,10.8571296 L15.4717002,12.5714173 C15.4717002,15.879457 18.1636677,18.5714245 21.4717073,18.5714245 C24.779747,18.5714245 27.4717145,15.879457 27.4717145,12.5714173 L27.4717145,10.8571296 C27.4717145,10.388379 27.8601078,9.99998569 28.3288583,9.99998569 C28.7976089,9.99998569 29.1860022,10.388379 29.1860022,10.8571296 Z M25.7574267,5.7142663 L25.7574267,12.5714173 C25.7574267,14.928563 23.828853,16.8571367 21.4717073,16.8571367 C19.1145616,16.8571367 17.1859879,14.928563 17.1859879,12.5714173 L17.1859879,5.7142663 C17.1859879,3.35712063 19.1145616,1.42854691 21.4717073,1.42854691 C23.828853,1.42854691 25.7574267,3.35712063 25.7574267,5.7142663 Z"/>
</svg>
