<svg xmlns="http://www.w3.org/2000/svg" xmlns:xlink="http://www.w3.org/1999/xlink" width="29" height="29" viewBox="0 0 29 29">
  <defs>
    <path id="quicklinks-book-a-bet-a" d="M19.3183031,6.44528711 L19.3183031,3.59858618 L1.5663489,3.59858618 L1.5663489,23.1337683 L12.5112574,23.1337683 C12.0392336,22.353613 11.6863583,21.4899422 11.4806356,20.5633496 L4.69904669,20.5633496 L4.69904669,19.0210984 L11.2830508,19.0210984 C11.2452253,17.9540074 11.4118321,16.9112641 11.7528762,15.9365959 L4.69904669,15.9365959 L4.69904669,14.3943447 L12.4707444,14.3943447 C13.0580438,13.4013484 13.8435361,12.5240462 14.7850432,11.823926 L4.69904669,11.823926 L4.69904669,10.2816748 L16.1856053,10.2816748 L16.1856053,10.9731313 C16.8429336,10.6536453 17.551153,10.4107913 18.3006649,10.2585623 C18.8436561,10.1482322 18.6280824,9.81832533 18.6554671,9.55324417 C18.692902,9.19101473 18.3884434,9.34757152 18.2352921,9.34414063 C17.3912539,9.32536104 17.1867448,9.12971019 17.1864681,8.29185147 C17.1863759,7.93079575 17.1772477,7.56946917 17.1888655,7.2087746 C17.2041714,6.73477047 17.4848413,6.45750063 17.9719566,6.45018742 C18.4206823,6.44339732 18.8694792,6.44393172 19.3183031,6.44528711 Z M14.2418442,25.1901033 L0,25.1901033 L0,1.54225122 L0.182035896,1.54225122 L1.1215976,-2.00373051e-12 L2.52509054,1.54225122 L2.84159467,1.54225122 L4.2542954,-2.36899389e-12 L5.65778833,1.54225122 L5.97429246,1.54225122 L7.38699319,-4.66382488e-12 L8.79048613,1.54225122 L9.10699025,1.54225122 L10.519691,-6.79456491e-14 L11.820714,1.42965043 L13.1302725,-7.02771175e-14 L14.5337654,1.54225122 L14.8502695,1.54225122 L16.2629703,2.22455387e-12 L17.6664632,1.54225122 L18.0219512,1.54225122 L19.3956681,0.0425588946 L20.7604312,1.54225122 L20.8846519,1.54225122 L20.8846519,1.67875325 L20.9444444,1.74445721 L20.8846519,1.74445721 L20.8846519,6.44635598 C21.327184,6.44567265 21.769716,6.44525371 22.212248,6.44820112 C22.8130513,6.45217373 23.0803515,6.7145463 23.0871746,7.30077655 C23.0916005,7.67681982 23.0896642,8.05295338 23.0877279,8.42908695 C23.0841319,9.08023319 22.8311233,9.33104909 22.1754585,9.337008 C21.5797265,9.34242519 21.5914365,9.34206404 21.6066502,9.91691819 C21.6120902,10.1252092 21.6812434,10.1990635 21.8864902,10.2370741 C23.1569733,10.472451 24.3142295,10.9740828 25.3483007,11.7305934 C25.5807478,11.9006029 25.7036561,11.8619603 25.8737731,11.6727198 C26.0864884,11.4359886 26.3358088,11.2311285 26.5513825,10.9966545 C26.7051792,10.8293536 26.8129661,10.7949544 26.9884309,10.9821183 C27.3205508,11.3364026 27.6724946,11.6738935 28.0298785,12.0042518 C28.1938177,12.1558428 28.2369693,12.2539843 28.0494258,12.4333835 C27.7338104,12.7354822 27.205111,12.9987576 27.1862091,13.3756135 C27.1690591,13.7171673 27.6105333,14.0713612 27.823433,14.4348547 C30.9693516,19.8075335 27.4850432,26.5736039 21.1885959,27.3248778 C18.5750144,27.636701 16.0768022,26.7908085 14.2418442,25.1901033 Z M4.69904669,6.16900488 L16.1856053,6.16900488 L16.1856053,7.7112561 L4.69904669,7.7112561 L4.69904669,6.16900488 Z M20.1448432,25.2268001 C23.8134679,25.2243624 26.78134,22.306393 26.7755311,18.7077536 C26.7698145,15.1371031 23.8001905,12.2308709 20.1525883,12.2262663 C16.4786157,12.2216617 13.5001401,15.1297899 13.4989415,18.7227412 C13.4976506,22.3182205 16.4721614,25.2291476 20.1448432,25.2268001 Z M20.9282454,15.859946 C20.9282454,16.3457068 20.9328197,16.8314676 20.9270521,17.3172284 C20.920489,17.8635962 20.9266543,18.3424219 21.3917401,18.8020503 C21.9795361,19.3827922 21.8025311,20.3953215 21.1626279,20.9532479 C20.5296856,21.5052442 19.592951,21.4633319 19.001575,20.8565581 C18.4106963,20.2502868 18.3472529,19.2644929 18.95444,18.6867662 C19.2931362,18.3645339 19.34584,18.0416984 19.3416634,17.6290078 C19.3286366,16.3393747 19.3490221,15.0493396 19.3290344,13.759807 C19.3235652,13.4039041 19.4421983,13.3073148 19.7793035,13.2965603 C20.9286431,13.2596734 20.9282454,13.2476123 20.9282454,14.4026636 L20.9282454,15.859946 Z"/>
  </defs>
  <use fill-rule="evenodd" xlink:href="#quicklinks-book-a-bet-a"/>
</svg>
