<svg xmlns="http://www.w3.org/2000/svg"
  xmlns:xlink="http://www.w3.org/1999/xlink" width="29" height="29" viewBox="0 0 29 29">
  <defs>
    <path id="quicklinks-news-a" d="M24.1666667,22.0185185 L18.7962963,22.0185185 C18.4993148,22.0185185 18.2592593,22.2591111 18.2592593,22.5555556 C18.2592593,22.852 18.4993148,23.0925926 18.7962963,23.0925926 L24.1666667,23.0925926 C24.4636481,23.0925926 24.7037037,22.852 24.7037037,22.5555556 C24.7037037,22.2591111 24.4636481,22.0185185 24.1666667,22.0185185 L24.1666667,22.0185185 Z M15.5740741,5.90740741 L10.2037037,5.90740741 C9.90672222,5.90740741 9.66666667,6.148 9.66666667,6.44444444 C9.66666667,6.74088889 9.90672222,6.98148148 10.2037037,6.98148148 L15.5740741,6.98148148 C15.8710556,6.98148148 16.1111111,6.74088889 16.1111111,6.44444444 C16.1111111,6.148 15.8710556,5.90740741 15.5740741,5.90740741 L15.5740741,5.90740741 Z M26.3148148,24.9786667 C26.3148148,25.6107593 25.941037,26.3148148 25.404537,26.3148148 L7.22798148,26.3148148 C7.74085185,25.7439444 8.05555556,24.9926296 8.05555556,24.1666667 L8.05555556,3.49611111 C8.05555556,2.90107407 8.79505556,2.68518519 9.29235185,2.68518519 L25.404537,2.68518519 C26.2117037,2.68518519 26.3148148,3.11857407 26.3148148,3.49611111 L26.3148148,24.9786667 L26.3148148,24.9786667 Z M6.98148148,24.1666667 C6.98148148,25.3513704 6.01803704,26.3148148 4.83333333,26.3148148 C3.64862963,26.3148148 2.68518519,25.3513704 2.68518519,24.1666667 L2.68518519,6.71833333 C2.68518519,6.07657407 3.49396296,5.90740741 3.92198148,5.90740741 L6.98148148,5.90740741 L6.98148148,24.1666667 L6.98148148,24.1666667 Z M25.404537,1.61111111 L9.29235185,1.61111111 C8.14362963,1.61111111 6.98148148,2.25877778 6.98148148,3.49611111 L6.98148148,4.83333333 L3.92198148,4.83333333 C2.77325926,4.83333333 1.61111111,5.481 1.61111111,6.71833333 L1.61111111,24.1666667 C1.61111111,25.9437222 3.05627778,27.3888889 4.83333333,27.3888889 L25.404537,27.3888889 C26.6300556,27.3888889 27.3888889,26.1375926 27.3888889,24.9786667 L27.3888889,3.49611111 C27.3888889,2.33342593 26.6284444,1.61111111 25.404537,1.61111111 L25.404537,1.61111111 Z M15.5740741,9.12962963 L10.2037037,9.12962963 C9.90672222,9.12962963 9.66666667,9.37022222 9.66666667,9.66666667 C9.66666667,9.96311111 9.90672222,10.2037037 10.2037037,10.2037037 L15.5740741,10.2037037 C15.8710556,10.2037037 16.1111111,9.96311111 16.1111111,9.66666667 C16.1111111,9.37022222 15.8710556,9.12962963 15.5740741,9.12962963 L15.5740741,9.12962963 Z M18.7962963,10.2037037 L24.1666667,10.2037037 L24.1666667,15.5740741 L18.7962963,15.5740741 L18.7962963,10.2037037 Z M24.7037037,9.12962963 L18.2592593,9.12962963 C17.9622778,9.12962963 17.7222222,9.37022222 17.7222222,9.66666667 L17.7222222,16.1111111 C17.7222222,16.4075556 17.9622778,16.6481481 18.2592593,16.6481481 L24.7037037,16.6481481 C25.0006852,16.6481481 25.2407407,16.4075556 25.2407407,16.1111111 L25.2407407,9.66666667 C25.2407407,9.37022222 25.0006852,9.12962963 24.7037037,9.12962963 L24.7037037,9.12962963 Z M24.1666667,18.7962963 L18.7962963,18.7962963 C18.4993148,18.7962963 18.2592593,19.0368889 18.2592593,19.3333333 C18.2592593,19.6297778 18.4993148,19.8703704 18.7962963,19.8703704 L24.1666667,19.8703704 C24.4636481,19.8703704 24.7037037,19.6297778 24.7037037,19.3333333 C24.7037037,19.0368889 24.4636481,18.7962963 24.1666667,18.7962963 L24.1666667,18.7962963 Z M18.7962963,6.98148148 L24.1666667,6.98148148 C24.4636481,6.98148148 24.7037037,6.74088889 24.7037037,6.44444444 C24.7037037,6.148 24.4636481,5.90740741 24.1666667,5.90740741 L18.7962963,5.90740741 C18.4993148,5.90740741 18.2592593,6.148 18.2592593,6.44444444 C18.2592593,6.74088889 18.4993148,6.98148148 18.7962963,6.98148148 L18.7962963,6.98148148 Z M15.5740741,12.3518519 L10.2037037,12.3518519 C9.90672222,12.3518519 9.66666667,12.5924444 9.66666667,12.8888889 C9.66666667,13.1853333 9.90672222,13.4259259 10.2037037,13.4259259 L15.5740741,13.4259259 C15.8710556,13.4259259 16.1111111,13.1853333 16.1111111,12.8888889 C16.1111111,12.5924444 15.8710556,12.3518519 15.5740741,12.3518519 L15.5740741,12.3518519 Z M15.5740741,22.0185185 L10.2037037,22.0185185 C9.90672222,22.0185185 9.66666667,22.2591111 9.66666667,22.5555556 C9.66666667,22.852 9.90672222,23.0925926 10.2037037,23.0925926 L15.5740741,23.0925926 C15.8710556,23.0925926 16.1111111,22.852 16.1111111,22.5555556 C16.1111111,22.2591111 15.8710556,22.0185185 15.5740741,22.0185185 L15.5740741,22.0185185 Z M15.5740741,15.5740741 L10.2037037,15.5740741 C9.90672222,15.5740741 9.66666667,15.8146667 9.66666667,16.1111111 C9.66666667,16.4075556 9.90672222,16.6481481 10.2037037,16.6481481 L15.5740741,16.6481481 C15.8710556,16.6481481 16.1111111,16.4075556 16.1111111,16.1111111 C16.1111111,15.8146667 15.8710556,15.5740741 15.5740741,15.5740741 L15.5740741,15.5740741 Z M15.5740741,18.7962963 L10.2037037,18.7962963 C9.90672222,18.7962963 9.66666667,19.0368889 9.66666667,19.3333333 C9.66666667,19.6297778 9.90672222,19.8703704 10.2037037,19.8703704 L15.5740741,19.8703704 C15.8710556,19.8703704 16.1111111,19.6297778 16.1111111,19.3333333 C16.1111111,19.0368889 15.8710556,18.7962963 15.5740741,18.7962963 L15.5740741,18.7962963 Z"/>
  </defs>
  <use fill-rule="evenodd" xlink:href="#quicklinks-news-a"/>
</svg>
