<svg xmlns="http://www.w3.org/2000/svg" xmlns:xlink="http://www.w3.org/1999/xlink" width="28" height="20" viewBox="0 0 28 20">
  <defs>
    <linearGradient id="northern-ireland-a" x1="50%" x2="50%" y1="0%" y2="100%">
      <stop offset="0%" stop-color="#FFD148"/>
      <stop offset="100%" stop-color="#FFCB2F"/>
    </linearGradient>
    <path id="northern-ireland-b" d="M0,2.33333333 L1.33333333,2.66666667 L2,2 L2.66666667,2.66666667 L4,2.33333333 L3.46187333,3.67864991 C3.39088267,3.85612667 3.18996173,4 3.0063476,4 L0.993652347,4 C0.813063147,4 0.614354453,3.86921947 0.538126627,3.67864991 L0,2.33333333 Z M2,1.33333333 C1.63181013,1.33333333 1.33333333,1.03485649 1.33333333,0.666666667 C1.33333333,0.29847684 1.63181013,0 2,0 C2.36818987,0 2.66666667,0.29847684 2.66666667,0.666666667 C2.66666667,1.03485649 2.36818987,1.33333333 2,1.33333333 Z"/>
    <path id="northern-ireland-d" d="M0,2.33333333 L1.33333333,2.66666667 L2,2 L2.66666667,2.66666667 L4,2.33333333 L3.46187333,3.67864991 C3.39088267,3.85612667 3.18996173,4 3.0063476,4 L0.993652347,4 C0.813063147,4 0.614354453,3.86921947 0.538126627,3.67864991 L0,2.33333333 Z M2,1.33333333 C1.63181013,1.33333333 1.33333333,1.03485649 1.33333333,0.666666667 C1.33333333,0.29847684 1.63181013,0 2,0 C2.36818987,0 2.66666667,0.29847684 2.66666667,0.666666667 C2.66666667,1.03485649 2.36818987,1.33333333 2,1.33333333 Z"/>
    <path id="northern-ireland-f" d="M0,2.33333333 L1.33333333,2.66666667 L2,2 L2.66666667,2.66666667 L4,2.33333333 L3.46187333,3.67864991 C3.39088267,3.85612667 3.18996173,4 3.0063476,4 L0.993652347,4 C0.813063147,4 0.614354453,3.86921947 0.538126627,3.67864991 L0,2.33333333 Z M2,1.33333333 C1.63181013,1.33333333 1.33333333,1.03485649 1.33333333,0.666666667 C1.33333333,0.29847684 1.63181013,0 2,0 C2.36818987,0 2.66666667,0.29847684 2.66666667,0.666666667 C2.66666667,1.03485649 2.36818987,1.33333333 2,1.33333333 Z"/>
  </defs>
  <g fill="none" fill-rule="evenodd">
    <rect width="28" height="20" fill="#FFF" fill-rule="nonzero"/>
    <polygon fill="#E82739" fill-rule="nonzero" points="12 8 0 8 0 12 12 12 12 20 16 20 16 12 28 12 28 8 16 8 16 0 12 0"/>
    <polygon fill="#FFF" fill-rule="nonzero" points="15.355 12.347 14 14.667 12.645 12.347 9.959 12.333 11.289 10 9.959 7.667 12.645 7.653 14 5.333 15.355 7.653 18.041 7.667 16.711 10 18.041 12.333"/>
    <path fill="#E82739" fill-rule="nonzero" d="M12.7341216,9.3412164 C12.6968673,8.96867287 12.9447581,8.57396952 13.2994792,8.45572917 L14.0338541,8.21093751 C14.3833468,8.09443993 14.6666667,8.29510689 14.6666667,8.67710876 L14.6666667,10 C14.6666667,10 15.0948512,8.61788671 15.3333335,9.33333333 C15.5718156,10.04878 15.1628641,11.368548 15.1628641,11.368548 C15.0729168,11.7172893 14.7048931,12 14.3228912,12 L13.6771088,12 C13.3031519,12 12.9692383,11.6923828 12.932545,11.3254503 L12.7341216,9.3412164 Z"/>
    <path fill="#FFF" fill-rule="nonzero" d="M13.9989841,3.87791477 C13.3180895,3.87791477 12.7111384,4.28211816 12.4421539,4.89482269 L12.3081604,5.20003879 L12.9185926,5.46802571 L13.0525861,5.16280961 C13.2161512,4.79023383 13.5850224,4.54458144 13.9989841,4.54458144 C14.4100137,4.54458144 14.7767428,4.78674433 14.9420767,5.15536068 L15.0784917,5.45950212 L15.6867747,5.18667181 L15.5503595,4.88253037 C15.2784923,4.27639476 14.6750381,3.87791477 13.9989841,3.87791477 Z"/>
    <path fill="url(#northern-ireland-a)" fill-rule="nonzero" d="M0,2.33333333 L1.33333333,2.66666667 L2,2 L2.66666667,2.66666667 L4,2.33333333 L3.46187333,3.67864991 C3.39088267,3.85612667 3.18996173,4 3.0063476,4 L0.993652347,4 C0.813063147,4 0.614354453,3.86921947 0.538126627,3.67864991 L0,2.33333333 Z M2,1.33333333 C1.63181013,1.33333333 1.33333333,1.03485649 1.33333333,0.666666667 C1.33333333,0.29847684 1.63181013,0 2,0 C2.36818987,0 2.66666667,0.29847684 2.66666667,0.666666667 C2.66666667,1.03485649 2.36818987,1.33333333 2,1.33333333 Z" transform="translate(12 2.667)"/>
    <g transform="translate(12 2.667)">
      <mask id="northern-ireland-c" fill="#fff">
        <use xlink:href="#northern-ireland-b"/>
      </mask>
      <circle cx="2" cy="3.333" r="1.333" fill="#5169E2" fill-rule="nonzero" mask="url(#northern-ireland-c)"/>
    </g>
    <g transform="translate(12 2.667)">
      <mask id="northern-ireland-e" fill="#fff">
        <use xlink:href="#northern-ireland-d"/>
      </mask>
      <circle cx="3.333" cy="3.333" r="1.333" fill="#D34D43" fill-rule="nonzero" mask="url(#northern-ireland-e)"/>
    </g>
    <g transform="translate(12 2.667)">
      <mask id="northern-ireland-g" fill="#fff">
        <use xlink:href="#northern-ireland-f"/>
      </mask>
      <circle cx=".667" cy="3.333" r="1.333" fill="#D34D43" fill-rule="nonzero" mask="url(#northern-ireland-g)"/>
    </g>
  </g>
</svg>
