<svg xmlns="http://www.w3.org/2000/svg" xmlns:xlink="http://www.w3.org/1999/xlink" width="16" height="16"><defs><path id="A" d="M.027.028h3.97V5.6H.027z"/><path id="B" d="M.016.027h3.96V5.6H.016z"/></defs><g transform="translate(0 2)" fill-rule="evenodd"><path d="M.018.004V.001c.136-.016.246.244.31.342.483.735 1.252 1.298 2.1 1.513.476.122.97.13 1.46.184.524.057 1.047.132 1.56.248.362.082.673.2 1.01.36.078.037.16.068.232.117l.264.172c.056.032.107.076.167.05s.047-.09.053-.144c.012-.1.012-.202.01-.304-.002-.198-.07-.375-.16-.546-.154-.3-.38-.515-.62-.728-.214-.2-.448-.348-.682-.51-.066-.046-.14-.08-.21-.12-.02-.01-.043-.02-.038-.05s.026-.036.05-.04c.03-.004.06-.006.1-.005.43.004.855.044 1.282.085.27.026.534.08.798.126A5.26 5.26 0 0 1 8.27.89l.434.13c.126.032.244.093.368.136a3.4 3.4 0 0 1 .328.138c.102.048.208.086.304.148.06.04.127.07.19.104.315.165.604.37.873.602.286.248.546.524.766.838.116.165.214.34.316.512.057.097.097.204.142.307.02.048.004.08-.048.09-.023.005-.048.005-.072.005H4.186c-.046 0-.107-.02-.132.033s.032.092.06.13l.345.477.417.576.394.548 1.042 1.442.2.272c.04.055.032.11-.01.165l-.342.472-.318.437-.208.288c-.048.068-.068.072-.14.033a5.74 5.74 0 0 1-.719-.473l-.57-.417-.47-.323-.4-.234-.3-.144c-.072-.043-.157-.065-.236-.09l-.42-.13c-.3-.08-.586-.1-.88-.14s-.602-.033-.903.004C.53 6.827.48 6.85.46 6.803s.01-.084.04-.116l.485-.5a2.82 2.82 0 0 1 .484-.343c.2-.11.415-.18.633-.233s.434-.066.652-.082a3.88 3.88 0 0 1 .759.02c.03.004.063.01.082-.02s.002-.06-.012-.088c-.068-.138-.188-.224-.304-.312-.18-.138-.38-.247-.576-.358l-.4-.23-.49-.324c-.167-.123-.33-.25-.478-.396-.153-.152-.308-.302-.43-.485C.58 2.84.35 2.294.207 1.723.077 1.196-.048.546.018.004"/><g transform="translate(8.8 4.8)"><mask id="C" ><use xlink:href="#A"/></mask><path d="M1.015.03L1.9.028c.092-.001.134.065.178.125l.598.825.567.8.388.526.332.465c.032.045.027.085-.006.13l-.48.663-.4.533-.383.53-.316.433-.305.427c-.056.08-.12.126-.226.126H.14c-.035 0-.074.007-.093-.033s.007-.068.028-.097l.607-.827.387-.542.388-.527.308-.432.186-.25c.034-.044.034-.084.005-.13-.073-.117-.16-.224-.24-.336l-.317-.44-.297-.41-.306-.42L.4.607.044.122A.05.05 0 0 1 .085.031C.12.027.155.03.2.03h.826 0z" mask="url(#C)"/></g><path d="M6.592 4.8h.893c.075-.001.127.032.17.09l.48.663.39.53.39.545.3.42.303.418c.094.135.095.14.001.272l-.5.685-.388.54-.396.54-.312.433-.283.39c-.036.053-.095.075-.16.075H5.707c-.03 0-.062.002-.078-.03-.02-.037-.001-.07.02-.1l.216-.3.31-.427L6.58 9l.297-.408.416-.57.263-.36c.028-.034.024-.076-.001-.112l-.352-.485-.32-.435-.41-.56-.296-.41-.56-.766c-.035-.05-.02-.082.04-.1.023-.003.047-.002.07-.002h.863z" /><g transform="translate(12 4.8)"><mask id="D" ><use xlink:href="#B"/></mask><path d="M1.008.03l.82-.003c.116-.004.19.037.252.13l.388.548.48.657.478.665.383.523.147.214c.028.042.027.084-.004.126l-.33.452-.602.83-.316.44-.67.918c-.033.042-.072.065-.124.066l-.1.002L.12 5.6c-.033 0-.07.002-.086-.035s.007-.067.03-.096l.396-.542L.85 4.4l.3-.4.306-.426.314-.435.14-.183c.077-.096.075-.154 0-.253l-.33-.453-.382-.523-.3-.415L.58.876.273.45.053.152C.033.125.004.1.02.064S.073.028.107.028h.9V.03z"  mask="url(#D)"/></g></g></svg>