<svg height="17" viewBox="0 0 17 17" width="17" xmlns="http://www.w3.org/2000/svg"><path d="m3.76867086 15.6252171c.06836274.1234301.10388241.2205985.10388241.3234339 0 .4658477-.38895612.8388467-.86583968.8388467s-.86583968-.372999-.86583968-.8388467c0-.046043.00597391-.0927688.01683144-.1418544.00999431-.045183.02314988-.0889482.04174583-.1429427l.0060237-.0171652-.07731254-.6549408-.63563957-5.68482864c-.55889999-.40152644-.93593683-1.02634024-.98897386-1.74687333-.00055012-.00747356-.00069799-.01488387-.00046196-.02220969-.0000658-.00215053-.00009894-.00430928-.00009894-.00647578v-.77863293c0-.114812.09307351-.20788552.20788552-.20788552h.90762776c-.50345865-.39060264-.82153376-.98724177-.82153376-1.64472388 0-.3246955.07621655-.64013534.21953735-.9150173.11293431-.21660221.27241167-.41267233.46307353-.56500651 1.03118474-.79804329 1.29125161-1.21071535 1.29125161-2.4668397 0-.00222909.00003508-.00444999.00010473-.00666216-.0019065-.05956562.02168185-.11951125.06972076-.16218397.08583688-.07624844.217233-.06847548.29348145.0173614.88663873.99813577 1.17981838 1.9704902 1.09053032 2.82175403.04413891-.13829668.06612758-.27343943.07259938-.36280998.01370136-.18920517.25287391-.2627074.37046773-.11385171.34419066.43569241.50672818 1.10098831.50672818 1.79353001 0 .59927423-.30720893 1.20743444-.80158668 1.60444977h.87368166c.114812 0 .20788552.09307352.20788552.20788552v.77863293c0 .00216531-.0000331.00432289-.00009884.00647226.00023809.00738613.00008587.01485803-.00047544.02239389-.05272029.70780377-.42381105 1.32751374-.97318229 1.73091629l-.63761993 5.7157631zm-.31644975.3839314c-.29462358.160561-.60278326.1431076-.88980324.0074901.03436957.2003584.21822669.3550881.44429572.3550881.22887824 0 .41448898-.1585991.44550752-.3625782zm-1.51277216-6.44676377.21704466 1.94114617c.04577704.0164052.10266154.0347968.1693092.0533866.48538336.1353861 1.00137597.1439569 1.48944168-.0507606l.21787081-1.95306482c-.32063397.14551634-.67824455.22670919-1.05439976.22670919-.37078607 0-.72292147-.0775998-1.03926659-.21741654zm1.82469103 2.40188967c-.51876077.1567903-1.04977977.1326635-1.5500426-.0068729l-.00707697-.0019823.03916483.3502717c.03669734.0180311.08463777.0389902.14271903.0603565.40106584.1475396.85632606.155359 1.337867-.0667877zm-.08967421.8038688c-.48739344.1683728-.9553383.149708-1.37579388.0069639l.24254045 2.1691686.07381086.6252473c.02052791.0139306.04522128.029298.07345902.0448287.22610495.1243578.44861671.133737.66740158-.0388504l.07418191-.6164765zm1.33730899-5.02889722h-4.06653467c.1725784.93105934 1.01588933 1.62478425 2.03347545 1.62478425 1.01201157 0 1.85896977-.70005798 2.03305922-1.62478425zm-2.48521842-.77863293h-1.6077973v.3628619h4.11991299v-.3628619h-2.5033679c-.00290939.00006155-.0058247.00006188-.0087478 0zm-.25784437-.51151268c-.01061346-.11047142-.01584587-.21122703-.01584587-.31390931 0-.92236016.26053383-1.65775374.72584944-1.65775374.4551651 0 .72584943.74989586.72584943 1.65775374 0 .17856797-.00085515.24636941-.00577773.32910204.62953329-.25479405 1.0599043-.90293256 1.0599043-1.52390086 0-.39193461-.05884783-.77196284-.17461031-1.08605126-.13941568.36132409-.37262416.59585208-.72342713.59585208-.15370064 0-.25425365-.16103091-.18678902-.29913381.01492153-.030545.04096629-.09832391.06813806-.19921594.19049039-.70731376.07099088-1.54582771-.57682109-2.44807762-.08853034 1.00950968-.46743151 1.49930791-1.42859054 2.24313027-.14226282.11368866-.26486581.26442344-.35141761.43042535-.1121614.21511981-.17243534.46457746-.17243534.72279682 0 .67783161.42762949 1.27956829 1.05597341 1.54898224zm1.04910865 2.68481857c-.11442167.00945926-.214847-.07562958-.22430627-.19005125-.00945926-.11442167.07562958-.214847.19005125-.22430627.15424978-.01275186.40264075-.08683723.65070757-.26778783.17195329-.12543011.31752523-.28874246.42931953-.49624154.05445652-.10107563.18054024-.13886789.28161587-.08441136.10107563.05445652.13886788.18054024.08441136.28161587-.14201045.26358266-.32934307.47374493-.55032545.63493897-.31900122.2326932-.63767828.32774218-.86147386.34624341z" fill="#fff" transform="translate(5.286)"/></svg>