<svg xmlns="http://www.w3.org/2000/svg" width="28" height="20" viewBox="0 0 28 20">
  <g fill="none" fill-rule="evenodd">
    <rect width="8" height="20" fill="#FFF"/>
    <path fill="#0A632F" d="M8,0 L28,0 L28,20 L8,20 L8,0 Z"/>
    <path fill="#FFF" d="M9.4786562,10.8734084 C8.50356986,11.6670032 7.27691672,12.1398166 5.94441685,12.1398166 C2.76828243,12.1398166 0.193516749,9.45352508 0.193516749,6.13981658 C0.193516749,2.82610809 2.76828243,0.139816585 5.94441685,0.139816585 C7.27691672,0.139816585 8.50356986,0.612629944 9.4786562,1.40622474 C9.03593812,1.29182817 8.56970558,1.23072568 8.08827442,1.23072568 C5.20087949,1.23072568 2.86018342,3.42860054 2.86018342,6.13981658 C2.86018342,8.85103263 5.20087949,11.0489075 8.08827442,11.0489075 C8.56970558,11.0489075 9.03593812,10.987805 9.4786562,10.8734084 L9.4786562,10.8734084 Z M9.52685008,7.17981663 L7.95942274,8.29719524 L8.53775127,6.46119427 L6.99069937,5.31577127 L8.9155534,5.29843888 L9.52685008,3.47314992 L10.1381468,5.29843888 L12.0630008,5.31577127 L10.5159489,6.46119427 L11.0942774,8.29719524 L9.52685008,7.17981663 L9.52685008,7.17981663 Z" transform="rotate(-45 16.426 -6.319)"/>
  </g>
</svg>
