<svg xmlns="http://www.w3.org/2000/svg" width="28" height="20" viewBox="0 0 28 20">
  <g fill="none" fill-rule="evenodd">
    <rect width="28" height="20" fill="#FFF"/>
    <path fill="#E52448" d="M13.3333333,0 L28,0 L28,9.33333333 L13.3333333,9.33333333 L13.3333333,0 Z"/>
    <rect width="13.333" height="10.667" y="9.333" fill="#1367AE"/>
    <rect width="14.667" height="10.667" x="13.333" y="9.333" fill="#FFF"/>
    <polygon fill="#1367AE" points="6.667 5.76 5.099 6.824 5.627 5.005 4.131 3.843 6.024 3.782 6.667 2 7.309 3.782 9.203 3.843 7.706 5.005 8.234 6.824"/>
    <polygon fill="#E52448" points="20.667 15.76 19.099 16.824 19.627 15.005 18.131 13.843 20.024 13.782 20.667 12 21.309 13.782 23.203 13.843 21.706 15.005 22.234 16.824"/>
  </g>
</svg>
