<svg xmlns="http://www.w3.org/2000/svg" xmlns:xlink="http://www.w3.org/1999/xlink" xmlns:serif="http://www.serif.com/" width="100%" height="100%" viewBox="0 0 13 16" version="1.1" xml:space="preserve" style="fill-rule:evenodd;clip-rule:evenodd;stroke-linejoin:round;stroke-miterlimit:2;">
    <g transform="matrix(1,0,0,1,-37,-796)">
        <path id="ic_marketing_assets" d="M38.625,796C37.731,796 37.008,796.72 37.008,797.6L37,810.4C37,811.28 37.723,812 38.617,812L48.375,812C49.269,812 50,811.28 50,810.4L50,800.8L45.125,796L38.625,796ZM40.25,808.8L40.25,807.2L46.75,807.2L46.75,808.8L40.25,808.8ZM40.25,805.6L40.25,804L46.75,804L46.75,805.6L40.25,805.6ZM44.313,797.2L48.781,801.6L44.313,801.6L44.313,797.2Z"/>
    </g>
<style type="text/css">
	path{fill:#293141;}
</style>
<div xmlns="" id="divScriptsUsed" style="display: none"/><script xmlns="" id="globalVarsDetection" src="chrome-extension://cmkdbmfndkfgebldhnkbfhlneefdaaip/js/wrs_env.js"/></svg>