<svg xmlns="http://www.w3.org/2000/svg" xmlns:xlink="http://www.w3.org/1999/xlink" xmlns:serif="http://www.serif.com/" width="100%" height="100%" viewBox="0 0 50 29" version="1.1" xml:space="preserve" style="fill-rule:evenodd;clip-rule:evenodd;stroke-linejoin:round;stroke-miterlimit:2;"><path id="ic_password" d="M26.477,9.375c-2.214,-6.457 -8.616,-10.331 -15.162,-9.172c-6.546,1.158 -11.331,7.011 -11.331,13.859c0,6.849 4.785,12.702 11.331,13.86c6.546,1.159 12.948,-2.715 15.162,-9.172l9.887,-0l-0,9.375l9.09,0l0,-9.375l4.546,-0l-0,-9.375l-23.523,0Zm-17.386,4.687c0,-2.588 2.035,-4.687 4.545,-4.687c2.511,0 4.546,2.099 4.546,4.687c-0,2.589 -2.035,4.688 -4.546,4.688c-2.51,-0 -4.545,-2.099 -4.545,-4.688Z"/><style type="text/css">
	path{fill:#293141;}
</style>
<div xmlns="" id="divScriptsUsed" style="display: none"/><script xmlns="" id="globalVarsDetection" src="chrome-extension://cmkdbmfndkfgebldhnkbfhlneefdaaip/js/wrs_env.js"/></svg>