<svg width="25" height="25" viewBox="0 0 25 25" xmlns="http://www.w3.org/2000/svg">
<path d="M8.42529 19.1357C8.41895 19.1045 8.40967 19.0737 8.39746 19.0439C8.38525 19.0146 8.37012 18.9863 8.35254 18.96C8.33496 18.9331 8.31445 18.9082 8.29199 18.8857C8.26953 18.8633 8.24463 18.8428 8.21777 18.8252C8.19141 18.8076 8.16309 18.7925 8.1333 18.7803C8.104 18.7681 8.07324 18.7583 8.04199 18.7524C7.979 18.7397 7.91406 18.7397 7.85156 18.7524C7.82031 18.7583 7.78955 18.7681 7.75977 18.7803C7.73047 18.7925 7.70215 18.8076 7.67578 18.8252C7.64893 18.8428 7.62402 18.8633 7.60156 18.8857C7.5791 18.9082 7.55859 18.9331 7.54102 18.96C7.52295 18.9863 7.5083 19.0146 7.49609 19.0439C7.48389 19.0737 7.47412 19.1045 7.46826 19.1357C7.46191 19.167 7.4585 19.1992 7.4585 19.231C7.4585 19.2627 7.46191 19.2949 7.46826 19.3262C7.47412 19.3574 7.48389 19.3882 7.49609 19.4175C7.5083 19.4473 7.52295 19.4756 7.54102 19.502C7.55859 19.5288 7.5791 19.5537 7.60156 19.5762C7.62402 19.5986 7.64893 19.6191 7.67578 19.6367C7.70215 19.6543 7.73047 19.6695 7.75977 19.6817C7.78955 19.6939 7.82031 19.7037 7.85156 19.7095C7.88281 19.7159 7.91504 19.7193 7.94678 19.7193C7.97852 19.7193 8.01074 19.7159 8.04199 19.7095C8.07324 19.7037 8.104 19.6939 8.1333 19.6817C8.16309 19.6695 8.19141 19.6543 8.21777 19.6367C8.24463 19.6191 8.26953 19.5986 8.29199 19.5762C8.31445 19.5537 8.33496 19.5288 8.35254 19.502C8.37012 19.4756 8.38525 19.4473 8.39746 19.4175C8.40967 19.3882 8.41895 19.3574 8.42529 19.3262C8.43164 19.2949 8.43506 19.2627 8.43506 19.231C8.43506 19.1992 8.43164 19.167 8.42529 19.1357Z"/>
<path d="M22.4606 19.2861C22.4587 19.2812 22.4567 19.2764 22.4547 19.2716C22.0053 18.22 20.9513 17.8313 19.7039 18.2574L16.3021 19.1981C16.1055 18.6025 15.6149 18.0957 14.9212 17.8382C14.9169 17.8367 14.9126 17.8351 14.9083 17.8336L11.169 16.5645C10.8578 16.1622 9.88286 15.1328 8.05752 15.1328C6.78189 15.1328 5.65342 16.0079 5.00781 16.9618H0.488281C0.218604 16.9618 0 17.1804 0 17.45V23.6062C0 23.8758 0.218604 24.0944 0.488281 24.0944H3.39146C3.66113 24.0944 3.87974 23.8758 3.87974 23.6062V23.1846H5.24121C5.51089 23.1846 5.72949 22.966 5.72949 22.6963V22.5558C6.52314 22.625 6.78418 22.7755 7.51309 23.1958C8.07363 23.5191 8.92085 24.0076 10.4465 24.6936C10.4536 24.6968 10.4608 24.6998 10.468 24.7026C10.7608 24.8178 11.3332 24.9988 12.0389 24.9988C12.5301 24.9988 13.086 24.911 13.6566 24.6524L21.1757 21.9602C21.1891 21.9554 21.2023 21.95 21.2152 21.9441C21.9338 21.6135 23.0046 20.6817 22.4606 19.2861ZM2.90317 23.1178H0.976562V17.9383H2.90317V23.1178ZM4.75293 22.208H3.87974V17.9383H4.75293V22.208ZM20.825 21.0484L13.3093 23.7394C13.3027 23.7417 13.2937 23.7453 13.2873 23.7479C13.2807 23.7506 13.2741 23.7534 13.2676 23.7564C12.2208 24.2374 11.2259 23.9495 10.8359 23.7978C9.36221 23.1347 8.57563 22.6812 8.00093 22.3498C7.2019 21.889 6.81689 21.6669 5.72949 21.5771V17.6444C6.19233 16.8858 7.08989 16.1093 8.05757 16.1093C9.71704 16.1093 10.4202 17.1887 10.4479 17.2322C10.5075 17.3292 10.5991 17.4023 10.7069 17.4389L14.5875 18.756C15.2073 18.9886 15.5348 19.5193 15.3843 20.0486C15.3148 20.2931 15.1542 20.4958 14.9323 20.6195C14.7122 20.7421 14.4578 20.7724 14.2153 20.7053L9.84067 19.319C9.58345 19.2375 9.30913 19.3799 9.22769 19.637C9.14619 19.894 9.28857 20.1685 9.54565 20.25L13.9279 21.6387C13.9326 21.6401 13.9372 21.6416 13.9419 21.6429C14.1168 21.6926 14.295 21.7172 14.472 21.7172C14.7961 21.7172 15.1167 21.6347 15.4076 21.4726C15.8575 21.2219 16.1828 20.8111 16.3236 20.3157C16.3348 20.2762 16.3448 20.2366 16.3534 20.1971L20.0196 19.1814C20.5491 19.0006 21.2441 18.9354 21.5536 19.6481C21.8739 20.4849 21.0414 20.9452 20.825 21.0484Z"/>
<path d="M17.5322 6.4231C17.5259 6.39185 17.5166 6.36108 17.5039 6.3313C17.4917 6.302 17.4771 6.27368 17.459 6.24731C17.4414 6.22046 17.4209 6.19556 17.3984 6.1731C17.376 6.15063 17.3511 6.13013 17.3242 6.11255C17.2979 6.09497 17.2695 6.07983 17.2402 6.06763C17.2104 6.05542 17.1797 6.04565 17.1489 6.03979C17.0859 6.0271 17.021 6.0271 16.958 6.03979C16.9268 6.04565 16.896 6.05542 16.8667 6.06763C16.8369 6.07983 16.8086 6.09497 16.7822 6.11255C16.7554 6.13013 16.7305 6.15063 16.708 6.1731C16.6855 6.19556 16.665 6.22046 16.6475 6.24731C16.6299 6.27368 16.6147 6.302 16.6025 6.3313C16.5903 6.36108 16.5806 6.39185 16.5747 6.4231C16.5684 6.45435 16.5649 6.48657 16.5649 6.51831C16.5649 6.55005 16.5684 6.58227 16.5747 6.61352C16.5806 6.64477 16.5903 6.67554 16.6025 6.70483C16.6147 6.73462 16.6299 6.76294 16.6475 6.78931C16.665 6.81616 16.6855 6.84106 16.708 6.86353C16.7305 6.88599 16.7554 6.90649 16.7822 6.92407C16.8086 6.94165 16.8369 6.95679 16.8667 6.96899C16.896 6.9812 16.9268 6.99048 16.958 6.99683C16.9893 7.00317 17.0215 7.00659 17.0532 7.00659C17.085 7.00659 17.1172 7.00317 17.1489 6.99683C17.1797 6.99048 17.2104 6.9812 17.2402 6.96899C17.2695 6.95679 17.2979 6.94165 17.3242 6.92407C17.3511 6.90649 17.376 6.88599 17.3984 6.86353C17.4209 6.84106 17.4414 6.81616 17.459 6.78931C17.4771 6.76294 17.4917 6.73462 17.5039 6.70483C17.5166 6.67554 17.5259 6.64477 17.5322 6.61352C17.5386 6.58227 17.5415 6.55005 17.5415 6.51831C17.5415 6.48657 17.5386 6.45435 17.5322 6.4231Z"/>
<path d="M24.5117 1.65516H21.6085C21.3389 1.65516 21.1203 1.87377 21.1203 2.14345V2.56503H19.7588C19.4891 2.56503 19.2705 2.78363 19.2705 3.05331V3.19384C18.4769 3.12455 18.2158 2.97406 17.487 2.55375C16.9264 2.23051 16.0792 1.74198 14.5535 1.05599C14.5464 1.05277 14.5393 1.04979 14.532 1.04696C14.0353 0.85155 12.7337 0.467078 11.3435 1.09711L9.37871 1.80062L7.7225 0.14447C7.53183 -0.0462036 7.22265 -0.0462036 7.03198 0.14447L1.59458 5.58182C1.4187 5.75775 1.38496 6.06278 1.59458 6.2724L10.8859 15.5638C11.0346 15.7125 11.3828 15.7575 11.5765 15.5638L16.5406 10.5997C16.6697 10.6108 16.8036 10.6168 16.9424 10.6168C18.2181 10.6168 19.3465 9.74174 19.9921 8.78793H24.5117C24.7814 8.78793 25 8.56932 25 8.29965V2.14345C25 1.87377 24.7814 1.65516 24.5117 1.65516ZM7.37719 1.18026L8.49008 2.29315C8.15927 2.49774 7.7768 2.60721 7.37719 2.60721C6.97753 2.60721 6.59511 2.49779 6.2643 2.29315L7.37719 1.18026ZM3.74331 7.04003L2.63041 5.92709L3.74331 4.8142C3.9479 5.14501 4.05737 5.52748 4.05737 5.92709C4.05737 6.3267 3.94794 6.70917 3.74331 7.04003ZM11.2312 14.5279L10.1185 13.4152C10.7979 12.996 11.6645 12.996 12.3439 13.4152L11.2312 14.5279ZM13.0474 12.7118C11.9684 11.9291 10.4941 11.9291 9.41508 12.7118L4.44677 7.74345C4.82807 7.21903 5.03393 6.5891 5.03393 5.92709C5.03393 5.26503 4.82812 4.63514 4.44677 4.11073L5.56088 2.99667C6.0853 3.37797 6.71518 3.58383 7.37724 3.58383C8.0393 3.58383 8.66918 3.37797 9.1936 2.99667L10.2497 4.05277C10.0218 4.08641 9.7996 4.16151 9.59238 4.27699C9.24238 4.47201 8.96777 4.76405 8.79677 5.11737C8.24599 5.21937 7.73608 5.48602 7.33608 5.88598C6.25087 6.97123 6.25087 8.737 7.33613 9.82226C7.87871 10.3648 8.59145 10.6362 9.30424 10.6362C10.017 10.6362 10.7298 10.3649 11.2724 9.82226C11.6254 9.46923 11.8727 9.03534 11.9966 8.56249L13.6453 9.12201C13.4597 9.98178 13.6498 10.8863 14.1625 11.5967L13.0474 12.7118ZM10.0788 7.91137C10.0831 7.91293 10.0873 7.91449 10.0917 7.91596L11.0681 8.24735C10.9943 8.58012 10.8275 8.88607 10.5819 9.13173C9.87739 9.83612 8.7311 9.83622 8.0267 9.13173C7.32221 8.42728 7.32221 7.28104 8.0267 6.57655C8.19663 6.40653 8.39716 6.27367 8.61567 6.18358C8.70581 6.93368 9.24589 7.60228 10.0788 7.91137ZM14.8661 10.8931C14.6776 10.586 14.5709 10.2354 14.5541 9.87767C14.788 10.0468 15.0738 10.2124 15.4152 10.3439L14.8661 10.8931ZM19.2705 8.10497C18.8077 8.86366 17.9101 9.64017 16.9424 9.64017C16.7614 9.64017 16.5917 9.62728 16.4331 9.60433C16.4324 9.60424 16.4318 9.60414 16.4311 9.60404C15.3767 9.45087 14.8094 8.85155 14.6225 8.61425C14.6125 8.5996 14.5701 8.54408 14.5638 8.53485C14.5069 8.43319 14.4136 8.35145 14.2947 8.31107L10.4124 6.99345C9.79291 6.76093 9.46542 6.23041 9.61552 5.70131C9.61562 5.70097 9.61572 5.70062 9.61582 5.70028C9.61596 5.69989 9.61606 5.69945 9.61616 5.69906C9.68593 5.45541 9.84619 5.25331 10.0677 5.12992C10.2877 5.00731 10.542 4.97689 10.7846 5.04413L15.1593 6.43041C15.4164 6.512 15.6908 6.36952 15.7723 6.11244C15.8537 5.85536 15.7114 5.58095 15.4543 5.49945L11.975 4.39691L11.9447 4.36654C11.9444 4.36625 11.9441 4.36591 11.9437 4.36561L10.1425 2.56434L11.6907 2.00995C11.6959 2.00804 11.7024 2.00565 11.7076 2.00355C11.7089 2.00302 11.7114 2.00204 11.7127 2.0015C11.7193 1.99882 11.7259 1.99598 11.7324 1.99301C12.779 1.51195 13.774 1.79989 14.164 1.95155C15.6377 2.61469 16.4244 3.06825 16.9991 3.39965C17.7981 3.86044 18.1831 4.08246 19.2705 4.17225V8.10497ZM21.1203 7.81127H20.2471V3.54159H21.1203V7.81127ZM24.0234 7.81127H22.0968V2.63173H24.0234V7.81127Z"/>
</svg>
