<svg width="71" height="14" viewBox="0 0 71 14" xmlns="http://www.w3.org/2000/svg">
<path d="M0.729996 0H12.43C12.833 0 13.16 0.311999 13.16 0.696999V1.935C13.16 2.319 12.832 2.633 12.43 2.633H0.729996C0.326996 2.633 -1.52588e-05 2.32 -1.52588e-05 1.935V0.696999C-1.52588e-05 0.310999 0.326996 0 0.729996 0ZM0.729996 6.912H12.43C12.833 6.912 13.16 7.224 13.16 7.609V8.849C13.16 9.233 12.832 9.545 12.43 9.545H0.729996C0.326996 9.545 -1.52588e-05 9.233 -1.52588e-05 8.849V7.609C-1.52588e-05 7.225 0.326996 6.912 0.729996 6.912ZM7.30998 10.368H0.729996C0.326996 10.368 -1.52588e-05 10.68 -1.52588e-05 11.065V12.305C-1.52588e-05 12.689 0.326996 13.002 0.729996 13.002H7.30998C7.71498 13.002 8.03999 12.69 8.03999 12.305V11.065C8.03999 10.68 7.71398 10.368 7.30998 10.368ZM0.729996 3.455H13.162C13.566 3.455 13.892 3.767 13.892 4.152V5.392C13.892 5.776 13.566 6.089 13.162 6.089H0.729996C0.326996 6.089 -1.52588e-05 5.776 -1.52588e-05 5.392V4.152C-1.52588e-05 3.767 0.326996 3.455 0.729996 3.455Z"/>
<path d="M70.925 8.706L68.9 5.87L70.634 3.69C70.724 3.564 70.748 3.444 70.706 3.33C70.676 3.248 70.594 3.15 70.384 3.15H69.014C68.9357 3.15044 68.8586 3.16819 68.788 3.202C68.7034 3.24135 68.6332 3.30599 68.587 3.387L67.201 5.234H66.864V0.869996C66.864 0.776996 66.831 0.699998 66.768 0.635998C66.7022 0.575164 66.6156 0.541876 66.526 0.542996H65.243C65.1527 0.543069 65.0656 0.576147 64.998 0.635998C64.928 0.698998 64.892 0.775995 64.892 0.870995V8.929C64.8912 8.97342 64.9004 9.01745 64.9187 9.05792C64.937 9.09838 64.9641 9.13427 64.998 9.163C65.068 9.225 65.15 9.256 65.243 9.256H66.526C66.621 9.256 66.706 9.226 66.768 9.161C66.83 9.096 66.864 9.021 66.864 8.929V6.794H67.234L68.747 9C68.7911 9.07809 68.8554 9.14287 68.9332 9.18756C69.0109 9.23225 69.0993 9.2552 69.189 9.254H70.624C70.842 9.254 70.934 9.156 70.969 9.072C71.021 8.954 71.006 8.835 70.924 8.705L70.925 8.706ZM49.77 7.346C49.886 7.352 49.984 7.411 50.054 7.52L50.499 8.206C50.619 8.386 50.601 8.566 50.455 8.73C50.235 8.952 49.955 9.118 49.625 9.227C49.2848 9.33666 48.9294 9.39168 48.572 9.39C48.306 9.39 48.035 9.353 47.77 9.277C47.5154 9.20649 47.2767 9.08766 47.067 8.927C46.865 8.771 46.699 8.563 46.572 8.327C46.445 8.091 46.379 7.774 46.379 7.421V4.78099H45.639C45.542 4.78099 45.459 4.746 45.394 4.671C45.329 4.596 45.3 4.523 45.3 4.441V3.5C45.3 3.408 45.334 3.33 45.394 3.264C45.46 3.194 45.542 3.16 45.639 3.16H46.379V1.65C46.379 1.55 46.419 1.466 46.485 1.405C46.5526 1.34384 46.6408 1.31061 46.732 1.312H48.027C48.112 1.312 48.191 1.342 48.262 1.405C48.2964 1.43555 48.3236 1.47339 48.3416 1.51577C48.3596 1.55815 48.3679 1.604 48.366 1.65V3.16H50.033C50.1265 3.16042 50.2166 3.19531 50.286 3.258C50.361 3.325 50.386 3.408 50.386 3.5V4.442C50.386 4.527 50.35 4.605 50.278 4.676C50.206 4.747 50.118 4.782 50.022 4.782H48.355V7.002C48.3506 7.1138 48.37 7.22526 48.412 7.329C48.452 7.409 48.495 7.471 48.55 7.513C48.6008 7.55383 48.6604 7.58256 48.724 7.597C48.7832 7.61147 48.844 7.61886 48.905 7.619C48.967 7.619 49.045 7.609 49.135 7.585C49.225 7.561 49.325 7.519 49.429 7.457C49.5258 7.38887 49.6417 7.35316 49.76 7.355L49.77 7.346ZM44.454 6.043C44.276 5.893 44.062 5.771 43.824 5.68C43.586 5.589 43.324 5.51699 43.069 5.468L42.092 5.284C41.842 5.239 41.667 5.178 41.569 5.101C41.481 5.034 41.439 4.957 41.439 4.861C41.439 4.765 41.501 4.68099 41.621 4.607C41.753 4.529 41.938 4.489 42.166 4.489C42.418 4.489 42.666 4.537 42.896 4.631C43.126 4.725 43.349 4.835 43.54 4.956C43.825 5.123 44.066 5.101 44.24 4.908L44.71 4.393C44.806 4.293 44.856 4.181 44.856 4.071C44.856 3.956 44.796 3.851 44.678 3.754C44.478 3.589 44.165 3.414 43.744 3.242C43.323 3.07 42.794 2.98 42.168 2.98C41.768 2.98 41.378 3.033 41.044 3.136C40.7347 3.22652 40.4439 3.37108 40.185 3.563C39.949 3.747 39.763 3.96 39.635 4.206C39.507 4.452 39.445 4.716 39.445 5.006C39.445 5.512 39.605 5.924 39.922 6.232C40.238 6.532 40.66 6.737 41.178 6.837L42.193 7.047C42.483 7.102 42.701 7.165 42.843 7.237C42.966 7.297 43.026 7.384 43.026 7.505C43.026 7.615 42.966 7.71 42.846 7.797C42.718 7.891 42.516 7.937 42.248 7.937C41.9716 7.94022 41.698 7.8818 41.447 7.766C41.207 7.652 40.987 7.516 40.794 7.353C40.7053 7.28505 40.6054 7.23295 40.499 7.199C40.377 7.165 40.241 7.201 40.083 7.317L39.523 7.732C39.36 7.862 39.293 8.022 39.323 8.202C39.35 8.377 39.506 8.558 39.796 8.762C40.056 8.935 40.386 9.092 40.796 9.228C41.206 9.364 41.664 9.434 42.196 9.434C42.623 9.434 43.018 9.382 43.366 9.279C43.69 9.18575 43.9962 9.03907 44.272 8.845C44.525 8.661 44.722 8.43499 44.858 8.17699C44.9933 7.92031 45.063 7.63415 45.061 7.344C45.061 7.057 45.009 6.804 44.901 6.59C44.7966 6.38156 44.6498 6.19728 44.47 6.049L44.454 6.043ZM23.812 3.853C23.527 3.575 23.195 3.355 22.822 3.205C22.4461 3.05475 22.0448 2.97835 21.64 2.98C21.208 2.98 20.823 3.057 20.497 3.214C20.243 3.334 20.027 3.486 19.86 3.664V3.5C19.86 3.408 19.826 3.33 19.765 3.264C19.699 3.194 19.617 3.16 19.52 3.16H18.253C18.153 3.16 18.073 3.195 18.009 3.264C17.945 3.333 17.913 3.408 17.913 3.5V11.596C17.913 11.686 17.946 11.766 18.01 11.83C18.074 11.894 18.155 11.922 18.254 11.922H19.546C19.6329 11.9224 19.7166 11.8894 19.78 11.83C19.8137 11.8012 19.8406 11.7652 19.8587 11.7248C19.8769 11.6843 19.8859 11.6403 19.885 11.596V8.833C20.058 9.017 20.288 9.157 20.562 9.253C20.908 9.376 21.262 9.436 21.614 9.436C22.029 9.436 22.431 9.362 22.81 9.212C23.189 9.062 23.528 8.84 23.813 8.558C24.098 8.276 24.328 7.932 24.493 7.54C24.663 7.143 24.746 6.695 24.746 6.207C24.746 5.719 24.664 5.271 24.493 4.875C24.337 4.4952 24.1057 4.15095 23.813 3.863L23.812 3.853ZM22.652 6.778C22.58 6.951 22.478 7.108 22.348 7.238C22.218 7.368 22.068 7.475 21.896 7.548C21.7146 7.62406 21.5196 7.66218 21.323 7.66C21.123 7.66 20.929 7.62 20.753 7.548C20.577 7.476 20.42 7.37 20.287 7.238C20.1553 7.10619 20.0507 6.94993 19.979 6.778C19.9052 6.59743 19.8678 6.40406 19.869 6.209C19.869 6.006 19.907 5.816 19.969 5.639C20.0403 5.46893 20.1451 5.3149 20.277 5.186C20.4127 5.05532 20.5709 4.95029 20.744 4.876C20.9232 4.79806 21.1166 4.75822 21.312 4.759C21.5088 4.75706 21.7038 4.79694 21.884 4.876C22.0531 4.95064 22.2076 5.05495 22.34 5.18399C22.467 5.31399 22.57 5.467 22.64 5.639C22.712 5.816 22.748 6.006 22.748 6.209C22.7498 6.40392 22.7131 6.59729 22.64 6.778H22.652ZM31.678 3.15H30.398C30.3091 3.15074 30.224 3.18628 30.161 3.249C30.093 3.319 30.057 3.399 30.057 3.489V3.639C29.913 3.472 29.717 3.329 29.477 3.214C29.154 3.058 28.777 2.98 28.354 2.98C27.947 2.98 27.549 3.055 27.171 3.205C26.7939 3.35244 26.4492 3.57185 26.156 3.851C25.864 4.129 25.626 4.471 25.449 4.865C25.272 5.259 25.184 5.709 25.184 6.197C25.184 6.685 25.274 7.134 25.449 7.53C25.624 7.926 25.861 8.267 26.149 8.548C26.437 8.829 26.779 9.048 27.159 9.202C27.539 9.356 27.936 9.426 28.343 9.426C28.763 9.426 29.145 9.346 29.473 9.193C29.6944 9.0913 29.8935 8.94687 30.059 8.768V8.928C30.059 9.02 30.095 9.101 30.165 9.162C30.2282 9.2218 30.3119 9.25509 30.399 9.255H31.679C31.776 9.255 31.856 9.225 31.919 9.16C31.9507 9.13034 31.9757 9.09436 31.9926 9.0544C32.0095 9.01443 32.0178 8.97137 32.017 8.928V3.5C32.017 3.408 31.984 3.33 31.921 3.264C31.858 3.198 31.774 3.16 31.677 3.16L31.678 3.15ZM29.948 6.77C29.876 6.95 29.774 7.103 29.648 7.23C29.522 7.357 29.364 7.462 29.193 7.53C29.022 7.598 28.827 7.647 28.619 7.647C28.419 7.647 28.229 7.607 28.052 7.53C27.8808 7.45595 27.7249 7.35085 27.592 7.22C27.465 7.095 27.362 6.93999 27.29 6.75999C27.218 6.58 27.182 6.392 27.182 6.2C27.1808 6.0048 27.2175 5.81123 27.29 5.63C27.362 5.457 27.464 5.302 27.592 5.175C27.72 5.048 27.875 4.945 28.052 4.867C28.229 4.789 28.42 4.75 28.619 4.75C28.827 4.75 29.022 4.79 29.193 4.867C29.3616 4.94212 29.5156 5.04638 29.648 5.175C29.774 5.305 29.876 5.458 29.948 5.63C30.021 5.81109 30.0577 6.00476 30.056 6.2C30.0565 6.39221 30.0198 6.58272 29.948 6.761V6.77ZM55.79 3.15H57.07C57.17 3.15 57.25 3.185 57.314 3.254C57.378 3.323 57.41 3.398 57.41 3.49V8.928C57.41 9.02 57.376 9.098 57.313 9.16C57.25 9.222 57.166 9.255 57.07 9.255H55.79C55.702 9.255 55.625 9.225 55.556 9.162C55.487 9.099 55.452 9.022 55.452 8.928V8.768C55.302 8.934 55.108 9.076 54.862 9.193C54.536 9.347 54.156 9.426 53.732 9.426C53.3277 9.4266 52.927 9.3506 52.551 9.202C52.171 9.049 51.831 8.83 51.543 8.548C51.255 8.266 51.018 7.922 50.843 7.53C50.668 7.138 50.577 6.685 50.577 6.197C50.577 5.709 50.667 5.257 50.843 4.865C51.019 4.473 51.257 4.13 51.55 3.851C51.843 3.572 52.185 3.355 52.566 3.205C52.947 3.055 53.342 2.98 53.746 2.98C54.171 2.98 54.548 3.057 54.87 3.214C55.11 3.33 55.305 3.474 55.452 3.639V3.489C55.4518 3.44392 55.4608 3.39928 55.4785 3.35783C55.4962 3.31639 55.5223 3.279 55.555 3.248C55.6175 3.18576 55.7018 3.15026 55.79 3.149V3.15ZM55.038 7.232C55.1701 7.10119 55.2733 6.94415 55.341 6.771C55.4141 6.59299 55.4518 6.40243 55.452 6.21C55.453 6.01453 55.4153 5.8208 55.341 5.64C55.2709 5.46989 55.1679 5.31528 55.038 5.185C54.911 5.057 54.758 4.955 54.584 4.877C54.4039 4.79765 54.2088 4.75775 54.012 4.75999C53.812 4.75999 53.612 4.8 53.446 4.877C53.28 4.954 53.116 5.057 52.986 5.185C52.8566 5.31553 52.754 5.4701 52.684 5.64C52.612 5.817 52.576 6.007 52.576 6.21C52.5755 6.40221 52.6121 6.59271 52.684 6.771C52.757 6.951 52.859 7.107 52.986 7.231C53.1191 7.36195 53.2755 7.46706 53.447 7.541C53.624 7.618 53.814 7.658 54.013 7.658C54.2098 7.66024 54.4048 7.62035 54.585 7.541C54.759 7.463 54.912 7.361 55.039 7.241L55.038 7.232ZM63.368 6.902L64.103 7.438C64.191 7.504 64.253 7.586 64.303 7.685C64.3233 7.73715 64.3311 7.79332 64.3259 7.84904C64.3207 7.90476 64.3026 7.95851 64.273 8.006C64.003 8.419 63.623 8.76 63.135 9.026C62.647 9.292 62.069 9.426 61.417 9.426C60.947 9.426 60.495 9.342 60.085 9.176C59.6841 9.01771 59.3164 8.78571 59.001 8.492C58.6945 8.20521 58.4498 7.85878 58.282 7.474C58.109 7.082 58.019 6.654 58.019 6.208C58.019 5.762 58.119 5.332 58.282 4.938C58.448 4.54957 58.6928 4.19985 59.001 3.911C59.306 3.623 59.671 3.395 60.085 3.229C60.5089 3.06114 60.9611 2.97627 61.417 2.979C62.069 2.979 62.649 3.114 63.135 3.379C63.621 3.644 64.005 3.987 64.271 4.396C64.3016 4.44452 64.3206 4.49951 64.3263 4.55661C64.332 4.61371 64.3244 4.67135 64.304 4.725C64.2681 4.82476 64.2003 4.90985 64.111 4.967L63.377 5.503C63.24 5.60899 63.107 5.638 62.991 5.593C62.887 5.553 62.798 5.49 62.724 5.408C62.542 5.202 62.354 5.038 62.161 4.925C61.968 4.812 61.733 4.757 61.446 4.757C61.236 4.757 61.042 4.797 60.871 4.874C60.7 4.951 60.544 5.054 60.417 5.182C60.2868 5.31086 60.1856 5.46596 60.12 5.637C60.052 5.812 60.018 6.001 60.018 6.207C60.018 6.402 60.051 6.587 60.12 6.764C60.1884 6.93503 60.2893 7.09122 60.417 7.224C60.5453 7.35636 60.6991 7.46146 60.869 7.533C61.042 7.606 61.235 7.633 61.446 7.633C61.733 7.633 61.976 7.577 62.161 7.467C62.351 7.353 62.541 7.19 62.721 6.984C62.797 6.902 62.886 6.839 62.991 6.799C63.106 6.753 63.241 6.783 63.381 6.889L63.368 6.902ZM37.525 3.149H38.959C39.154 3.149 39.239 3.234 39.273 3.306C39.316 3.401 39.316 3.516 39.269 3.656L37.162 10.206C36.974 10.781 36.665 11.242 36.246 11.581C35.827 11.92 35.276 12.081 34.62 12.081C34.232 12.081 33.866 12.026 33.536 11.913C33.2257 11.8138 32.9389 11.6526 32.693 11.439C32.573 11.339 32.47 11.159 32.656 10.884L33.112 10.246C33.2 10.116 33.308 10.051 33.432 10.051H33.447C33.565 10.056 33.674 10.091 33.77 10.155C33.87 10.228 33.982 10.289 34.107 10.355C34.232 10.421 34.357 10.435 34.491 10.435C34.654 10.435 34.791 10.391 34.917 10.302C35.043 10.213 35.135 10.084 35.197 9.917L35.38 9.423L35.443 9.253H34.676C34.564 9.253 34.473 9.223 34.406 9.16C34.343 9.104 34.306 9.034 34.266 8.96L32.45 3.667C32.413 3.547 32.413 3.431 32.452 3.333C32.497 3.218 32.618 3.159 32.81 3.159H34.295C34.3432 3.15724 34.3912 3.1664 34.4353 3.1858C34.4795 3.20519 34.5187 3.23432 34.55 3.271C34.6016 3.33668 34.6385 3.41275 34.658 3.494L35.796 7.254H36.056L37.113 3.492C37.133 3.41 37.175 3.332 37.239 3.267C37.307 3.197 37.405 3.157 37.525 3.157V3.149Z"/>
</svg>
