<svg height="17" viewBox="0 0 17 17" width="17" xmlns="http://www.w3.org/2000/svg"><g fill="#fff" fill-rule="evenodd"><path d="m7.00107543 10.4783482-.67554106-.6755411c1.64742777-1.75562548 3.22689609-3.54712697 4.72446563-5.4497768 1.2878788-1.36515151 2.5757576-2.70454545 3.8636364-4.06969697.7984848-.85 2.4984848.82424243 1.5969697 1.5969697-1.3651516 1.28787879-2.7045455 2.57575758-4.069697 3.86363636-1.899058 1.50699443-3.68738698 3.08975087-5.43983367 4.73440881zm-.4110242.3874606c-1.17602768 1.1134198-2.33845522 2.25439-3.51010358 3.4186843l-.56512396-.565124c1.16836867-1.1701761 2.31084599-2.3311203 3.42322207-3.5055658zm-3.84582391 3.7526609c-.49996449.4978735-1.00199762.9999066-1.50786368 1.5057727.30909091.6181818-.12878788.7727273-.66969697.3090909l-.20606061-.2060606c-.46363636-.5151515-.30909091-.9530303.30909091-.6696969.50783428-.504332 1.01138263-1.0048543 1.51032129-1.5033151z"/><path d="m10.5730893 9.74963798-.67884473.67884472c-1.73545458-1.62678928-3.50681101-3.19278518-5.38666881-4.68454331-1.36515152-1.28787878-2.70454546-2.57575757-4.06969697-3.86363636-.90151515-.77272727.79848485-2.4469697 1.59696969-1.5969697 1.28787879 1.36515152 2.57575758 2.70454546 3.86363637 4.06969697 1.48245471 1.88344657 3.04516335 3.65797709 4.67460445 5.39660768zm.3872478.41123702c1.0832499 1.1450257 2.1951518 2.2769026 3.3318086 3.4166762l-.5657583.5657583c-1.1411361-1.1328168-2.274393-2.2433179-3.4208917-3.3275931l.6548536-.6548536zm3.6664301 3.7517517c.5452538.5452797 1.0960689 1.0928315 1.6520207 1.6449491.6181818-.2833334.7727273.1545454.3090909.6696969l-.2060606.2060606c-.5409091.4636364-.9787879.3090909-.669697-.3090909-.5537739-.5537739-1.1029545-1.1029545-1.6498564-1.6471132l.5645034-.5645035zm-6.17828235-1.6777782c1.00454545 0 1.80303035.7984848 1.80303035 1.8030303 0 1.0045454-.7984849 1.8030303-1.80303035 1.8030303-1.00454546 0-1.8030303-.7984849-1.8030303-1.8030303 0-.9787879.79848484-1.8030303 1.8030303-1.8030303zm1.21060606 2.8333333c-.30909091-.3090909-.7469697-.4893939-1.23636364-.4893939s-.92727272.180303-1.23636363.4893939c.05151515.0772727.12878788.1545455.2060606.2060606.28333334-.2318182.6439394-.3863636 1.03030303-.3863636.41212121 0 .77272728.1287879 1.03030303.3863636.07727273-.0515151.15454546-.1287879.20606061-.2060606zm-2.4469697-2.0348485c.33484849.2833334.7469697.4636364 1.23636364.489394.48939394 0 .92727273-.1803031 1.23636363-.489394-.07727272-.0772727-.12878787-.1545454-.2060606-.2060606-.28333333.2575758-.6439394.4121212-1.03030303.4121212-.41212121 0-.77272727-.1545454-1.03030303-.4121212-.07727273.0515152-.15454546.1287879-.20606061.2060606z"/></g></svg>