<svg xmlns="http://www.w3.org/2000/svg" width="17" height="17" fill-rule="nonzero"><path d="M5.887 15.814a.37.37 0 0 1-.468-.228L1.576 4.314a.37.37 0 0 1 .225-.468l3.888-1.36v10.972c0 .62.5 1.127 1.114 1.127H9.4l-3.523 1.228zm8.192-1.986H6.803c-.202 0-.365-.166-.365-.37V1.53c0-.2.164-.364.365-.364h7.276c.2 0 .365.163.365.364v11.93c0 .204-.164.37-.365.37zm1.114-12.3a1.12 1.12 0 0 0-1.114-1.12H6.803a1.12 1.12 0 0 0-1.114 1.121v.156L1.557 3.13a1.13 1.13 0 0 0-.689 1.43L4.7 15.833a1.12 1.12 0 0 0 1.055.76c.12 0 .244-.02.365-.062l5.575-1.944h2.373c.614 0 1.114-.506 1.114-1.127V1.53zm-2.23 5.697h0a2.6 2.6 0 0 0-.805-1.186l-.455-.384-.437-.403-.425-.415-.4-.432c-.024-.026-.058-.04-.094-.04s-.07.015-.094.04h0l-.055.058-.552.572a18.29 18.29 0 0 1-1.113 1.002 2.6 2.6 0 0 0-.81 1.186h0a1.71 1.71 0 0 0 .722 1.932 1.24 1.24 0 0 0 .631.173 1.25 1.25 0 0 0 .77-.266c.025-.02.06-.02.088-.004s.04.05.033.08a5.62 5.62 0 0 1-.363 1.018c-.03.067-.025.144.018.2s.12.1.193.1h1.073c.073 0 .143-.04.187-.1s.05-.143.018-.2a5.65 5.65 0 0 1-.362-1.018c-.008-.03.005-.064.033-.08s.063-.016.088.004a1.25 1.25 0 0 0 .769.266c.217 0 .435-.057.632-.173a1.71 1.71 0 0 0 .721-1.932m-5.26-4.5a.28.28 0 0 0 .132-.032c.134-.075.196-.218.15-.35h0a.5.5 0 0 0-.162-.209h0L7.66 2l-.165-.14c-.02-.016-.05-.016-.067-.001l-.33.276c-.057.05-.127.12-.16.2-.045.132.015.275.147.35h.001a.3.3 0 0 0 .138.034c.05 0 .1-.014.144-.04-.015.05-.04.097-.064.143l-.007.014c-.01.018-.008.04.004.056s.035.027.06.027h.205c.025 0 .04-.006.056-.02s.013-.044.004-.062a.9.9 0 0 1-.063-.155c.043.025.092.037.142.037M3.24 4.69c.1-.088.118-.232.015-.326-.085-.078-.218-.1-.33-.06.018-.072-.005-.152-.066-.2-.077-.074-.204-.102-.315-.07s-.2.12-.192.216c-.002.077.04.15.108.196-.117.026-.205.1-.2.215-.008.127.107.235.262.246a.28.28 0 0 0 .025.001c.114 0 .216-.057.26-.143.008.1-.037.195-.126.263-.017.013-.02.034-.01.05s.027.02.045.02l.512-.15c.02-.006.033-.024.03-.044s-.022-.034-.046-.035a.42.42 0 0 1-.297-.132.34.34 0 0 0 .134.027.32.32 0 0 0 .198-.065M13.6 12.14h-.001c-.088-.046-.197-.04-.28.012.015-.05.04-.096.064-.142l.008-.015a.05.05 0 0 0-.005-.056c-.013-.016-.04-.02-.053-.02h-.2c-.014 0-.043 0-.06.02s-.012.037-.002.057c.03.057.054.105.07.157-.084-.052-.192-.057-.28-.012-.134.076-.195.22-.15.35a.47.47 0 0 0 .164.211h0l.325.28c.01.01.022.014.035.014a.05.05 0 0 0 .035-.014h0a3.15 3.15 0 0 1 .327-.28c.076-.056.132-.128.163-.2h0c.045-.13-.017-.275-.15-.35"/></svg>