<svg height="17" viewBox="0 0 17 17" width="17" xmlns="http://www.w3.org/2000/svg"><path d="m14.8064516 9.87096774c-.0734839 0-.1461451.00383871-.2179839.01096774.307371-.37756451.4921775-.8582258.4921775-1.38193548 0-1.20946774-.9840807-2.19354839-2.1935484-2.19354839-.0734839 0-.1461452.00383871-.2179839.01096774.307371-.37756451.4921774-.8582258.4921774-1.38193548 0-.80969355-.4422742-1.51683871-1.0967742-1.89687097v-1.39345161c0-.90730645-.7378548-1.64516129-1.6451613-1.64516129h-8.77419351c-.90730645 0-1.64516129.73785484-1.64516129 1.64516129v13.70967741c0 .9073065.73785484 1.6451613 1.64516129 1.6451613h8.77419351c.9073065 0 1.6451613-.7378548 1.6451613-1.6451613v-1.3934516c.3441129-.1996129.6295484-.4888871.8225807-.8371129.3742742.6750645 1.0940322 1.1337903 1.9193548 1.1337903 1.2094678 0 2.1935484-.9840806 2.1935484-2.1935484 0-1.2094677-.9840806-2.19354836-2.1935484-2.19354836zm-4.1129032-7.9516129c-.3024355 0-.5483871-.24595161-.5483871-.5483871 0-.30243548.2459516-.54838709.5483871-.54838709s.5483871.24595161.5483871.54838709c0 .30243549-.2459516.5483871-.5483871.5483871zm-1.05783872-.82258065h-7.20690323c-.05620968-.2166129-.17630645-.40553225-.34-.54838709h7.88690323c-.16369355.14285484-.28379033.33177419-.34.54838709zm-8.26474194 15.08064521c-.30243548 0-.54838709-.2459517-.54838709-.5483871 0-.3024355.24595161-.5483871.54838709-.5483871.30243549 0 .5483871.2459516.5483871.5483871 0 .3024354-.24595161.5483871-.5483871.5483871zm0-7.1290323c-.30243548 0-.54838709-.24595162-.54838709-.5483871s.24595161-.5483871.54838709-.5483871c.30243549 0 .5483871.24595162.5483871.5483871s-.24595161.5483871-.5483871.5483871zm0-7.12903226c-.30243548 0-.54838709-.24595161-.54838709-.5483871 0-.30243548.24595161-.54838709.54838709-.54838709.30243549 0 .5483871.24595161.5483871.54838709 0 .30243549-.24595161.5483871-.5483871.5483871zm-.27419355.50945161v5.01335484c-.2166129.05620968-.40553225.17630645-.54838709.34v-5.69335484c.14285484.16369355.33177419.28379032.54838709.34zm0 7.12903226v5.01335479c-.2166129.0562097-.40553225.1763065-.54838709.34v-5.69335479c.14285484.16369355.33177419.28379032.54838709.34zm1.33203226 6.34538709h7.20690323c.05620967.2166129.17630645.4055323.34.5483871h-7.88690323c.16369355-.1428548.28379032-.3317742.34-.5483871zm8.26474195.2741936c-.3024355 0-.5483871-.2459517-.5483871-.5483871 0-.3024355.2459516-.5483871.5483871-.5483871s.5483871.2459516.5483871.5483871c0 .3024354-.2459516.5483871-.5483871.5483871zm-.2741936-1.6062259c-.3835967.0998065-.68411286.4000484-.78364512.7836452h-7.20690323c-.09953226-.3835968-.40004839-.6841129-.78364516-.7836452v-5.01335479c.4718871-.12256452.82258065-.5481129.82258065-1.05783871s-.35069355-.93527419-.82258065-1.05783871v-5.01335484c.38359677-.09953226.6841129-.40004839.78364516-.78364516h7.20690323c.09953226.38359677.40004842.6841129.78364512.78364516v.38524194c-.94459674.24458064-1.64516125 1.10143548-1.64516125 2.12143548 0 .52370968.18480645 1.00437097.49217742 1.38193548-.07183871-.00712903-.1445-.01096774-.21798387-.01096774-1.20946775 0-2.19354839.98408065-2.19354839 2.19354839 0 .52370968.18480645 1.00437097.49217742 1.38193548-.07183871-.00712903-.1445-.01096774-.21798387-.01096774-1.20946774 0-2.19354839.98408066-2.19354839 2.19354836 0 1.2094678.98408065 2.1935484 2.19354839 2.1935484.82532258 0 1.54508064-.4587258 1.91935484-1.1340645.28845161.5201452.78227419.9095 1.3709677 1.0616774zm-1.3709677-4.4260322c-.90730645 0-1.64516129-.73785485-1.64516129-1.6451613s.73785484-1.64516129 1.64516129-1.64516129 1.6451613.73785484 1.6451613 1.64516129-.73785485 1.6451613-1.6451613 1.6451613zm1.701371-3.02709678c.0718387.00712903.1445.01096774.2179838.01096774.0734839 0 .1461452-.00383871.2179839-.01096774-.0817097.10062903-.1549193.20838709-.2179839.32245161-.0633387-.11406452-.1362742-.22209678-.2179838-.32245161zm-3.62072584 6.59161288c-.90730645 0-1.64516129-.7378548-1.64516129-1.6451613 0-.9073064.73785484-1.6451613 1.64516129-1.6451613s1.64516129.7378549 1.64516129 1.6451613c0 .9073065-.73785484 1.6451613-1.64516129 1.6451613zm1.70137097-3.0270968c.07183871.0071291.1445.0109678.21798387.0109678s.14614516-.0038387.21798387-.0109678c-.08170968.1006291-.15491936.2083871-.21798387.3224517-.06333871-.1140646-.1362742-.2220968-.21798387-.3224517zm2.13733867-1.12309673c.0633387.11406452.1362742.22182258.2179839.32245161-.0718387-.00712903-.1445-.01096774-.2179839-.01096774-.0734838 0-.1461451.00383871-.2179838.01096774.0817096-.10035483.1546451-.20838709.2179838-.32245161zm3.5645162-1.05948387c0 .90730645-.7378549 1.6451613-1.6451613 1.6451613-.9073065 0-1.6451613-.73785485-1.6451613-1.6451613s.7378548-1.64516129 1.6451613-1.64516129c.9073064 0 1.6451613.73785484 1.6451613 1.64516129zm-1.4271775 2.1825806c-.0817096.1006291-.1549193.2083871-.2179838.3224517-.0633387-.1140646-.1362742-.2218226-.2179839-.3224517.0718387.0071291.1445.0109678.2179839.0109678.0734838 0 .1461451-.0038387.2179838-.0109678zm-.4921774-5.74709673c0 .90730645-.7378548 1.64516129-1.6451613 1.64516129-.9073064 0-1.64516125-.73785484-1.64516125-1.64516129s.73785485-1.64516129 1.64516125-1.64516129c.9073065 0 1.6451613.73785484 1.6451613 1.64516129zm-1.6451613-2.19354839v-.31312903c.2166129-.05620968.4055323-.17630645.5483871-.34v.72524194c-.175758-.04551613-.3586451-.07211291-.5483871-.07211291zm.5483871 12.16925802c-.1428548-.1636935-.3317742-.2837903-.5483871-.34v-.313129c.189742 0 .3726291-.0265968.5483871-.0721129zm-.5483871-1.2015161c-.9073064 0-1.64516125-.7378548-1.64516125-1.6451613 0-.9073064.73785485-1.6451613 1.64516125-1.6451613.9073065 0 1.6451613.7378549 1.6451613 1.6451613 0 .9073065-.7378548 1.6451613-1.6451613 1.6451613zm3.8387097 0c-.9073064 0-1.6451613-.7378548-1.6451613-1.6451613 0-.9073064.7378549-1.6451613 1.6451613-1.6451613.9073065 0 1.6451613.7378549 1.6451613 1.6451613 0 .9073065-.7378548 1.6451613-1.6451613 1.6451613z"/></svg>