<svg xmlns="http://www.w3.org/2000/svg" width="28" height="20" viewBox="0 0 28 20">
  <g fill="none" fill-rule="evenodd">
    <rect width="28" height="20" fill="#FF2936"/>
    <rect width="10.667" height="20" fill="#128415"/>
    <circle cx="10.667" cy="10" r="3.333" stroke="#FAF94F" stroke-width="1.333"/>
    <path fill="#FFF" d="M9.33333333,8.34103775 C9.33333333,8.1526878 9.47670492,8 9.66031901,8 L11.6730143,8 C11.8536035,8 12,8.15192032 12,8.34103775 L12,10.6680579 C12,11.4036692 11.4081802,12 10.6666667,12 L10.6666667,12 C9.930287,12 9.33333333,11.4097862 9.33333333,10.6680579 L9.33333333,8.34103775 Z"/>
    <path fill="#1D50B5" d="M10.6666667,10.6666667 C11.0348565,10.6666667 11.3333333,9.70152317 11.3333333,9.33333333 C11.3333333,8.9651435 11.0348565,8.66666667 10.6666667,8.66666667 C10.2984768,8.66666667 10,8.9651435 10,9.33333333 C10,9.70152317 10.2984768,10.6666667 10.6666667,10.6666667 Z"/>
  </g>
</svg>
