<svg xmlns="http://www.w3.org/2000/svg" xmlns:xlink="http://www.w3.org/1999/xlink" width="29" height="29" viewBox="0 0 29 29">
  <defs>
    <path id="quicklinks-help-a" d="M14.5,0 C6.49187113,0 0,6.49187113 0,14.5 C0,22.5081289 6.49187113,29 14.5,29 C22.5081289,29 29,22.5081289 29,14.5 C29,6.49187113 22.5081289,0 14.5,0 L14.5,0 Z M22.62,4.97613636 L19.3838636,8.21227273 L19.3443182,8.25840909 C16.4991734,6.03001111 12.5008266,6.03001111 9.65568182,8.25840909 L9.61613636,8.21227273 L6.38,4.97613636 C11.0556342,0.972673026 17.9509567,0.972673026 22.6265909,4.97613636 L22.62,4.97613636 Z M14.5,20.4318182 C11.2239473,20.4318182 8.56818182,17.7760527 8.56818182,14.5 C8.56818182,11.2239473 11.2239473,8.56818182 14.5,8.56818182 C17.7760527,8.56818182 20.4318182,11.2239473 20.4318182,14.5 C20.4318182,17.7760527 17.7760527,20.4318182 14.5,20.4318182 L14.5,20.4318182 Z M1.97727273,14.5 C1.97469083,11.5219814 3.03851713,8.64146708 4.97613636,6.38 L8.21227273,9.61613636 L8.25840909,9.65568182 C6.03001111,12.5008266 6.03001111,16.4991734 8.25840909,19.3443182 L8.21227273,19.3838636 L4.97613636,22.62 C3.03851713,20.3585329 1.97469083,17.4780186 1.97727273,14.5 L1.97727273,14.5 Z M6.38,24.0238636 L9.61613636,20.7877273 L9.65568182,20.7415909 C12.5008266,22.9699889 16.4991734,22.9699889 19.3443182,20.7415909 L19.3838636,20.7877273 L22.62,24.0238636 C17.9443658,28.027327 11.0490433,28.027327 6.37340909,24.0238636 L6.38,24.0238636 Z M24.0238636,22.6265909 L20.7613636,19.3838636 L20.7152273,19.3443182 C22.9436253,16.4991734 22.9436253,12.5008266 20.7152273,9.65568182 L20.7613636,9.61613636 L23.9975,6.38 C28.0009633,11.0556342 28.0009633,17.9509567 23.9975,22.6265909 L24.0238636,22.6265909 Z"/>
  </defs>
  <use fill-rule="evenodd" xlink:href="#quicklinks-help-a"/>
</svg>
