<svg xmlns="http://www.w3.org/2000/svg" xmlns:xlink="http://www.w3.org/1999/xlink" width="29" height="29" viewBox="0 0 29 29">
  <defs>
    <path id="quicklinks-odds-less-than-a" d="M11.8511732,10.9087879 L7.2599611,15.5 L11.8511732,20.0912121 C12.067332,20.3073709 12.067332,20.6532249 11.8511732,20.8693836 L10.415879,22.3046778 C10.1997203,22.5208366 9.85386624,22.5208366 9.63770748,22.3046778 L3.22211544,15.8890858 C3.00595668,15.672927 3.00595668,15.327073 3.22211544,15.1109142 L9.63770748,8.6953222 C9.85386624,8.47916343 10.1997203,8.47916343 10.415879,8.6953222 L11.8511732,10.1306164 C12.067332,10.3467751 12.067332,10.6926291 11.8511732,10.9087879 Z M26.056241,23.9994027 L15.217337,23.9994027 L15.217337,21.4728516 L20.1946426,15.1438413 C20.8262835,14.2679658 21.2915853,13.4994809 21.590562,12.8383634 C21.8895387,12.1772459 22.0390249,11.543509 22.0390249,10.9371338 C22.0390249,10.1202115 21.8979605,9.4801583 21.6158276,9.01695496 C21.3336946,8.55375162 20.927345,8.32215342 20.3967667,8.32215342 C19.815657,8.32215342 19.3545661,8.5916495 19.01348,9.13064975 C18.6723939,9.66965001 18.5018534,10.4276077 18.5018534,11.4045457 L14.9141509,11.4045457 C14.9141509,10.2760139 15.1478545,9.24434923 15.6152688,8.30952066 C16.0826831,7.3746921 16.7395798,6.64831594 17.5859786,6.13037038 C18.4323775,5.61242483 19.3903518,5.35345593 20.4599304,5.35345593 C22.1021968,5.35345593 23.3759869,5.80612514 24.2813389,6.71147712 C25.1866909,7.61682911 25.6393601,8.90325182 25.6393601,10.5707839 C25.6393601,11.606675 25.388813,12.6572886 24.8877112,13.7226563 C24.3866094,14.788024 23.4791655,16.0997119 22.1653524,17.6577596 L19.8030272,21.0307052 L26.056241,21.0307052 L26.056241,23.9994027 Z"/>
  </defs>
  <use fill-rule="evenodd" xlink:href="#quicklinks-odds-less-than-a"/>
</svg>
