<svg xmlns="http://www.w3.org/2000/svg" width="26" height="23" fill-rule="evenodd" ><path d="M18.786 21.857c.88 0 1.722-.172 2.525-.515a6.53 6.53 0 0 0 2.075-1.386 6.53 6.53 0 0 0 1.386-2.075 6.36 6.36 0 0 0 .515-2.525 6.36 6.36 0 0 0-.515-2.525 6.53 6.53 0 0 0-1.386-2.075 6.53 6.53 0 0 0-2.075-1.386 6.36 6.36 0 0 0-2.525-.515 6.36 6.36 0 0 0-2.525.515 6.53 6.53 0 0 0-2.075 1.386 6.53 6.53 0 0 0-1.386 2.075 6.36 6.36 0 0 0-.515 2.525 6.36 6.36 0 0 0 .515 2.525 6.53 6.53 0 0 0 1.386 2.075 6.53 6.53 0 0 0 2.075 1.386 6.36 6.36 0 0 0 2.525.515h0zm0-.93a5.47 5.47 0 0 1-1.741-.283h0l.842-.5-1.008-2.162-2.365-.3-.218.958a5.43 5.43 0 0 1-1.081-3.294h0v-.022l.74.646 1.74-1.625-.45-2.343-.98.087a5.46 5.46 0 0 1 2.822-2.046h0l-.384.9 2.082 1.153 2.082-1.153-.384-.9a5.46 5.46 0 0 1 2.822 2.046h0l-.972-.087-.457 2.343 1.74 1.625.74-.646v.022a5.43 5.43 0 0 1-1.081 3.294h0l-.218-.958-2.365.3-1.008 2.162.842.5a5.47 5.47 0 0 1-1.741.283h.001zm1.3-3.714l.8-2.438-2.082-1.5-2.082 1.5.798 2.438h2.566z"/><path fill-rule="nonzero" d="M18.042 1.83a.64.64 0 0 1 .633.629c.002.146-.03.277-.096.407l-2.766 5.557c-2.722 1.125-4.638 3.806-4.638 6.934a7.51 7.51 0 0 0 .243 1.9l-1.975 3.972c-.148.298-.368.5-.683.6h-.132l-.19-.045c-.18-.067-.305-.192-.384-.36l-1.414-2.878L.715 6.68C.65 6.55.583 6.423.567 6.276v-.284l.1-.18c.127-.214.32-.3.567-.3l2.658-.003c.32-.014.527.143.657.415l.302.62 3.172 6.344c.048.095.1.194.155.28.328.434.874.405 1.14-.07l.43-.85 2.894-5.803c.196-.393-.135-.934-.573-.934-.52 0-1.04.008-1.56-.003-.303-.006-.546-.124-.693-.42L8.66 2.826c-.19-.388-.04-.87.462-.987l.065-.008h8.854z"/></svg>