<svg xmlns="http://www.w3.org/2000/svg" xmlns:xlink="http://www.w3.org/1999/xlink" width="29" height="29" viewBox="0 0 29 29">
  <defs>
    <path id="quicklinks-last-minute-a" d="M18.5230596,18.5230596 C17.9593909,19.051499 17.2900343,19.3333333 16.5149898,19.3333333 C15.7399453,19.3333333 15.0353595,19.051499 14.50692,18.5230596 C13.661417,17.6423272 8.72931581,10.0327997 8.1656471,9.15206733 C7.98950063,8.87023298 8.02472992,8.51794004 8.27133498,8.27133498 C8.51794004,8.02472992 8.87023298,7.98950063 9.15206733,8.1656471 C10.0327997,8.72931581 17.6775565,13.661417 18.5230596,14.50692 C19.051499,15.0705887 19.3333333,15.7399453 19.3333333,16.5149898 C19.3333333,17.2900343 19.051499,17.9946202 18.5230596,18.5230596 Z M14.732716,2.18395062 C14.732716,2.31378494 14.6298343,2.41666667 14.5,2.41666667 C14.5777424,2.41666667 14.6553166,2.41740625 14.732716,2.41887875 L14.732716,2.18395062 Z M15.8783951,6.48024691 C15.8783951,7.24020469 15.2599578,7.85864198 14.5,7.85864198 C13.7400422,7.85864198 13.1216049,7.24020469 13.1216049,6.48024691 L13.1216049,2.18395062 C13.1216049,1.42399284 13.7400422,0.805555556 14.5,0.805555556 C22.0481059,0.805555556 28.1944444,6.95189407 28.1944444,14.5 C28.1944444,22.0481059 22.0481059,28.1944444 14.5,28.1944444 C6.95189407,28.1944444 0.805555556,22.0481059 0.805555556,14.5 C0.805555556,10.851444 2.23508611,7.40939 4.82223806,4.82223806 C5.36596287,4.27851324 6.21971614,4.27851324 6.76344096,4.82223806 C7.30716577,5.36596287 7.30716577,6.21971614 6.76710395,6.75975425 C4.69505932,8.85870856 3.56234568,11.5827806 3.56234568,14.5 C3.56234568,20.5281904 8.47180963,25.4376543 14.5,25.4376543 C20.5281904,25.4376543 25.4376543,20.5281904 25.4376543,14.5 C25.4376543,8.96175038 21.278863,4.33151271 15.8783951,3.6370103 L15.8783951,6.48024691 Z"/>
  </defs>
  <use fill-rule="evenodd" xlink:href="#quicklinks-last-minute-a"/>
</svg>
