<svg height="17" viewBox="0 0 17 17" width="17" xmlns="http://www.w3.org/2000/svg"><g fill-rule="evenodd"><path d="m16 3.5c0 1.93229167-1.5677083 3.5-3.5 3.5s-3.5-1.56770833-3.5-3.5 1.5677083-3.5 3.5-3.5 3.5 1.56770833 3.5 3.5zm-2.3333333 2.75260417c-.0455729-.26432292-.21875-1.17578125-.6380209-2.26953125-.0045573 0-.0136718.00455729-.0182291.00455729 0 0-1.7727865.61979167-2.3470052 1.86848958-.0273438-.02278646-.0683594-.05013021-.0683594-.05013021.5195312.42382813 1.1803385.68359375 1.9049479.68359375.4147135 0 .8066406-.08658854 1.1666667-.23697916zm-.843099-2.76627605c-.0729167-.16861979-.1549479-.33723958-.2415365-.50585937-1.5403645.46028646-3.01692703.42382813-3.06705724.42382813-.00455729.03190104-.00455729.06380208-.00455729.09570312 0 .765625.29166666 1.46744792.76562503 1.99609375.8157552-1.45377604 2.4290364-1.97330729 2.4290364-1.97330729.0410157-.01367188.0820313-.02278646.1184896-.03645834zm-.4876302-.96614583c-.5195313-.92057292-1.0709635-1.66796875-1.1119792-1.72265625-.8339843.39192708-1.45377601 1.16210938-1.64973955 2.08723958.07747396 0 1.32617185.01367188 2.76171875-.36458333zm3.1171875 1.45377604c-.0638021-.01822916-.8977865-.28255208-1.8639323-.13216145.3919271 1.08007812.5514323 1.95963541.5833333 2.13736979.6699219-.45117188 1.1438803-1.17122396 1.280599-2.00520834zm-.9798177-2.71614583c-.5240885-.46484375-1.2167969-.74739583-1.9733073-.74739583-.2415365 0-.4785156.03190104-.7063802.08658854.0455729.05924479.6106771.80208333 1.1210937 1.74088541 1.1256511-.41927083 1.5494792-1.06640625 1.5585938-1.08007812zm1.016276 2.21028646c-.0091145-.70638021-.2597656-1.35807292-.6790364-1.86848958-.0091146.00911458-.4876302.70182291-1.6679688 1.18489583.0683594.14127604.1367188.28710937.2005209.43294271.0227864.05013021.0410156.10481771.063802.15494791 1.029948-.13216145 2.046224.09114584 2.0826823.09570313zm-7.4895833 2.56575521v.96614583h-2.64566929v-.96614583h.68897638l-.43175853-1.3125h-2.23228347l-.43175853 1.3125h.68897638v.96614583h-2.63648294v-.96614583h.64304462l2.11286089-6.03385417h1.48818898l2.11286089 6.03385417zm-4.3175853-2.31510417h1.62598425l-.66141732-1.98697917-.11023622-.42838541c-.00918635-.07291667-.01837271-.12760417-.01837271-.18229167h-.0367454l-.02755906.18229167c-.02755905.109375-.03674541.24609375-.10104987.42838541z"/><path d="m3.379 12.188 1.121-.813 1.121.813-.426 1.312h-1.386z"/><path d="m4.5 9c1.93359375 0 3.5 1.5664062 3.5 3.5s-1.56640625 3.5-3.5 3.5-3.5-1.5664062-3.5-3.5 1.56640625-3.5 3.5-3.5zm2.41796875 5.2734375c.3671875-.5.58203125-1.109375.58203125-1.7734375v-.0117188l-.3984375.3476563-.9375-.875.24609375-1.2617187.5234375.046875c-.37109375-.5117188-.90234375-.90625005-1.51953125-1.10156255l.20703125.48437495-1.12109375.6210938-1.12109375-.6210938.20703125-.48437495c-.6171875.1953125-1.1484375.58984375-1.51953125 1.10156255l.52734375-.046875.2421875 1.2617187-.9375.875-.3984375-.3476563v.0117188c0 .6640625.21484375 1.2734375.58203125 1.7734375l.1171875-.515625 1.2734375.15625.54296875 1.1640625-.453125.2695312c.29296875.0976563.609375.1523438.9375.1523438s.64453125-.0546875.9375-.1523438l-.453125-.2695312.54296875-1.1640625 1.2734375-.15625zm8.08203125-.3971354v2.1236979h-5v-.8203125l3.1592466-4.8216146c.0684931-.109375.1369863-.2005208.1797945-.2460937l.0941781-.0820313v-.0273437c-.0342466 0-.0684932.0091146-.119863.0091146-.0684932.0182291-.1541096.0273437-.2568494.0273437h-1.9863013v1.0481771h-1.0273973v-2.0872396h4.8544521v.81119792l-3.1592466 4.83072918c-.0513699.0820312-.119863.1640625-.1797945.2369791l-.0941781.1002605v.0182291l.119863-.0182291c.0770548-.0182292.1541096-.0182292.2568493-.0182292h2.1232877v-1.0846354z"/></g></svg>