<?xml version="1.0"?>
<svg xmlns="http://www.w3.org/2000/svg" xmlns:xlink="http://www.w3.org/1999/xlink" xmlns:svgjs="http://svgjs.com/svgjs" version="1.1" width="512" height="512" x="0" y="0" viewBox="0 0 512 512" style="enable-background:new 0 0 512 512" xml:space="preserve"><g>
<g xmlns="http://www.w3.org/2000/svg">
	<g>
		<g>
			<path d="M448,149.333c12.354,0,21.333-13.458,21.333-32c0-18.542-8.979-32-21.333-32c-12.354,0-21.333,13.458-21.333,32     C426.667,135.875,435.646,149.333,448,149.333z" fill="#000000" data-original="#000000" style=""/>
			<path d="M477.168,202.667C497.927,186.969,512,155.219,512,117.333c0-53.833-28.104-96-64-96H64c-35.896,0-64,42.167-64,96     c0,37.885,14.073,69.635,34.832,85.333C14.073,218.365,0,250.115,0,288c0,41.633,17.26,77.164,42.667,90.354v69.677     c0,23.51,19.146,42.635,42.667,42.635h160c2.833,0,5.542-1.125,7.542-3.125l85.333-85.333c2-2,3.125-4.708,3.125-7.542V384H448     c35.896,0,64-42.167,64-96C512,250.115,497.927,218.365,477.168,202.667z M448,42.667c23.125,0,42.667,34.198,42.667,74.667     S471.125,192,448,192s-42.667-34.198-42.667-74.667S424.875,42.667,448,42.667z M21.333,117.333     c0-40.469,19.542-74.667,42.667-74.667h343.796C393.311,60.124,384,86.668,384,117.333c0,30.665,9.311,57.21,23.796,74.667H64     C40.875,192,21.333,157.802,21.333,117.333z M42.667,352.031v0.195C29.892,338.923,21.333,314.509,21.333,288     c0-40.469,19.542-74.667,42.667-74.667h11.133C61.595,235.73,42.667,279.845,42.667,352.031z M256,454.25v-27.583     c0-11.76,9.563-21.333,21.333-21.333h27.583L256,454.25z M320,352v32h-42.667c-23.521,0-42.667,19.135-42.667,42.667v42.667     H85.333c-11.771,0-21.333-9.552-21.333-21.302v-96c0-85.042,28.171-127.522,36.943-138.698h247.888     C335.315,234.021,320,274.422,320,352z M341.333,362.658V352c0-103.363,28.44-133.021,35.277-138.667h31.185     C393.311,230.79,384,257.335,384,288c0,30.663,9.311,57.207,23.793,74.663L341.333,362.658z M448,362.667     c-23.125,0-42.667-34.198-42.667-74.667s19.542-74.667,42.667-74.667s42.667,34.198,42.667,74.667S471.125,362.667,448,362.667z" fill="#000000" data-original="#000000" style=""/>
			<path d="M448,256c-12.354,0-21.333,13.458-21.333,32s8.979,32,21.333,32c12.354,0,21.333-13.458,21.333-32S460.354,256,448,256z" fill="#000000" data-original="#000000" style=""/>
		</g>
	</g>
</g>
<g xmlns="http://www.w3.org/2000/svg">
</g>
<g xmlns="http://www.w3.org/2000/svg">
</g>
<g xmlns="http://www.w3.org/2000/svg">
</g>
<g xmlns="http://www.w3.org/2000/svg">
</g>
<g xmlns="http://www.w3.org/2000/svg">
</g>
<g xmlns="http://www.w3.org/2000/svg">
</g>
<g xmlns="http://www.w3.org/2000/svg">
</g>
<g xmlns="http://www.w3.org/2000/svg">
</g>
<g xmlns="http://www.w3.org/2000/svg">
</g>
<g xmlns="http://www.w3.org/2000/svg">
</g>
<g xmlns="http://www.w3.org/2000/svg">
</g>
<g xmlns="http://www.w3.org/2000/svg">
</g>
<g xmlns="http://www.w3.org/2000/svg">
</g>
<g xmlns="http://www.w3.org/2000/svg">
</g>
<g xmlns="http://www.w3.org/2000/svg">
</g>
</g></svg>
