<svg height="17" viewBox="0 0 17 17" width="17" xmlns="http://www.w3.org/2000/svg"><path d="m15.7918218 1.36807921c-.785703-.80152475-2.0258614-1.22534654-3.5859901-1.22534654-2.9248416 0-6.31558418 1.48674258-8.43772279 3.69926733-1.44718812 1.50879208-2.70586139 3.85092079-3.2850396 6.11242574-.66249505 2.58652476-.38527723 4.66607926.78031683 5.85540596.7629802.7786336 1.94675247 1.1901683 3.42390099 1.1901683h.00067327c2.88478217 0 6.4997228-1.5394257 8.5952673-3.6600495 2.1544555-2.1807129 3.6630792-5.69449505 3.6686337-8.5449406.0030297-1.46435643-.3982376-2.64930693-1.1600396-3.42693069zm-11.46793071 10.72868319s-1.03228713.4812178-1.46048515.3511089c-.35009901-.1060396-.55224752-1.1773763-.25230693-2.60402972.30953465-1.47327722.83905941-3.47069307 2.57726733-5.41811881.0010099-.0010099.0020198-.00235643.00336633-.00336633.93685149-.97707921 2.15933664-1.80233664 3.53482179-2.38656436 1.28543564-.54585149 2.64038614-.84646535 3.81607924-.84646535.8732277 0 1.6022079.16360396 2.1140594.46623763.2021485.13987128.2146039.90066336-.2615644 1.78011881-.4761683.87945544-1.9125841 2.82772277-3.6260495 4.34341584-1.71329702 1.5160297-5.5201188 3.98187129-6.44518811 4.31766339zm8.22497031-.1954159c-1.1639109 1.1782179-2.91861388 2.1687624-4.68341586 2.7258911-.05419802.0109406-.1080594.0213763-.16074257.0314753-.68050495.1225346-1.49684158.1698317-1.83263366.0885346-.44991089-.108396-.34403961-.506802.01043564-.7422772.35447525-.2354753 3.18253465-2.4843564 4.70294055-4.03573268 1.3978713-1.42614851 4.2634654-4.46275247 5.069703-6.12168316.0232277-.04780198.0775941-.04746535.0824753-.00050496.0223861.21308911.0306336.41961387.0301287.60812872-.0047129 2.43184158-1.3583169 5.56337628-3.2188911 7.44616828z"/></svg>