<svg height="17" viewBox="0 0 17 17" width="17" xmlns="http://www.w3.org/2000/svg"><g fill-rule="nonzero"><path d="m4.27257672 16.7253915c-1.4897037 0-2.65361905-.3031217-3.12359259-.7732751-.99391535-.9937354-1.31259789-2.9653757-.85242857-5.2739577.49731746-2.49801055 1.79777248-4.90004759 3.66120634-6.76348145 1.85048149-1.85066138 4.26538096-3.13915344 6.7995503-3.62819577 2.2840264-.44137037 4.2916455-.12727513 5.2380688.8192381 1.8220582 1.82223809 1.2886719 7.93989947-2.8086879 12.03743912-2.6376984 2.6375185-6.28361373 3.5822328-8.91411638 3.5822328zm8.44594178-15.95517457c-.5720635 0-1.1915291.06008466-1.8326719.18376191-1.39103179.26858201-4.07883073 1.07261904-6.44713761 3.44128571-1.76961904 1.7695291-3.00405291 4.04815873-3.47555555 6.41565605-.40934921 2.0543916-.15398942 3.8402011.66650794 4.6605186.9688201.9684603 7.09349735 1.1742592 11.07599472-2.8089577 2.359582-2.3594021 3.1581323-5.06222224 3.4240159-6.46341801.3877619-2.04089947.146074-3.8513545-.6152381-4.61275661-.5319471-.53194709-1.5520371-.81608995-2.7959154-.81608995z"/><path d="m2.78746032 16.1497302c-.56864551 0-1.03223281-.1544392-1.3569418-.4791482-.72272487-.7227249-.62783069-2.1501852.26669312-4.0198254.86529101-1.80892591 2.38080952-3.84379893 4.267-5.72989946s3.92097355-3.40143915 5.73016936-4.26708994c1.8694603-.8948836 3.2973703-.98896826 4.0196455-.26651323 1.4624497 1.46244973-.5291588 5.74492063-4.5336932 9.74981483-3.11567722 3.1155873-6.39973542 5.0126614-8.39287298 5.0126614zm11.56836508-14.85431221c-.6574233 0-1.5105714.23826984-2.4942328.70878307-1.7700688.84712169-3.76698413 2.33556614-5.62277249 4.1913545s-3.3444127 3.85270374-4.19144445 5.62295234c-.80610582 1.6848889-.93095238 2.9889418-.34215873 3.5774656 1.26555556 1.2645662 5.47750794-.8110529 9.20050797-4.5336931 3.7221904-3.72237035 5.7984391-7.93567193 4.5336931-9.20041797-.2452857-.24501587-.6146984-.36644444-1.0835926-.36644444z"/></g></svg>