<svg xmlns="http://www.w3.org/2000/svg" xmlns:xlink="http://www.w3.org/1999/xlink" xmlns:serif="http://www.serif.com/" width="100%" height="100%" viewBox="0 0 50 50" version="1.1" xml:space="preserve" style="fill-rule:evenodd;clip-rule:evenodd;stroke-linejoin:round;stroke-miterlimit:2;"><path id="ic_print" d="M43.75,7.544c0,-0.829 -0.329,-1.624 -0.915,-2.21l-4.42,-4.419c-0.586,-0.586 -1.381,-0.915 -2.21,-0.915l-26.83,0c-1.726,0 -3.125,1.399 -3.125,3.125l-0,15.625c-3.452,0 -6.25,2.798 -6.25,6.25l-0,10.937c-0,0.864 0.7,1.563 1.562,1.563l4.688,-0l-0,9.375c-0,1.726 1.399,3.125 3.125,3.125l31.25,-0c1.726,-0 3.125,-1.399 3.125,-3.125l-0,-9.375l4.687,-0c0.864,-0 1.563,-0.699 1.563,-1.563l-0,-10.937c-0,-3.452 -2.798,-6.25 -6.25,-6.25l-0,-11.206Zm-6.25,36.206l-25,-0l-0,-9.375l25,-0l-0,9.375Zm2.344,-17.188c-0,-1.294 1.049,-2.343 2.343,-2.343c1.295,-0 2.344,1.049 2.344,2.343c0,1.295 -1.049,2.344 -2.344,2.344c-1.294,0 -2.343,-1.049 -2.343,-2.344Zm-2.344,-4.687l-25,0l-0,-15.625l18.75,0l-0,4.688c-0,0.862 0.7,1.562 1.562,1.562l4.688,0l-0,9.375Z"/><style type="text/css">
	path{fill:#293141;}
</style>
<div xmlns="" id="divScriptsUsed" style="display: none"/><script xmlns="" id="globalVarsDetection" src="chrome-extension://cmkdbmfndkfgebldhnkbfhlneefdaaip/js/wrs_env.js"/></svg>