<svg xmlns="http://www.w3.org/2000/svg" width="28" height="20" viewBox="0 0 28 20">
  <g fill="none" fill-rule="evenodd">
    <rect width="28" height="20" fill="#128C4B"/>
    <path fill="#FFF" d="M6.66666667 12L17.3333333 12 17.3333333 10.665971C17.3333333 10.2981654 17.6031532 10.1349099 17.9375814 10.302124L18.6666667 10.6666667 18.6666667 12 20.6604207 12C21.0320601 12 21.3333333 12.3059006 21.3333333 12.6729126L21.3333333 13.3333333C21.3333333 14.069713 20.7431196 14.6666667 20.0013913 14.6666667L17.993852 14.6666667C17.6290576 14.6666667 17.3333333 14.3707568 17.3333333 14L17.3333333 13.3333333 8.67123032 13.3333333C8.30052005 13.3333333 7.79166667 13.125 7.5336647 12.866998L6.66666667 12zM6.66666667 8.3364563C6.66666667 8.15063662 6.77083333 7.89583333 6.90734863 7.75931803L7.09265137 7.5740153C7.22557635 7.44109032 7.22916667 7.22916667 7.09265137 7.09265137L6.90734863 6.90734863C6.77442365 6.77442365 6.66666667 6.52397664 6.66666667 6.33021037L6.66666667 5.66978963C6.66666667 5.48396995 6.80935669 5.33333333 7.00312297 5.33333333L7.6635437 5.33333333C7.84936338 5.33333333 8 5.47602336 8 5.66978963L8 6.33021037C8 6.51603005 8.06635984 6.53394699 8.14795494 6.37075679L8.51871173 5.62924321C8.60042498 5.4658167 8.82360331 5.33333333 8.99692599 5.33333333L10.3364073 5.33333333C10.5188045 5.33333333 10.6666667 5.48795573 10.6666667 5.66666667L10.6666667 5.66666667C10.6666667 5.85076158 10.5239766 6 10.3302104 6L9.66978963 6C9.48396995 6 9.33333333 6.1546224 9.33333333 6.33333333L9.33333333 6.33333333C9.33333333 6.51742825 9.47602336 6.66666667 9.66978963 6.66666667L10.3302104 6.66666667C10.5160301 6.66666667 10.6666667 6.81003825 10.6666667 6.99365234L10.6666667 9.00634766C10.6666667 9.18693686 10.5239766 9.33333333 10.3302104 9.33333333L9.66978963 9.33333333C9.48396995 9.33333333 9.33333333 9.19064331 9.33333333 8.99687703L9.33333333 8.3364563C9.33333333 8.15063662 9.48795573 8 9.66666667 8L9.66666667 8C9.85076158 8 10 7.8453776 10 7.66666667L10 7.66666667C10 7.48257175 9.85730998 7.33333333 9.6635437 7.33333333L9.00312297 7.33333333C8.81730328 7.33333333 8.66666667 7.49026998 8.66666667 7.66359266L8.66666667 9.00307401C8.66666667 9.1854712 8.51204427 9.33333333 8.33333333 9.33333333L8.33333333 9.33333333C8.14923842 9.33333333 8 9.19064331 8 8.99687703L8 8.3364563C8 8.15063662 7.8453776 8 7.66666667 8L7.66666667 8C7.48257175 8 7.33333333 8.14269002 7.33333333 8.3364563L7.33333333 8.99687703C7.33333333 9.18269672 7.17871094 9.33333333 7 9.33333333L7 9.33333333C6.81590508 9.33333333 6.66666667 9.19064331 6.66666667 8.99687703L6.66666667 8.3364563zM17.3333333 8.3364563C17.3333333 8.15063662 17.4375 7.89583333 17.5740153 7.75931803L17.759318 7.5740153C17.892243 7.44109032 17.8958333 7.22916667 17.759318 7.09265137L17.5740153 6.90734863C17.4410903 6.77442365 17.3333333 6.52397664 17.3333333 6.33021037L17.3333333 5.66978963C17.3333333 5.48396995 17.4760234 5.33333333 17.6697896 5.33333333L18.3302104 5.33333333C18.5160301 5.33333333 18.6666667 5.47602336 18.6666667 5.66978963L18.6666667 6.33021037C18.6666667 6.51603005 18.7330265 6.53394699 18.8146216 6.37075679L19.1853784 5.62924321C19.2670916 5.4658167 19.49027 5.33333333 19.6635927 5.33333333L21.003074 5.33333333C21.1854712 5.33333333 21.3333333 5.48795573 21.3333333 5.66666667L21.3333333 5.66666667C21.3333333 5.85076158 21.1906433 6 20.996877 6L20.3364563 6C20.1506366 6 20 6.1546224 20 6.33333333L20 6.33333333C20 6.51742825 20.14269 6.66666667 20.3364563 6.66666667L20.996877 6.66666667C21.1826967 6.66666667 21.3333333 6.81003825 21.3333333 6.99365234L21.3333333 9.00634766C21.3333333 9.18693686 21.1906433 9.33333333 20.996877 9.33333333L20.3364563 9.33333333C20.1506366 9.33333333 20 9.19064331 20 8.99687703L20 8.3364563C20 8.15063662 20.1546224 8 20.3333333 8L20.3333333 8C20.5174282 8 20.6666667 7.8453776 20.6666667 7.66666667L20.6666667 7.66666667C20.6666667 7.48257175 20.5239766 7.33333333 20.3302104 7.33333333L19.6697896 7.33333333C19.4839699 7.33333333 19.3333333 7.49026998 19.3333333 7.66359266L19.3333333 9.00307401C19.3333333 9.1854712 19.1787109 9.33333333 19 9.33333333L19 9.33333333C18.8159051 9.33333333 18.6666667 9.19064331 18.6666667 8.99687703L18.6666667 8.3364563C18.6666667 8.15063662 18.5120443 8 18.3333333 8L18.3333333 8C18.1492384 8 18 8.14269002 18 8.3364563L18 8.99687703C18 9.18269672 17.8453776 9.33333333 17.6666667 9.33333333L17.6666667 9.33333333C17.4825718 9.33333333 17.3333333 9.19064331 17.3333333 8.99687703L17.3333333 8.3364563zM16 6.33021037C16 6.51603005 15.8958333 6.77083333 15.759318 6.90734863L15.5740153 7.09265137C15.4410903 7.22557635 15.4375 7.4375 15.5740153 7.5740153L15.759318 7.75931803C15.892243 7.89224301 16 8.14269002 16 8.3364563L16 8.99687703C16 9.18269672 15.85731 9.33333333 15.6635437 9.33333333L15.003123 9.33333333C14.8173033 9.33333333 14.6666667 9.19064331 14.6666667 8.99687703L14.6666667 8.3364563C14.6666667 8.15063662 14.6051432 8.12304687 14.5120443 8.30924479L14.1546224 9.02408854C14.0692268 9.19487972 13.8430634 9.33333333 13.6697407 9.33333333L12.3302593 9.33333333C12.1478621 9.33333333 12 9.17871094 12 9L12 9C12 8.81590508 12.14269 8.66666667 12.3364563 8.66666667L12.996877 8.66666667C13.1826967 8.66666667 13.3333333 8.51204427 13.3333333 8.33333333L13.3333333 8.33333333C13.3333333 8.14923842 13.1906433 8 12.996877 8L12.3364563 8C12.1506366 8 12 7.85662842 12 7.67301432L12 5.66031901C12 5.47972981 12.14269 5.33333333 12.3364563 5.33333333L12.996877 5.33333333C13.1826967 5.33333333 13.3333333 5.47602336 13.3333333 5.66978963L13.3333333 6.33021037C13.3333333 6.51603005 13.1787109 6.66666667 13 6.66666667L13 6.66666667C12.8159051 6.66666667 12.6666667 6.82128906 12.6666667 7L12.6666667 7C12.6666667 7.18409492 12.8093567 7.33333333 13.003123 7.33333333L13.6635437 7.33333333C13.8493634 7.33333333 14 7.17639669 14 7.00307401L14 5.66359266C14 5.48119547 14.1546224 5.33333333 14.3333333 5.33333333L14.3333333 5.33333333C14.5174282 5.33333333 14.6666667 5.47602336 14.6666667 5.66978963L14.6666667 6.33021037C14.6666667 6.51603005 14.8212891 6.66666667 15 6.66666667L15 6.66666667C15.1840949 6.66666667 15.3333333 6.52397664 15.3333333 6.33021037L15.3333333 5.66978963C15.3333333 5.48396995 15.4879557 5.33333333 15.6666667 5.33333333L15.6666667 5.33333333C15.8507616 5.33333333 16 5.47602336 16 5.66978963L16 6.33021037 16 6.33021037z"/>
  </g>
</svg>
