<svg height="17" viewBox="0 0 17 17" width="17" xmlns="http://www.w3.org/2000/svg"><g><path d="m.249 15.495h1v1h-1z" transform="matrix(-.50841032 -.86111494 .86111494 -.50841032 -12.958022 24.334579)"/><circle cx="11.646" cy="8.577" r="1.407"/><path d="m2.458 10.589h1v1h-1z" transform="matrix(.50848547 .86107057 -.86107057 .50848547 10.706879 3.082918)"/><circle cx="12.638" cy="4.409" r="1.257"/><path d="m7.73905682 1.05483712 3.28660228 3.02348864c.0940795-.45919318.3801818-.84922728.7702159-1.08259091l-3.27984091-2.81311364c-.24089773-.214625-.61006818-.19318182-.82469318.04771591-.214625.24070455-.19318182.61006818.04771591.8245zm7.89765908 10.74998868c-.0991023-.4530114-.4559091-.869125-.4559091-.869125l-1.7714773-1.82325004c-.2298863.75572727-.9332613 1.30726134-1.7631704 1.30726134-.8747273 0-1.608625-.61296589-1.79601137-1.43167043-.00734091-.03245455-.01390909-.06510228-.01970455-.09813637-.00019318-.00115909-.00038636-.002125-.00057954-.00328409-.00521591-.03052273-.00965909-.06143182-.01332955-.09253409-.00038636-.00386364-.00096591-.00753409-.00154545-.01139773-.00328409-.02839772-.00560228-.05698863-.00734091-.08577272-.00038637-.00598864-.00096591-.01197728-.00135228-.01796591-.00193181-.03380682-.00289772-.06780682-.00289772-.102 0-.12035228.01197727-.23780682.034-.35178409-.16942046.05254545-.32570455.14063636-.45784091.26620454l-3.32890909 3.20044319-.68695455.4105114-.19492045-.1615.35390909-.2090228-.22157955-.3753522-.51154545.3019431c-.26717046-.1130113-.58514773-.0734091-.81773864.1323296-.15261363.1350341-.23819318.3154659-.257125.5024659l-2.09235227 1.2353977.22157954.3753523 1.96176137-1.1583182c.02820454.0519659.06220454.102.10315909.1483636 0 0 .019125.017.05273864.0463637l-2.5851591 1.5450682c-.3728409.2206136-.49976136.6960341-.2793409 1.0690681.22061363.372841.69835227.490875 1.07138636.2704546l3.04203409-1.8180341c.23085227.1897045.44354545.3579659.58920455.4593864.83860227.5839886 1.50585227-.0792046 1.50585227-.0792046l1.62485227-.9114318 2.73815911-2.5756932c.0187386-.0177727.0367045-.0363182.0538977-.0550568l2.6035114 1.0930227.8689318 3.8725228c.0790114.3523636.4288636.5739431.7812273.4949318.3523636-.0790114.5739431-.4288637.4949318-.7812273 0 .0001932-.73525-3.2663182-.8343523-3.7193295zm-9.47518181-6.98294322 3.67934091 3.38473863c.10528409-.51405682.4255795-.95064773.8621705-1.21182954l-3.67161368-3.14944319c-.26968182-.240125-.68289773-.21636363-.92321591.05331819-.24031818.26968181-.21636364.68309091.05331818.92321591z"/><path d="m4.17214773 10.8835417 2.71748863-1.62407958c.206125.16942046.39621591.31971591.52642046.41031818.08615909.05988637.17019318.10470455.25152273.13773864l1.7222159-1.63934091-1.41351136-1.29972727-.33632954.32338636-.61354546.36665909-.17425-.14430682.31623864-.18680681-.19801137-.33536364-.456875.269875c-.23877272-.10103409-.52275-.06568182-.73042045.11822727-.13638636.12073864-.21288636.28185227-.22969318.44876137l-1.86903409 1.10364772.19801136.33536364 1.75235227-1.03468182c.02530682.04655682.05544318.09118182.09214773.13252273 0 0 .01719318.01506818.04713636.04134091l-2.30929545 1.38009091c-.33304546.19704545-.44644318.62185223-.24939773.95489773.19685227.3328523.62378409.4383295.95682955.2414773zm12.77627277-.2683296s-.6568182-2.91781816-.7454887-3.32253407c-.0886704-.40471591-.4072273-.77639773-.4072273-.77639773l-1.5823522-1.62852272c-.2053523.67497727-.8335796 1.16778409-1.5750114 1.16778409-.9077614 0-1.6461023-.73853409-1.6461023-1.64610228 0-.10740909.010625-.2125.0305228-.31411363-.1514546.04694318-.2909319.12556818-.4089659.23780682l-1.22032959 1.173 1.49020459 1.2780909.090409.0776591c.2084432-.0819091.4350455-.1275.6720796-.1275.2208068 0 .4325341.03902272.629.11069318l.3832727-.36047728c.0168068-.0158409.0326477-.03245454.0481023-.04926136l2.3257159.97653409.7762045 3.45930679c.0707046.3146932.3830796.5127046.6977728.442.3148863-.0708977.5128977-.3832727.4421932-.6979659z"/></g></svg>