<svg height="17" viewBox="0 0 17 17" width="17" xmlns="http://www.w3.org/2000/svg"><path d="m16.7578444 5.58752222c-.2584-.99147778-1.2725444-1.58591111-2.2627-1.32788889-.9901555.25802223-1.5853444 1.27197778-1.3269444 2.26307778.2578333.9894 1.2719778 1.58383333 2.2621333 1.326.9899667-.25802222 1.5851556-1.27178889 1.3275111-2.26118889zm-5.8115444 2.16976667s1.2476111.67905555 1.9589667-.31582222c-.153-.22647778-.2710556-.48166667-.3437778-.76065556-.1588556-.60973333-.0753667-1.22626667.1896444-1.74816667l-5.40411108-2.44894444c-.42688889-.21571111-.94765555-.0442-1.16298889.38287778-.07234444.14317778-.17132222.06875555-.17132222.06875555l-4.47213333-2.62895555c-1.03756667-.61162222-1.96614445.95237778-.92366667 1.56683333zm.7366667 1.5164-8.33982226-4.87541111-.37041111.63258889 8.33188887 4.87786666c.8656778.51321107 1.9820111.23252227 2.4982445-.63542222l-.6273-.3757c-.3069445.51868889-.9790111.68302222-1.4926.37607778z"   transform="translate(0 3.766)"/></svg>