<svg height="17" viewBox="0 0 17 17" width="17" xmlns="http://www.w3.org/2000/svg"><path d="m6.84494475 9.82104046c-.01107596-.05444987-.00162498-.11311003.03102866-.16339223l2.41773938-3.72299215c.03767473-.058014.09810071-.09234755.16194395-.09889106.0174811-.02131778.03929446-.03967835.06501495-.05364609.01743675-.00946919.03607622-.0165319.05540968-.02099538l2.89760773-.66896451c.3133895-.07235159.626912.06670017.789863.32480345l.5829611-3.99094036c.0239928-.16425419-.0148947-.33151214-.1088878-.46833462l-.4445147-.64706473c-.0619643-.09019932-.0390754-.21355234.051124-.27551667.0327853-.02252259.0715903-.03465656.1113662-.03482321l.0874894-.0003849c.18596-.0007791.3635914.07705514.489072.21430079.1423153.15565889.2589388.29259363.3498704.41080425.0159421-.02717243.0386123-.05092685.0673542-.0685316.0339192-.02077587.073306-.03086231.1130361-.02894702l.0873896.00419446c.185746.00895437.3590604.09597845.4771861.23960316.3887889.47271402.5697632.77663575.542923.9117652-1.4786988 7.44464449-2.2561454 11.20614676-2.3323395 11.28450676-.0606283.0623517-.2050088.0757741-.4331416.0402672l.0000044-.0000278c-.1198439-.0186527-.2018755-.1309262-.1832229-.25077.0004841-.0031106.0010351-.0062105.0016525-.0092974l.0401774-.2008771c-.0750093.0157469-.1783396.0168799-.3099909.003399l.0000029-.000028c-.1206558-.0123549-.208451-.1201814-.1960961-.2408372.0003207-.0031317.0007086-.0062561.0011637-.0093711l.679853-4.65426061-1.6172147.3143547-2.19474112 2.80914051c.01184591.1306597-.01510763.2661326-.08569187.3883881l-1.5624989 2.7063275 2.80826039.8585713c.374772.1145793.5856998.5112769.4711205.8860488s-.5112768.5856997-.88604873.4711205l-3.42890637-1.0483219c-.11809156.0035118-.23858859-.024686-.34841844-.0880963l-.06783706-.0391658-.01630573-.0049852c-.02768673-.0084646-.0524845-.0219037-.07371297-.0390377.19059556.3236708.25311787.7219261.14141022 1.111497-.21604231.7534291-1.00195416 1.1890671-1.75538324.9730248s-1.18906713-1.0019542-.97302481-1.7553832c.18977645-.6618292.81927921-1.0784424 1.48022547-1.0235249-.17054263-.2060725-.20451767-.5044967-.06292872-.7497359l.25128856-.4352446-3.16398771-.8477879c-.37854239-.1014302-.60318626-.4905248-.50175614-.8690672.10143013-.3785423.49052474-.6031862.86906713-.5017561l3.5312987.9462086 1.06049103-1.83682431c.01008948-.0174755.02085859-.03431398.03225466-.05050133zm7.01793405-3.52257625c.046651.04367622.0871746.09431059.1197802.15069532l.8955231-4.47739104c.0325564-.1627734.0024758-.33183734-.0842277-.47339153l-.1861112-.3038494c-.2830029 1.95515606-.5313242 3.6564684-.7449644 5.10393665zm-.1759917 1.18769252c-.0975112.65519031-.1862297 1.24602314-.2661554 1.77249849l.3648503-1.82415982c-.0310609.01979989-.0640329.03712966-.0986949.05166133z" fill-rule="evenodd"/></svg>