<svg xmlns="http://www.w3.org/2000/svg" width="28" height="20" viewBox="0 0 28 20">
  <g fill="none" fill-rule="evenodd">
    <rect width="28" height="6.667" fill="#FFF"/>
    <path fill="#0C47B7" d="M0,6.66666667 L5.33333333,6.66666667 L5.33333333,5.33333333 C5.33333333,5.33333333 6.36299415,4.66666667 7.33333333,4.66666667 C8.30367251,4.66666667 9.24397786,5.33333333 9.24397786,5.33333333 L9.24397786,6.66666667 L28,6.66666667 L28,13.3333333 L0,13.3333333 L0,6.66666667 Z M7.33333333,9.33333333 C8.069713,9.33333333 8.66666667,8.73637967 8.66666667,8 C8.66666667,7.26362033 8.069713,6.66666667 7.33333333,6.66666667 C6.59695367,6.66666667 6,7.26362033 6,8 C6,8.73637967 6.59695367,9.33333333 7.33333333,9.33333333 Z"/>
    <circle cx="7.333" cy="8" r="1.333" fill="#FFF"/>
    <rect width="28" height="6.667" y="13.333" fill="#E53B35"/>
  </g>
</svg>
