<svg xmlns="http://www.w3.org/2000/svg" xmlns:xlink="http://www.w3.org/1999/xlink" width="28" height="20" viewBox="0 0 28 20">
  <defs>
    <path id="slovakia-a" d="M5.61531384,5.33517342 C5.64367522,4.5977775 6.26236176,4 7.00184008,4 L12.9981599,4 C13.7355558,4 14.3562447,4.5956951 14.3846862,5.33517342 L14.6153138,11.3314932 C14.6436752,12.0688892 14.219207,13.0502035 13.6540695,13.5346071 L11.5151329,15.3679813 C10.6783481,16.0852254 9.3214266,16.0850323 8.48486707,15.3679813 L6.3459305,13.5346071 C5.78668853,13.0552568 5.35624468,12.0709716 5.38468616,11.3314932 L5.61531384,5.33517342 Z"/>
  </defs>
  <g fill="none" fill-rule="evenodd">
    <rect width="28" height="6.667" y="6.667" fill="#0C47B7"/>
    <rect width="28" height="6.667" fill="#FFF"/>
    <rect width="28" height="6.667" y="13.333" fill="#E53B35"/>
    <mask id="slovakia-b" fill="#fff">
      <use xlink:href="#slovakia-a"/>
    </mask>
    <use fill="#F73744" xlink:href="#slovakia-a"/>
    <path stroke="#FFF" stroke-width="1.333" d="M4.94913973,5.30955134 C4.99128646,4.21373633 5.90460263,3.33333333 7.00184008,3.33333333 L12.9981599,3.33333333 C14.0944485,3.33333333 15.0086771,4.21278822 15.0508603,5.30955134 L15.281488,11.3058712 C15.3177641,12.2490517 14.8058739,13.4253981 14.0879304,14.0407782 L11.9489938,15.8741524 C10.8626176,16.805332 9.13729385,16.8052561 8.05100615,15.8741524 L5.91206958,14.0407782 C5.19767046,13.4284361 4.6822755,12.2480212 4.71851204,11.3058712 L4.94913973,5.30955134 Z"/>
    <path fill="#FFF" d="M9.33333333,10.9936523 C9.33333333,10.8130631 9.17639669,10.6666667 9.00307401,10.6666667 L7.66359266,10.6666667 C7.48119547,10.6666667 7.33333333,10.5239766 7.33333333,10.3302104 L7.33333333,9.66978963 C7.33333333,9.48396995 7.49026998,9.33333333 7.66359266,9.33333333 L9.00307401,9.33333333 C9.1854712,9.33333333 9.33333333,9.19064331 9.33333333,8.99687703 L9.33333333,8.3364563 C9.33333333,8.15063662 9.19064331,8 8.99687703,8 L8.3364563,8 C8.15063662,8 8,7.85730998 8,7.6635437 L8,7.00312297 C8,6.81730328 8.14269002,6.66666667 8.3364563,6.66666667 L8.99687703,6.66666667 C9.18269672,6.66666667 9.33333333,6.52397664 9.33333333,6.33021037 L9.33333333,5.66978963 C9.33333333,5.48396995 9.47602336,5.33333333 9.66978963,5.33333333 L10.3302104,5.33333333 C10.5160301,5.33333333 10.6666667,5.47602336 10.6666667,5.66978963 L10.6666667,6.33021037 C10.6666667,6.51603005 10.8093567,6.66666667 11.003123,6.66666667 L11.6635437,6.66666667 C11.8493634,6.66666667 12,6.80935669 12,7.00312297 L12,7.6635437 C12,7.84936338 11.85731,8 11.6635437,8 L11.003123,8 C10.8173033,8 10.6666667,8.14269002 10.6666667,8.3364563 L10.6666667,8.99687703 C10.6666667,9.18269672 10.8236033,9.33333333 10.996926,9.33333333 L12.3364073,9.33333333 C12.5188045,9.33333333 12.6666667,9.47602336 12.6666667,9.66978963 L12.6666667,10.3302104 C12.6666667,10.5160301 12.50973,10.6666667 12.3364073,10.6666667 L10.996926,10.6666667 C10.8145288,10.6666667 10.6666667,10.8100382 10.6666667,10.9936523 L10.6666667,13.0063477 C10.6666667,13.1869369 10.5239766,13.3333333 10.3302104,13.3333333 L9.66978963,13.3333333 C9.48396995,13.3333333 9.33333333,13.1899618 9.33333333,13.0063477 L9.33333333,10.9936523 Z" mask="url(#slovakia-b)"/>
    <path fill="#1251A1" d="M8.79646528,13.4254498 C9.01109358,12.9766671 9.46934455,12.6666667 10,12.6666667 C10.5306554,12.6666667 10.9889064,12.9766671 11.2035347,13.4254498 C12.8245518,13.6808476 14,14.4384553 14,15.3333333 C14,16.4379028 12.209139,17.3333333 10,17.3333333 C7.790861,17.3333333 6,16.4379028 6,15.3333333 C6,14.4384553 7.17544819,13.6808476 8.79646528,13.4254498 Z" mask="url(#slovakia-b)"/>
  </g>
</svg>
