<svg height="17" viewBox="0 0 17 17" width="17" xmlns="http://www.w3.org/2000/svg"><g fill-rule="nonzero"><path d="m16.8154923 14.405176-5.1744444-9.181322c-.4776411-.79606838-1.64520801-.79606838-2.14938465 0l-5.14790884 9.181322c-.50417664.8491396.07960684 1.9105641 1.0614245 1.9105641h10.32235329c1.0083533 0 1.5921368-1.0879602 1.0879601-1.9105641zm-6.2358689-7.24422228c.477641 0 .8756752.39803419.8756752.87567522 0 .47764102-.3980342.87567521-.8756752.87567521-.4776411 0-.87567524-.39803419-.87567524-.87567521 0-.47764103.39803414-.87567522.87567524-.87567522zm-2.86584619 7.85454128c-.47764103 0-.87567522-.3980341-.87567522-.8756752 0-.477641.39803419-.8756752.87567522-.8756752s.87567522.3980342.87567522.8756752c0 .4776411-.39803419.8756752-.87567522.8756752zm.53071225-3.9272706c0-.477641.39803419-.8756752.87567522-.8756752.47764102 0 .87567521.3980342.87567521.8756752s-.39803419.8756752-.87567521.8756752c-.47764103 0-.87567522-.3714986-.87567522-.8756752zm2.33513394 3.9272706c-.4776411 0-.87567524-.3980341-.87567524-.8756752 0-.477641.39803414-.8756752.87567524-.8756752.477641 0 .8756752.3980342.8756752.8756752 0 .4776411-.3980342.8756752-.8756752.8756752zm.5572478-3.9272706c0-.477641.3980342-.8756752.8756753-.8756752.477641 0 .8756752.3980342.8756752.8756752s-.3980342.8756752-.8756752.8756752c-.4776411 0-.8756753-.3714986-.8756753-.8756752zm2.3351339 3.9272706c-.477641 0-.8756752-.3980341-.8756752-.8756752 0-.477641.3980342-.8756752.8756752-.8756752.4776411 0 .8756753.3980342.8756753.8756752 0 .4776411-.3980342.8756752-.8756753.8756752zm-10.74692306-4.0599487-2.60049003 3.9272707c-.15921368.2388205-.10614245.5837835.13267806.7429971l1.43292308.8756753c.23882051.1592136.55724787.0530712.71646154-.2122849l2.33513391-4.0864844z"/><path d="m5.511 10.796-1.884-1.167-.61.875 1.964 1.221z"/><path d="m11.0041932 1.19044089c.2122849-.39803419.132678-.84913961-.2122849-1.06142451-.3184274-.18574929-.79606841-.10614245-1.03488892.29189174l-5.83783477 8.75675216 1.88402849 1.16756692z"/></g></svg>