<svg height="17" viewBox="0 0 17 17" width="17" xmlns="http://www.w3.org/2000/svg"><g transform="translate(-.053)"><g transform="translate(0 .789)"><path d="m1.26836868 13.7870045c-.75170306-.7892882-.71653193-2.0495869.07480435-2.7843823l10.22588137-9.68508818c.7892882-.75170306 2.0495868-.71653194 2.7838989.07429547l.9833068 1.03247209c.751703.78928821.7165319 2.04958682-.0748044 2.78438224l-10.22368374 9.68296988c-.77271915.7538723-2.03287524.7187052-2.78609652-.0721771zm3.41804731.7391336 10.22821461-9.68728248c.5856599-.54382698.6117779-1.47972276.0544788-2.06488677l-.985501-1.0348054c-.543827-.58565983-1.4797228-.61177785-2.0653956-.05399549l-10.22821469 9.68728244c-.58565983.543827-.61177785 1.4797228-.05447879 2.0648868l.98330675 1.0324721c.55994257.5879397 1.49587687.6140588 2.06758992.0563288z"/><path d="m11.8187437 2.81704231.5080418-.47526493c.2268237-.21547221.590835-.20486994.8065996.02225072.0964311.10150646.2568913.10562082.3583977.00918968.1015065-.09643114.1056209-.25689128.0091897-.35839775-.4080845-.42956265-1.0929831-.44951115-1.5219774-.04196657l-.5066241.47392843c-.1022446.09564817-.107592.25607195-.0119439.35831654.0956482.10224459.256072.10759205.3583166.01194388zm-7.08202395 10.52805609-.50804182.4752649c-.22682372.2154722-.59083499.20487-.80659961-.0222507-.09643115-.1015065-.25689128-.1056208-.35839775-.0091897-.10150647.0964312-.10562083.2568913-.00918969.3583978.40808453.4295626 1.09298311.4495111 1.52197741.0419665l.50662411-.4739284c.10224459-.0956482.10759205-.2560719.01194389-.3583165-.09564817-.1022446-.25607195-.1075921-.35831654-.0119439zm.70833117-.6573184-.16484849.1648484c-.11064855.1106486-.11064855.2900453 0 .4006939.11064855.1106485.2900453.1106485.40069384 0l.16484849-.1648485c.11064855-.1106485.11064855-.2900453 0-.4006938-.11064855-.1106486-.29004529-.1106486-.40069384 0zm-2.48380619.616642-.55720716-.5735956c-.09755628-.1004256-.25805231-.1027516-.3584779-.0051954-.10042559.0975563-.10275161.2580524-.00519533.3584779l.55720716.5735956c.09755629.1004256.25805231.1027517.3584779.0051954s.10275162-.2580523.00519533-.3584779z"/></g><path d="m5.788763 4.01248909 2.99908559-2.83520113c.10174214-.09618246.10624915-.25663205.01006669-.35837419s-.25663205-.10624915-.35837418-.01006669l-2.9990856 2.83520113c-.10174214.09618246-.10624915.25663205-.01006669.35837419s.25663205.10624915.35837419.01006669zm-4.57129914 4.34191376 1.50773702-1.44218323c.10117638-.09677741.10474246-.25725067.00796504-.35842706-.09677741-.10117638-.25725067-.10474245-.35842705-.00796504l-1.50773702 1.44218324c-.10117638.09677741-.10474246.25725066-.00796504.35842705.09677741.10117638.25725066.10474246.35842705.00796504z" transform="translate(5.244 7.836)"/><path d="m2.98646621 1.90693523 1.22913344-1.16357965c.10167555-.09625285.10607151-.25670552.00981866-.35838107-.09625285-.10167554-.25670552-.10607151-.35838107-.00981866l-1.22913344 1.16357966c-.10167554.09625285-.10607151.25670552-.00981865.35838106.09625285.10167555.25670551.10607152.35838106.00981866zm-1.89848897 1.80026092.62276094-.6063725c.10031243-.09767263.10245242-.25817124.00477978-.35848368-.09767263-.10031243-.25817124-.10245242-.35848368-.00477978l-.62276094.6063725c-.10031244.09767263-.10245242.25817124-.00477978.35848367.09767263.10031244.25817124.10245242.35848368.00477979z" transform="translate(6.72 .895)"/><g transform="translate(9.178 3.902)"><path d="m1.57596716 3.22882202-.72938052-.77819795c-.26470266-.26470267-.24785554-.71115142.02116616-.95315324l.63437167-.60171885c.26470266-.26470267.71115141-.24785554.95418591.02226114l.73714106.78628451c.35791192.38028141.33721036.96682572-.0381242 1.31992204l-.2513385.251174c-.3804309.35805262-.98563753.33792821-1.32802158-.04657165zm.37230139-.3441954c.155779.17637513.43344256.18606107.60271646.0269042l.25133849-.25117401c.17775681-.16730052.18713527-.43302366.02157878-.60892814l-.74096757-.79044205c-.05394352-.05993724-.1648899-.06412389-.22707241-.00206546l-.64404102.61089267c-.05993723.05394351-.06412389.1648899-.00103279.22816739z"/><path d="m2.32645524 1.16957795-1.24552189 1.1799681c-.10163993.09629047-.10597653.25674475-.00968607.35838468s.25674474.10597653.35838467.00968607l1.24552189-1.1799681c.10163993-.09629046.10597653-.25674474.00968607-.35838467s-.25674474-.10597654-.35838467-.00968608z"/></g><g transform="translate(3.114 9.474)"><path d="m1.70982695 3.280923-.73213275-.7811336c-.26470266-.26470266-.24785554-.71115141.02116617-.95315323l.63437167-.60171886c.26470266-.26470266.71115141-.24785554.9541859.02226114l.73714107.78628452c.35791192.38028141.33721035.96682571-.0381242 1.31992204l-.2513385.251174c-.38028141.35791192-.96682572.33721035-1.32526936-.04363601zm.97226562-.32022685.2513385-.251174c.1777568-.16730052.18713527-.43302366.02157877-.60892814l-.74096756-.79044205c-.05394352-.05993724-.16488991-.0641239-.22707241-.00206546l-.64404102.61089267c-.05993724.05394351-.06412389.1648899-.00103279.22816739l.73729279.78644564c.16730941.17760133.43292333.18692582.60290372.02710395z"/><path d="m2.4575628 1.21874329-1.24552188 1.1799681c-.10163993.09629046-.10597654.25674475-.00968608.35838468s.25674475.10597653.35838468.00968607l1.24552188-1.1799681c.10163993-.09629046.10597654-.25674475.00968608-.35838468s-.25674475-.10597653-.35838468-.00968607z"/></g><path d="m6.68082315 3.87475785-5.68679072-1.14719121c-.13724432-.02768618-.2709469.06112825-.29863308.19837257-.02768617.13724433.06112826.27094691.19837258.29863308l5.68679071 1.14719121c.13724432.02768618.27094691-.06112825.29863308-.19837257.02768618-.13724432-.06112825-.27094691-.19837257-.29863308zm1.08163742-1.01608364-5.68679071-1.14719121c-.13724432-.02768618-.27094691.06112825-.29863308.19837257-.02768618.13724432.06112825.27094691.19837257.29863308l5.68679072 1.14719121c.13724432.02768618.2709469-.06112825.29863308-.19837257.02768617-.13724432-.06112825-.27094691-.19837258-.29863308zm1.08232499-1.01594396-5.68679071-1.16357965c-.13716717-.02806591-.27111505.06037815-.29918095.19754532-.02806591.13716717.06037814.27111504.19754532.29918095l5.68679071 1.16357966c.13716717.0280659.27111505-.06037815.29918095-.19754532.02806591-.13716717-.06037814-.27111505-.19754532-.29918096z" transform="translate(3.442 6.36)"/></g></svg>