<svg xmlns="http://www.w3.org/2000/svg" width="17" height="17" fill-rule="evenodd" ><path fill-rule="nonzero" d="M4.204.733C2.06.733.324 2.472.324 4.616S2.06 8.5 4.204 8.5s3.88-1.74 3.88-3.884S6.346.733 4.204.733zm3.36 2.628h-.06c-.21-.592-.773-1.108-.946-1.242a1.77 1.77 0 0 0-.109-.3 3.58 3.58 0 0 1 1.117 1.542zM4.027.998l.148-.004a3.57 3.57 0 0 1 1.645.395c.22.158.377.384.47.674-.436.025-.824.256-.973.355-.206-.11-.932-.48-1.536-.48h-.055c-.042-.203-.132-.55-.238-.74.114-.094.293-.195.538-.202zM.612 3.964c.11-.382.558-.846.7-.986a4.97 4.97 0 0 0 .879.229c.016.89.226 1.4.32 1.598-.152.134-.518.5-.763 1.082-.43-.138-.737-.295-.908-.467-.164-.164-.225-.958-.227-1.457zm2.094 3.708l-.002.078H2.36A3.62 3.62 0 0 1 .943 6.252L.898 5.76a3.18 3.18 0 0 0 .839.373c.092.147.552.86.98 1.16l-.01.38zm-.28-4.517c.435-.423 1.12-.892 1.244-.975.035-.003.072-.005.1-.005.567 0 1.293.382 1.444.464.198.647.25 1.344.26 1.508L4.287 5.164l-1.545-.427c-.06-.112-.306-.633-.315-1.583zm2.4 5.022l-.064.013-.01.002a3.65 3.65 0 0 1-.577.047l-.322-.015c-.37-.047-.677-.183-.916-.407l.012-.45.123.005c.302 0 .778-.077 1.348-.438.16.1.594.365 1.224.4-.08.7-.472.777-.82.844zm2.12-2.064a4.94 4.94 0 0 1-1.198.991 2.25 2.25 0 0 1-1.208-.376L4.445 5.34 5.636 4.33c.395.1 1.068.395 1.2.458.07.154.1.505.1.968l-.008.358zm.238-.05l.007-.308c0-.338-.022-.784-.122-1.034.34-.382.433-.905.458-1.124h.118c.1.337.15.68.15 1.018 0 .533-.117 1.05-.35 1.54a.9.9 0 0 0-.261-.092z"/><path d="M16.136 5.232v9.005l-.985 1.34H6.69V5.232h9.445zm-3.07 7.646h-4.25v.675h4.25v-.675zm.944-2.024H8.816v.675h5.195v-.675zm0-1.8H8.816v.675h5.195v-.675zm0-1.8H8.816v.675h5.195v-.675z"/><path d="M15.463 4.576l.7.744h-1.405zm-4.013-.02l.7.744-1.405.001z"/><path d="M12.63 4.557l.7.745h-1.406z"/><path d="M14.046 4.557l.7.745H13.34zm-5.43 0l.7.745H7.9z"/><path d="M7.198 4.558l.7.744H6.73zm2.834-.001l.7.745H9.327z"/></svg>