<svg height="17" viewBox="0 0 17 17" width="17"
  xmlns="http://www.w3.org/2000/svg">
  <path d="m8.46461929 0c-4.675 0-8.46461929 3.79332995-8.46461929 8.47229949 0 4.67896951 3.78961929 8.47255841 8.46461929 8.47255841 4.67405081 0 8.46444671-3.7935889 8.46444671-8.47255841 0-4.67896954-3.7904822-8.47229949-8.46444671-8.47229949zm7.33010661 5.73348731c-.0456498-.00008629-.0931117-.00008629-.1333249-.00017259-.459604-1.29130964-1.6861929-2.41667513-2.0648528-2.7092132-.0405584-.1560203-.1135634-.38858375-.2380863-.65497462 1.1134569.8994467 1.9480965 2.05035533 2.436264 3.36436041zm-7.71627412-5.15427919.32179187-.00802538c1.26801016.00025888 2.47561425.29029442 3.58941625.86216751.4766904.3446599.8216954.83869544 1.0271624 1.47011168-.9521726.05522843-1.7985482.55754822-2.1234467.77501015-.4483858-.2426599-2.03344159-1.04649238-3.3515025-1.04649238-.04004061 0-.07982234.00077665-.119.00224365-.09268021-.44243147-.28882741-1.20001015-.51828427-1.61430964.24973604-.20607107.63926904-.42577665 1.17386295-.44070559zm-7.44953807 6.46957868c.23817258-.83274111 1.21839086-1.84566497 1.52939593-2.15166497.76068528.28701523 1.56624366.44156853 1.91668528.50024873.03469036 1.93860406.49394924 3.07708629.69630965 3.48681218-.33102538.29322843-1.12898985 1.0896396-1.66539594 2.36023856-.94104061-.3012538-1.60749239-.6435837-1.98192386-1.0181015-.35786294-.35829442-.49179188-2.089533-.49507106-3.177533zm4.56859898 8.0894112-.0046599.1697411-.52630964.0001726-.22505584.0000863c-1.32945178-.7705229-2.39743147-1.8992538-3.09106599-3.2670203-.01139086-.1249543-.06454822-.7034721-.09846193-1.0732437.45787817.3085888 1.06004061.5759289 1.82944163.813066.20097969.3197208 1.20510152 1.8731066 2.13897969 2.5285127-.00431472.1585228-.01518782.5510761-.02286802.8286853zm-.6088934-9.85516754c.94820305-.92283249 2.44541117-1.94568021 2.71447716-2.12715736.07602538-.00759391.15627918-.01147716.23894924-.01147716 1.23616751 0 2.82182741.83248223 3.14940101 1.01206091.4322487 1.41065483.5464162 2.93245686.5681624 3.29066498-.3311979.28140609-2.28015732 1.93670558-2.6128223 2.21906091-.49360406-.11442639-2.30664974-.54460406-3.37091878-.93068528-.13013198-.24490355-.66800508-1.38019289-.68724873-3.452467zm5.23832995 10.95611164c-.06472081.0127716-.10743655.0213148-.13867513.0284772l-.0216599.0034518c-.42137563.068-.84697969.1024314-1.25912182.1025177-.56798985-.0267512-.67680711-.0317563-.70304061-.0326193-.80538579-.1019137-1.47736041-.4003198-1.99823351-.8873654.00483249-.1778528.01967513-.7201269.02692386-.9815127.08534518.0066446.17474619.0100964.2673401.0100964.65790863 0 1.69749747-.1674112 2.94151777-.9565736.34802538.2396396 1.2967462.7973604 2.6713299.872868-.1767309 1.5290508-1.0304416 1.6943909-1.78638066 1.8406599zm4.62425886-4.5023248c-.9611472 1.1645431-2.3483299 2.0069492-2.6134264 2.1621929-1.1231218-.0164823-2.10679185-.4422589-2.63638068-.8194518-.01139087-.4217208-.06049239-1.9065889-.21142132-3.0265178.34526395-.29314212 2.2659188-1.92445177 2.5997056-2.20792892.8623401.21892893 2.3294315.86182233 2.6393147.99946192.1523959.33637564.2392944 1.10077158.2392944 2.111797 0 0-.0132893.6088934-.0170863.7804467zm.5187158-.1064011c.0049187-.2107309.0154467-.6671421.0154467-.671802 0-.7372995-.0472031-1.71001014-.2658731-2.25677156.7410101-.83274112.9444923-1.97484772.9985127-2.45136548.0803401.00008629.1811319.00017259.256467.00025888.2160812.73583249.3255888 1.48288325.3255888 2.22182234 0 1.16376649-.2561218 2.29292892-.7614619 3.35866502-.1700863-.097599-.3498376-.1517056-.5686802-.2008072z" />
</svg>
