<svg xmlns="http://www.w3.org/2000/svg" width="28" height="20" viewBox="0 0 28 20">
  <g fill="none" fill-rule="evenodd">
    <rect width="28" height="5.333" fill="#DD172C"/>
    <rect width="28" height="5.333" y="14.667" fill="#DD172C"/>
    <rect width="28" height="9.333" y="5.333" fill="#FFD133"/>
    <polygon fill="#FFEDB1" points="7.333 9.333 8.667 9.333 8.667 10 7.333 10"/>
    <path stroke="#A41517" stroke-width=".667" d="M6.05389181,9.29950349 L6.22118675,11.3070428 C6.26842017,11.8738438 6.76814424,12.3333333 7.33333333,12.3333333 C7.89937132,12.3333333 8.39839994,11.8720026 8.44547992,11.3070428 L8.61277486,9.29950349 C8.62723547,9.12597611 8.50798852,9 8.32545026,9 L6.34121641,9 C6.16543785,9 6.04000832,9.13290166 6.05389181,9.29950349 Z"/>
    <polygon fill="#A41517" points="6 10 8.667 10 8.667 10.667 8 10.667 7.333 12 6.667 10.667 6 10.667"/>
    <rect width="1.333" height="4.667" x="4" y="8" fill="#A41517"/>
    <rect width="1.333" height="4.667" x="9.333" y="8" fill="#A41517"/>
    <path fill="#A41517" d="M6,7.33333333 C6,6.9651435 6.30590057,6.66666667 6.6729126,6.66666667 L7.99375407,6.66666667 C8.36539343,6.66666667 8.66666667,6.96257655 8.66666667,7.33333333 L8.66666667,7.6635437 C8.66666667,7.84936338 8.52329508,8 8.33968099,8 L6.32698568,8 C6.14639647,8 6,7.85730998 6,7.6635437 L6,7.33333333 Z"/>
  </g>
</svg>
