<?xml version="1.0" encoding="UTF-8"?>
<svg width="17px" height="17px" viewBox="0 0 17 17" version="1.1" xmlns="http://www.w3.org/2000/svg" xmlns:xlink="http://www.w3.org/1999/xlink">
    <!-- Generator: Sketch 60.1 (88133) - https://sketch.com -->
    <title>sports icons/special offers</title>
    <desc>Created with Sketch.</desc>
    <defs>
        <radialGradient cx="53.8683309%" cy="50%" fx="53.8683309%" fy="50%" r="46.6601177%" gradientTransform="translate(0.538683,0.500000),scale(1.000000,0.999222),rotate(63.056745),translate(-0.538683,-0.500000)" id="radialGradient-1">
            <stop stop-color="#DC5757" offset="0%"></stop>
            <stop stop-color="#E51C25" offset="100%"></stop>
        </radialGradient>
    </defs>
    <g id="sports-icons/special-offers" stroke="none" stroke-width="1" fill-rule="evenodd">
        <g id="Group-3" fill="url(#radialGradient-1)" stroke="#500202" stroke-width="0.2">
            <path d="M16.0357123,5.34346789 C15.2634335,4.87934308 14.8704271,4.19954297 14.8588059,3.29455246 C14.8440153,2.39379088 14.3886772,1.933895 13.4853963,1.92332268 C12.5842282,1.9106359 11.9028057,1.5162884 11.4411288,0.742394645 C10.9773389,-0.0336135721 10.3550787,-0.201713445 9.57012228,0.240209491 C8.78410937,0.680017962 7.99598352,0.680017962 7.20997061,0.240209491 C6.42290123,-0.200656213 5.80064101,-0.0336135721 5.33685114,0.742394645 C4.87623067,1.51734563 4.19480819,1.91169313 3.29364016,1.92332268 C2.39352861,1.933895 1.93607754,2.39379088 1.92339992,3.29455246 C1.90860935,4.19954297 1.51665937,4.87828585 0.743324085,5.34346789 C-0.0331806032,5.80653546 -0.202215637,6.42713059 0.241501327,7.21476836 C0.683105354,8.00346336 0.683105354,8.79004389 0.241501327,9.57662443 C-0.202215637,10.3653194 -0.0342370722,10.9890862 0.743324085,11.4510966 C1.51665937,11.9120497 1.90966582,12.592907 1.92339992,13.4936686 C1.93607754,14.3976019 2.39352861,14.858555 3.29364016,14.8691273 C4.19586466,14.8796997 4.87623067,15.2761616 5.33896408,16.0500554 C5.80169748,16.8260636 6.4239577,16.9941635 7.20997061,16.5501261 C7.99598352,16.1145465 8.78410937,16.1145465 9.57012228,16.5501261 C10.3550787,16.9931062 10.9783954,16.8260636 11.4411288,16.0500554 C11.9028057,15.2761616 12.5842282,14.8796997 13.4853963,14.8691273 C14.3886772,14.858555 14.8440153,14.3986591 14.8588059,13.4936686 C14.8714835,12.592907 15.2634335,11.9120497 16.0357123,11.4510966 C16.812217,10.988029 16.9801956,10.3653194 16.5385916,9.57662443 C16.0991005,8.79004389 16.0991005,8.00346336 16.5385916,7.21476836 C16.9801956,6.42818782 16.8132735,5.80653546 16.0357123,5.34346789 Z" id="Fill-1"></path>
        </g>
        <text id="S" font-family="RobotoCondensed-Bold, Roboto Condensed" font-size="12" font-style="condensed" font-weight="bold">
            <tspan x="5.25976562" y="12.8723145">S</tspan>
        </text>
    </g>
</svg>