<svg xmlns="http://www.w3.org/2000/svg" width="17" height="17" fill-rule="nonzero"><path d="M15.55 1.98c-.783 0-1.416.64-1.416 1.43s.634 1.43 1.416 1.43 1.417-.64 1.417-1.43-.636-1.43-1.417-1.43zm-2.765 11.948v.3c0 .293-.277.264-.277.264H8.23v.54h4.48c.738-.095.614-1.095.614-1.095h-.538zm-10.182-1.15c-.268.118-.353-.147-.353-.147L.525 8.715.03 8.933l1.807 4.1c.385.637 1.25.12 1.25.12l-.217-.492-.266.117zm10.332-9.24L6.2 3.534c-.38 0-.7.312-.7.7s.3.7.7.7l3.294-.01s-2.096.44-2.493.75-.43.802-.404.97c.064.43.147.532.432.814l4.036 2.493-.707 3.1c-.114.473.172.95.64 1.062.428.103.967-.296 1.053-.653l.846-3.717c.076-.405.115-.615-.405-1.12-.18-.2-1.895-1.96-1.895-1.96l2.805-.807c.63-.255.793-.808.652-1.46-.2-.652-1.13-.862-1.13-.862zm-6.187 4.29L6.7 7.8c-.146-.144-.255-.262-.34-.393L6.1 8.96l-3.5.808c-.4.048-.72.373-.762.788a.86.86 0 0 0 .782.934 1.06 1.06 0 0 0 .192-.007l4.377-.965c.442-.13.558-.444.558-.444l.398-1.388-1.4-.858z"/></svg>