<svg xmlns="http://www.w3.org/2000/svg" width="29" height="29" viewBox="0 0 29 29">
  <path d="M14.5001478,0 C6.491732,0 0,6.49203253 0,14.4997785 C0,22.5075244 6.491732,29 14.5001478,29 C22.5069376,29 29,22.5075244 29,14.4997785 C29,6.49203253 22.5067898,0 14.5001478,0 Z M27.0568412,9.81248313 C26.9786418,9.81233544 26.8973381,9.81233544 26.8284517,9.81218776 C26.0411361,7.60219697 23.9399525,5.67620862 23.2912967,5.17554912 C23.221819,4.90853072 23.0967591,4.5105138 22.8834477,4.05460351 C24.7908328,5.59394686 26.2205956,7.56365062 27.0568412,9.81248313 Z M13.8386312,0.991276272 L14.3898704,0.977541365 C16.56201,0.977984427 18.6306721,1.474361 20.5386486,2.45308386 C21.3552335,3.04294641 21.9462376,3.88845545 22.2982088,4.96908246 C20.6671084,5.06360224 19.2172415,5.92328925 18.6606806,6.29546091 C17.8925822,5.88016459 15.1773338,4.50445862 12.9194558,4.50445862 C12.850865,4.50445862 12.7827177,4.50578781 12.7156052,4.50829849 C12.5568412,3.75110638 12.2208352,2.45456073 11.8277687,1.74551464 C12.255574,1.39283768 12.9228558,1.01682615 13.8386312,0.991276272 Z M1.07734812,12.0635309 C1.48534494,10.6383498 3.16448837,8.9047978 3.69724944,8.3810991 C5.00032623,8.87230662 6.380272,9.13681434 6.98058906,9.23724161 C7.04001468,12.5550338 7.82673898,14.5034706 8.17338845,15.2046893 C7.606332,15.7065303 6.23939484,17.0695352 5.32051504,19.2440811 C3.70848413,18.7285052 2.56683216,18.1426302 1.92541977,17.5016678 C1.31238977,16.8884707 1.08296547,13.9255708 1.07734812,12.0635309 Z M8.9034958,25.9080215 L8.89551326,26.1985221 L7.99392898,26.1988175 L7.60840155,26.1989652 C5.33101061,24.8802664 3.50152922,22.9485183 2.3133124,20.6076767 C2.29379951,20.3938257 2.20273935,19.4037309 2.14464415,18.7708914 C2.92900325,19.2990207 3.96052565,19.7565555 5.27853276,20.1623999 C5.62281703,20.7095808 7.34290797,23.3680975 8.94266941,24.4897816 C8.93527817,24.7610829 8.91665222,25.4329118 8.9034958,25.9080215 Z M7.86044307,9.04155611 C9.48474345,7.46218954 12.0495061,5.71165354 12.5104242,5.40106742 C12.640658,5.38807095 12.7781352,5.38142503 12.9197515,5.38142503 C15.0373436,5.38142503 17.7536268,6.80616314 18.3147703,7.11350013 C19.0552254,9.52774227 19.2507977,12.1322055 19.2880496,12.7452549 C18.7206975,13.2268628 15.3820714,16.059798 14.8122063,16.5430304 C13.9666476,16.3471973 10.8608458,15.6109767 9.03772085,14.9502243 C8.81480084,14.5310881 7.89340803,12.5881158 7.86044307,9.04155611 Z M16.8338601,27.7922143 C16.7229914,27.814072 16.649818,27.8286931 16.5963054,27.8409511 L16.5592013,27.8468586 C15.8373722,27.9632361 15.1082996,28.0221633 14.4022877,28.0223109 C13.429304,27.9765279 13.2428968,27.9679621 13.197958,27.9664852 C11.8183079,27.7920667 10.6671951,27.2813644 9.77492379,26.447818 C9.78320199,26.1434348 9.80862788,25.2153686 9.82104517,24.7680242 C9.96724403,24.7793961 10.1203907,24.7853036 10.2790068,24.7853036 C11.4060241,24.7853036 13.1868711,24.4987905 15.3179154,23.1481913 C15.9140933,23.5583186 17.5392807,24.5128208 19.893984,24.642047 C19.5912386,27.258916 18.1288065,27.5418846 16.8338601,27.7922143 Z M24.7553548,20.086784 C23.1088807,22.0798224 20.7325949,23.5215445 20.2784767,23.7872337 C18.3545352,23.7590255 16.6694787,23.030337 15.7622771,22.3847964 C15.7427642,21.6630492 15.6586518,19.1217961 15.400106,17.205112 C15.9915536,16.7034187 19.2816932,13.9115405 19.85348,13.4263881 C21.3306946,13.8010705 23.8438663,14.9013399 24.3747056,15.1369009 C24.6357645,15.7125855 24.7846242,17.0207984 24.7846242,18.7511013 C24.7846242,18.7511013 24.7618591,19.7931819 24.7553548,20.086784 Z M25.6439305,19.9046858 C25.6523565,19.5440337 25.6703912,18.7629163 25.6703912,18.7549412 C25.6703912,17.493102 25.5895309,15.8283722 25.2149426,14.8926263 C26.4843153,13.4674452 26.8328865,11.5128055 26.9254249,10.697277 C27.0630499,10.6974246 27.2357094,10.6975723 27.3647606,10.69772 C27.7349142,11.9570485 27.9225041,13.2355763 27.9225041,14.5002215 C27.9225041,16.4919307 27.4837596,18.4244173 26.6180968,20.2483538 C26.3267339,20.0813196 26.0188145,19.9887198 25.6439305,19.9046858 Z"/>
</svg>
