<svg height="17" viewBox="0 0 17 17" width="17" xmlns="http://www.w3.org/2000/svg"><g ><path d="m9.31025127 9.95237316c-.662014 0-1.2120422-.214404-1.6347489-.6372756-2.5403576-2.5400278 3.29192763-8.4948541 3.54129723-8.747027.9981346-.99796801 2.9812067-.64651001 4.4210115.7832342 1.436177 1.4360121 1.7884612 3.4190859.7863673 4.4215079-.085102.0849371-4.2250797 4.1719734-7.10568043 4.1795605-.0026384 0-.0056083 0-.0082467 0zm3.41694223-9.3991453c-.4406825 0-.8299094.1334245-1.1099538.4131408-1.5885701 1.6060512-5.32431333 6.1675813-3.54228663 7.9492782.3188027.3189676.7297981.4796057 1.2418942.4716888 2.23870963-.0056083 5.67840973-2.9736196 6.70656123-4.0129843.0003298-.0003298.0006596-.0006596.0009894-.0009894.7820782-.7820799.4297974-2.4069331-.7850498-3.6219452-.780759-.7749875-1.7277661-1.1981889-2.5121546-1.1981889z"/><path d="m7.87522857 9.39789096c-.0722381 0-.1446411-.0273785-.1997262-.0827934-.1103351-.1101702-.1103351-.2889507 0-.3991209l7.56384743-7.5640106c.1101702-.1101702.2889507-.1101702.3991209 0 .1105.1103351.1105.2891156 0 .3994507l-7.56351593 7.5636808c-.0550851.0554166-.1274881.0827934-.1997262.0827934zm2.0010496.4980779c-.0722381 0-.144806-.0273785-.1998911-.0827934-.1101702-.1105017-.1101702-.2892805.0003298-.3994507l6.57758733-6.5681863c.1101702-.1101702.2892788-.1101702.3994507.0003298.1101702.1103351.1101702.2892805-.0003298.3994507l-6.5775856 6.5681863c-.0550851.0550851-.12732323.0824636-.19956133.0824636zm-2.4989609-2.4989626c-.0722381 0-.1446411-.0277066-.1997262-.0827917-.1103351-.1103368-.1103351-.2891156 0-.3994524l6.57775223-6.5777522c.1101702-.1101702.2889507-.1101702.3991226 0 .1105.1103351.1105.2891156 0 .3994507l-6.57742413 6.5777522c-.0550851.0550868-.1274881.0827934-.1997245.0827934z"/><path d="m10.7091558 9.67562676c-.0725679 0-.144806-.0277083-.1998911-.0827934l-3.10226203-3.1118279c-.1101702-.1105-.1098404-.2892805.0006596-.3994507s.2892805-.1098404.3994507.0006596l3.10193223 3.1114981c.1101702.1105.1098421.2896103-.0003298.3994507-.0554149.0550868-.1273215.0824636-.1995596.0824636zm1.6852168-.8233117c-.0722381 0-.1444762-.0275434-.1995613-.0826285l-3.97340323-3.9638356c-.1103351-.1101702-.1105-.2889507-.0003298-.3994507.1100053-.1105.2889507-.1105.3994524-.0003298l3.97340153 3.9638373c.1105017.1101702.1105017.2889507.0003315.3994507-.0550868.0552483-.127653.0829566-.1998911.0829566zm2.8819216-2.1158387c-.0722381 0-.1444762-.0277083-.1995613-.0827917l-4.7297553-4.7299202c-.1105017-.1103351-.1105017-.2891156 0-.3994507.1101702-.1101702.2889507-.1101702.3991209 0l4.7297553 4.7299185c.1105.1103351.1105.2891156 0 .3994524-.0550851.0550834-.1273232.0827917-.1995596.0827917zm1.2349667-1.2735601c-.0722381 0-.1444745-.0277066-.1995613-.0827934l-4.7010576-4.7010559c-.1105-.1103351-.1105-.2891156 0-.39945071.1101702-.11017019.2889507-.11017019.3991209 0l4.7010576 4.70105761c.1105.1103351.1105.2891156 0 .3994507-.0550851.0550851-.1273232.0827917-.1995596.0827917zm-2.6233176 2.3841735c-.0722381 0-.1444745-.0277083-.1998911-.0827934l-4.46125393-4.4617486c-.1105-.1103351-.1105-.2891156 0-.3994507.1101702-.1101702.2886209-.1101702.3994524 0l4.46125393 4.4617486c.1105.1103351.1105.2891156 0 .3994507-.0550851.0550851-.1273232.0827934-.1995613.0827934zm-12.14054833 8.34873064c-.0748765 0-.1467848-.0296871-.1997262-.0827934l-.6605299-.6606948c-.1103351-.1101702-.1103351-.2889507 0-.3994524l2.7478358-2.7476709c.1101702-.1101702.2892805-.1105.3994507.0003298l.6606948.6606948c.0529414.0527782.0827934.1246848.0827934.1995613s-.029852.1467831-.0827934.1998911l-2.747999 2.7476709c-.0529414.0527765-.1248497.0824636-.1997262.0824636zm-.2610775-.9430495.2610775.2612441 2.34855-2.3482202-.2612441-.2612424z"/><path d="m1.22078597 17.0000003c-.0743818 0-.1457954-.0293556-.1987368-.0814742l-.9382657-.9285349c-.0534361-.0531063-.083453-.1250129-.0837828-.2002192-.0001632-.0752063.0296871-.1471146.0827934-.2002209l.6702607-.670259c.0529414-.0531063.1248497-.0827934.1997262-.0827934.0748765 0 .1467848.0296871.1997262.0827934l.9286998.9288647c.1098404.1095106.1103351.2873017.0013192.3978017l-.6606948.6699309c-.0531063.0537659-.1253444.0676175-.2010454.0841109zm-.5378256-1.2118773.5353504.5297421.2652017-.2688295-.5307332-.5307332zm3.8121055-2.3399735c-.0532712 0-.107202-.0148427-.1550315-.0465086-.1302914-.0857616-.1664113-.2609126-.0804831-.3912057l1.2733952-1.9342549c.0206159-.0313361.0473331-.0583848.0785043-.0791656 1.5127025-1.01495614 3.097315-1.51006414 4.0758214-1.63474894.1504126-.0224298.2958782.0893894.31566963.2444209.0197914.1547-.08971923.296208-.24442093.3156696-.9044544.11544874-2.3688344.57328424-3.7853866 1.51237274l-1.2418942 1.8864271c-.0542606.0824636-.1443113.1269934-.2361742.1269934z"/><path d="m3.83503067 12.7874547c-.0918646 0-.1819136-.0445298-.2361742-.1269934-.0857616-.1302931-.0498083-.3054441.0804831-.3912057l1.8862605-1.2422257c.9389253-1.41638564 1.3969257-2.88109544 1.5123744-3.78555154.0197914-.1545351.160803-.2637159.3159977-.2444209.1547.0197914.2642123.1612977.2444209.3159977-.1250129.9785081-.6201226 2.5631189-1.6350787 4.07582314-.0209457.0313361-.0478295.0580533-.0791656.0785043l-1.93409 1.2735601c-.0478261.0316676-.1017569.046512-.1550281.046512z"/></g></svg>