<svg width="25" height="26" viewBox="0 0 25 26"
  xmlns="http://www.w3.org/2000/svg">
  <path d="M24.4792 24.6226H0.52085C0.23335 24.6226 0 24.8559 0 25.1434C0 25.4309 0.23335 25.6642 0.52085 25.6642H24.4792C24.7667 25.6642 25 25.4309 25 25.1434C25 24.8559 24.7667 24.6226 24.4792 24.6226Z" />
  <path d="M4.68749 18.3726H1.56249C1.27499 18.3726 1.04164 18.6059 1.04164 18.8934V25.1434C1.04164 25.4309 1.27499 25.6642 1.56249 25.6642H4.68749C4.97499 25.6642 5.20834 25.4309 5.20834 25.1434V18.8934C5.20834 18.6059 4.97499 18.3726 4.68749 18.3726ZM4.16664 24.6226H2.08334V19.4142H4.16669V24.6226H4.16664Z" />
  <path d="M10.9375 13.1641H7.8125C7.525 13.1641 7.29165 13.3974 7.29165 13.6849V25.1433C7.29165 25.4308 7.525 25.6641 7.8125 25.6641H10.9375C11.225 25.6641 11.4583 25.4308 11.4583 25.1433V13.6849C11.4583 13.3974 11.225 13.1641 10.9375 13.1641ZM10.4166 24.6224H8.3333V14.2057H10.4166V24.6224Z" />
  <path d="M17.1875 15.2476H14.0625C13.775 15.2476 13.5416 15.4809 13.5416 15.7684V25.1434C13.5416 25.4309 13.775 25.6643 14.0625 25.6643H17.1875C17.475 25.6643 17.7083 25.4309 17.7083 25.1434V15.7684C17.7083 15.4809 17.475 15.2476 17.1875 15.2476ZM16.6666 24.6226H14.5833V16.2892H16.6666V24.6226Z" />
  <path d="M23.4375 8.99756H20.3125C20.025 8.99756 19.7916 9.23091 19.7916 9.51841V25.1434C19.7916 25.4309 20.025 25.6643 20.3125 25.6643H23.4375C23.725 25.6643 23.9583 25.4309 23.9583 25.1434V9.51841C23.9583 9.23086 23.725 8.99756 23.4375 8.99756ZM22.9166 24.6226H20.8333V10.0392H22.9166V24.6226Z" />
  <path d="M3.12499 10.0391C1.97602 10.0391 1.04164 10.9734 1.04164 12.1224C1.04164 13.2714 1.97602 14.2058 3.12499 14.2058C4.27397 14.2058 5.20834 13.2714 5.20834 12.1224C5.20834 10.9734 4.27397 10.0391 3.12499 10.0391ZM3.12499 13.1641C2.54999 13.1641 2.08334 12.6963 2.08334 12.1224C2.08334 11.5484 2.54999 11.0808 3.12499 11.0808C3.69999 11.0808 4.16664 11.5485 4.16664 12.1224C4.16664 12.6963 3.69999 13.1641 3.12499 13.1641Z" />
  <path d="M9.375 4.83057C8.22602 4.83057 7.29165 5.76494 7.29165 6.91391C7.29165 8.06289 8.22602 8.99726 9.375 8.99726C10.524 8.99726 11.4583 8.06289 11.4583 6.91391C11.4583 5.76494 10.524 4.83057 9.375 4.83057ZM9.375 7.95556C8.8 7.95556 8.33335 7.48784 8.33335 6.91391C8.33335 6.33994 8.8 5.87226 9.375 5.87226C9.95 5.87226 10.4166 6.33999 10.4166 6.91391C10.4166 7.48789 9.95 7.95556 9.375 7.95556Z" />
  <path d="M15.625 6.91406C14.476 6.91406 13.5416 7.84844 13.5416 8.99741C13.5416 10.1464 14.476 11.0808 15.625 11.0808C16.774 11.0808 17.7083 10.1464 17.7083 8.99741C17.7083 7.84844 16.774 6.91406 15.625 6.91406ZM15.625 10.0391C15.05 10.0391 14.5833 9.57134 14.5833 8.99741C14.5833 8.42344 15.05 7.95576 15.625 7.95576C16.2 7.95576 16.6666 8.42349 16.6666 8.99741C16.6666 9.57134 16.2 10.0391 15.625 10.0391Z" />
  <path d="M21.875 0.664062C20.726 0.664062 19.7916 1.59844 19.7916 2.74741C19.7916 3.89639 20.726 4.83076 21.875 4.83076C23.024 4.83076 23.9583 3.89639 23.9583 2.74741C23.9583 1.59844 23.024 0.664062 21.875 0.664062ZM21.875 3.78906C21.3 3.78906 20.8333 3.32134 20.8333 2.74741C20.8333 2.17344 21.3 1.70576 21.875 1.70576C22.45 1.70576 22.9166 2.17349 22.9166 2.74741C22.9166 3.32134 22.45 3.78906 21.875 3.78906Z" />
  <path d="M21.1396 3.48291C20.9365 3.27979 20.6063 3.27979 20.4031 3.48291L16.3615 7.52456C16.1583 7.72769 16.1583 8.05791 16.3615 8.26103C16.4636 8.36206 16.5969 8.41313 16.7302 8.41313C16.8625 8.41313 16.9958 8.36313 17.0979 8.26103L21.1396 4.21938C21.3427 4.01626 21.3427 3.68604 21.1396 3.48291Z" />
  <path d="M14.3656 7.79542L11.0198 6.84127C10.7395 6.76002 10.4552 6.92252 10.3771 7.19962C10.2979 7.47672 10.4583 7.76422 10.7343 7.84337L14.0802 8.79752C14.1281 8.81104 14.176 8.81729 14.2229 8.81729C14.45 8.81729 14.6583 8.66832 14.7239 8.43917C14.8031 8.16314 14.6427 7.87457 14.3656 7.79542Z" />
  <path d="M8.5625 7.56287C8.38335 7.33787 8.05625 7.3014 7.83125 7.47952L3.90414 10.6108C3.67914 10.791 3.64164 11.118 3.82187 11.343C3.92499 11.4722 4.07709 11.5389 4.22915 11.5389C4.34267 11.5389 4.45727 11.5014 4.55312 11.4264L8.48023 8.29515C8.70523 8.11492 8.74273 7.78787 8.5625 7.56287Z" />
</svg>
