<svg height="17" viewBox="0 0 17 17" width="17" xmlns="http://www.w3.org/2000/svg"><path d="m13.5694949 6.61309603c.9395655 0 1.6984454-.77694844 1.6984454-1.716514 0-.95763412-.7588799-1.716514-1.6984454-1.716514-.9395656 0-1.6984455.77694844-1.6984455 1.716514s.6866056 1.716514 1.6984455 1.716514zm-.9576342 3.23427374c-1.1383198 0-1.7526511-.2890971-2.2766396-.56012562-.5059199-.25295996-.95763411-.46978278-1.89719967-.46978278-.93956555 0-1.37321119.21682282-1.89719968.46978278-.52398848.25295995-1.1383198.56012562-2.27663961.56012562s-1.75265114-.2890971-2.27663962-.56012562c-.46978278-.23489139-.88535985-.43364564-1.69844543-.46978278-.10841141 0-.19875425-.09034284-.19875425-.19875425v-.46978278c0-.10841141.09034284-.19875425.21682282-.19875425 1.01183983.03613713 1.57196545.30716566 2.0598168.54205705.50591991.25295996.95763412.46978278 1.89719968.46978278.93956555 0 1.37321119-.21682282 1.89719968-.46978278.52398848-.25295996 1.1383198-.56012562 2.27663961-.56012562s1.75265117.28909709 2.27663957.56012562c.50592.25295996.9576342.46978278 1.8971997.46978278.9395656 0 1.3732112-.21682282 1.8971997-.46978278.5059199-.23489139 1.047977-.52398849 2.0598168-.54205705.1084114 0 .2168228.09034284.2168228.19875425v.46978278c0 .10841141-.0903428.19875425-.1987542.19875425-.8130856.03613714-1.2286627.23489139-1.6984455.46978278-.5239884.25295995-1.1383198.56012562-2.2766396.56012562zm-5.78194185-7.57073015c-.27102853-.65046847.19875425-1.17445695.56012562-1.26479979l5.09533623-.93956556h.1084115c.542057 0 .9757027.43364565.9757027.9757027 0 .48785134-.3433028.88535985-.8311542.97570269l-3.28847944.61433132 2.92710804 5.2579534c-.7588798-.03613714-1.1744569-.23489139-1.6261711-.45171421-.5239885-.25295996-1.13831982-.56012562-2.27663963-.56012562s-1.75265113.2890971-2.27663962.56012562c-.50591991.25295996-.95763412.46978278-1.89719968.46978278-.46978277 0-.81308557-.05420571-1.10218267-.14454855l4.13770216-2.4573253.88535985-.48785134-1.33707406-2.42118817c-.01806857-.0542057-.03613713-.09034284-.0542057-.12647997zm5.78194185 9.28724418c-1.1383198 0-1.7526511-.2890971-2.2766396-.5601257-.5059199-.2529599-.95763411-.4697827-1.89719967-.4697827-.93956555 0-1.37321119.2168228-1.89719968.4697827-.52398848.25296-1.1383198.5601257-2.27663961.5601257s-1.75265114-.2890971-2.27663962-.5601257c-.46978278-.2348913-.88535985-.4336456-1.69844543-.4697827-.10841141 0-.19875425-.0903429-.19875425-.1987543v-.46978277c0-.10841141.09034284-.19875425.21682282-.19875425 1.01183983.03613714 1.57196545.30716566 2.0598168.54205702.50591991.25296.95763412.4697828 1.89719968.4697828.93956555 0 1.37321119-.2168228 1.89719968-.4697828.52398848-.25295992 1.1383198-.56012559 2.27663961-.56012559s1.75265117.2890971 2.27663957.56012559c.50592.25296.9576342.4697828 1.8971997.4697828.9395656 0 1.3732112-.2168228 1.8971997-.4697828.5059199-.23489136 1.047977-.52398845 2.0598168-.54205702.1084114 0 .2168228.09034284.2168228.19875425v.46978277c0 .1084114-.0903428.1987543-.1987542.1987543-.8130856.0361371-1.2286627.2348914-1.6984455.4697827-.5239884.2710286-1.1383198.5601257-2.2766396.5601257z" transform="translate(0 2.722)"/></svg>