<svg height="17" viewBox="0 0 17 17" width="17" xmlns="http://www.w3.org/2000/svg"><path d="m4.17298581 2.20831049c-.40686418-.40686418-1.06472915-.40686418-1.47159333 0-.40686418.40483998-.40686418 1.06472915 0 1.46956913.40686418.40686418 1.06472915.40686418 1.47159333 0 .40686418-.40483998.40686418-1.06472915 0-1.46956913zm-1.42907851 14.39947701c.68822797-.7712202 2.63145988-3.1334615 3.27313125-3.4026801.30970258-.1295488.51414677-.0485808.85016396.0870406.38864638.1558634.99590635.4007916 2.29746689.3926948l-5.42283155-5.42283155c-.00809679 1.30358474.23683139 1.90882055.39269479 2.29949105.13562139.333993.21861359.5384372.08704059.850164-.26719439.6416714-2.62943567 2.5828791-3.40268004 3.271107-1.11735835 1.1173584.80158316 3.0484451 1.92501411 1.9250142zm7.7951938-15.68754931c-3.4957932.20849259-6.53816566 3.20228425-6.77499705 6.72641629l6.01592212 6.01592212c3.52413203-.2368314 6.51792373-3.2792039 6.72641633-6.77499709.2084925-3.50793843-2.4594029-6.17583391-5.9673414-5.96734132z" /></svg>