<svg height="17" viewBox="0 0 17 17" width="17"
  xmlns="http://www.w3.org/2000/svg">
  <g fill-rule="nonzero">
    <path d="m8.4902732 16.9753763c-2.26774743 0-4.39984536-.8831237-6.00336598-2.486732-1.60360825-1.6033453-2.48690722-3.7354433-2.48690722-6.00310306 0-2.2676598.88329897-4.39958248 2.48690722-6.00319072 3.31070618-3.30939176 8.69611338-3.31009279 12.00681958 0 3.3099175 3.31026804 3.3099175 8.69628868 0 12.00638148-1.6040464 1.6036082-3.7360567 2.4866443-6.0034536 2.4866443zm0-16.3136031c-2.00459794 0-4.00910825.76298453-5.53472681 2.28877835-1.47873711 1.47847422-2.29324742 3.44425257-2.29324742 5.53498969 0 2.09091236.81459794 4.05651546 2.29324742 5.53498966 1.47829897 1.4784743 3.44372681 2.292634 5.53472681 2.292634 2.0906495 0 4.0565155-.8141597 5.5348144-2.292634 3.0519382-3.0519381 3.0519382-8.01777832 0-11.06989172-1.525969-1.52588145-3.530567-2.28886598-5.5348144-2.28886598z"/>
    <path d="m8.4902732 16.9753763c-2.26774743 0-4.39984536-.8831237-6.00336598-2.486732-1.60360825-1.6033453-2.48690722-3.7354433-2.48690722-6.00310306 0-2.2676598.88329897-4.39958248 2.48690722-6.00319072 3.31070618-3.30939176 8.69611338-3.31009279 12.00681958 0 3.3099175 3.31026804 3.3099175 8.69628868 0 12.00638148-1.6040464 1.6036082-3.7360567 2.4866443-6.0034536 2.4866443zm0-16.3136031c-2.00459794 0-4.00910825.76298453-5.53472681 2.28877835-1.47873711 1.47847422-2.29324742 3.44425257-2.29324742 5.53498969 0 2.09091236.81459794 4.05651546 2.29324742 5.53498966 1.47829897 1.4784743 3.44372681 2.292634 5.53472681 2.292634 2.0906495 0 4.0565155-.8141597 5.5348144-2.292634 3.0519382-3.0519381 3.0519382-8.01777832 0-11.06989172-1.525969-1.52588145-3.530567-2.28886598-5.5348144-2.28886598z"/>
    <path d="m8.76306186 13.4993144c-1.34711856 0-2.70676805-.485201-3.6695464-1.364469-.05765979-.0524897-.11382989-.1062939-.16921134-.1616753-1.08291752-1.083268-1.61946907-2.58610309-1.47163917-4.12293814.13153093-1.36595876.79751031-3.04010825 2.27326804-3.64238144 2.62439691-1.07143815 3.86793814-2.3736031 3.5967268-3.76558763-.01139175-.06028866.0066598-.12250516.0491598-.16702062.0425-.04416495.1038402-.06396907.16447938-.05634536 1.78841753.2653402 3.41077833 1.08265464 4.69173713 2.3636134 1.321268 1.3214433 2.145768 2.99857216 2.3844691 4.85034536.0077989.06098969-.0144588.12189175-.0595.16351546-.0454794.04179897-.1079588.05836083-.1681598.04565464-1.6660877-.35901546-2.9367062.76596392-3.5756959 3.16760823-.3222114 1.2101547-1.231799 2.0914382-2.5607784 2.4813866-.47932986.1405567-.98161852.2082938-1.48530924.2082938zm.9675103-12.86505667c.08684021 1.09430928-.58097938 2.58443815-3.86171649 3.92402062-1.31942783.53847938-1.91889691 2.07233505-2.03929897 3.32823196-.13713917 1.42414433.35962887 2.81612889 1.36262887 3.81939179.05135051.0515257.1038402.1012989.15668041.1498453 1.22846907 1.1214742 3.15542783 1.5527835 4.79268552 1.0721392 1.1974485-.3513041 2.0149382-1.1381237 2.3017475-2.215433.6559897-2.46526288 2.0179175-3.71704123 3.7567371-3.48675257-.2683196-1.6666134-1.0392784-3.17479381-2.2396186-4.37557216-1.1630979-1.16336083-2.6214175-1.92617011-4.22984534-2.21587114z"/>
  </g>
</svg>
