<svg xmlns="http://www.w3.org/2000/svg"
  xmlns:xlink="http://www.w3.org/1999/xlink" width="29" height="29" viewBox="0 0 29 29">
  <defs>
    <path id="quicklinks-today-a" d="M26.3819444,19.3333333 C25.825809,19.3333333 25.375,18.8825243 25.375,18.3263889 L25.375,7.65277778 C25.375,6.54231944 24.4715694,5.63888889 23.3611111,5.63888889 L22.0520833,5.63888889 L22.0520833,6.64583333 C22.0520833,7.20196875 21.6012743,7.65277778 21.0451389,7.65277778 C20.4890035,7.65277778 20.0381944,7.20196875 20.0381944,6.64583333 L20.0381944,5.63888889 L15.4565972,5.63888889 L15.4565972,6.64583333 C15.4565972,7.20196875 15.0057882,7.65277778 14.4496528,7.65277778 C13.8935174,7.65277778 13.4427083,7.20196875 13.4427083,6.64583333 L13.4427083,5.63888889 L8.91145833,5.63888889 L8.91145833,6.64583333 C8.91145833,7.20196875 8.46064931,7.65277778 7.90451389,7.65277778 C7.34837847,7.65277778 6.89756944,7.20196875 6.89756944,6.64583333 L6.89756944,5.63888889 L5.63888889,5.63888889 C4.52843056,5.63888889 3.625,6.54231944 3.625,7.65277778 L3.625,23.3611111 C3.625,24.4715694 4.52843056,25.375 5.63888889,25.375 L23.3611111,25.375 C24.4715694,25.375 25.375,24.4715694 25.375,23.3611111 C25.375,22.8049757 25.825809,22.3541667 26.3819444,22.3541667 C26.9380799,22.3541667 27.3888889,22.8049757 27.3888889,23.3611111 C27.3888889,25.5820278 25.5820278,27.3888889 23.3611111,27.3888889 L5.63888889,27.3888889 C3.41797222,27.3888889 1.61111111,25.5820278 1.61111111,23.3611111 L1.61111111,7.65277778 C1.61111111,5.43186111 3.41797222,3.625 5.63888889,3.625 L6.89756944,3.625 L6.89756944,2.61805556 C6.89756944,2.06192014 7.34837847,1.61111111 7.90451389,1.61111111 C8.46064931,1.61111111 8.91145833,2.06192014 8.91145833,2.61805556 L8.91145833,3.625 L13.4427083,3.625 L13.4427083,2.61805556 C13.4427083,2.06192014 13.8935174,1.61111111 14.4496528,1.61111111 C15.0057882,1.61111111 15.4565972,2.06192014 15.4565972,2.61805556 L15.4565972,3.625 L20.0381944,3.625 L20.0381944,2.61805556 C20.0381944,2.06192014 20.4890035,1.61111111 21.0451389,1.61111111 C21.6012743,1.61111111 22.0520833,2.06192014 22.0520833,2.61805556 L22.0520833,3.625 L23.3611111,3.625 C25.5820278,3.625 27.3888889,5.43186111 27.3888889,7.65277778 L27.3888889,18.3263889 C27.3888889,18.8825243 26.9380799,19.3333333 26.3819444,19.3333333 Z M19.0670249,11.7031023 C19.3998053,11.246123 20.0465734,11.1409088 20.511679,11.4679986 C20.9766294,11.7950884 21.0837424,12.4307486 20.7508585,12.8876772 L15.6265684,19.9219645 C15.6153342,19.9373295 15.6037377,19.9523382 15.5917269,19.9670926 C15.126466,20.536002 14.434554,20.8901584 13.6935119,20.9386953 C13.6349078,20.942562 13.5763036,20.9444444 13.5178548,20.9444444 C12.837643,20.9444444 12.1764309,20.6866495 11.6810913,20.2232595 L8.37378846,17.1023987 C7.96133336,16.7131878 7.94808012,16.069031 8.344124,15.6636921 C8.74001256,15.2583531 9.39542635,15.2452268 9.80808854,15.6344885 L13.1120781,18.7522968 C13.2724629,18.9022829 13.459406,18.9147478 13.5558025,18.9081337 C13.6494035,18.9020285 13.824077,18.8677372 13.963443,18.7088985 L19.0670249,11.7031023 Z"/>
  </defs>
  <use xlink:href="#quicklinks-today-a"/>
</svg>
