<svg xmlns="http://www.w3.org/2000/svg" xmlns:xlink="http://www.w3.org/1999/xlink" xmlns:serif="http://www.serif.com/" width="100%" height="100%" viewBox="0 0 47 50" version="1.1" xml:space="preserve" style="fill-rule:evenodd;clip-rule:evenodd;stroke-linejoin:round;stroke-miterlimit:2;"><path id="ic_transaction_list-copy" serif:id="ic_transaction_list copy" d="M43.75,37.592l-0.748,-0.002c-1.365,0.335 -2.377,1.567 -2.377,3.035c-0,1.603 1.206,2.923 2.761,3.104l0.364,0.021l-0,6.25l-34.375,0c-5.178,0 -9.375,-4.197 -9.375,-9.375c-0,-40.625 -0,-34.375 -0,-34.375c-0,-3.452 2.798,-6.25 6.25,-6.25c43.75,-0 37.5,-0 37.5,-0l-0,37.592Zm-35.123,-0.002c-1.25,0.307 -2.205,1.366 -2.356,2.67l-0.021,0.365c-0,1.603 1.206,2.923 2.761,3.104l0.364,0.021l25.538,-0l-0.128,-0.377c-0.213,-0.696 -0.348,-1.426 -0.393,-2.179l-0.017,-0.569c-0,-0.693 0.075,-1.369 0.218,-2.02l0.285,-1.014l-26.251,-0.001Zm3.873,-18.84c-1.726,-0 -3.125,1.399 -3.125,3.125c-0,1.603 1.206,2.923 2.761,3.104l0.364,0.021l18.75,-0c1.726,-0 3.125,-1.399 3.125,-3.125c-0,-1.726 -1.399,-3.125 -3.125,-3.125l-18.75,-0Zm-0,-9.375c-1.726,-0 -3.125,1.399 -3.125,3.125c-0,1.603 1.206,2.923 2.761,3.104l0.364,0.021l18.75,-0c1.726,-0 3.125,-1.399 3.125,-3.125c-0,-1.726 -1.399,-3.125 -3.125,-3.125l-18.75,-0Z"/>
</svg>