<svg xmlns="http://www.w3.org/2000/svg" width="28" height="20" viewBox="0 0 28 20">
  <g fill="none" fill-rule="evenodd">
    <rect width="28" height="20" fill="#E92434"/>
    <polygon fill="#FFF" points="18.686 10.812 17.118 11.93 17.697 10.094 16.15 8.948 18.074 8.931 18.686 7.106 19.297 8.931 21.222 8.948 19.675 10.094 20.253 11.93 18.686 10.812 18.686 10.812"/>
    <path fill="#FFF" d="M17.4027613,6.31588587 C16.5555329,5.70011138 15.4903254,5.33333333 14.3333333,5.33333333 C11.5719096,5.33333333 9.33333333,7.42267117 9.33333333,10 C9.33333333,12.5773288 11.5719096,14.6666667 14.3333333,14.6666667 C15.4903254,14.6666667 16.5555329,14.2998886 17.4027613,13.6841141 C16.3048507,15.0935058 14.5916202,16 12.6666667,16 C9.35295817,16 6.66666667,13.3137085 6.66666667,10 C6.66666667,6.6862915 9.35295817,4 12.6666667,4 C14.5916202,4 16.3048507,4.90649423 17.4027613,6.31588587 Z"/>
  </g>
</svg>
