<svg width="28" height="21" viewBox="0 0 28 21"
  xmlns="http://www.w3.org/2000/svg">
  <path d="M26.6875 17.2266H25.8125V2.78906C25.8118 2.20911 25.5811 1.65312 25.171 1.24303C24.7609 0.832948 24.2049 0.602257 23.625 0.601562H4.375C3.79505 0.602257 3.23906 0.832948 2.82897 1.24303C2.41889 1.65312 2.18819 2.20911 2.1875 2.78906V17.2266H1.3125C1.19647 17.2266 1.08519 17.2727 1.00314 17.3547C0.921094 17.4368 0.875 17.548 0.875 17.6641V19.4141C0.875 19.7622 1.01328 20.096 1.25942 20.3421C1.50556 20.5883 1.8394 20.7266 2.1875 20.7266H25.8125C26.1606 20.7266 26.4944 20.5883 26.7406 20.3421C26.9867 20.096 27.125 19.7622 27.125 19.4141V17.6641C27.125 17.548 27.0789 17.4368 26.9969 17.3547C26.9148 17.2727 26.8035 17.2266 26.6875 17.2266ZM3.0625 2.78906C3.0625 2.44097 3.20078 2.10713 3.44692 1.86098C3.69306 1.61484 4.0269 1.47656 4.375 1.47656H23.625C23.9731 1.47656 24.3069 1.61484 24.5531 1.86098C24.7992 2.10713 24.9375 2.44097 24.9375 2.78906V17.2266H3.0625V2.78906ZM15.75 18.1016C15.75 18.2176 15.7039 18.3289 15.6219 18.4109C15.5398 18.493 15.4285 18.5391 15.3125 18.5391H12.6875C12.5715 18.5391 12.4602 18.493 12.3781 18.4109C12.2961 18.3289 12.25 18.2176 12.25 18.1016H15.75ZM26.25 19.4141C26.25 19.5301 26.2039 19.6414 26.1219 19.7234C26.0398 19.8055 25.9285 19.8516 25.8125 19.8516H2.1875C2.07147 19.8516 1.96019 19.8055 1.87814 19.7234C1.79609 19.6414 1.75 19.5301 1.75 19.4141V18.1016H11.375C11.375 18.4497 11.5133 18.7835 11.7594 19.0296C12.0056 19.2758 12.3394 19.4141 12.6875 19.4141H15.3125C15.6606 19.4141 15.9944 19.2758 16.2406 19.0296C16.4867 18.7835 16.625 18.4497 16.625 18.1016H26.25V19.4141Z" />
</svg>
