<svg height="17" viewBox="0 0 17 17" width="17" xmlns="http://www.w3.org/2000/svg"><path d="m.38000668 10.2566753 1.27508155-4.65562267h1.93623495s-1.08618058 3.87176783-1.1097932 3.96678054c-.02361263.09501271-.14167573.38005083.47225242.38005083.42502719 0 .47225243-.09501271.54309029-.38005083.16528835-.6175826 1.10979321-3.96678054 1.10979321-3.96678054h1.8890097s-1.25146893 4.51310357-1.32230679 4.75063537c-.11806311.4750636-.23612622.9026207-1.36953204.9026207-1.36953204 0-2.17236116 0-2.5501631 0-.47225243 0-1.03895534-.4513103-.87366699-.9976334zm7.03656115-4.64374608h4.10859617l-.3541893 1.2351652h-4.10859619zm-1.558433 5.62950288h1.91262232l.63754078-2.32781129h2.19597377l.3305767-1.2351652h-4.08498348zm6.28095727-4.81001828c.1416758-.47506353.377802-.83136119 1.0861806-.83136119h2.4084874c.6611534 0 1.2514689.42755719.9208922 1.2351652 0 0-1.8653971 0-2.1251359 0-.4486398 0-.4722524.14251906-.4958651.23753177-.0708378.23753177-.6375407 2.35156451-.684766 2.44657722-.0708378.23753177-.0944505.49881668.2597389.49881668h2.3140369s.0472252 1.2351652-1.4639826 1.2351652c-1.5112077 0-1.9362349 0-2.1959738 0-.5430902 0-1.2750815-.2375317-.9681174-1.2351652.0236126-.28503809.8264417-3.20667885.9445048-3.58672968z" /></svg>