<svg xmlns="http://www.w3.org/2000/svg" xmlns:xlink="http://www.w3.org/1999/xlink" width="28" height="20" viewBox="0 0 28 20">
  <defs>
    <rect id="uk&amp;eire-a" width="28" height="20"/>
  </defs>
  <g fill="none" fill-rule="evenodd">
    <mask id="uk&amp;eire-b" fill="#fff">
      <use xlink:href="#uk&amp;eire-a"/>
    </mask>
    <use fill="#0A17A7" xlink:href="#uk&amp;eire-a"/>
    <path fill="#FFF" d="M6.67374124,13.3333333 L0,13.3333333 L0,6.66666667 L6.67374124,6.66666667 L-2.77365027,0.29432063 L-1.2824692,-1.91644623 L10.6666667,6.14334768 L10.6666667,-1.33333333 L17.3333333,-1.33333333 L17.3333333,6.14334768 L29.2824692,-1.91644623 L30.7736503,0.29432063 L21.3262588,6.66666667 L28,6.66666667 L28,13.3333333 L21.3262588,13.3333333 L30.7736503,19.7056794 L29.2824692,21.9164462 L17.3333333,13.8566523 L17.3333333,21.3333333 L10.6666667,21.3333333 L10.6666667,13.8566523 L-1.2824692,21.9164462 L-2.77365027,19.7056794 L6.67374124,13.3333333 Z" mask="url(#uk&amp;eire-b)"/>
    <path stroke="#DB1F35" stroke-linecap="round" stroke-width=".667" d="M18.6679688,6.33219401 L31.3333333,-2" mask="url(#uk&amp;eire-b)"/>
    <path stroke="#DB1F35" stroke-linecap="round" stroke-width=".667" d="M20.0127767,21.3503418 L31.3666178,13.6975098" mask="url(#uk&amp;eire-b)" transform="matrix(1 0 0 -1 0 35.048)"/>
    <path stroke="#DB1F35" stroke-linecap="round" stroke-width=".667" d="M8.00553385,6.31046549 L-3.83748372,-1.67097982" mask="url(#uk&amp;eire-b)"/>
    <path stroke="#DB1F35" stroke-linecap="round" stroke-width=".667" d="M9.29003906,22.3104655 L-3.83748372,13.6048991" mask="url(#uk&amp;eire-b)" transform="matrix(1 0 0 -1 0 35.915)"/>
    <polygon fill="#E6273E" points="0 12 12 12 12 20 16 20 16 12 28 12 28 8 16 8 16 0 12 0 12 8 0 8" mask="url(#uk&amp;eire-b)"/>
  </g>
</svg>
