<svg xmlns="http://www.w3.org/2000/svg" width="28" height="20" viewBox="0 0 28 20">
  <g fill="none" fill-rule="evenodd">
    <rect width="28" height="20" fill="#FFF"/>
    <rect width="14.667" height="2.667" x="13.333" fill="#0E4DC5"/>
    <rect width="14.667" height="2.667" x="13.333" y="5.333" fill="#0E4DC5"/>
    <rect width="28" height="2.667" y="10.667" fill="#0E4DC5"/>
    <rect width="28" height="2.667" y="16" fill="#0E4DC5"/>
    <path fill="#FED443" d="M7,7.47077329 L6.10991626,8.7994233 L5.88445816,7.21615815 L4.50604079,8.02703758 L4.98986306,6.50274236 L3.39612453,6.63524661 L4.49340024,5.47182669 L3,4.89971165 L4.49340024,4.32759661 L3.39612453,3.16417669 L4.98986306,3.29668093 L4.50604079,1.77238572 L5.88445816,2.58326515 L6.10991626,1 L7,2.32865 L7.89008374,1 L8.11554184,2.58326515 L9.49395921,1.77238572 L9.01013694,3.29668093 L10.6038755,3.16417669 L9.50659976,4.32759661 L11,4.89971165 L9.50659976,5.47182669 L10.6038755,6.63524661 L9.01013694,6.50274236 L9.49395921,8.02703758 L8.11554184,7.21615815 L7.89008374,8.7994233 L7,7.47077329 Z M7,7.44516619 C8.40581573,7.44516619 9.54545455,6.30552738 9.54545455,4.89971165 C9.54545455,3.49389592 8.40581573,2.3542571 7,2.3542571 C5.59418427,2.3542571 4.45454545,3.49389592 4.45454545,4.89971165 C4.45454545,6.30552738 5.59418427,7.44516619 7,7.44516619 Z M7,6.81613802 C5.8954305,6.81613802 5,5.92070752 5,4.81613802 C5,3.71156852 5.8954305,2.81613802 7,2.81613802 C8.1045695,2.81613802 9,3.71156852 9,4.81613802 C9,5.92070752 8.1045695,6.81613802 7,6.81613802 Z"/>
  </g>
</svg>
