<svg width="104" height="98" viewBox="0 0 104 98"  xmlns="http://www.w3.org/2000/svg">
<path d="M5.41636 37.7911L3.91333 39.8563L35.8828 64.3687L38.4505 70.3722L33.4413 75.9589L29.3025 74.7554C27.821 74.2634 26.167 74.7694 25.1435 76.1089L22.9846 78.8526L41.045 93.2783L43.1565 90.7119C44.2449 89.4848 44.3174 87.7959 43.4747 86.3363L41.3351 82.6304L44.9971 77.8215L50.3197 81.3361C52.0135 82.4541 54.1993 82.0906 55.4471 80.6216L68.932 64.3024C70.3397 62.5912 70.0237 60.2281 68.4249 58.7555C68.4249 58.7555 68.3604 58.6437 68.248 58.7086L63.504 55.159L64.7993 53.5127L69.322 54.3454C72.3806 54.9745 75.499 54.6713 78.3885 53.4526L84.1987 54.4399C87.901 55.1469 91.3471 52.5585 92.0547 48.8559C92.132 48.2125 92.2094 47.5691 92.175 46.9902C92.0232 45.4308 91.4224 44.1306 90.3074 42.9781L91.1238 42.0572C92.5959 40.4587 92.3277 37.9189 90.6814 36.6236L68.4679 17.8575C66.7567 16.4498 64.3296 16.6536 63.0343 18.2999L62.9219 18.3648L61.7865 19.7689C58.7531 17.6274 54.6063 18.2246 52.2701 20.9207C50.4782 23.0036 50.0731 25.9322 51.098 28.4847L53.5837 34.0867C53.2429 37.128 53.7234 40.2939 54.9904 43.0063L56.7925 46.9064L55.4972 48.5527C54.5942 48.0257 53.4838 47.9182 52.3438 48.2774L48.0722 49.6953L21.1369 28.7148L19.4575 30.7328L34.8216 42.8231L25.5725 53.2534L5.41636 37.7911ZM41.186 88.8552L40.6425 89.4687L26.6171 78.4017L27.0966 77.676C27.4807 77.3043 27.9947 77.1575 28.4611 77.1879L34.2588 78.9309L38.6183 82.8516L41.2116 87.3432C41.5357 87.9047 41.5061 88.3713 41.186 88.8552ZM39.7972 80.2249L36.1155 76.9605L39.5397 73.0375C39.8165 73.7754 40.2526 74.2723 40.9139 74.639L42.9143 76.0297L39.7972 80.2249ZM67.0172 60.4667C67.5662 60.8984 67.7304 61.702 67.2988 62.251L65.4591 64.5106L60.4857 60.0458L58.7414 61.9514L63.7147 66.4161L60.899 69.838L56.056 65.5977L54.3111 67.5036L59.2196 71.856L56.4047 75.2781L51.7381 71.0851L49.9932 72.991L54.8368 77.2309L53.7014 78.635C53.2697 79.184 52.5785 79.2833 52.0295 78.8517L42.5288 72.5092C42.2866 72.3493 42.1571 72.125 42.0273 71.9002L38.5176 63.7459L48.5825 52.395L53.1914 50.7824C53.593 50.7004 54.0596 50.73 54.3667 51.0023L67.0172 60.4667ZM89.6351 47.2584C89.8862 49.5091 88.2717 51.6395 85.9086 51.9555C85.507 52.0374 85.1528 51.943 84.6863 51.9125L82.2239 51.5373C83.2822 50.7771 84.1629 49.9689 85.0915 48.984L88.6277 44.9955C89.194 45.7169 89.4707 46.4556 89.6351 47.2584ZM54.1282 22.8424C55.6486 21.0668 58.1232 20.6857 60.0592 21.9636L57.1485 25.7401C56.1255 27.0793 55.2317 28.6436 54.6273 30.1901L53.4906 27.7021C52.6955 26.0652 52.9282 24.1347 54.1282 22.8424ZM57.3831 42.2237C55.174 37.3604 55.7597 31.6322 59.1664 27.4195L64.8923 20.2215C65.324 19.6726 66.1276 19.5083 66.676 19.9403L88.8892 38.7059C89.1963 38.9782 89.3258 39.2024 89.408 39.6045C89.4251 39.8937 89.3306 40.2479 89.0583 40.555L83.0732 47.304C79.6969 51.0502 74.6868 52.7453 69.8097 51.8181L63.7573 50.671L61.6459 53.2373L57.6276 50.1673L59.7865 47.4236L57.3831 42.2237ZM36.9519 44.4377L39.4534 46.4367L32.54 54.1712L34.4456 55.9155L41.5187 47.9397L45.9086 51.394L36.7714 61.7597L27.7023 54.8683L36.9519 44.4377Z" fill-opacity="0.2"/>
</svg>
