<svg xmlns="http://www.w3.org/2000/svg"
  xmlns:xlink="http://www.w3.org/1999/xlink" width="29" height="29" viewBox="0 0 29 29">
  <defs>
    <path id="quicklinks-color-color-a" d="M10.4287914,23.5377913 C11.5833241,24.0017045 12.8375987,24.2562338 14.1481014,24.2562338 C18.1326645,24.2562338 21.5974233,21.9064364 23.3193014,18.4690478 C23.1742346,18.6157064 23.020659,18.7635933 22.8583491,18.9114803 C21.2528318,20.3673518 18.4400159,22.1052164 14.1417805,22.1052164 L10.1868431,22.1052164 C10.3586261,22.424146 10.4566757,22.7910582 10.4566757,23.1807251 C10.4566757,23.3022774 10.4471349,23.4215504 10.4287914,23.5377913 Z M8.48290786,22.1052164 L8.15765024,22.1052164 C7.65940559,22.1864118 7.27724571,22.6347465 7.27724571,23.1741671 C7.27724571,23.7709433 7.74499485,24.2562338 8.32019989,24.2562338 C8.89540492,24.2562338 9.36315407,23.7709433 9.36315407,23.1741671 C9.36886751,22.6347465 8.98209241,22.1864118 8.48290786,22.1052164 Z M8.03487545,20.9838019 C8.12825304,20.970827 8.22349953,20.9641279 8.32019989,20.9641279 C8.4165892,20.9641279 8.51153397,20.9708281 8.60462318,20.9838019 L12.4328737,20.9838019 C12.1684348,20.6148242 12.0116256,20.1584316 12.0116256,19.6656479 C12.0116256,18.4458637 12.9724076,17.4490508 14.1481014,17.4490508 C14.7355464,17.4490508 15.2693369,17.6979134 15.6564302,18.0991066 C16.0450938,17.5394671 16.6784787,17.1736156 17.3907408,17.1736156 C17.5501729,17.1736156 17.7056529,17.1919462 17.8553209,17.2266777 C17.8448956,17.1383139 17.8395272,17.048381 17.8395272,16.9572023 C17.8395272,15.7374181 18.8003092,14.7406052 19.976003,14.7406052 C21.1516968,14.7406052 22.1124788,15.7374181 22.1124788,16.9572023 C22.1124788,18.1769865 21.1516968,19.1737995 19.976003,19.1737995 C19.8165709,19.1737995 19.6610909,19.1554689 19.5114229,19.1207374 C19.5218482,19.2091012 19.5272167,19.2990341 19.5272167,19.3902128 C19.5272167,19.545134 19.5117185,19.6964584 19.4822502,19.8426008 C22.7114141,18.3065274 24.118221,15.7137565 24.3429432,15.2660982 C24.430821,14.7042964 24.4765083,14.1278923 24.4765083,13.5404949 C24.4765083,7.62519715 19.8432634,2.82475598 14.1481014,2.82475598 C8.45293951,2.82475598 3.81969457,7.63175513 3.81969457,13.5404949 C3.81969457,16.4292647 4.92713766,19.0546953 6.72468965,20.9838019 L8.03487545,20.9838019 Z M4.97822021,22.1052164 C4.47997557,22.1864118 4.09781568,22.6347465 4.09781568,23.1741671 C4.09781568,23.7709433 4.56556483,24.2562338 5.14076986,24.2562338 C5.7159749,24.2562338 6.18372405,23.7709433 6.18372405,23.1741671 C6.18372405,22.6347465 5.80156416,22.1864118 5.30331952,22.1052164 L4.97822021,22.1052164 Z M5.25305631,20.9671705 C3.67319791,18.9344403 2.72617291,16.3507444 2.72617291,13.5404949 C2.72617291,7.00218907 7.84612981,1.69022549 14.1481014,1.69022549 C20.4500731,1.69022549 25.57003,7.00218907 25.57003,13.5404949 C25.57003,14.1256801 25.5289662,14.7010419 25.4496756,15.2636509 C26.2084093,16.3679323 26.4905791,17.5191807 26.2906165,18.688509 C25.9787233,20.5368096 24.5217751,21.940185 23.5577306,22.6838144 L24.6471735,25.0759812 L24.6534945,25.0956552 C25.0011459,25.8891707 24.9379365,26.7941719 24.4828293,27.5221077 C24.027722,28.2500434 23.2628889,28.6828701 22.4285256,28.6828701 L6.51873357,28.6828701 C5.68437023,28.6828701 4.91953716,28.2500434 4.46442988,27.5221077 C4.06961905,26.8817207 3.96832395,26.1042984 4.18206247,25.3907643 L3.54789439,25.3907643 L3.00429402,24.826778 L3.00429402,21.5477881 L3.54789439,20.9838019 L4.85544543,20.9838019 C4.94882302,20.970827 5.0440695,20.9641279 5.14076986,20.9641279 C5.17842733,20.9641279 5.21586431,20.9651506 5.25305631,20.9671705 Z M6.5396171,25.3907643 L5.36186288,25.3907643 L5.27983042,25.5809457 C5.09020239,26.0137723 5.128128,26.5187368 5.38096537,26.9187735 C5.63380275,27.3188103 6.05730536,27.5614555 6.51873357,27.5614555 L22.4285256,27.5614555 C22.8899538,27.5614555 23.3134564,27.3188103 23.5662938,26.9187735 C23.8191311,26.5187368 23.8570567,26.0137723 23.6611078,25.5678297 L22.6355543,23.3159495 C22.3293895,23.5032269 22.0119148,23.6779953 21.6833295,23.8401857 L22.6876839,26.0400042 C22.7445723,26.1711638 22.6940048,26.2826495 22.6687211,26.3219974 C22.6434373,26.3613453 22.5675861,26.453157 22.4285256,26.453157 L6.51873357,26.453157 C6.37967302,26.453157 6.3038218,26.3613453 6.27853806,26.3219974 C6.25325433,26.2826495 6.20268685,26.1711638 6.25957526,26.0400042 L6.5396171,25.3907643 Z M22.4597751,22.0900603 C22.4620012,22.0885551 22.4642266,22.0870492 22.4664512,22.0855425 C23.1933586,21.593694 24.9126528,20.2558661 25.2160576,18.4786536 C25.3035341,17.969406 25.2602357,17.4562818 25.0890351,16.9482225 C24.5298402,18.8778815 23.5084119,20.6014202 22.1590419,21.9801781 L22.4597751,22.0900603 Z M16.0555317,25.3120685 L21.1580177,25.3120685 L20.6862688,24.2804053 C19.3078084,24.821669 17.7601793,25.1669574 16.0555317,25.3120685 Z M9.47060996,14.46517 C8.29491615,14.46517 7.33413412,13.4683571 7.33413412,12.2485729 C7.33413412,11.0287886 8.29491615,10.0319757 9.47060996,10.0319757 C10.6463038,10.0319757 11.6070858,11.0287886 11.6070858,12.2485729 C11.6070858,13.4683571 10.6526247,14.46517 9.47060996,14.46517 Z M9.47060996,11.1665062 C8.89540492,11.1665062 8.42765577,11.6517967 8.42765577,12.2485729 C8.42765577,12.845349 8.89540492,13.3306395 9.47060996,13.3306395 C10.045815,13.3306395 10.5135641,12.845349 10.5135641,12.2485729 C10.5198851,11.6517967 10.0521359,11.1665062 9.47060996,11.1665062 Z M14.1481014,18.5835813 C13.5728964,18.5835813 13.1051473,19.0688718 13.1051473,19.6656479 C13.1051473,20.2624241 13.5728964,20.7477146 14.1481014,20.7477146 C14.7233065,20.7477146 15.1910556,20.2624241 15.1910556,19.6656479 C15.1910556,19.0688718 14.7233065,18.5835813 14.1481014,18.5835813 Z M21.328683,14.1241551 C20.1529892,14.1241551 19.1922071,13.1273421 19.1922071,11.9075579 C19.1922071,10.6877737 20.1529892,9.69096077 21.328683,9.69096077 C22.5043768,9.69096077 23.4651588,10.6877737 23.4651588,11.9075579 C23.4651588,13.1273421 22.5043768,14.1241551 21.328683,14.1241551 Z M21.328683,10.8254913 C20.7534779,10.8254913 20.2857288,11.3107818 20.2857288,11.9075579 C20.2857288,12.5043341 20.7534779,12.9896246 21.328683,12.9896246 C21.903888,12.9896246 22.3716371,12.5043341 22.3716371,11.9075579 C22.3716371,11.3107818 21.903888,10.8254913 21.328683,10.8254913 Z M19.976003,15.8751357 C19.400798,15.8751357 18.9330488,16.3604262 18.9330488,16.9572023 C18.9330488,17.5539785 19.400798,18.039269 19.976003,18.039269 C20.551208,18.039269 21.0189572,17.5539785 21.0189572,16.9572023 C21.0189572,16.3604262 20.551208,15.8751357 19.976003,15.8751357 Z M8.67417222,20.2296342 C7.49847841,20.2296342 6.53769638,19.2328213 6.53769638,18.013037 C6.53769638,16.7932528 7.49847841,15.7964399 8.67417222,15.7964399 C9.84986602,15.7964399 10.8106481,16.7932528 10.8106481,18.013037 C10.8043271,19.2393793 9.84986602,20.2296342 8.67417222,20.2296342 Z M8.67417222,16.9309704 C8.09896718,16.9309704 7.63121803,17.4162609 7.63121803,18.013037 C7.63121803,18.6098132 8.09896718,19.0951037 8.67417222,19.0951037 C9.24937725,19.0951037 9.7171264,18.6098132 9.7171264,18.013037 C9.7171264,17.4162609 9.24937725,16.9309704 8.67417222,16.9309704 Z M14.3187667,17.055572 C13.1430729,17.055572 12.1822908,16.0587591 12.1822908,14.8389749 C12.1822908,13.6191906 13.1430729,12.6223777 14.3187667,12.6223777 C15.4944605,12.6223777 16.4552425,13.6191906 16.4552425,14.8389749 C16.4552425,16.0587591 15.4944605,17.055572 14.3187667,17.055572 Z M14.3187667,13.7569082 C13.7435616,13.7569082 13.2758125,14.2421987 13.2758125,14.8389749 C13.2758125,15.435751 13.7435616,15.9210415 14.3187667,15.9210415 C14.8939717,15.9210415 15.3617209,15.435751 15.3617209,14.8389749 C15.3617209,14.2421987 14.8939717,13.7569082 14.3187667,13.7569082 Z M17.3907408,18.3081461 C16.8155358,18.3081461 16.3477866,18.7934366 16.3477866,19.3902128 C16.3477866,19.9869889 16.8155358,20.4722794 17.3907408,20.4722794 C17.9659458,20.4722794 18.433695,19.9869889 18.433695,19.3902128 C18.433695,18.7934366 17.9659458,18.3081461 17.3907408,18.3081461 Z M15.3048324,9.940164 C14.1291386,9.940164 13.1683566,8.94335108 13.1683566,7.72356685 C13.1683566,6.50378262 14.1291386,5.5069697 15.3048324,5.5069697 C16.4805263,5.5069697 17.4413083,6.50378262 17.4413083,7.72356685 C17.4413083,8.94335108 16.4805263,9.940164 15.3048324,9.940164 Z M15.3048324,6.64150019 C14.7296274,6.64150019 14.2618783,7.12679069 14.2618783,7.72356685 C14.2618783,8.320343 14.7296274,8.8056335 15.3048324,8.8056335 C15.8800375,8.8056335 16.3477866,8.320343 16.3477866,7.72356685 C16.3477866,7.12679069 15.8800375,6.64150019 15.3048324,6.64150019 Z"/>
  </defs>
  <use xlink:href="#quicklinks-color-color-a"/>
</svg>
