<svg width="54" height="19" viewBox="0 0 54 19" xmlns="http://www.w3.org/2000/svg">
<path fill-rule="evenodd" clip-rule="evenodd" d="M15.692 18.645L18.646 0.841959H23.366L20.413 18.645H15.693H15.692ZM37.537 1.27996C36.604 0.922959 35.137 0.532959 33.307 0.532959C28.64 0.532959 25.354 2.94896 25.327 6.40896C25.297 8.96896 27.671 10.395 29.461 11.246C31.301 12.118 31.919 12.676 31.911 13.446C31.898 14.638 30.443 15.186 29.085 15.186C27.185 15.186 26.191 14.916 24.638 14.252L24.031 13.969L23.371 17.954C24.471 18.45 26.511 18.88 28.631 18.904C33.591 18.904 36.814 16.517 36.851 12.824C36.868 10.794 35.611 9.25696 32.886 7.98696C31.236 7.16096 30.224 6.61496 30.236 5.77896C30.237 5.03896 31.091 4.24696 32.94 4.24696C34.484 4.22296 35.602 4.56896 36.473 4.93096L36.897 5.13496L37.537 1.27496V1.27996ZM43.823 12.329L45.703 7.35296C45.675 7.39996 46.103 6.32296 46.33 5.65496L46.65 7.18996L47.742 12.33H43.822L43.823 12.329ZM49.647 0.855959H46C44.868 0.855959 44.02 1.17096 43.526 2.33196L36.526 18.648H41.484L42.477 15.971L48.523 15.981L49.098 18.648H53.48L49.66 0.847959L49.647 0.855959ZM11.732 0.852959L7.112 13L6.617 10.533C5.757 7.68996 3.077 4.60896 0.0770035 3.06496L4.304 18.635L9.3 18.632L16.734 0.861959H11.73" />
</svg>
