<svg height="17" viewBox="0 0 17 17" width="17" xmlns="http://www.w3.org/2000/svg"><g fill-rule="evenodd"><path d="m8.48796923 16.9756769c-4.68023077 0-8.48796923-3.8077384-8.48796923-8.48796921 0-4.68023077 3.80773846-8.48770769 8.48796923-8.48770769 4.68014357 0 8.48788207 3.8075641 8.48788207 8.48770769 0 4.68023081-3.8077385 8.48796921-8.48788207 8.48796921zm0-16.31677434c-4.31695385 0-7.82906667 3.51211282-7.82906667 7.82889231 0 4.31695383 3.51211282 7.82897953 7.82906667 7.82897953 4.31695387 0 7.82897947-3.5121129 7.82897947-7.82897953 0-4.31686666-3.5121128-7.82889231-7.82897947-7.82889231z" fill-rule="nonzero"/><path d="m4.60482051 15.9003179-.30922564-.2148974.10775385-.1545692c1.49094359-2.1442667 2.72087179-5.1620718 3.30619487-8.10315899-1.73251795-.62010769-3.55657436-3.88898975-3.53338462-5.8012718l.00217949-.18822051.37652821.00462051-.00217949.18804616c-.02205641 1.81394359 1.80897436 5.07166666 3.42092308 5.48454871.09633333.0246718.15701025.12004616.13817948.21768718-.58131282 3.04212824-1.85195384 6.18712824-3.3995641 8.41290774z"/><path d="m16.2750154 8.5480359-.1765385-.0650359c-2.5105077-.92514872-5.1232769-1.2516359-7.99078459-.99768205l-.18752308.0165641-.0331282-.37504615.18752307-.01656411c2.9238256-.25883589 5.5902103.0748 8.1540718 1.01938975l.1765385.0650359z"/><path d="m8.15851795 16.7402923c-.01691282 0-.03417436-.0046205-.04969231-.0141231-.04411282-.0273743-.05771282-.0853487-.03051282-.1296359 2.57083588-4.1523589 3.15729228-9.2971692 3.16313338-9.34869227.0055794-.0514359.0452461-.08874872.1036564-.08325641.051523.00566666.0890102.05222051.083082.10391794-.0054923.0518718-.5967436 5.23887694-3.18963588 9.42732824-.01795898.028682-.04882051.0444615-.08003077.0444615zm3.96910765-.8570615c-.0172615 0-.034523-.0047949-.0503897-.0144718-.0437641-.0279846-.0570154-.0860462-.0290308-.1299846 2.3380667-3.6911795 2.442159-7.74502568 2.4428564-7.78565132.0011334-.05195898.0382718-.08874872.0959847-.09232308.0518717.00113333.0933692.04393846.092323.09598462-.0006974.04097435-.1047897 4.14555898-2.472323 7.88268208-.0176975.0283333-.0482103.0437641-.0794206.0437641zm3.8628359-10.51053336c-.0117692 0-.0238871-.00217949-.0353077-.0068-4.7202461-1.9112359-10.47043072-.64277436-10.52744611-.62969744-.04890769.01194359-.10147692-.02005128-.11289743-.0709641-.01133334-.05073846.02057436-.10112821.0709641-.11246154.05849743-.01325128 5.86412824-1.29531282 10.63999484.63850256.0481231.01961539.0713129.07445129.0518718.12266154-.0147333.03652821-.050041.05875898-.0871795.05875898zm-11.55258971-2.90351282c-.05187179 0-.09415384-.0421077-.09415384-.09415385 0-.05753846.04594359-.09153846.06137436-.10278462.29048205-.21437436 4.32758974-1.65022051 9.64579999-.01691282.0496051.01525641.0775898.06782564.0625077.11743077-.0154308.04986667-.0684359.07846154-.1176923.06233334-5.1625077-1.58448718-9.21583078-.20626667-9.47580001-.01412308-.01621538.02885641-.0467282.04821026-.0820359.04821026zm2.42088718 8.35641538c-.00993846 0-.01987692-.0014821-.02981538-.0049692-4.61842051-1.54717439-5.1442-5.9586308-5.20234872-6.82728721l-.00217949-.02990256c-.00584102-.05152308.03121026-.09816411.08308206-.10391795.0437641-.00897949.09746666.03068718.10365641.08238461l.0029641.03879487c.05701538.84764616.56989231 5.15248206 5.07436923 6.66164614.04925641.0163898.07610769.069918.05954359.1190872-.0131641.0394051-.04995385.0641641-.0892718.0641641zm-1.19610256 3.0732513c-.00331282 0-.00697436-.0001744-.01072308-.0005231-2.58661538-.2985897-5.12728718-3.4792461-5.41550256-5.39667179-.00775897-.0514359.02754872-.09929744.07907179-.10696923.05474872-.00775897.09929744.02789744.10696924.07907179.27984615 1.86119483 2.74362564 4.94804613 5.25082051 5.23739483.05187179.0061026.08901025.0527436.08273333.1044411-.00549231.0480359-.04594359.0832564-.09336923.0832564z"/></g></svg>