<svg xmlns="http://www.w3.org/2000/svg" width="28" height="20" viewBox="0 0 28 20">
  <g fill="none">
    <rect width="28" height="20" fill="#FFF"/>
    <rect width="28" height="10.667" y="9.333" fill="#74C819"/>
    <rect width="28" height="9.333" fill="#FFF"/>
    <path fill="#D0021B" d="M10.7550456,15.1944987 L12.4033203,14.9135743 L11.1269531,14.3116861 L12,13.8224284 C12,13.8224284 13.4713541,15.0648329 13.4713541,14.6666667 C13.4713541,14.2388439 14.8555619,14.4259404 14.8001303,13.8224284 C14.7242805,12.9966156 13.2682611,13.7619279 13.0083008,12.7296549 C12.8631122,12.1531277 12.4033203,12.2265625 12.4033203,12.2265625 L10.9371745,12.7296549 L10.2070313,13.8224284 L9.84440104,12.7296549 C9.84440104,12.7296549 8.988505,13.4252712 8.70377604,13.8224284 C8.39947505,14.2468857 8.0773112,15.1944987 8.0773112,15.1944987 L9.57275391,15.8194987 L7.39192708,15.4352213 L5.80061849,15.8194987 L4.82373047,16.0911459 L5.25276692,15.6404623 L4.37776692,15.1944987 L5.25276692,14.6666667 L4.82373047,14.3116861 L6.71435547,14.6666667 C6.71435547,14.6666667 7.40532157,14.5972209 7.66650391,14.3116861 C7.99592488,13.9515504 8.25455729,12.7296549 8.25455729,12.7296549 L7.39192708,12.2265625 L6.71435547,13.4550781 C6.71435547,13.4550781 6.24693713,12.2928612 5.80061849,11.6416016 C5.46807428,11.1563594 4.37776693,10.0455729 4.37776693,10.0455729 L2.97167969,10.7849935 L3.75569661,9.22167969 C3.75569661,9.22167969 4.37776693,8.67838541 3.98258464,8.12125651 C3.58740235,7.5641276 3.25553385,6.31705729 3.25553385,6.31705729 C3.25553385,6.31705729 4.07948239,7.74559548 4.37776693,7.63509115 C4.7997756,7.47875121 3.85169407,6.17555277 4.37776693,5.94352213 C4.75631929,5.77655715 4.82373047,7.4375 4.82373047,7.4375 L5.25276693,6.6225586 L5.25276693,7.63509115 C5.25276693,7.63509115 5.00363587,8.84514368 5.42708333,9.5641276 C5.8505308,10.2831115 7.10791016,10.7849935 7.10791016,10.7849935 C7.10791016,10.7849935 6.78086608,10.0635602 7.10791016,8.67838541 C7.32924937,7.74091697 8.11661481,6.14128479 8.48616536,5.62874349 C8.68141747,5.35794219 6.9243164,6.6225586 6.9243164,6.6225586 L6.9243164,5.62874349 L5.25276693,5.45735677 L4.82373047,5.94352213 L3.75569661,4.19173177 L5.08463541,4.86002604 L7.10791016,4.86002604 L6.71435547,4.37695312 L5.08463541,4.37695312 C5.08463541,4.37695312 5.42708333,3.67154948 7.10791016,3.67154948 L7.90266927,3.13151041 C7.90266927,3.13151041 8.98934016,3.16249671 9.60082731,3.18578128 C10.1455358,3.20652301 11.1269531,2.515625 11.1269531,2.515625 L11.4031575,3.18578124 L10.7550456,4.19173177 L11.4031575,4.86002604 L11.1269531,5.27213541 L11.6022135,5.94352213 L10.7550456,5.94352213 L11.4031575,6.98828125 L10.7550456,6.6225586 L11.1269531,7.63509115 L10.7550456,8.67838541 L12.4033203,8.12125651 C12.4033203,8.12125651 12.4033203,6.6225586 13.0083008,5.94352213 C14.8557799,4.04850395 17.8683268,2.515625 17.8683268,2.515625 C17.8683268,2.515625 17.7087356,3.89209771 18.1544596,4 C18.8016231,4.15666739 21.6279297,2.86604817 21.6279297,2.86604817 C21.6279297,2.86604817 19.9298513,4.69383192 20.2775065,4.86002604 C20.4647867,4.949554 20.7760416,5.27213541 20.7760416,5.27213541 C20.7760416,5.27213541 19.3082891,6.47192851 19.0629883,6.98828125 C18.8176876,7.504634 19.422526,8.12125651 19.422526,8.12125651 C19.422526,8.12125651 18.1544596,8.12125651 17.5226237,8.67838541 C19.422526,8.67838541 20.9766013,9.5789506 21.8964844,8.91455079 C22.5129172,8.46932261 19.6892468,8.74722165 20.0598959,7.63509115 C20.1974403,7.22238967 20.5568033,6.74464767 21.3795573,6.6225586 C22.2023112,6.50046952 22.4938151,6.98828125 22.4938151,6.98828125 L22.9366861,6.31705729 L21.6279297,6.31705729 L24,4 L24.3089193,6.98828125 L23.5063476,6.31705729 C23.5063476,6.31705729 23.1466472,7.4375 23.1466472,7.4375 C24,10.0455729 20.0598959,10.5999349 20.0598959,10.5999349 L22.4938151,12.2265625 L21.6279297,12.4750977 L21.3795573,14.9135743 L22.4938151,15.8194987 L21.0291341,15.4352213 L18.1544596,16.0911459 L18.7263997,15.1944987 L17.5226237,15.4352213 L18.3266601,14.6666667 L17.5226237,14.3116861 L18.5504557,14.0262044 L19.8453776,14.9135743 C19.8453776,14.9135743 20.4858805,14.0843959 20.5568033,13.6433919 C20.6299235,13.1887252 20.2775065,12.2265625 20.2775065,12.2265625 C20.2775065,12.2265625 18.3698751,12.1864994 17.6969401,12.019694 C17.0240052,11.8528887 16.6352539,11.3237305 16.6352539,11.3237305 L15.8712565,12.2265625 C15.8712565,12.2265625 18.5334589,13.2241504 17.8683268,13.6433919 C17.7138684,13.7407491 16.9516601,13.4550781 16.9516601,13.4550781 C16.9516601,13.4550781 15.6398056,14.9890441 14.8001303,15.1944987 C14.4180151,15.2879959 15.8712565,15.8194987 15.8712565,15.8194987 C15.8712565,15.8194987 14.6303483,15.6229345 14,15.4352213 C13.3399295,15.2386572 11.4031575,15.8194987 11.4031575,15.8194987 L10.7550456,15.1944987 Z M21.4487305,8.07014973 C21.6328253,8.07014973 21.7820639,7.92091132 21.7820639,7.7368164 C21.7820639,7.55272149 21.6328253,7.40348307 21.4487305,7.40348307 C21.2646356,7.40348307 21.1153972,7.55272149 21.1153972,7.7368164 C21.1153972,7.92091132 21.2646356,8.07014973 21.4487305,8.07014973 Z"/>
  </g>
</svg>
