<svg xmlns="http://www.w3.org/2000/svg" width="17" height="17" viewBox="0 0 17 17">
  <path d="M17,8.5 C16.9984644,5.40211393 15.3329995,2.55039103 12.6531646,1.05705128 C12.6188677,1.02972866 12.5803257,1.00836927 12.5391139,0.993846154 C9.9383769,-0.402857704 6.80524682,-0.317361634 4.2825371,1.21914956 C1.75982739,2.75566075 0.21638775,5.51853113 0.215189873,8.5 C0.215189873,8.55666667 0.215189873,8.61333333 0.215189873,8.67 C0.208707464,8.71407307 0.208707464,8.75887565 0.215189873,8.80294872 C0.323267518,11.8177309 2.00097626,14.5486181 4.62360252,15.9787339 C7.24622878,17.4088498 10.4207851,17.3238986 12.9651899,15.7555128 C12.9940277,15.741958 13.0208322,15.7243484 13.0448101,15.7032051 C15.5012842,14.1534484 16.9960575,11.4311621 17,8.5 Z M12.7134177,14.8902564 C11.630712,14.5059805 10.604282,13.9751888 9.66202532,13.3123077 C7.9835443,12.1484615 6.67088608,10.71 6.1243038,9.47858974 C6.84434574,9.19192841 7.60061095,9.00924233 8.37088608,8.93589744 C9.13265823,10.1237179 10.6992405,11.479359 12.6316456,12.6083333 C13.1741353,12.9272665 13.7321884,13.2182357 14.3036709,13.4801282 C13.8409979,14.022871 13.3057422,14.4974993 12.7134177,14.8902564 L12.7134177,14.8902564 Z M9.02075949,16.1282051 C8.22896989,15.7171911 7.47870071,15.2288481 6.78063291,14.6701282 C5.17746835,13.4626923 3.94443038,11.985 3.49683544,10.7470513 L3.50759494,10.7470513 C4.09518881,10.3998037 4.70154096,10.086192 5.32379747,9.80769231 C5.92632911,11.2091026 7.33367089,12.7630769 9.1756962,14.0402564 C9.97475987,14.5972737 10.8277198,15.0704809 11.7213924,15.4525641 C10.8704114,15.8456619 9.95458232,16.0747829 9.02075949,16.1282051 Z M1.08670886,8.90974359 C1.95710739,8.15013623 2.92579317,7.5143979 3.96594937,7.02012821 C5.81012658,6.12871795 7.69088608,5.68846154 9.0121519,5.83230769 C8.89455555,6.60405238 8.67073242,7.35529275 8.34721519,8.06410256 C6.95063291,8.13820513 5.00962025,8.83564103 3.07721519,9.96679487 C2.53647753,10.2868469 2.01217084,10.6345615 1.50632911,11.0085897 C1.26971175,10.3324384 1.1284467,9.62586241 1.08670886,8.90974359 Z M1.89367089,5.05205128 C2.64119271,4.56383051 3.43398098,4.15067509 4.26075949,3.81846154 C6.08772152,3.01423077 7.96202532,2.67423077 9.25317069,2.89871795 L9.25317069,2.91179487 C9.25373215,3.59930533 9.21493283,4.28627057 9.13696203,4.96923077 C7.63063291,4.79705128 5.6056962,5.25474359 3.59367089,6.23333333 C2.71715714,6.65435972 1.88573411,7.16559789 1.11253165,7.75897436 C1.20262864,6.81496372 1.46763635,5.8966185 1.89367089,5.05205128 L1.89367089,5.05205128 Z M12.0183544,1.70217949 C12.2311612,2.8447024 12.2905171,4.01111605 12.1948101,5.16974359 C12.0398734,7.22282051 11.4696203,9.09282051 10.688481,10.1825641 C10.0860072,9.69274404 9.55433187,9.11977126 9.10898734,8.48038462 C9.73949367,7.225 10.1139241,5.17192308 10.1139241,2.91179487 C10.1143768,2.27634482 10.0827744,1.64128628 10.0192405,1.00910256 C10.7146721,1.14301459 11.387777,1.37637471 12.0183544,1.70217949 Z M14.8481013,12.7717949 C14.5167089,12.6257692 14.1810127,12.4644872 13.8453165,12.2879487 C14.7426582,11.1219231 15.405443,9.23666667 15.6486076,7.1225641 C15.6894937,6.75205128 15.7260759,6.40769231 15.7518987,6.07641026 C16.499738,8.32867186 16.1653962,10.8054956 14.8481013,12.7717949 Z M14.9191139,4.33717949 C14.9618444,5.2342749 14.9193282,6.13345337 14.7921519,7.02230769 C14.5618987,9.03397436 13.9141772,10.8516667 13.0706329,11.8673077 L13.0577215,11.8673077 C12.4696162,11.5232562 11.901314,11.1455947 11.3555696,10.7361538 C12.2658228,9.5025641 12.8834177,7.48871795 13.0534177,5.23076923 C13.130974,4.25324208 13.1093418,3.27023614 12.9888608,2.29717949 C13.7493646,2.85129758 14.4022961,3.54289427 14.9148101,4.33717949 L14.9191139,4.33717949 Z M8.60759494,0.871794872 C8.78620253,0.871794872 8.96481013,0.871794872 9.14126582,0.893589744 C9.1821519,1.25974359 9.21227848,1.6324359 9.22949367,2.01384615 C7.78341772,1.81115385 5.84455696,2.17076923 3.9121519,3.01858974 C3.57860759,3.16461538 3.26658228,3.30410256 2.97392405,3.45448718 C4.39849629,1.81415338 6.45065012,0.873366807 8.60759494,0.871794872 L8.60759494,0.871794872 Z M1.83556962,11.8367949 C2.12248945,11.6159402 2.42734177,11.4023504 2.75012658,11.1960256 C3.30101266,12.5669231 4.57708861,14.0882051 6.26848101,15.3610256 C6.56329114,15.5789744 6.84303797,15.7969231 7.11417722,15.9778205 C4.81564626,15.5015951 2.86556084,13.9717686 1.83556962,11.8367949 L1.83556962,11.8367949 Z"/>
</svg>
