<?xml version="1.0"?>
<svg xmlns="http://www.w3.org/2000/svg"
  xmlns:xlink="http://www.w3.org/1999/xlink"
  xmlns:svgjs="http://svgjs.com/svgjs" version="1.1" width="512" height="512" x="0" y="0" viewBox="0 0 512 512" style="enable-background:new 0 0 512 512" xml:space="preserve">
  <g>
    <g xmlns="http://www.w3.org/2000/svg">
      <g>
        <path d="M497,241c-8.291,0-15,6.709-15,15c0,90.981-75.019,165-166,165c-40.237,0-77.122-14.518-105.789-38.538    C224.574,387.682,239.856,391,256,391c107.52,0,195-87.48,195-195S363.52,0,256,0c-8.291,0-15,6.709-15,15s6.709,15,15,15    c90.981,0,165,75.019,165,166c0,40.237-14.518,77.122-38.538,105.789C387.682,287.426,391,272.144,391,256    c0-107.52-87.48-195-195-195S0,148.48,0,256c0,8.291,6.709,15,15,15s15-6.709,15-15c0-90.981,75.019-165,166-165    c40.237,0,77.122,14.518,105.789,38.538C287.426,124.318,272.144,121,256,121c-107.52,0-195,87.48-195,195s87.48,196,195,196    c8.291,0,15-6.709,15-15c0-8.291-6.709-15-15-15c-90.981,0-165-75.019-165-166c0-40.237,14.518-77.122,38.538-105.789    C124.318,224.574,121,239.856,121,256c0,107.52,87.48,195,195,195s196-87.48,196-195C512,247.709,505.291,241,497,241z M256,271    c24.814,0,45,20.186,45,45c0,24.814-20.186,45-45,45c-24.814,0-45-20.186-45-45C211,291.186,231.186,271,256,271z" data-original="#000000" style=""/>
      </g>
    </g>
    <g xmlns="http://www.w3.org/2000/svg">
    </g>
    <g xmlns="http://www.w3.org/2000/svg">
    </g>
    <g xmlns="http://www.w3.org/2000/svg">
    </g>
    <g xmlns="http://www.w3.org/2000/svg">
    </g>
    <g xmlns="http://www.w3.org/2000/svg">
    </g>
    <g xmlns="http://www.w3.org/2000/svg">
    </g>
    <g xmlns="http://www.w3.org/2000/svg">
    </g>
    <g xmlns="http://www.w3.org/2000/svg">
    </g>
    <g xmlns="http://www.w3.org/2000/svg">
    </g>
    <g xmlns="http://www.w3.org/2000/svg">
    </g>
    <g xmlns="http://www.w3.org/2000/svg">
    </g>
    <g xmlns="http://www.w3.org/2000/svg">
    </g>
    <g xmlns="http://www.w3.org/2000/svg">
    </g>
    <g xmlns="http://www.w3.org/2000/svg">
    </g>
    <g xmlns="http://www.w3.org/2000/svg">
    </g>
  </g>
</svg>
