<svg xmlns="http://www.w3.org/2000/svg" width="17" height="17"><path d="M16.175 1.725c0 .953-.772 1.726-1.725 1.726s-1.725-.773-1.725-1.726S13.496 0 14.45 0s1.725.773 1.725 1.725zm-.892 14.3c-.6.453-1.415.492-2.055.098L7.465 12.6a.86.86 0 0 0 .29-.068l4.046-1.8c.447-.198.748-.627.783-1.115s-.202-.955-.616-1.215L9.8 6.882c-.07-.045-.118-.118-.13-.2s.012-.167.067-.23l.42-.2-.18-.127a1.15 1.15 0 0 1-.469-.702l-.1-.512a1.15 1.15 0 0 1 .155-.866c.165-.266.426-.436.725-.5l.584-.127c.075-.016.153-.002.217.04s.1.107.125.182.003.152-.038.216-.106.108-.18.124l-.584.126a.58.58 0 0 0-.443.684l.112.512a.56.56 0 0 0 .233.35l.437.305.006-.003 2.042 1.423c.298.208.7.22 1.003.035.026.028.056.052.1.068l1.164.553a.29.29 0 0 0 .287-.023c.085-.058.132-.157.124-.26s-.07-.193-.163-.237l-1.156-.55a.86.86 0 0 0-.322-.975l-1.035-.722c-.047-.033-.07-.1-.06-.146s.055-.1.1-.112l.408-.086a.29.29 0 0 0 .22-.342l-.17-.797c-.087-.4-.286-.764-.575-1.053a2.01 2.01 0 0 0-2.692-.138L8.124 4.125c-.026-.034-.06-.062-.1-.08L4.64 2.432l.147-.3c.07-.142.013-.315-.13-.386s-.315-.013-.386.13l-.152.3-.907-.43c-.094-.053-.2-.05-.3.01s-.14.163-.13.27.08.2.18.238l.897.427-.168.335c-.07.142-.013.315.13.386s.315.013.386-.13l.173-.345 3.273 1.56-.6.496a1.53 1.53 0 0 0-.362.417 1.48 1.48 0 0 0-.155.673 1.61 1.61 0 0 0 .7 1.337l2.732 1.75a.29.29 0 0 1 .13.264c-.008.104-.073.197-.17.24L7.1 10.945c-.435.182-.654.67-.5 1.116.004.01.01.02.015.03l-3.95-2.407c-.088-.055-.198-.058-.3-.01a.28.28 0 0 0-.15.247c0 .104.05.2.14.253l10.563 6.442c.84.517 1.913.466 2.7-.13.127-.095.153-.276.058-.403s-.276-.153-.403-.057zM3.1 7.764a.29.29 0 0 0 .277-.208c.037-.123-.015-.255-.124-.323l-2.3-1.438C.807 5.7.63 5.752.546 5.887s-.043.313.092.397l2.3 1.438c.046.028.1.043.152.043zm-.44-1.482l2.3 1.438c.135.084.313.043.397-.092s.043-.313-.092-.397l-2.3-1.438c-.135-.084-.313-.043-.397.092s-.043.313.092.397z"/></svg>