<svg width="30" height="30" viewBox="0 0 30 30" xmlns="http://www.w3.org/2000/svg">
<g clip-path="url(#clip0)">
<path d="M4 12H9V15.793L7.14648 17.6465C7.05273 17.7402 7 17.8674 7 18V24.5C7 24.5574 7.01001 24.6143 7.02954 24.668L9.5 31.5859V33.5C9.5 33.7761 9.72388 34 10 34H16C16.2761 34 16.5 33.7761 16.5 33.5V26C16.5002 25.9324 16.4863 25.8652 16.4595 25.803L15.2581 23H20.5C20.7761 23 21 22.7761 21 22.5V12H26V8H27V4H3V8H4V12ZM15.5 33H10.5V32H15.5V33ZM15.5 31H10.3501L8 24.4136V18.207L9 17.207V22.5C9 22.7761 9.22388 23 9.5 23H11.5V25H12.5V20C12.5 19.7239 12.7239 19.5 13 19.5H13.5C13.7761 19.5 14 19.7239 14 20V22.5C13.9998 22.5676 14.0137 22.6348 14.0405 22.697L15.5 26.1025V31ZM20 22H15V20C15 19.1716 14.3284 18.5 13.5 18.5H13C12.6299 18.5012 12.2734 18.6404 12 18.8899V18H11V21H11.5V22H10V10H11V17H12V12.137C12.7563 13.0032 13.8501 13.5 15 13.5C16.1499 13.5 17.2437 13.0032 18 12.137V17H19V10H20V22ZM12.0415 10H17.9585C17.7156 11.4446 16.4648 12.5027 15 12.5027C13.5352 12.5027 12.2844 11.4446 12.0415 10ZM25 11H21V10H22V9H8V10H9V11H5V8H25V11ZM4 5H26V7H4V5Z"/>
<path d="M6 9H7V10H6V9Z"/>
<path d="M23 9H24V10H23V9Z"/>
<path d="M18 20H16V21H19V18H18V20Z"/>
<path d="M16.5 16C16.5 15.1716 15.8284 14.5 15 14.5C14.1716 14.5 13.5 15.1716 13.5 16C13.5 16.8284 14.1716 17.5 15 17.5C15.8284 17.5 16.5 16.8284 16.5 16ZM15 16.5C14.7239 16.5 14.5 16.2761 14.5 16C14.5 15.7239 14.7239 15.5 15 15.5C15.2761 15.5 15.5 15.7239 15.5 16C15.5 16.2761 15.2761 16.5 15 16.5Z"/>
</g>
<defs>
<clipPath id="clip0">
<rect width="30" height="30"/>
</clipPath>
</defs>
</svg>
