<svg xmlns="http://www.w3.org/2000/svg" xmlns:xlink="http://www.w3.org/1999/xlink" width="17" height="17"><defs><path id="A" d="M0 1.5h16.68v13.127H0z"/></defs><g fill-rule="evenodd"><mask id="B" ><use xlink:href="#A"/></mask><path fill-rule="nonzero" d="M2.505 7.573c.054-.35-.26-.673-.263-1.03s.192-.69.42-.95C2.834 5.4 3.905 2.9 5.13 2.74s1.096-.267 1.325 0c.42-.547.707-1.27 1.54-1.238.34.013.492.143.65.42.126.222.38.397.3.68.548-.18.98-.215 1.31.3.156.242.4.337.6.535.2.177.366.374.53.574.6.737.94 1.524 1.483 2.272.34.47.2.984.24 1.508l.097 1.924c-.002.368.018.467.285.71.223.205.417.247.7.356.222.088.482.222.64.407.09.107.127.238.228.343.083.086.215.116.23.256.035-.13.44.124.546.207.154.118.27.24.44.336.123.07.302.115.407.213.413.383-.208 1.396-.6 1.636-.15.09-.708.298-.87.166-.24-.194.084-.282.2-.403.178-.202.046-.543-.033-.78-.04-.125-.123-.356-.212-.45-.103-.107-.26-.067-.278-.227-.17.13-2.993-2.052-2.95-2.09-.272-.325-.308-.676-.395-1.088-.292.213-.818.807-.848 1.177-.036.44.41.626.535 1.013.15.468.115.944.315 1.41l.597 1.298c.043.126.14.178.008.308-.144.14-.582.07-.758.07-.452.006-1.117.115-1.543-.043-.538-.2.336-.444.504-.566.09-.065.375-.32.394-.44.022-.138-.234-.424-.304-.54.005-.024-1.26-2.375-1.206-2.7.045-.274.73-2.483 1.008-2.935.06-.097-.253-1.165-.305-1.225-.13-.15-.796.147-1.028.3-.245.16-.216.054-.477.02-.186-.025-.368.098-.556.06-.6-.116-.54-1.02-.912-1.346-.163.2-1.808 1.422-1.834 1.473.427.365.94.54 1.313.988L7.478 8.94c.1.17-.5 2.504-.59 3.118.243.028.012.47.117.675.102.2.5.375.707.448.176.066.568.157.604.394.045.294-2.503.17-2.627.02-.204-.245.076-.83.114-1.088.016-.11-.014-.246.016-.35.008-.028.09-.084.116-.087l.003-.17c.13-.633-.216-1.322-.048-1.945.043-.158.273-.488.187-.634-.054-.09-1.332-.713-1.482-.746-.2-.042-.148-.077-.218.11-.12.313-.112.75-.202 1.085-.203.757-.366 1.137-.993 1.627-.515.402-1.195.825-1.513 1.414-.195.36-.183.097.264.86s-.432.617-.712.478L.2 13.574c-.09-.137.283-.897.44-1.157l.866-1.5c.115-.23.355-.44.575-.57.134-.08.504-.127.524-.31" mask="url(#B)"/></g></svg>