<svg xmlns="http://www.w3.org/2000/svg" width="28" height="20" viewBox="0 0 28 20">
  <g fill="none">
    <rect width="28" height="20" fill="#009F60"/>
    <rect width="4" height="9.333" x="24" y="10.667" fill="#EA8B42"/>
    <rect width="4" height="9.333" x="20" y="10.667" fill="#1A1919"/>
    <rect width="4" height="9.333" x="16" y="10.667" fill="#DB3C36"/>
    <g fill="#EA8B42" transform="translate(14.667 2.667)">
      <path d="M6.34748571,0.817376344 C6.2556,0.819956989 6.18805714,0.788129032 6.16388571,0.734623656 C6.31371429,0.646709677 6.41502857,0.666322581 6.54068571,0.778322581 C6.56485714,0.690752688 6.54068571,0.593204301 6.48754286,0.534709677 C6.4344,0.476215054 6.39085714,0.476215054 6.31851429,0.471225806 C6.246,0.466408602 6.17348571,0.446967742 6.12514286,0.446967742 C6.05434286,0.290924731 5.87691429,0.356989247 5.70651429,0.420989247 C5.42948571,0.524903226 5.18057143,0.713634409 5.0688,0.902021505 C5.01771429,0.988215054 5.01154286,1.02210753 4.98017143,1.07096774 C5.00605714,1.06769892 5.00434286,1.06769892 5.02045714,1.05789247 C5.00108571,1.27243011 4.97537143,1.47062366 5.01394286,1.59741935 C4.96577143,1.78270968 5.00434286,1.89969892 5.06228571,1.95819355 C5.1204,2.01668817 5.1444,2.04111828 5.15417143,2.10941935 C5.16377143,2.17754839 5.19274286,2.24086022 5.24108571,2.27991398 C5.28942857,2.31896774 5.3184,2.37746237 5.3232,2.41169892 C5.328,2.44576344 5.47748571,2.59268817 5.54057143,2.63105376 C5.56474286,2.64550538 5.56954286,2.67492473 5.59868571,2.71380645 C5.53577143,3.0843871 5.78708571,3.45496774 5.72897143,3.82055914 C5.77251429,3.82537634 5.83045714,3.82055914 5.88857143,3.80593548 C5.93674286,4.11784946 5.96571429,4.26907527 5.6952,4.36163441 C5.42468571,4.45436559 5.27674286,4.54554839 5.35217143,4.64929032 C5.40531429,4.7224086 5.51537143,4.65875269 5.58411429,4.5956129 C5.63725714,4.54692473 5.7,4.50305376 5.74834286,4.48843011 C5.79668571,4.47380645 5.80645714,4.48843011 5.78211429,4.55174194 C5.75794286,4.61522581 5.62765714,4.75165591 5.62268571,4.81995699 C5.61788571,4.88825806 5.67582857,4.93694624 5.76771429,4.88326882 C5.85942857,4.8295914 5.94017143,4.6892043 5.96091429,4.60541935 C5.97531429,4.54692473 5.99965714,4.50787097 5.99468571,4.60541935 C5.98988571,4.70296774 5.93194286,4.87845161 6.0624,4.90769892 C6.19285714,4.93694624 6.2316,4.78090323 6.18805714,4.63948387 C6.14451429,4.49823656 6.13011429,4.42012903 6.14931429,4.37144086 C6.16868571,4.32258065 6.18805714,4.29350538 6.23622857,4.30795699 C6.28457143,4.32258065 6.38125714,4.30313978 6.37645714,4.2252043 C6.37148571,4.14726882 6.30394286,4.08378495 6.22662857,4.12765591 C6.14931429,4.17152688 6.09137143,4.16498925 6.12514286,4.06916129 C6.14931429,4.00086022 6.19285714,3.91793548 6.19765714,3.86443011 C6.2508,3.94236559 6.55028571,3.95217204 6.67114286,3.87905376 C6.70011429,4.02529032 6.77742857,4.15690323 6.6084,4.29350538 C6.4392,4.42993548 6.30394286,4.56154839 6.30874286,4.65909677 C6.31371429,4.75664516 6.35228571,4.81496774 6.4392,4.76627957 C6.52611429,4.7175914 6.57925714,4.64929032 6.59862857,4.58597849 C6.618,4.52249462 6.65674286,4.52249462 6.63737143,4.60060215 C6.618,4.67853763 6.58422857,4.79070968 6.59862857,4.85901075 C6.6132,4.92713978 6.71948571,4.93212903 6.76285714,4.86864516 C6.8064,4.80533333 6.79662857,4.7224086 6.78702857,4.63948387 C6.77742857,4.55655914 6.792,4.46898925 6.8112,4.43475269 C6.83057143,4.40068817 6.86914286,4.35182796 6.90788571,4.44455914 C6.94662857,4.53711828 6.96582857,4.61023656 7.04314286,4.63466667 C7.12045714,4.65909677 7.1784,4.62486022 7.164,4.53230108 C7.14942857,4.43974194 7.04794286,4.3372043 6.94662857,4.25926882 C6.84514286,4.18133333 6.87891429,4.14227957 6.88371429,4.06916129 C6.88851429,3.99604301 6.87411429,3.86443011 6.86914286,3.80593548 C6.96102857,3.87423656 7.06251429,3.86443011 7.11068571,3.86443011 C7.15902857,3.86443011 7.2384,3.84946237 7.15902857,3.77668817 C6.9996,3.63045161 7.05274286,3.54253763 6.94165714,3.43535484 C6.83057143,3.32817204 6.72908571,3.16232258 6.69531429,3.02107527 C6.66137143,2.87965591 6.58697143,2.62124731 6.4392,2.48963441 C6.35708571,2.41651613 6.33291429,2.21660215 6.35228571,1.98744086 C6.37148571,1.75827957 6.37645714,1.50486022 6.16868571,1.38787097 C5.96091429,1.27088172 5.96571429,1.17333333 6.03342857,1.07096774 C6.10097143,0.968602151 6.18788571,0.868473118 6.29914286,0.861247312 C6.32417143,0.859698925 6.38194286,0.85488172 6.40542857,0.837677419 C6.39497143,0.829591398 6.378,0.816688172 6.34748571,0.817376344"/>
      <path d="M4.99628571 1.344C4.99114286 1.44309677 4.99354286 1.53032258 5.01394286 1.59741935 4.96577143 1.78270968 5.00434286 1.89969892 5.06228571 1.95819355 5.1204 2.01668817 5.1444 2.04111828 5.15417143 2.10941935 5.16377143 2.17754839 5.19274286 2.24086022 5.24108571 2.27991398 5.28942857 2.31896774 5.3184 2.37746237 5.3232 2.41169892 5.328 2.44576344 5.47748571 2.59268817 5.54057143 2.63105376 5.56474286 2.64550538 5.56954286 2.67492473 5.59868571 2.71380645 5.57245714 2.86778495 5.60005714 3.02176344 5.63777143 3.17539785 5.29628571 3.46133333 4.95925714 3.32645161 5.10102857 3.03397849 4.81748571 3.26141935 4.32805714 3.25505376 4.4376 3.03397849 3.99308571 3.19002151 3.85782857 3.05995699 3.91577143 2.91698925 3.54222857 3.06649462 3.34885714 2.92352688 3.40045714 2.81944086 3.0912 2.90391398 2.89148571 2.85195699 2.85925714 2.8 2.8272 2.74804301 2.90434286 2.63105376 2.97531429 2.57255914 2.83354286 2.62451613 2.69828571 2.62451613 2.56937143 2.60507527 2.44062857 2.58546237 2.47285714 2.5464086 2.49857143 2.48791398 2.52445714 2.42941935 2.55822857 2.33686022 2.66125714 2.24584946 2.41491429 2.29453763 2.10565714 2.32877419 1.88828571 2.25548387 1.84731429 2.24172043 1.7772 2.22623656 1.82057143 2.18253763 1.86411429 2.13866667 1.99457143 2.03131183 2.154 1.96301075 1.7916 2.01668817 1.10554286 2.05574194.912342857 1.8363871 1.10074286 1.87526882 1.34228571 1.79733333 1.49691429 1.73402151.888171429 1.66572043.0572571429 1.24645161.0474857143.836989247.221485714 1.11965591.521142857 1.2172043.820628571 1.30494624.414685714 1.06597849.245657143.778322581.231257143.588215054.463028571.81255914.815657143 1.06597849 1.16365714 1.12464516.917142857.993032258.598285714.607827957.511371429.339612903.690171429.500473118 1.14908571.75888172 1.46314286.841806452 1.24577143.671139785.893142857.266494624.912342857.0423225806.994457143.125247312 1.19742857.28111828 1.6128.524903226 2.02834286.768688172 2.25377143.750795699 2.5968.823913978 2.53405714.73944086 2.47765714.627268817 2.47285714.598021505 2.57434286.612645161 2.67085714.651698925 2.96074286.832 3.25062857 1.01247312 3.88405714 1.06769892 4.24594286 1.22701075 4.51148571 1.344 4.89 1.27088172 4.99628571 1.344M7.18285714 3.84774194C7.1988 3.83501075 7.1988 3.81298925 7.15902857 3.77668817 6.9996 3.63045161 7.05274286 3.54253763 6.94165714 3.43535484 6.83057143 3.32817204 6.72908571 3.16232258 6.69531429 3.02107527 6.66137143 2.87965591 6.58697143 2.62124731 6.4392 2.48963441 6.35708571 2.41651613 6.33291429 2.21660215 6.35228571 1.98744086 6.36874286 1.79131183 6.37474286 1.57746237 6.24582857 1.44653763 6.48737143 1.37823656 6.70988571 1.36344086 6.78702857 1.44137634 7.188 1.33901075 7.536 1.30804301 7.87731429 1.28550538 8.27022857 1.25935484 9.01097143 1.0904086 9.53931429.732903226 9.50708571.862967742 9.32674286 1.05789247 9.1656 1.15544086 9.70028571 1.02537634 10.3445143.784860215 10.8920571.375397849 10.8855429.661505376 10.6537714.875870968 10.5183429.993032258 10.8920571.784860215 11.4394286.524903226 11.6262857.199913978 11.7084.532989247 11.1497143.968602151 10.8468 1.20911828 11.1560571 1.0596129 11.5554857.921462366 11.7101143.700387097 11.7068571.970150538 11.3557714 1.30494624 11.0208 1.49987097 11.3622857 1.36997849 11.7423429 1.23337634 11.9612571 1.03191398 11.9869714 1.30339785 10.9402286 1.92739785 10.4216571 2.09789247 10.8726857 1.98744086 11.4588 1.83793548 11.7164571 1.68189247 11.7036 1.73711828 11.5985143 1.81453763 11.5220571 1.87096774 11.2069714 2.10391398 10.7237143 2.22898925 10.4281714 2.28645161 10.4669143 2.44903226 10.4153143 2.54004301 10.2349714 2.55294624 10.0546286 2.56602151 9.61817143 2.49617204 9.39925714 2.38554839 9.36702857 2.40498925 9.32828571 2.41169892 9.28474286 2.41651613 9.49731429 2.57737634 9.56982857 2.69436559 9.52628571 2.76266667 9.48291429 2.83096774 9.33068571 2.81858065 9.2148 2.79432258 9.30651429 3.05273118 8.99965714 3.03569892 8.74371429 2.88929032 8.8452 3.02107527 8.85977143 3.13307527 8.71954286 3.16232258 8.57948571 3.19156989 8.46822857 3.18193548 8.33297143 3.09402151 8.32337143 3.19156989 8.22994286 3.25660215 8.106 3.22408602 8.53114286 3.48249462 8.50697143 3.57677419 8.43445714 3.67415054 8.36211429 3.77169892 8.1084 3.75225806 7.97314286 3.66451613 7.9152 3.86443011 7.68411429 3.86511828 7.51165714 3.70597849 7.51011429 3.78563441 7.34554286 3.94374194 7.18285714 3.84774194"/>
    </g>
  </g>
</svg>
