<svg xmlns="http://www.w3.org/2000/svg" width="21" height="20" viewBox="0 0 21 20">
  <g fill-rule="evenodd">
    <path d="M8.18539687,14.6950286 L8.18539687,9.32409499 L5.66362058,6.91241676 C5.65656363,6.91662633 5.64971629,6.92110316 5.64265935,6.92517909 C5.38979698,7.0701083 5.10500367,7.17120461 4.78799993,7.2284012 C4.47099619,7.28559779 4.1423939,7.30958561 3.80268216,7.30089922 L3.80268216,8.71110255 L6.22838612,8.71110255 L6.22838612,14.6950286 L8.18539687,14.6950286"/>
    <polyline points="8.185 6.438 8.185 5.469 7.172 5.469 8.185 6.438"/>
    <path fill-rule="nonzero" d="M14.4029882,8.79769926 C14.1272781,9.0043019 13.7826055,9.1075364 13.3691102,9.1075364 C12.9740608,9.1075364 12.6293184,9.0043019 12.3355117,8.79769926 C12.0414256,8.59116344 11.8944175,8.29014633 11.8944175,7.89471476 C11.8944175,7.68396938 11.9333355,7.49941682 12.0115209,7.34125756 C12.0895666,7.18309829 12.1976567,7.05139913 12.3355117,6.94582599 C12.4732969,6.8404533 12.6319036,6.75913524 12.8109824,6.70207229 C12.9901311,6.64494252 13.1762669,6.61634422 13.3691102,6.61634422 C13.6724892,6.61634422 13.918085,6.66031076 14.1065265,6.74817702 C14.2946186,6.83597646 14.4418364,6.94582599 14.5476207,7.07779242 C14.6531256,7.20942476 14.7243239,7.3479394 14.7612157,7.4928018 C14.7977581,7.63786465 14.8163438,7.77176882 14.8163438,7.89471476 C14.8163438,8.29014633 14.678349,8.59116344 14.4029882,8.79769926 Z M15.1884755,9.64776355 L15.1884755,9.62143708 C15.6570989,9.47223149 16.008479,9.22600551 16.2428257,8.88342733 C16.4771024,8.54058187 16.5942058,8.14087392 16.5942058,7.68396938 C16.5942058,7.45558392 16.5390778,7.19860017 16.4289614,6.91288449 C16.3185656,6.62743608 16.137181,6.35929365 15.8845981,6.10892493 C15.631596,5.85842257 15.2987316,5.64547218 14.8852363,5.46967285 C14.4718808,5.29394033 13.9664356,5.20594043 13.3691102,5.20594043 C12.9740608,5.20594043 12.5834832,5.25872701 12.1976567,5.36416652 C11.8117604,5.46967285 11.4648519,5.62769847 11.1572807,5.83864431 C10.8490807,6.04952333 10.5989433,6.31312211 10.4060301,6.62957427 C10.213047,6.94582599 10.1164157,7.31058789 10.1164157,7.72339226 C10.1164157,7.95425 10.1472287,8.17034085 10.2080163,8.37186529 L11.504818,9.61194886 C11.5155082,9.61488887 11.5254299,9.6186307 11.5360502,9.62143708 L11.5360502,9.64195034 L12.4831487,10.5474739 C12.746841,10.4231248 13.0460976,10.3595805 13.3830145,10.3595805 C13.6124003,10.3595805 13.8262748,10.3945933 14.0238693,10.4649532 C14.2213242,10.5353798 14.3960011,10.6362757 14.5476207,10.7681753 C14.6991006,10.8998744 14.8185097,11.056096 14.905988,11.2359712 C14.9931867,11.4162474 15.0368559,11.6161682 15.0368559,11.8358004 C15.0368559,12.0643863 14.9954924,12.2752654 14.9128353,12.4683039 C14.8723801,12.5629188 14.8234007,12.6503173 14.7666656,12.7312344 L16.0359383,13.9451252 C16.2968358,13.7317739 16.5134352,13.4773292 16.68385,13.1801876 C16.8905977,12.8200362 16.9940763,12.3939349 16.9940763,11.9016834 C16.9940763,11.3216325 16.8376356,10.8319201 16.525453,10.4320117 C16.212921,10.0322369 15.767355,9.77077631 15.1884755,9.64776355 L15.1884755,9.64776355 Z"/>
    <path d="M9.71682468,11.9148467 C9.71682468,12.4157846 9.82016357,12.8463626 10.027051,13.2065141 C10.2336589,13.5668659 10.5092991,13.8654776 10.8540415,14.1028167 C11.1984346,14.3399554 11.5888726,14.5136165 12.0252855,14.6233992 C12.4616285,14.7331151 12.9143912,14.7881067 13.3830145,14.7881067 C13.5478397,14.7881067 13.7114771,14.7799549 13.8738568,14.7641189 L9.89101254,10.9551333 C9.77551614,11.2400471 9.71682468,11.5596398 9.71682468,11.9148467"/>
    <path fill-rule="nonzero" d="M17.2622404,15.6590852 L4.47770379,3.43304657 C6.12288123,2.07175434 8.20083831,1.32893366 10.3983443,1.32886684 C12.8194368,1.32893366 15.0956871,2.23058179 16.8078008,3.86776739 C18.5197747,5.5050198 19.4626111,7.68176437 19.4624713,9.99702357 C19.4624713,12.0985306 18.6857178,14.085778 17.2622404,15.6590852 Z M10.3983443,18.6653808 C7.97718194,18.6653808 5.70100145,17.7636658 3.98895766,16.1264802 C2.27698375,14.4892946 1.33414741,12.3124832 1.33407753,9.99702357 C1.33414741,7.89565022 2.1109009,5.90840277 3.53444822,4.33502879 L16.3189848,16.561201 C14.6738772,17.9224933 12.5957105,18.6653808 10.3983443,18.6653808 Z M17.7509166,2.96571835 C13.6902363,-0.917502548 7.10652211,-0.917502548 3.04577197,2.96571835 C-1.01490831,6.84900606 -1.01483844,13.1451747 3.04577197,17.0285293 C7.10652211,20.9119506 13.6900966,20.911817 17.7507769,17.0285293 C21.8115969,13.1450411 21.8115969,6.84907287 17.7509166,2.96571835 L17.7509166,2.96571835 Z"/>
    <path d="M15.1488588 13.096865L16.0359383 13.9451252C16.2968358 13.7317739 16.5134352 13.4773292 16.68385 13.1801876 16.8095476 12.9611567 16.8964668 12.717403 16.9457257 12.4495279 16.3563657 12.6890052 15.7561757 12.9046283 15.1488588 13.096865M10.8540415 14.1028167C11.1984346 14.3399554 11.5888726 14.5136165 12.0252855 14.6233992 12.4616285 14.7331151 12.9143912 14.7881067 13.3830145 14.7881067 13.5478397 14.7881067 13.7114771 14.7799549 13.8738568 14.7641189L12.78527 13.7230875C12.1294628 13.8650099 11.47128 13.9815412 10.8151235 14.0745525 10.8282592 14.0838403 10.8406263 14.0937294 10.8540415 14.1028167"/>
    <path fill-rule="nonzero" d="M17.2622404,15.6590852 L4.47770379,3.43304657 C6.12288123,2.07175434 8.20083831,1.32893366 10.3983443,1.32886684 C12.8194368,1.32893366 15.0956871,2.23058179 16.8078008,3.86776739 C18.5197747,5.5050198 19.4626111,7.68176437 19.4624713,9.99702357 C19.4624713,12.0985306 18.6857178,14.085778 17.2622404,15.6590852 Z M10.3983443,18.6653808 C7.97718194,18.6653808 5.70100145,17.7636658 3.98895766,16.1264802 C2.27698375,14.4892946 1.33414741,12.3124832 1.33407753,9.99702357 C1.33414741,7.89565022 2.1109009,5.90840277 3.53444822,4.33502879 L16.3189848,16.561201 C14.6738772,17.9224933 12.5957105,18.6653808 10.3983443,18.6653808 Z M3.04577197,2.96571835 C-1.01490831,6.84900606 -1.01483844,13.1451747 3.04577197,17.0285293 C7.10652211,20.9119506 13.6900966,20.911817 17.7507769,17.0285293 C21.8115969,13.1450411 21.8115969,6.84907287 17.7509166,2.96571835 C13.6902363,-0.917502548 7.10652211,-0.917502548 3.04577197,2.96571835 Z"/>
    <path d="M3.04577197,17.0285293 C7.10652211,20.9119506 13.6900966,20.911817 17.7507769,17.0285293 C19.670826,15.1922915 20.6824851,12.8166952 20.786872,10.4118325 C20.3262838,10.7250774 19.8505336,11.0180094 19.3622766,11.2912969 C19.1106719,12.9076351 18.3893958,14.4131884 17.2622404,15.6590852 L14.7201317,13.2281632 C14.2311759,13.3734265 13.7380978,13.5036557 13.2431332,13.6197862 L16.3189848,16.561201 C14.6738772,17.9224933 12.5957105,18.6653808 10.3983443,18.6653808 C7.97718194,18.6653808 5.70100145,17.7636658 3.98895766,16.1264802 C3.30247722,15.4699221 2.74001742,14.7265669 2.31212875,13.9224069 C1.7363935,13.8072119 1.18699954,13.6694323 0.668278846,13.5108053 C1.1739337,14.7933854 1.96633825,15.9961842 3.04577197,17.0285293"/>
  </g>
</svg>
