<svg height="17" viewBox="0 0 17 17" width="17" xmlns="http://www.w3.org/2000/svg"><g transform="translate(2.5)"><path d="m11.4423077.34871795c0-.13076923-.0871795-.21794872-.2179487-.21794872-.1307693 0-.2179487.08717949-.2179487.21794872v9.43717949h-10.37435902v-9.50256411c0-.13076923-.08717948-.21794871-.21794872-.21794871-.13076923 0-.21794871.08717948-.21794871.21794871v9.69871795c0 .13076922.08717948.21794872.21794871.21794872h5.18717949v2.375641h-.45769231c-.13076923 0-.21794871.0871795-.21794871.2179487v3.8358975c0 .1307692.08717948.2179487.21794871.2179487h1.35128205c.13076924 0 .21794872-.0871795.21794872-.2179487v-3.8358975c0-.1307692-.08717948-.2179487-.21794872-.2179487h-.4576923v-2.375641h5.18717951c.1307692 0 .2179487-.0871795.2179487-.21794872zm-5.16538462 16.06282055h-.91538462v-3.4h.91538462z"/><path d="m7.21410256 6.66923077c.50128206-.50128205.87179488-1.17692308 1.00256411-1.87435898.13076923-.69743589.04358974-1.28589743-.26153846-1.59102564-.61025642-.61025641-2.35384616-.37051282-3.46538462.74102564-1.13333333 1.13333334-1.48205128 2.72435898-.74102564 3.46538462.26153846.26153846.65384615.39230769 1.06794872.39230769.76282051 0 1.67820512-.39230769 2.39743589-1.13333333zm-3.16025641.43589744c-.56666666-.56666667-.21794871-1.89615385.74102564-2.85512821.43589744-.43589744 1.04615385-.76282051 1.65641026-.89358974.17435898-.04358975.34871795-.04358975.50128205-.04358975.30512821 0 .56666667.06538462.6974359.19615385.19615385.19615385.26153846.65384615.1525641 1.19871795-.13076923.61025641-.43589743 1.22051282-.89358974 1.65641025-.95897436.95897436-2.28846154 1.30769231-2.85512821.74102565z"/><path d="m6.88717949 4.79487179-.13076923-.10897435.28333333-.28333334c.08717949-.08717948.08717949-.21794872 0-.3051282-.08717949-.08717949-.21794872-.08717949-.30512821 0l-.28333333.26153846-.13076923-.10897436c-.08717949-.08717949-.21794872-.08717949-.3051282 0-.08717949.08717949-.08717949.21794872 0 .30512821l.13076923.13076923-.32692308.32692307-.13076923-.13076923c-.08717949-.08717949-.21794872-.08717949-.30512821 0-.08717948.08717949-.08717948.21794872 0 .30512821l.13076923.13076923-.32692307.32692307-.13076923-.13076923c-.08717949-.08717948-.21794872-.08717948-.30512821 0-.08717949.08717949-.08717949.21794872 0 .30512821l.13076923.13076923-.28333333.28333333c-.08717949.08717949-.08717949.21794872 0 .30512821.04358974.04358974.10897436.06538461.1525641.06538461s.10897436-.02179487.1525641-.06538461l.28333334-.28333333.13076923.13076923c.04358974.04358974.10897436.06538461.1525641.06538461s.10897436-.02179487.1525641-.06538461c.08717949-.08717949.08717949-.21794872 0-.30512821l-.13076923-.13076923.32692308-.32692308.13076923.13076923c.04358974.04358975.10897436.06538462.1525641.06538462.04358975 0 .10897436-.02179487.15256411-.06538462.08717948-.08717948.08717948-.21794871 0-.3051282l-.13076924-.13076923.32692308-.32692308.13076923.13076923c.04358975.04358975.10897436.06538462.1525641.06538462.04358975 0 .10897436-.02179487.15256411-.06538462.08717948-.08717949.08717948-.23974359 0-.32692308z"/></g></svg>