<svg width="29" height="30" viewBox="0 0 29 30" fill="none" xmlns="http://www.w3.org/2000/svg">
<g clip-path="url(#clip0)">
<path d="M26.0856 3.17046H23.4272V2.38967C23.4272 1.46711 22.6766 0.716553 21.7541 0.716553C20.8315 0.716553 20.081 1.46711 20.081 2.38967V3.17046H10.7115V2.38967C10.7115 1.46711 9.96093 0.716553 9.03837 0.716553C8.11581 0.716553 7.36525 1.46711 7.36525 2.38967V3.1911C7.31785 3.17799 7.26816 3.17046 7.21657 3.17046H4.99444C3.45685 3.17046 2.20591 4.4214 2.20591 5.95899V15.4586C2.20591 15.7666 2.45565 16.0163 2.76362 16.0163C3.07158 16.0163 3.32132 15.7666 3.32132 15.4586V8.91484H23.4272C23.7352 8.91484 23.9849 8.66515 23.9849 8.35713C23.9849 8.04911 23.7352 7.79943 23.4272 7.79943H3.32132V5.95899C3.32132 5.03644 4.07189 4.28587 4.99444 4.28587H7.21657C7.26816 4.28587 7.31785 4.27829 7.36525 4.26524V4.98301C7.36525 5.90557 8.11581 6.65613 9.03837 6.65613C9.96093 6.65613 10.7115 5.90557 10.7115 4.98301V4.28587H20.081V4.98301C20.081 5.90557 20.8315 6.65613 21.7541 6.65613C22.6766 6.65613 23.4272 5.90557 23.4272 4.98301V4.28587H26.0856C27.0082 4.28587 27.7587 5.03644 27.7587 5.95899V27.1515C27.7587 27.7052 27.3083 28.1557 26.7545 28.1557C26.2008 28.1557 25.7503 27.7052 25.7503 27.1515V25.7088C25.7503 25.4008 25.5006 25.1511 25.1926 25.1511H18.7053C18.3974 25.1511 18.1476 25.4008 18.1476 25.7088C18.1476 26.0168 18.3974 26.2665 18.7053 26.2665H24.6349V27.1515C24.6349 27.5146 24.7268 27.8566 24.8884 28.1557H2.43886C1.88534 28.1557 1.43499 27.7054 1.43499 27.1518V26.2665H13.9179C14.2258 26.2665 14.4756 26.0168 14.4756 25.7088C14.4756 25.4008 14.2258 25.1511 13.9179 25.1511H8.34548C9.32001 24.3118 9.93885 23.0703 9.93885 21.6863C9.93885 19.1646 7.88732 17.1131 5.36565 17.1131C2.84398 17.1131 0.792459 19.1646 0.792459 21.6863C0.792459 23.0703 1.41129 24.3118 2.38583 25.1511H0.877287C0.569321 25.1511 0.31958 25.4008 0.31958 25.7088V27.1518C0.31958 28.3204 1.2703 29.2711 2.43886 29.2711H26.7545C27.9233 29.2711 28.8742 28.3203 28.8742 27.1515V5.95899C28.8742 4.4214 27.6232 3.17046 26.0856 3.17046ZM9.59608 4.98301C9.59608 5.29053 9.34589 5.54071 9.03837 5.54071C8.73085 5.54071 8.48067 5.29053 8.48067 4.98301V2.38967C8.48067 2.08215 8.73085 1.83197 9.03837 1.83197C9.34589 1.83197 9.59608 2.08215 9.59608 2.38967V4.98301ZM22.3118 4.98301C22.3118 5.29053 22.0616 5.54071 21.7541 5.54071C21.4466 5.54071 21.1964 5.29053 21.1964 4.98301V2.38967C21.1964 2.08215 21.4466 1.83197 21.7541 1.83197C22.0616 1.83197 22.3118 2.08215 22.3118 2.38967V4.98301ZM1.90787 21.6863C1.90787 19.7797 3.45902 18.2285 5.36565 18.2285C7.27228 18.2285 8.82343 19.7797 8.82343 21.6863C8.82343 23.5929 7.27228 25.1441 5.36565 25.1441C3.45902 25.1441 1.90787 23.5929 1.90787 21.6863Z"/>
<path d="M26.4378 7.96272C26.3341 7.85899 26.1902 7.79932 26.0435 7.79932C25.8968 7.79932 25.753 7.85899 25.6492 7.96272C25.5455 8.06646 25.4858 8.21035 25.4858 8.35702C25.4858 8.5037 25.5455 8.64759 25.6492 8.75132C25.753 8.85506 25.8968 8.91473 26.0435 8.91473C26.1902 8.91473 26.3341 8.85506 26.4378 8.75132C26.5415 8.64759 26.6013 8.5037 26.6013 8.35702C26.6013 8.21035 26.5416 8.06646 26.4378 7.96272Z"/>
<path d="M16.9756 25.3142C16.872 25.2105 16.7281 25.1514 16.5814 25.1514C16.4347 25.1514 16.2908 25.2105 16.1871 25.3142C16.0834 25.4185 16.0237 25.5618 16.0237 25.7085C16.0237 25.8558 16.0833 25.9991 16.1871 26.1034C16.2908 26.2071 16.4347 26.2662 16.5814 26.2662C16.7281 26.2662 16.872 26.2071 16.9756 26.1034C17.0794 25.9991 17.1391 25.8552 17.1391 25.7085C17.1391 25.5618 17.0794 25.4185 16.9756 25.3142Z"/>
<path d="M12.9376 17.6711C11.7691 17.6711 10.8184 18.6219 10.8184 19.7904C10.8184 20.959 11.7691 21.9097 12.9376 21.9097C14.1062 21.9097 15.0569 20.959 15.0569 19.7904C15.0569 18.6219 14.1062 17.6711 12.9376 17.6711ZM12.9376 20.7943C12.3841 20.7943 11.9338 20.344 11.9338 19.7904C11.9338 19.2369 12.3841 18.7866 12.9376 18.7866C13.4912 18.7866 13.9415 19.2369 13.9415 19.7904C13.9415 20.344 13.4912 20.7943 12.9376 20.7943Z"/>
<path d="M18.1427 17.6711C16.9742 17.6711 16.0234 18.6219 16.0234 19.7904C16.0234 20.959 16.9742 21.9097 18.1427 21.9097C19.3113 21.9097 20.262 20.959 20.262 19.7904C20.262 18.6219 19.3113 17.6711 18.1427 17.6711ZM18.1427 20.7943C17.5892 20.7943 17.1389 20.344 17.1389 19.7904C17.1389 19.2369 17.5892 18.7866 18.1427 18.7866C18.6962 18.7866 19.1466 19.2369 19.1466 19.7904C19.1466 20.344 18.6962 20.7943 18.1427 20.7943Z"/>
<path d="M23.348 17.6711C22.1795 17.6711 21.2288 18.6219 21.2288 19.7904C21.2288 20.959 22.1795 21.9097 23.348 21.9097C24.5166 21.9097 25.4673 20.959 25.4673 19.7904C25.4673 18.6219 24.5166 17.6711 23.348 17.6711ZM23.348 20.7943C22.7945 20.7943 22.3442 20.344 22.3442 19.7904C22.3442 19.2369 22.7945 18.7866 23.348 18.7866C23.9016 18.7866 24.3519 19.2369 24.3519 19.7904C24.3519 20.344 23.9016 20.7943 23.348 20.7943Z"/>
<path d="M7.73232 11.8706C6.56376 11.8706 5.61304 12.8213 5.61304 13.9899C5.61304 15.1585 6.56376 16.1092 7.73232 16.1092C8.90088 16.1092 9.85161 15.1585 9.85161 13.9899C9.85161 12.8213 8.90088 11.8706 7.73232 11.8706ZM7.73232 14.9938C7.1788 14.9938 6.72845 14.5434 6.72845 13.9899C6.72845 13.4364 7.1788 12.986 7.73232 12.986C8.28585 12.986 8.73619 13.4364 8.73619 13.9899C8.73619 14.5434 8.28585 14.9938 7.73232 14.9938Z"/>
<path d="M18.1427 11.8706C16.9742 11.8706 16.0234 12.8213 16.0234 13.9899C16.0234 15.1585 16.9742 16.1092 18.1427 16.1092C19.3113 16.1092 20.262 15.1585 20.262 13.9899C20.262 12.8213 19.3113 11.8706 18.1427 11.8706ZM18.1427 14.9938C17.5892 14.9938 17.1389 14.5434 17.1389 13.9899C17.1389 13.4364 17.5892 12.986 18.1427 12.986C18.6962 12.986 19.1466 13.4364 19.1466 13.9899C19.1466 14.5434 18.6962 14.9938 18.1427 14.9938Z"/>
<path d="M23.348 11.8706C22.1795 11.8706 21.2288 12.8213 21.2288 13.9899C21.2288 15.1585 22.1795 16.1092 23.348 16.1092C24.5166 16.1092 25.4673 15.1585 25.4673 13.9899C25.4673 12.8213 24.5166 11.8706 23.348 11.8706ZM23.348 14.9938C22.7945 14.9938 22.3442 14.5434 22.3442 13.9899C22.3442 13.4364 22.7945 12.986 23.348 12.986C23.9016 12.986 24.3519 13.4364 24.3519 13.9899C24.3519 14.5434 23.9016 14.9938 23.348 14.9938Z"/>
<path d="M12.9376 11.8706C11.7691 11.8706 10.8184 12.8213 10.8184 13.9899C10.8184 15.1585 11.7691 16.1092 12.9376 16.1092C14.1062 16.1092 15.0569 15.1585 15.0569 13.9899C15.0569 12.8213 14.1062 11.8706 12.9376 11.8706ZM12.9376 14.9938C12.3841 14.9938 11.9338 14.5434 11.9338 13.9899C11.9338 13.4364 12.3841 12.986 12.9376 12.986C13.4912 12.986 13.9415 13.4364 13.9415 13.9899C13.9415 14.5434 13.4912 14.9938 12.9376 14.9938Z"/>
<path d="M7.35305 20.3274C7.13521 20.1096 6.78218 20.1096 6.56429 20.3274L4.74806 22.1437L4.12739 21.523C3.90955 21.3052 3.55653 21.3052 3.33863 21.523C3.12085 21.7408 3.12085 22.0939 3.33863 22.3118L4.35371 23.3268C4.45834 23.4313 4.60016 23.4901 4.74806 23.4901C4.89597 23.4901 5.03779 23.4313 5.14242 23.3268L7.35305 21.1161C7.57083 20.8983 7.57083 20.5452 7.35305 20.3274Z"/>
</g>
<defs>
<clipPath id="clip0">
<rect width="28.5546" height="28.5546" transform="translate(0.31958 0.716553)"/>
</clipPath>
</defs>
</svg>
