<svg width="24" height="24" viewBox="0 0 24 24"
  xmlns="http://www.w3.org/2000/svg">
  <path d="M18.75 0H5.25C2.3505 0 0 2.3505 0 5.25V18.75C0 21.6495 2.3505 24 5.25 24H18.75C21.6495 24 24 21.6495 24 18.75V5.25C24 2.3505 21.6495 0 18.75 0ZM22.5 18.75C22.5 20.8211 20.8211 22.5 18.75 22.5H5.25C3.17892 22.5 1.5 20.8211 1.5 18.75V5.25C1.5 3.17892 3.17892 1.5 5.25 1.5H18.75C20.8211 1.5 22.5 3.17892 22.5 5.25V18.75Z" />
  <path d="M7.5 5.25H6C5.58577 5.25 5.25 5.58577 5.25 6V7.5C5.25 7.91423 5.58577 8.25 6 8.25H7.5C7.91423 8.25 8.25 7.91423 8.25 7.5V6C8.25 5.58577 7.91423 5.25 7.5 5.25Z" />
  <path d="M7.5 10.5H6C5.58577 10.5 5.25 10.8358 5.25 11.25V12.75C5.25 13.1642 5.58577 13.5 6 13.5H7.5C7.91423 13.5 8.25 13.1642 8.25 12.75V11.25C8.25 10.8358 7.91423 10.5 7.5 10.5Z" />
  <path d="M7.5 15.75H6C5.58577 15.75 5.25 16.0858 5.25 16.5V18C5.25 18.4142 5.58577 18.75 6 18.75H7.5C7.91423 18.75 8.25 18.4142 8.25 18V16.5C8.25 16.0858 7.91423 15.75 7.5 15.75Z" />
  <path d="M18.75 6H9.75V7.5H18.75V6Z" />
  <path d="M18.75 11.25H9.75V12.75H18.75V11.25Z" />
  <path d="M18.75 16.5H9.75V18H18.75V16.5Z"/>
</svg>
