<svg height="512pt" viewBox="-25 0 512 512" width="512pt" xmlns="http://www.w3.org/2000/svg"><path d="m320 30h-40v-30h-150v30h-40v60h230zm0 0"/><path d="m238.320312 300h-58.320312v-30h64v24.046875c20.363281-20.175781 46.65625-34.371094 76-39.707031v-134.339844h-230v262h111.773438c3.238281-31.359375 16.511718-59.78125 36.546874-82zm-58.320312-150h90v30h-90zm0 60h110v30h-110zm-30 90h-30v-30h30zm0-60h-30v-30h30zm0-60h-30v-30h30zm0 0"/><path d="m410 30h-60v222.058594c21.484375.582031 41.8125 5.871094 60 14.855468zm0 0"/><path d="m60 412v-382h-60v442h221.945312c-10.835937-17.851562-17.925781-38.21875-20.171874-60zm0 0"/><path d="m346 282c-63.410156 0-115 51.589844-115 115s51.589844 115 115 115 115-51.589844 115-115-51.589844-115-115-115zm45 130h-60v-70h30v40h30zm0 0"/></svg>