<svg width="16" height="16" viewBox="0 0 16 16" xmlns="http://www.w3.org/2000/svg" class="mr-2 fill-current">
                        <path
                          d="M10.8229 16H2.48962C1.47827 16 0.65625 15.178 0.65625 14.1666V5.16663C0.65625 4.15527 1.47827 3.33337 2.48962 3.33337H2.82288C3.09888 3.33337 3.32288 3.55737 3.32288 3.83337C3.32288 4.10938 3.09888 4.33337 2.82288 4.33337H2.48962C2.03027 4.33337 1.65625 4.70728 1.65625 5.16663V14.1666C1.65625 14.626 2.03027 15 2.48962 15H10.8229C11.2822 15 11.6562 14.626 11.6562 14.1666V13.8334C11.6562 13.5574 11.8802 13.3334 12.1562 13.3334C12.4323 13.3334 12.6562 13.5574 12.6562 13.8334V14.1666C12.6562 15.178 11.8342 16 10.8229 16Z"
                        ></path>
                        <path
                          d="M13.4896 12H6.48962C5.47827 12 4.65625 11.178 4.65625 10.1666V1.83337C4.65625 0.822021 5.47827 0 6.48962 0H13.4896C14.501 0 15.3229 0.822021 15.3229 1.83337V10.1666C15.3229 11.178 14.501 12 13.4896 12ZM6.48962 1C6.03027 1 5.65625 1.37402 5.65625 1.83337V10.1666C5.65625 10.626 6.03027 11 6.48962 11H13.4896C13.949 11 14.3229 10.626 14.3229 10.1666V1.83337C14.3229 1.37402 13.949 1 13.4896 1H6.48962Z"
                        ></path>
                      </svg>