<svg xmlns="http://www.w3.org/2000/svg" xmlns:xlink="http://www.w3.org/1999/xlink" version="1.1" id="Capa_1" x="0px" y="0px" viewBox="0 0 50 50" style="enable-background:new 0 0 50 50;" xml:space="preserve">
<g>
	<circle class="st0" cx="24.8" cy="15.9" r="7.4"/>
	<path class="st0" d="M35.3,44H14.9c-1.9,0-3.5-2.1-3.5-4.6c0-7.2,3.4-13.4,8.3-15.9c1.5,1.3,3.3,2.1,5.2,2.1c2,0,3.9-0.8,5.4-2.3   c5,2.4,8.5,8.7,8.5,16C38.8,41.9,37.2,44,35.3,44z"/>
	<circle class="st0" cx="40.1" cy="11.3" r="5.3"/>
	<path class="st0" d="M47.5,31.3H33c-1.4,0-2.5-1.5-2.5-3.3c0-5.1,2.4-9.5,5.9-11.3c1,0.9,2.3,1.5,3.7,1.5c1.4,0,2.7-0.6,3.8-1.6   C47.5,18.3,50,22.8,50,28C50,29.8,48.9,31.3,47.5,31.3z"/>
	<circle class="st0" cx="9.5" cy="11.3" r="5.3"/>
	<path class="st0" d="M17,31.3H2.5C1.1,31.3,0,29.8,0,28c0-5.1,2.4-9.5,5.9-11.3c1,0.9,2.3,1.5,3.7,1.5c1.4,0,2.7-0.6,3.8-1.6   c3.6,1.7,6.1,6.2,6.1,11.4C19.5,29.8,18.3,31.3,17,31.3z"/>
</g>
<style type="text/css">
	path{fill:#293141;}
</style>
<div xmlns="" id="divScriptsUsed" style="display: none"/><script xmlns="" id="globalVarsDetection" src="chrome-extension://cmkdbmfndkfgebldhnkbfhlneefdaaip/js/wrs_env.js"/></svg>