<svg id="Capa_1" enable-background="new 0 0 512 512" height="512" viewBox="0 0 512 512" width="512" xmlns="http://www.w3.org/2000/svg"><g id="XMLID_1431_"><g id="XMLID_793_"><path id="XMLID_796_" d="m478 20h-70c-5.522 0-10 4.478-10 10s4.478 10 10 10h70c7.72 0 14 6.28 14 14v198c0 7.72-6.28 14-14 14h-244v-161.719c0-5.522-4.477-10-10-10s-10 4.478-10 10v16.402c-24.2 9.585-40.515 33.1-40.515 59.649v85.668h-139.485c-7.72 0-14-6.28-14-14v-198c0-7.72 6.28-14 14-14h180v12.476c0 5.522 4.477 10 10 10s10-4.478 10-10v-12.476h84c5.522 0 10-4.478 10-10s-4.478-10-10-10h-284c-18.748 0-34 15.252-34 34v198c0 18.748 15.252 34 34 34h139.485v24.475l-44.437 25.656c-7.197-9.569-17.303-16.434-29.051-19.582-13.904-3.726-28.427-1.813-40.894 5.384s-21.384 18.818-25.109 32.723c-3.726 13.904-1.814 28.428 5.384 40.894 7.197 12.467 18.818 21.384 32.723 25.109 4.643 1.244 9.354 1.859 14.036 1.859 9.338 0 18.554-2.449 26.858-7.243l60.49-34.924v57.758c0 29.716 24.176 53.892 53.892 53.892 29.715 0 53.891-24.176 53.891-53.892 0-27.472-20.668-50.193-47.268-53.47v-39.227l102.894-59.412h141.106c18.748 0 34-15.252 34-34v-198c0-18.748-15.252-34-34-34zm-264 123.026v242.873c-7.616 1.952-14.583 5.537-20.515 10.35v-215.916c0-15.427 8.001-29.367 20.515-37.307zm-136.723 258.314c-8.744-2.343-16.053-7.951-20.579-15.791s-5.729-16.973-3.386-25.717 7.951-16.053 15.791-20.579c5.222-3.016 11.017-4.556 16.89-4.556 2.943 0 5.907.388 8.827 1.17 8.744 2.343 16.053 7.951 20.579 15.791s5.729 16.973 3.386 25.717-7.951 16.053-15.791 20.579c-7.838 4.525-16.972 5.73-25.717 3.386zm62.004-24.336c1.232-7.711.774-15.501-1.318-22.928l35.522-20.508v23.688zm121.987 61.104c0 18.688-15.204 33.892-33.891 33.892-18.688 0-33.892-15.204-33.892-33.892s15.204-33.892 33.892-33.892c18.687.001 33.891 15.205 33.891 33.892zm-27.268-115.79v-23.689l21.875-12.629h41.031z"/><path id="XMLID_822_" d="m110.978 191h-43.969c-5.523 0-10 4.478-10 10s4.477 10 10 10h43.968c5.523 0 10-4.478 10-10s-4.477-10-9.999-10z"/><path id="XMLID_823_" d="m110.978 143h-43.936c-5.523 0-10 4.478-10 10s4.477 10 10 10h43.936c5.523 0 10-4.478 10-10s-4.478-10-10-10z"/><path id="XMLID_824_" d="m176.959 105c0-5.522-4.477-10-10-10h-99.959c-5.523 0-10 4.478-10 10s4.477 10 10 10h99.958c5.524 0 10.001-4.478 10.001-10z"/><path id="XMLID_825_" d="m332.009 217.432c1.407.684 2.895 1.007 4.361 1.007 3.709 0 7.273-2.073 9.002-5.634l55.024-113.306c2.413-4.968.341-10.951-4.627-13.363-4.966-2.412-10.951-.342-13.363 4.627l-55.024 113.306c-2.413 4.967-.342 10.951 4.627 13.363z"/><path id="XMLID_828_" d="m383.086 191.734c0 17.645 14.355 32 32 32s32-14.355 32-32-14.355-32-32-32-32 14.356-32 32zm32-12c6.617 0 12 5.383 12 12s-5.383 12-12 12-12-5.383-12-12 5.383-12 12-12z"/><path id="XMLID_831_" d="m280.256 114.266c0 17.645 14.355 32 32 32s32-14.355 32-32-14.355-32-32-32-32 14.355-32 32zm44 0c0 6.617-5.383 12-12 12s-12-5.383-12-12 5.383-12 12-12 12 5.382 12 12z"/><path id="XMLID_832_" d="m363 40c2.63 0 5.21-1.07 7.069-2.931 1.861-1.859 2.931-4.439 2.931-7.069s-1.07-5.21-2.931-7.07c-1.859-1.861-4.439-2.93-7.069-2.93s-5.21 1.069-7.07 2.93-2.93 4.44-2.93 7.07 1.069 5.21 2.93 7.069c1.86 1.861 4.44 2.931 7.07 2.931z"/></g></g></svg>