<svg xmlns="http://www.w3.org/2000/svg" width="42" height="26" viewBox="0 0 42 26">
  <path d="M31.2857388,19.4285684 L31.2857388,21.1428561 C31.2857388,21.6116067 30.8973455,22 30.4285949,22 L11.5714296,22 C11.102679,22 10.7142857,21.6116067 10.7142857,21.1428561 L10.7142857,19.4285684 C10.7142857,18.9598178 11.102679,18.5714245 11.5714296,18.5714245 L30.4285949,18.5714245 C30.8973455,18.5714245 31.2857388,18.9598178 31.2857388,19.4285684 Z M31.2857388,12.5714173 L31.2857388,14.2857051 C31.2857388,14.7544556 30.8973455,15.142849 30.4285949,15.142849 L11.5714296,15.142849 C11.102679,15.142849 10.7142857,14.7544556 10.7142857,14.2857051 L10.7142857,12.5714173 C10.7142857,12.1026668 11.102679,11.7142735 11.5714296,11.7142735 L30.4285949,11.7142735 C30.8973455,11.7142735 31.2857388,12.1026668 31.2857388,12.5714173 Z M31.2857388,5.7142663 L31.2857388,7.42855406 C31.2857388,7.89730462 30.8973455,8.28569794 30.4285949,8.28569794 L11.5714296,8.28569794 C11.102679,8.28569794 10.7142857,7.89730462 10.7142857,7.42855406 L10.7142857,5.7142663 C10.7142857,5.24551574 11.102679,4.85712242 11.5714296,4.85712242 L30.4285949,4.85712242 C30.8973455,4.85712242 31.2857388,5.24551574 31.2857388,5.7142663 Z"/>
</svg>
