<svg xmlns="http://www.w3.org/2000/svg" width="42" height="27" fill-rule="nonzero"><path d="M16.43 14.43c2.84 0 5.143-2.304 5.143-5.143S19.27 4.144 16.43 4.144s-5.143 2.304-5.143 5.143 2.304 5.143 5.143 5.143zm12.43 10.286a.44.44 0 0 0 .429-.429V19.57H34a.44.44 0 0 0 .429-.429v-2.57a.44.44 0 0 0-.429-.429h-4.714V11.43a.44.44 0 0 0-.429-.429h-2.57a.44.44 0 0 0-.429.429v4.714h-4.714a.44.44 0 0 0-.429.429v2.57a.44.44 0 0 0 .429.429h4.714v4.714a.44.44 0 0 0 .429.429h2.57zm-6.58-.002c.804 0 1.634-.188 2.3-.67v-3.188h-3.43a1.73 1.73 0 0 1-1.714-1.714v-2.57a1.73 1.73 0 0 1 1.714-1.714h2.987c-.763-.857-1.768-1.286-2.906-1.286-.214 0-.362.094-.522.228-1.313 1.004-2.585 1.634-4.272 1.634s-2.96-.63-4.272-1.634c-.16-.134-.308-.228-.522-.228C7.7 13.57 7 18.22 7 21.246c0 2.183 1.433 3.47 3.576 3.47H22.28z"/></svg>