<svg xmlns="http://www.w3.org/2000/svg" xmlns:xlink="http://www.w3.org/1999/xlink" width="29" height="29" viewBox="0 0 29 29">
  <defs>
    <path id="quicklinks-coupon-check-a" d="M19.5602069,26.7769443 C18.898404,27.0566091 18.1351937,26.7468249 17.8555289,26.085022 C17.5758641,25.4232191 17.8856483,24.6600087 18.5474512,24.380344 C18.7432645,24.2975971 18.9364268,24.2088501 19.1266915,24.1142447 C21.1586556,23.1038894 22.8146909,21.4478672 23.8250627,19.4159112 C23.9194966,19.2259956 24.0080935,19.0331927 24.0907124,18.8377479 C24.3704573,18.1759789 25.1337051,17.8662871 25.7954742,18.1460319 C26.4572433,18.4257768 26.7669351,19.1890246 26.4871902,19.8507937 C26.3837847,20.0954115 26.272911,20.3366926 26.1547494,20.574327 C24.8919761,23.113887 22.8246587,25.181188 20.2850883,26.4439408 C20.0470173,26.5623171 19.8052862,26.6733787 19.5602069,26.7769443 Z M11.9757812,17.3537693 L19.1936129,9.90570457 C19.6078788,9.47882247 20.2795366,9.47882247 20.6938025,9.90570457 C21.1080685,10.3325867 21.1080685,11.0246993 20.6938025,11.4515814 L12.725876,19.6725846 C12.3116101,20.0994667 11.6399523,20.0994667 11.2256863,19.6725846 L8.30619748,16.6612079 C7.89193155,16.2343258 7.89193155,15.5422131 8.30619748,15.115331 C8.72046341,14.6884489 9.3921212,14.6884489 9.80638714,15.115331 L11.9757812,17.3537693 Z M27.5090039,14.7891446 C27.5090039,15.507612 26.926571,16.090045 26.2081035,16.090045 C25.4896361,16.090045 24.9072032,15.507612 24.9072032,14.7891446 C24.9072032,9.04140498 20.2477396,4.38194142 14.5,4.38194142 C8.75226041,4.38194142 4.09279685,9.04140498 4.09279685,14.7891446 C4.09279685,20.5368842 8.75226041,25.1963477 14.5,25.1963477 C15.2184674,25.1963477 15.8009004,25.7787807 15.8009004,26.4972481 C15.8009004,27.2157156 15.2184674,27.7981485 14.5,27.7981485 C7.31532551,27.7981485 1.49099606,21.9738191 1.49099606,14.7891446 C1.49099606,7.60447009 7.31532551,1.78014063 14.5,1.78014063 C21.6846745,1.78014063 27.5090039,7.60447009 27.5090039,14.7891446 Z"/>
  </defs>
  <use fill-rule="evenodd" xlink:href="#quicklinks-coupon-check-a"/>
</svg>
