<svg xmlns="http://www.w3.org/2000/svg"
  xmlns:xlink="http://www.w3.org/1999/xlink" width="30" height="30" viewBox="0 0 30 30">
  <defs>
    <path id="quicklinks-search-a" d="M19.7936705,13.7381073 C19.7936705,10.1850277 16.9022981,7.29365518 13.3492184,7.29365518 C9.79613879,7.29365518 6.90476629,10.1850277 6.90476629,13.7381073 C6.90476629,17.2911869 9.79613879,20.1825594 13.3492184,20.1825594 C16.9022981,20.1825594 19.7936705,17.2911869 19.7936705,13.7381073 Z M27.1587587,25.7063755 C27.1587587,26.7133212 26.3244323,27.5476476 25.3174867,27.5476476 C24.8283988,27.5476476 24.3536958,27.3462585 24.0228423,27.0010199 L19.0888086,22.0813712 C17.4057709,23.2465512 15.3918796,23.8651035 13.3492184,23.8651035 C7.75347762,23.8651035 3.22222222,19.3338481 3.22222222,13.7381073 C3.22222222,8.14236651 7.75347762,3.61111111 13.3492184,3.61111111 C18.9449592,3.61111111 23.4762146,8.14236651 23.4762146,13.7381073 C23.4762146,15.7807685 22.8576623,17.7946598 21.6924823,19.4776975 L26.626516,24.4117311 C26.9573696,24.7425847 27.1587587,25.2172877 27.1587587,25.7063755 Z"/>
  </defs>
  <use fill-rule="evenodd" xlink:href="#quicklinks-search-a"/>
</svg>
